<svg id="Capa_1" data-name="Capa 1" xmlns="http://www.w3.org/2000/svg" viewBox="0 0 587.16 540.28"><defs><style>.cls-1{fill:#ef6c6c;}</style></defs><title>Carrriito Compra Coral copia</title><path class="cls-1" d="M506.4,133.74c-1,0-2.6-.5-4.1-.5H179.7l-5.1-34.3a45.83,45.83,0,0,0-45.5-39.4H87.6a20.45,20.45,0,1,0,0,40.9h41.5a5.34,5.34,0,0,1,5.1,4.6l31.7,216.1a56.12,56.12,0,0,0,55.3,47.6h213a56.85,56.85,0,0,0,55.3-45.1l33.3-166.4A20.26,20.26,0,0,0,506.4,133.74Z"/><path class="cls-1" d="M267.49,477.91c27.47-31.21,12.38-65.29-18.58-83.64-15-8.91-35.09-7.65-49.11,2.65-10.83,7.95-16.27,20.37-17.63,33.47-1.18,11.41-1.26,24.74,5.19,34.67a27.46,27.46,0,0,0,3.22,4.06c8.54,8.94,20.8,15.69,32.24,20.13C239.6,495.76,255.59,491.3,267.49,477.91Z"/><path class="cls-1" d="M449.69,403.33c-31.43-27.23-65.39-11.88-83.5,19.23-8.79,15.1-7.38,35.14,3,49.09,8,10.77,20.5,16.11,33.6,17.37,11.43,1.09,24.75,1.06,34.63-5.46a28.2,28.2,0,0,0,4-3.25c8.87-8.61,15.53-20.92,19.88-32.39C467.75,431.09,463.17,415.13,449.69,403.33Z"/></svg>