<svg id="Capa_1" data-name="Capa 1" xmlns="http://www.w3.org/2000/svg" viewBox="0 0 274.6 341.58"><defs><style>.cls-1{fill:#fff;}</style></defs><title>icono Cordero_ blanco</title><path class="cls-1" d="M79.42,131.1c-6.92-2.17-27.76-4.2-14.35-15,4.66-3.75,9.86-4.94,13.92-9.89,3.06-3.73,4.84-8.07,6.65-12.41L90,96,84.8,108Z"/><path class="cls-1" d="M121.14,129.27a5.29,5.29,0,0,0,.89,0,15.46,15.46,0,0,0,6.13-2.28,6.6,6.6,0,0,0,3.15-7.27c-1.36-7-7.59-8.54-13.34-6.25a7.83,7.83,0,0,0-4.8,7,8,8,0,0,0,2.71,5.92C117.31,127.7,119.11,129.11,121.14,129.27Z"/><path class="cls-1" d="M144.9,127.89c10.24,5.07,20.77-11.82,8.93-14.86-5.18-1.32-18.43,9.09-9.11,14.8Z"/><path class="cls-1" d="M113.84,90.6q-.25.47-.54.9s-.39.54-.21.3,0,0,0,0l-.26.31a10.09,10.09,0,0,1-.72.74c-.12.11-.23.22-.36.32l-.21.18c-.28.24.23-.16,0,0a17.42,17.42,0,0,1-1.83,1.14l-.51.25c-.13.06-.67.28-.18.09l-1.08.41a19.11,19.11,0,0,1-2.22.59q-.56.12-1.11.21c-.11,0-.77.09-.22,0l-.61.07a28.74,28.74,0,0,1-4.82.06c-.38,0-.76-.06-1.14-.11l-.6-.07L97,96c-.77-.12-1.53-.27-2.29-.46s-1.38-.36-2.06-.59l-.92-.34c-.15-.06-.66-.17-.11,0a2.58,2.58,0,0,1-.51-.23A21.46,21.46,0,0,1,88.7,93q-.58-.37-1.14-.78c-.08-.06-.53-.4-.26-.19-.25-.19-.49-.38-.72-.58a24.2,24.2,0,0,1-2.07-2c-.31-.34-.62-.69-.91-1l-.41-.51c-.2-.25.16.22,0,0l-.27-.38A25.12,25.12,0,0,1,81.3,85c-.21-.38-.41-.77-.6-1.16-.11-.22-.22-.45-.32-.67l-.15-.35c.12.27,0,0,0-.12a27.3,27.3,0,0,1-1.5-5.39c.07.39,0,.12,0-.11s0-.39,0-.58c0-.39-.05-.78-.06-1.16a19.06,19.06,0,0,1,.08-2.27l.06-.59c0-.1,0-.2,0-.3s-.07.4,0,.17c.07-.42.13-.84.21-1.25q.24-1.15.57-2.28c.23-.75.49-1.5.78-2.24.06-.13.27-.65.09-.24.09-.18.17-.37.25-.56l.54-1.12a31.21,31.21,0,0,1,2.52-4.15l.38-.51a2.35,2.35,0,0,1,.19-.25s-.26.32,0,0l.8-1c.53-.62,1.08-1.21,1.65-1.79S87.83,56,88.45,55.5q.47-.41,1-.78c-.32.24,0,0,.14-.11l.56-.4a25.18,25.18,0,0,1,4.13-2.36l.14-.06.55-.22c.36-.14.74-.27,1.11-.39a19.67,19.67,0,0,1,2.26-.57l.5-.09c.23,0,.52-.07.12,0,.41,0,.82-.09,1.23-.11a18.77,18.77,0,0,1,2.25,0l.58.06.3,0s-.4-.06-.17,0c.41.08.83.14,1.24.23a16.18,16.18,0,0,1,2.25.68l.51.2c-.44-.18.12.06.24.11.39.18.77.38,1.15.59a2,2,0,0,0,3-1.73,17.24,17.24,0,0,1,0-2c0-.3,0-.6.08-.9,0-.57-.06.25,0-.09s.07-.41.11-.61a14.14,14.14,0,0,1,.44-1.7c.09-.31.2-.61.32-.91,0-.09.18-.45,0-.09.08-.18.16-.37.25-.55a19,19,0,0,1,2-3.24s.39-.5.12-.16L115,40c.2-.25.42-.51.63-.75q.69-.78,1.44-1.5c.43-.42.88-.83,1.34-1.22l.7-.58.43-.34c-.31.24.1-.09.17-.13A38.49,38.49,0,0,1,123,33.24c1.08-.65,2.19-1.25,3.32-1.81.58-.28,1.16-.56,1.74-.82l.86-.38c-.38.17.2-.08.23-.09l.53-.21a43.63,43.63,0,0,1,8.06-2.39l1.07-.19.48-.07.25,0q1.07-.12,2.13-.18a27,27,0,0,1,4,.13c.61.06-.4-.07.21,0l.56.09c.31.05.62.12.92.19a17.14,17.14,0,0,1,2,.56c.3.1.59.21.88.33-.39-.16.18.08.21.1l.34.16a17.32,17.32,0,0,1,2.08,1.21c.27.18.54.38.8.57s0,0,0,0l.39.31c.48.4,1,.81,1.41,1.24a31.24,31.24,0,0,1,2.71,2.93l.24.29,0,0,.23.3c.22.31.44.61.65.92.43.63.83,1.27,1.21,1.93s.72,1.32,1,2c0,0,.25.59.09.2l.21.52c.13.34.25.68.36,1a17.29,17.29,0,0,1,.53,2.09l.09.53c-.08-.46,0,.1,0,.16,0,.35.05.7.06,1s0,.69,0,1c0,.17,0,.34,0,.51,0,.48.06-.28,0,.15a13.69,13.69,0,0,1-.6,2.17,2,2,0,0,0,1.93,2.53,38.33,38.33,0,0,1,5.25,0l1.27.13c.14,0,.76.1.25,0l.63.1c.84.13,1.68.29,2.51.49s1.56.41,2.33.66l1.06.37.56.21.28.11.17.07.3.13.53.25c.37.18.74.36,1.1.56.68.36,1.35.76,2,1.18l.88.61.46.35c-.43-.33.12.1.21.17A22.35,22.35,0,0,1,187.16,61l.18.22c.18.21-.21-.29-.05-.06s.23.3.34.46c.24.33.47.67.7,1a22.78,22.78,0,0,1,1.16,2c.17.33.33.67.48,1l.12.28c.12.26-.12-.33,0-.06s.17.42.25.64a26,26,0,0,1,1.31,4.91c0,.22.06.44.1.66-.07-.42,0,.07,0,.22.06.48.1,1,.14,1.45.06,1,.08,1.91.07,2.86,0,.4,0,.79,0,1.18,0,.16,0,.31-.05.47s0,.34,0,.06,0,0,0,.13a14,14,0,0,1-.49,2c-.1.33-.22.66-.34,1l-.1.24s.17-.38.08-.18-.16.35-.25.53a16,16,0,0,1-1,1.8c-.19.29-.39.58-.59.86L189,85s.29-.36.07-.09l-.33.41c-.46.54-.95,1.06-1.46,1.56s-1.12,1-1.69,1.47c-.17.14.13-.1.14-.1l-.22.16-.45.33-1,.67a29.23,29.23,0,0,1-4,2.14l-.27.11c-.25.12.35-.13.09,0l-.47.19c-.37.15-.75.29-1.14.43-.72.25-1.45.48-2.18.68s-1.48.38-2.23.52c-.37.08-.75.14-1.12.2l-.49.08c-.37,0,.06,0,.11,0a2,2,0,0,1-.42.05,28.63,28.63,0,0,1-4.44.17l-1-.07-.54,0-.2,0c-.43-.05-.06-.09,0,0-.09-.11-.82-.13-1-.16l-1.09-.23a19.2,19.2,0,0,1-2-.59l-.47-.17c-.09,0-.53-.19-.23-.09s-.2-.1-.27-.13l-.5-.24a12.31,12.31,0,0,1-4.21-3.36l-.06-.07-.24-.31c-.15-.22-.29-.44-.43-.66a12.55,12.55,0,0,1-.75-1.4,2,2,0,0,0-2.74-.72,2.07,2.07,0,0,0-.72,2.74c-.14-.33.08.26.09.27,0,.18.09.36.14.54.13.52,0-.22,0,.09,0,.14,0,.28,0,.42s-.06.64,0,.14c0,.16-.06.32-.1.48s-.07.21-.1.32-.07.2,0,0l-.14.3c-.14.25-.29.48-.45.71-.3.45.27-.26-.11.14-.12.13-.23.26-.36.39s-.43.42-.65.62c0,0-.5.39-.17.14l-.46.33a26,26,0,0,1-4,2.17,30.45,30.45,0,0,1-3.83,1.36c-.7.2-1.41.37-2.12.5l-1.07.19-.15,0-.78.08a22.77,22.77,0,0,1-4.29,0l-.58-.07-.24,0q-.48-.08-1-.18a21.75,21.75,0,0,1-2.27-.63l-.93-.35c-.59-.23.33.17-.25-.11L127,96a20.48,20.48,0,0,1-2-1.15c-.18-.11-.35-.23-.52-.35l-.29-.2c.14.11.16.12,0,0-.31-.26-.61-.52-.9-.8-.55-.53-1.08-1.08-1.61-1.62a13.74,13.74,0,0,0-4-3.12,2,2,0,0,0-2.73.72,2,2,0,0,0,.71,2.74,6.89,6.89,0,0,1,.93.49l.44.3c.47.34-.27-.25.17.14.61.55,1.2,1.1,1.77,1.69a23.76,23.76,0,0,0,3.6,3.2,21.71,21.71,0,0,0,9.71,3.48,26.07,26.07,0,0,0,9.86-.89,28.77,28.77,0,0,0,9.08-4.15,10.31,10.31,0,0,0,3.53-4,7.34,7.34,0,0,0-.15-6.13l-3.46,2c3.28,7,11.19,9.77,18.45,9.54a32.11,32.11,0,0,0,18.69-6.68,20.59,20.59,0,0,0,5.92-7.12A19.9,19.9,0,0,0,195.89,74c-.46-7.25-3.38-14.29-9.07-19s-12.76-6.66-19.92-6.74c-.92,0-1.83,0-2.74.06l1.93,2.53c2.16-5.61-.18-11.92-3.43-16.6-3.36-4.84-8-9.1-13.85-10.55-6-1.49-12.45-.41-18.2,1.59a46.52,46.52,0,0,0-15,8.36c-4.91,4.21-8.6,10.19-8.08,16.86l3-1.73a19.38,19.38,0,0,0-10.37-2.43,22.88,22.88,0,0,0-9.93,3A32.32,32.32,0,0,0,76.43,65.63a25.17,25.17,0,0,0-1.86,10.11A25.45,25.45,0,0,0,78,87.25a26.43,26.43,0,0,0,8.86,9.28,24.36,24.36,0,0,0,9.42,3.35,29.65,29.65,0,0,0,10.83-.26,16,16,0,0,0,8.68-4.82,12.53,12.53,0,0,0,1.52-2.18,2,2,0,1,0-3.45-2Z"/><path class="cls-1" d="M182.9,92.46a73.35,73.35,0,0,1,4.22,14c.22,1.13.42,2.25.6,3.39l.12.84.06.43s.07.47,0,.27,0,.16,0,.16l.06.42c0,.36.09.71.13,1.07.27,2.32.47,4.64.63,7,.31,4.45.63,8.92.63,13.38,0,1.89-.06,3.79-.2,5.68-.07.95-.15,1.9-.26,2.85,0,.45-.1.9-.16,1.34,0,.12,0,.24,0,.36.05-.39,0-.07,0,0,0,.26-.07.53-.11.8a64.37,64.37,0,0,1-2.77,11.37q-.48,1.36-1,2.7c-.05.11-.1.22-.14.33,0-.07.14-.34,0,0l-.29.66c-.2.43-.4.87-.61,1.3a42,42,0,0,1-2.85,5c-.24.37-.49.74-.75,1.09-.13.2-.27.39-.41.57l-.21.29-.06.08c-.58.74-1.19,1.45-1.82,2.14s-1.3,1.36-2,2l-1.06.94-.46.37a2.11,2.11,0,0,1-.23.19c-.4.32.34-.25-.07.05a32.77,32.77,0,0,1-4.15,2.65c-.75.41-1.52.78-2.29,1.14l-.6.26c-.11.06-.69.29-.27.12l-1.23.5a61,61,0,0,1-10.72,2.95c-.94.17-1.88.33-2.82.47l-.71.11c-.06,0-.44.06-.18,0h-.09l-1.62.2q-2.87.31-5.76.47a106.1,106.1,0,0,1-11.28,0q-2.68-.15-5.37-.45l-1.18-.14-.63-.08h.07l-.38,0c-.79-.11-1.59-.24-2.38-.37a48.72,48.72,0,0,1-5.62-1.3c-1-.28-1.93-.6-2.87-.94l-1.33-.51-.71-.29c-.3-.12.25.11,0,0l-.44-.19a54.56,54.56,0,0,1-10.67-6.24l-.54-.41,0,0-.3-.24c-.43-.34-.85-.69-1.27-1-.78-.66-1.55-1.34-2.3-2.05a53.71,53.71,0,0,1-4.27-4.53c-.31-.36-.61-.73-.91-1.11a3.25,3.25,0,0,1-.23-.29l0-.05-.51-.68c-.6-.82-1.18-1.65-1.73-2.49a45.39,45.39,0,0,1-2.93-5.23,32.63,32.63,0,0,1-2.12-5.72c-.29-1.07-.53-2.16-.73-3.26q-.14-.75-.24-1.5c0,.32,0,0,0-.08s0-.26-.05-.4c0-.3-.07-.61-.1-.91a49.68,49.68,0,0,1-.18-6.57c0-1.14.12-2.29.23-3.43,0-.52.1-1,.16-1.57,0-.28.07-.56.1-.83s0,0,0,0l.09-.62c1.31-9,4.16-17.73,7.14-26.31l2.07-6A2,2,0,0,0,90.5,94,2.05,2.05,0,0,0,88,95.44c-3,8.67-6.17,17.31-8.13,26.29s-2.8,18.65-.25,27.67c2.35,8.28,7.57,15.75,13.8,21.6a55.82,55.82,0,0,0,22.14,12.87,64.51,64.51,0,0,0,11.11,2.06,102.8,102.8,0,0,0,11.1.62,87.35,87.35,0,0,0,23.6-2.87c7.19-2,14-5.31,19.11-10.87,5.47-5.95,8.87-13.56,10.79-21.35a75.36,75.36,0,0,0,1.88-12.13,96.75,96.75,0,0,0,0-11.92c-.49-9.72-1.13-19.51-3.91-28.89a72,72,0,0,0-2.55-7.13A2.05,2.05,0,0,0,184.29,90a2,2,0,0,0-1.39,2.46Z"/><path class="cls-1" d="M188.34,88.56l3.07-3.26c.21,2.47,8.41,8.43,10.67,10.67,4.18,4.16,8.12,7.31,11.7,11.75,8.5,10.55-11.18,28.63-21.45,20.34l-2-13.46-2.77-14.91-2.72-7.76Z"/><path class="cls-1" d="M192.3,82.47a129.18,129.18,0,0,1,17.57,13.79c5.67,5.1,11.13,10.44,16.68,15.69l1.86,1.76c.36.34.71.68,1,1l.38.43.17.21c.16.18-.14-.21.07.09a10.11,10.11,0,0,1,.58.87c.08.16.17.31.24.46l.09.2c.12.21-.08-.33,0-.1a7.49,7.49,0,0,0,.23.81c.08.35,0-.43,0,0,0,.14,0,.28,0,.42s0,.57,0,.2,0,.11-.06.19-.07.23-.1.34a1.15,1.15,0,0,0-.06.17c-.06.22.21-.39,0-.09s-.26.48-.42.71c0,.07-.31.38-.12.17l-.25.28a13.69,13.69,0,0,1-1.54,1.41l-.21.16-.51.36c-.36.25-.73.49-1.11.73-2.16,1.35-4.44,2.53-6.69,3.74-1.18.63-2.37,1.25-3.57,1.84l-2,.92-1,.44-.38.16-.39.17a44.29,44.29,0,0,1-9.22,2.76l-.52.09-.26,0c-.31.06.32,0,0,0s-.81.1-1.21.13a22.8,22.8,0,0,1-2.33.09,21.17,21.17,0,0,1-2.39-.17l-.14,0-.59-.11c-.39-.08-.77-.17-1.15-.27a16.49,16.49,0,0,1-2.18-.75,2,2,0,0,0-2.46,1.39,2.07,2.07,0,0,0,1.4,2.47c6.34,2.67,13.68,1.32,19.93-.95a104.43,104.43,0,0,0,15.16-7.36,33.39,33.39,0,0,0,4.79-3.17,10,10,0,0,0,2.8-3.34,6.49,6.49,0,0,0,.47-4.52,10.77,10.77,0,0,0-2.68-4.43c-1.23-1.34-2.64-2.55-4-3.81l-4.17-4c-2.94-2.8-5.88-5.6-8.87-8.35a164.08,164.08,0,0,0-18.7-15.29q-1.11-.75-2.25-1.47a2,2,0,0,0-2.73.72,2.05,2.05,0,0,0,.71,2.74Z"/><path class="cls-1" d="M126.9,154.1c1.67,3.8,5.69,5.73,9.66,6,3.61.22,7.71-1,9.94-4a6.52,6.52,0,0,0,.92-5.73,2,2,0,0,0-3.86,1.07c.05.17.09.35.14.52.12.52,0-.45,0,.08,0,.13,0,.26,0,.39s0,.19,0,.29c0,.3-.18.14,0-.16a4.08,4.08,0,0,0-.21.8c-.1.33.21-.38.08-.18a2,2,0,0,0-.11.2c-.07.14-.15.27-.23.4s-.15.16-.16.22.34-.39.14-.18-.21.24-.32.35a3,3,0,0,1-.32.3l-.19.16c-.25.23.4-.27.09-.07s-.51.34-.78.49-.31.17-.47.25a1.63,1.63,0,0,0-.19.09c-.34.17.47-.18,0,0A12,12,0,0,1,139,156l-.29.05c-.23,0-.24.15.13,0a1.87,1.87,0,0,1-.53.05,11.62,11.62,0,0,1-1.18,0c-.38,0-.75,0-1.13-.07s.15,0,.18,0a2.25,2.25,0,0,1-.36-.06l-.58-.11c-.36-.09-.73-.19-1.08-.31-.17,0-.33-.12-.5-.18-.38-.14.34.17.1,0s-.25-.12-.37-.18a10.33,10.33,0,0,1-1.1-.66.85.85,0,0,1-.19-.14c.29.36.19.15,0,0l-.48-.43-.44-.48s-.3-.33-.06-.08,0-.08-.09-.14a7.71,7.71,0,0,1-.69-1.26,2,2,0,0,0-2.74-.72,2.06,2.06,0,0,0-.71,2.74Z"/><path class="cls-1" d="M134.86,159.63a22.4,22.4,0,0,0-.62,6.52,2,2,0,0,0,4,0,21,21,0,0,1,.16-4l-.07.53a19.25,19.25,0,0,1,.38-2,2,2,0,0,0-3.85-1.07Z"/><path class="cls-1" d="M75.31,82.06c-7.92,2-12.42,10-16.78,16.25-.52.74-1.05,1.48-1.6,2.21l-.13.17-.08.1c-.14.18-.28.36-.43.53-.28.35-.56.69-.86,1a21.88,21.88,0,0,1-1.86,1.87l-1,.86-.49.4-.35.27c-3,2.32-6.34,4.48-8.52,7.7a13.37,13.37,0,0,0-1.51,10.76A11.63,11.63,0,0,0,46.37,131a17.57,17.57,0,0,0,7.2,2.64,57.61,57.61,0,0,0,8.7.65c2.77,0,5.54,0,8.31.16.62,0,1.25.08,1.87.14l.42.05.24,0c-.41-.06.1,0,.18,0l.48.08c.54.1,1.08.21,1.6.36.24.06.48.14.72.22l.36.13.16.06c.28.1-.42-.19-.21-.09a12,12,0,0,1,1.22.66,2,2,0,0,0,2.73-.72,2,2,0,0,0-.72-2.73,15,15,0,0,0-6.66-2,70.07,70.07,0,0,0-7.67-.33c-2.76,0-5.52,0-8.27-.25l-1-.1-.46,0-.23,0c-.22,0-.38-.15.07,0a14.48,14.48,0,0,0-1.88-.33c-.6-.12-1.2-.27-1.79-.45l-.8-.26-.38-.14-.24-.1c-.36-.14.13,0,.15.07,0-.1-.67-.31-.78-.37s-.49-.26-.73-.41-.47-.3-.7-.46l-.15-.11c-.2-.13.34.3.17.13s-.25-.2-.37-.31l-.56-.53-.29-.33c-.06-.07-.38-.47-.15-.17s-.07-.1-.11-.16-.17-.24-.25-.37-.29-.5-.42-.76-.14-.28-.21-.42.18.47,0,0c-.11-.31-.22-.63-.31-1s-.15-.6-.21-.91c0-.16-.06-.32-.09-.48-.1-.56,0,.36,0-.21a15.15,15.15,0,0,1-.07-2.43c0-.21,0-.43.06-.64-.06.5,0-.11.06-.24a10.23,10.23,0,0,1,.37-1.31c0-.09.08-.18.11-.27-.15.42-.07.16,0,.07l.26-.53a11.59,11.59,0,0,1,.69-1.12l.17-.24c.27-.4-.2.23,0,0l.38-.46c.29-.34.6-.67.92-1,.63-.61,1.29-1.18,2-1.73l.5-.39.24-.2c.25-.2-.37.29,0,0s.71-.55,1.08-.82c1.54-1.16,3.11-2.31,4.55-3.61a30.54,30.54,0,0,0,3.61-4.09c2.31-3,4.3-6.25,6.6-9.27l.2-.27c.2-.27-.29.36.05-.06l.42-.53c.31-.38.63-.77,1-1.14.6-.7,1.23-1.37,1.9-2,.3-.29.62-.58.94-.85l.48-.4c.29-.23,0,0,0,0l.37-.27a14.77,14.77,0,0,1,2.22-1.35l.55-.26c-.45.22.09,0,.22-.08a11.66,11.66,0,0,1,1.31-.4,2,2,0,0,0-1.07-3.86Z"/><path class="cls-1" d="M78.49,61.59C67.74,56.49,57,66.28,51,74.28a39.63,39.63,0,0,0-7.31,15.87,41.08,41.08,0,0,0-.8,11.17,42.78,42.78,0,0,0,.73,5.42,7.27,7.27,0,0,0,.17.81c0-.14-.06-.08,0,0s.08-.25,0-.15-.09.06,0,0c-.21.11-.39.25-.61.35-1.39.63-3.68.62-5.39,1.08a20.83,20.83,0,0,0-8.75,5.34,43.55,43.55,0,0,0-10.41,17c-4.29,12.32-3.63,26.71,2.57,38.27C27,180.05,37.92,188.85,50.6,187a24.29,24.29,0,0,0,4.67-1.21l-1.54-3.65c-1.67,1-1.77,4.13-2,5.8-.39,2.3-.72,4.6-1,6.91a40,40,0,0,0,4.62,24.86,37.63,37.63,0,0,0,37.6,18.89,32.72,32.72,0,0,0,20.43-11h-2.83c4.65,4.05,8.49,8.89,12.85,13.22A41.47,41.47,0,0,0,138,250.61c9.75,3.63,22.37,3.13,29.41-5.49a33.93,33.93,0,0,0,4.54-8c1.24-2.78,2.41-5.86,4.41-8.19a3.87,3.87,0,0,1,1.74-1.24,2.91,2.91,0,0,1,.7.11,6.79,6.79,0,0,1,1.49.88c1.92,1.39,3.56,3.19,5.71,4.26a23.46,23.46,0,0,0,16.73,1.47A26.94,26.94,0,0,0,216,225a46.72,46.72,0,0,0,8.33-18.26A54.58,54.58,0,0,0,225.81,196c.08-2.71-.62-5.22-.87-7.89a7.8,7.8,0,0,1,0-1.74c0-.21.14-.58.13-.56a1.87,1.87,0,0,1,.38-.33,7.83,7.83,0,0,1,1.11-.6,39.16,39.16,0,0,1,6.85-1.86,28.94,28.94,0,0,0,6-1.77,29.46,29.46,0,0,0,7.59-5.42c9.85-9.46,12.58-23.89,10.62-37a40.19,40.19,0,0,0-7.42-18.45,33.22,33.22,0,0,0-6.79-6.71,25.92,25.92,0,0,0-7.67-3.61c-2.07-.69-4.32-1.55-4.88-3.87-.61-2.55.32-5.42.83-7.91a23.68,23.68,0,0,0,.28-8.84,27.54,27.54,0,0,0-3.62-9.57,44.76,44.76,0,0,0-28.58-20.14,33.55,33.55,0,0,0-8.54-.65c-2.56.14-2.58,4.15,0,4,11.36-.66,22.56,5.44,30,13.79,3.91,4.4,7,9.92,7.13,15.93.15,5.32-3.19,10.89-.72,16.07,1.17,2.45,3.58,3.77,6,4.67s4.71,1.47,6.84,2.91a30.28,30.28,0,0,1,11.11,14.68c4.36,11.8,3.82,26.46-3.33,37.07a29.47,29.47,0,0,1-6,6.53,26.41,26.41,0,0,1-3.31,2.25,10.66,10.66,0,0,1-2.7,1.21c-4.09,1.23-8.88,1.43-12.58,3.7-4.65,2.86-1.77,8.46-1.74,12.72a48.88,48.88,0,0,1-4.17,19.72c-2.31,5.22-5.61,10.23-10.41,13.47a19.23,19.23,0,0,1-14,3.22,16.57,16.57,0,0,1-7.2-2.82c-1.73-1.3-3.26-3-5.25-3.91-5.75-2.66-9.27,4-11.24,8.34-2.35,5.12-4.35,10.45-9.45,13.46-4.23,2.5-9.37,3-14.17,2.37a31.77,31.77,0,0,1-13.78-5.43c-4.87-3.38-8.72-8-12.72-12.3a79.4,79.4,0,0,0-6.12-6,2,2,0,0,0-2.83,0c-8.45,9.87-22.25,12.46-34.23,8.06-14.08-5.18-22.86-19.77-22-34.6,0-.6.09-1.2.16-1.81s0,.38.06-.48,0,.39,0,0,.11-.8.17-1.2c.18-1.28.36-2.57.56-3.85s.43-2.7.7-4c.09-.48.19-1,.32-1.43,0-.19.12-.37.17-.56s-.11.25-.11.25a.41.41,0,0,1,0-.09c.16-.28,0-.08-.61.59,1.89-1.11.65-4.45-1.54-3.65a20.11,20.11,0,0,1-15.86-.68A30.66,30.66,0,0,1,26.27,170c-6.49-10.16-7.81-23.14-4.69-34.67a41.91,41.91,0,0,1,8.3-16.16,21.25,21.25,0,0,1,7.32-5.9c1.89-.86,3.87-.9,5.86-1.35s4.51-1.66,4.69-4.13c.1-1.41-.47-2.9-.65-4.3a36.93,36.93,0,0,1,4.45-22.92,44.63,44.63,0,0,1,9.56-11.33c3.4-2.86,8-5.62,12.58-5a9.45,9.45,0,0,1,2.78.82,2,2,0,0,0,2.73-.72,2,2,0,0,0-.71-2.73Z"/><path class="cls-1" d="M91.24,238.72c0-.05.09.69.05.36l.06.46c.05.37.09.75.13,1.13.09.77.17,1.53.23,2.3.14,1.47.24,2.95.33,4.43.17,3.1.26,6.21.32,9.32s.1,6,.17,9.06a79.45,79.45,0,0,1-.41,9.51c-.55,5.76-1.52,11.52-1.56,17.32,0,4,.44,8.42,2.76,11.84,2.69,4,7.33,6,12,6.31a10.87,10.87,0,0,0,7.18-1.84,10.34,10.34,0,0,0,4.06-6.54,25.75,25.75,0,0,0,0-7.49c-.14-1.2-.3-2.4-.42-3.6s-.16-2.45-.25-3.67c-.25-3.18-.79-6.24-1.13-9.29a75.35,75.35,0,0,1-.38-9.62c.1-6,.75-12,.93-18,.17-5.7.16-11.4.72-17.08.14-1.51.31-2.88.52-4.28a2.06,2.06,0,0,0-1.4-2.46,2,2,0,0,0-2.46,1.39,137.65,137.65,0,0,0-1.27,17.68c-.06,2.59-.1,5.18-.23,7.76-.15,3-.41,6-.58,9s-.28,6.22-.23,9.33a80.81,80.81,0,0,0,.78,9.45c.37,2.72.67,5.58.86,8.47.15,2.27.54,4.53.72,6.81a27.23,27.23,0,0,1,0,3.5c0,.3,0,.6-.09.89,0-.42,0,.19-.07.34a11.75,11.75,0,0,1-.46,1.64c-.18.51.12-.22,0,.07-.07.12-.12.25-.19.38s-.22.39-.34.58l-.24.35c-.19.26.31-.32-.11.13-.22.23-.43.46-.66.68l-.22.19c.21-.17-.25.18-.23.17-.2.13-.4.25-.61.36l-.39.2c-.28.17.43-.14-.08,0-.27.1-.54.19-.82.27s-.56.12-.85.18c-.09,0-.38,0,0,0l-.44,0a11.92,11.92,0,0,1-1.69,0l-.45,0c-.1,0-.5-.06-.1,0l-.81-.14a16.59,16.59,0,0,1-1.72-.42l-.85-.28-.33-.12s-.51-.21-.23-.09l-.22-.1-.3-.15c-.26-.13-.51-.27-.76-.41s-.4-.24-.59-.37l-.25-.17-.16-.12c.25.2-.12-.1-.14-.12l-.22-.19a7.27,7.27,0,0,1-.57-.54c-.15-.15-.29-.31-.43-.47l-.18-.22c-.3-.35.17.27,0,0s-.53-.76-.76-1.17a13.16,13.16,0,0,1-.59-1.19c.18.41,0,0-.06-.18s-.17-.49-.25-.74a19.9,19.9,0,0,1-.61-2.73c0-.12-.06-.48,0,0,0-.1,0-.2,0-.3,0-.26,0-.51-.07-.77,0-.51-.08-1-.09-1.55-.18-5.31.64-10.62,1.22-15.87.35-3.08.65-6.17.73-9.27s-.06-6-.11-8.94c-.1-6-.2-11.92-.77-17.85-.15-1.55-.34-3.09-.55-4.63a2,2,0,0,0-2.46-1.39,2.06,2.06,0,0,0-1.4,2.46Z"/><path class="cls-1" d="M125.58,244.55c-.24,5.75-1.8,11.38-2.07,17.27-.06,1.37,0,2.75-.1,4.13s-.25,2.75-.41,4.13a42.49,42.49,0,0,0-.47,8.28c.08,1.08.26,2.15.42,3.23l.12.81c0,.13,0,.25.05.38-.12-.72,0-.14,0,0,.08.59.14,1.19.19,1.78a22,22,0,0,1,0,3.72c0,.34.09-.54,0,0,0,.14,0,.29-.08.43a8.7,8.7,0,0,1-.22.88,2.53,2.53,0,0,1-.12.36c0,.07-.22.57-.06.2s0,.09-.1.18-.14.27-.22.4-.16.26-.25.39c-.26.41.3-.32,0,0s-.46.47-.7.7c-.06.05-.25.19,0,0s0,0-.07,0l-.43.26-.51.27c-.21.11,0,.06.18-.07a1.24,1.24,0,0,1-.32.12,11.35,11.35,0,0,1-1.14.32,3.38,3.38,0,0,0-.64.11c0-.06.44-.05.13,0l-.42,0a19.3,19.3,0,0,1-3.4-.1,2,2,0,0,0-2,2,2.06,2.06,0,0,0,2,2c3.43.38,7.45.05,9.95-2.63,2-2.13,2.55-5.06,2.53-7.87a30.23,30.23,0,0,0-.29-3.8c-.1-.73-.2-1.46-.31-2.18,0-.26-.08-.51-.11-.77,0-.11,0-.21,0-.32-.07-.47.07.56,0,0-.6-5,.76-9.86.85-14.8,0-1.65,0-3.28.2-4.92s.37-3,.63-4.67a92.28,92.28,0,0,0,1.28-10.35,2,2,0,0,0-4,0Z"/><path class="cls-1" d="M112.62,278.31c2.26,1,4.56,1.92,7.07,1.54,2.07-.32,4-1.56,5.81-2.5a2,2,0,0,0,.72-2.73,2,2,0,0,0-2.74-.72c-1,.48-1.89,1-2.85,1.46-.13.06-.46.13-.54.24l.19-.08-.16.07-.22.08c-.35.12-.71.2-1.07.29s.17,0,.22,0a1.27,1.27,0,0,0-.27,0,5,5,0,0,1-.55,0l-.28,0c-.36,0,.37.08.12,0l-.57-.11a11.47,11.47,0,0,1-1.41-.43c-.25-.08-.49-.18-.74-.27l-.44-.18c.32.13-.23-.1-.27-.12a2.06,2.06,0,0,0-2.73.72,2,2,0,0,0,.71,2.74Z"/><path class="cls-1" d="M94.42,287.44c5.24,3.36,12.06,3.37,17.64.9a2,2,0,0,0,.72-2.74,2.06,2.06,0,0,0-2.74-.71c-.55.24.19-.07-.13.05l-.44.17-.91.31c-.62.18-1.24.33-1.87.45l-.48.08c-.07,0-.51.07-.15,0l-1,.08a15.86,15.86,0,0,1-2,0c-.33,0-.65,0-1-.07l-.39-.05-.24,0a13.83,13.83,0,0,1-1.8-.42c-.31-.09-.62-.19-.92-.3l-.45-.17c.31.12-.09,0-.15-.07a16.21,16.21,0,0,1-1.78-1,2,2,0,0,0-2.73.71,2,2,0,0,0,.72,2.74Z"/><path class="cls-1" d="M163.44,245.49a109.41,109.41,0,0,1-.6,17.26c-.26,2.85-.59,5.7-.82,8.55-.26,3.11-.38,6.23-.58,9.35-.27,4.31-1,8.57-1.28,12.88-.25,4.08,0,8.61,2.19,12.16a13.94,13.94,0,0,0,12,6.05A14.62,14.62,0,0,0,186,304.79c3-4.72,2.75-10.56,2.77-16,0-5.55.06-11.1.08-16.65,0-5.79,0-11.58.16-17.37.16-6.23.42-12.46.46-18.69,0-1.56,0-3.12,0-4.68a2,2,0,0,0-4,0c.08,6.07-.11,12.14-.3,18.2-.18,5.85-.29,11.68-.3,17.53,0,5.36,0,10.73-.07,16.09l0,7.81c0,1.28,0,2.56-.07,3.84a19.27,19.27,0,0,1-.43,3.57,16.45,16.45,0,0,1-.49,1.83,6.92,6.92,0,0,1-.63,1.45,14.69,14.69,0,0,1-.9,1.46l-.21.3c-.33.47.15-.18-.07.09s-.42.5-.64.74a12.64,12.64,0,0,1-1.05,1c-.09.07-.67.51-.32.27l-.69.47a11.81,11.81,0,0,1-1.29.73l-.3.14c-.47.23.26-.07-.05,0s-.51.19-.76.27a10.15,10.15,0,0,1-1.42.35l-.32.06c-.31.06.49,0,0,0l-.81.05a12.19,12.19,0,0,1-1.48,0l-.33,0c.43,0,.13,0,0,0-.28-.06-.55-.1-.83-.17a13.24,13.24,0,0,1-1.48-.45l-.25-.1-.17-.08a8.25,8.25,0,0,1-.89-.45,14.06,14.06,0,0,1-1.33-.83c-.1-.07-.38-.3,0,0l-.24-.2c-.18-.16-.37-.33-.54-.5s-.31-.32-.45-.49l-.24-.28s.25.35,0,0a10.8,10.8,0,0,1-.72-1.17c-.1-.2-.2-.39-.29-.59s0,0,0,.07c-.05-.11-.09-.23-.13-.34a13.39,13.39,0,0,1-.43-1.36c-.11-.44-.2-.89-.28-1.34,0-.18-.1-.69,0-.24q-.06-.44-.09-.87a26.89,26.89,0,0,1-.09-3c.06-3.81.76-7.57,1.1-11.36.27-3,.4-6,.58-9s.44-5.76.72-8.64a161.75,161.75,0,0,0,1.08-16.89c0-1.32,0-2.65-.13-4a2,2,0,0,0-4,0Z"/><path class="cls-1" d="M164.43,285.94c3.11,2.29,7,2.95,10.79,2.85,3.56-.1,7.09-.79,10.65-.78a2,2,0,0,0,2-2,2,2,0,0,0-2-2c-3.43,0-6.83.63-10.26.77-.84,0-1.69,0-2.53,0-.45,0-.9-.07-1.34-.12.36,0-.13,0-.23,0l-.56-.1c-.44-.1-.87-.21-1.3-.34l-.54-.19c-.06,0-.55-.21-.24-.08a11.5,11.5,0,0,1-2.42-1.41,2,2,0,0,0-2.74.72,2.07,2.07,0,0,0,.72,2.74Z"/><path class="cls-1" d="M149.32,251.75q.08,3.09-.1,6.16c-.06,1-.14,1.94-.25,2.9-.05.47-.1.93-.16,1.39,0-.27,0,.24-.05.31,0,.29-.08.57-.13.86-.57,3.65-1.52,7.22-2.25,10.85s-1.33,7.35-.52,10.93a15.33,15.33,0,0,0,5.2,8,13,13,0,0,0,5,2.71,8.62,8.62,0,0,0,5.89-.58,2,2,0,0,0,.72-2.73,2.05,2.05,0,0,0-2.74-.72c-.35.16.23-.06-.13.05l-.46.15-.47.1c-.05,0-.31,0,0,0s-.08,0-.13,0a8.51,8.51,0,0,1-1,0c-.4,0,.29.07-.1,0L157,292c-.32-.08-.61-.21-.92-.3s.07,0,.1,0l-.23-.1c-.18-.09-.35-.17-.52-.27a9,9,0,0,1-.94-.57l-.43-.3c-.18-.12,0,0,.06.05l-.27-.21a16,16,0,0,1-1.57-1.51c-.24-.26-.46-.53-.68-.79s0,0,.05.06l-.2-.27-.33-.49a16.87,16.87,0,0,1-1-1.76c-.17-.35.1.27,0-.08-.06-.14-.11-.28-.16-.42a10.06,10.06,0,0,1-.3-1.11l-.09-.51c-.07-.38,0,.23,0-.17s-.07-.79-.08-1.19a21.39,21.39,0,0,1,.08-2.4c0-.43.08-.86.13-1.29,0-.1,0-.19,0-.29s0,.27,0,0,.07-.46.1-.69c.13-.81.28-1.61.45-2.41.71-3.42,1.59-6.8,2.15-10.25a71.64,71.64,0,0,0,.88-13,2,2,0,0,0-4,0Z"/><path class="cls-1" d="M150.78,275.32a61.19,61.19,0,0,0,6.61,2c2.51.48,5.38.59,7.56-1a2,2,0,0,0,.71-2.74,2,2,0,0,0-2.73-.71c-.22.15-.44.28-.67.41s-.1.05.05,0a2.32,2.32,0,0,1-.37.13c-.23.08-.46.12-.7.18s.22,0,0,0l-.33,0a14.79,14.79,0,0,1-1.63,0c-.39,0,.16,0-.08,0l-.36-.06-.89-.17c-2.07-.46-4-1.24-6.07-1.87a2,2,0,0,0-1.07,3.86Z"/></svg>