<svg data-name="Capa 1" xmlns="http://www.w3.org/2000/svg" viewBox="0 0 493.39 462.14">
  <path d="M479.48 200.46c-35.27-181.55-196.24-221-345-161.8C62.3 67.38 12.25 141.42 10.4 218.78 9 278.51 38 331.41 80.37 371.77c37 35.19 83.71 71.64 136.19 75.89a123.17 123.17 0 0 0 23-.27c54.69-5.78 111.76-30.62 158.48-58.85 68.52-41.38 96.28-109.8 81.44-188.08Z" style="fill:#fff"/>
  <path d="M264.51 364.43H221.8a13 13 0 0 1-12.94-12.94v-96.34h-24.92A13 13 0 0 1 171 242.21v-41.28A13 13 0 0 1 183.94 188h24.92v-20.68c0-20.5 6.44-37.94 18.61-50.43s29.32-19.18 49.43-19.18l32.58.05a13 13 0 0 1 12.91 12.94V149a13 13 0 0 1-12.93 13h-21.94c-6.68 0-8.39 1.35-8.75 1.76-.6.68-1.32 2.61-1.32 7.93V188h30.36a13 13 0 0 1 13.06 12.94v41.28a13 13 0 0 1-12.94 12.94h-30.48v96.34a13 13 0 0 1-12.94 12.93Zm-40-15.63h37.31V248.15a8.66 8.66 0 0 1 8.64-8.64h34.76v-35.88h-34.77a8.66 8.66 0 0 1-8.64-8.64v-23.33c0-6.11.63-13.06 5.24-18.28 5.57-6.31 14.35-7 20.47-7h19.24v-32.99h-29.87c-32.31 0-52.39 20.69-52.39 54V195a8.66 8.66 0 0 1-8.64 8.64h-29.22v35.88h29.22a8.66 8.66 0 0 1 8.64 8.64Zm84.95-235.4Z" style="fill:#bed530"/>
</svg>
