<?xml version="1.0" encoding="UTF-8"?><svg id="Capa_1" xmlns="http://www.w3.org/2000/svg" viewBox="0 0 699.91 506.79"><defs><style>.cls-1{fill:#fff;}.cls-2{fill:#bed530;}</style></defs><path class="cls-1" d="M171.5,311c-12.54,6.78-27.85,9.68-41.75,12.36-15.4,3-31.25,3.28-46.41-1.2-30.77-9.1-51.22-34.86-57.73-65.72-6.13-29.06-4.78-65.33,23.65-82.29,30.43-18.15,71.64-5.37,97.68,14.74,14.18,11,27.07,26,33.52,42.89,4.14,10.88,6.15,22.39,7.47,33.91,1.28,11.12,2,21-1.19,29.3-2.4,6.19-7,11.56-15.24,16.01Zm150.5-141.77c3.11-4.14,5.46-8.8,6.92-13.77,4.86-16.88,2.69-38.2-2.44-54.75-8.93-28.77-33.25-46.87-61.41-55-53.68-15.42-82.58,29.49-82.84,68.52-.24,34,21.06,83.44,60.73,98.28,16.55,6.18,36.31-8.26,48.88-17.35,10.45-7.54,22.34-15.33,30.16-25.93Zm172.73,42.05c2.44-1.52,4.73-3.26,6.85-5.21,15.12-13.93,26.7-34.11,34.43-53,11.32-27.69,4.4-54.4-17.51-74.58-51.08-46.61-108.17-22.49-139.6,28.37-15.26,24.72-13.77,58.09,2.93,81.71,12.89,18.24,33.37,27.65,55.1,30.3,18.94,2.32,41.07,2.84,57.78-7.59h.02Zm65.57,157.45c115.39,5.59,144.7-193.52,22.7-173.79-53.37,8.63-134,158.66-24.6,173.96l1.9-.17Zm-224.78,74.15c32.86,35.78,117.83,44,139.33-7.05,21.94-52.12-19.91-94.3-48.75-133.4-15.25-20.68-36.13-48.13-58-61.76-28.86-18-52.56,1.37-75.79,20.94-39.69,33.39-97.18,86.39-100.19,142.03-4.22,77.82,90,82,143.6,38.72l-.2,.52Z"/><path class="cls-2" d="M325.49,357c-1.04,0-2.06-.25-3-.7-1.97-1.06-3.64-2.6-4.87-4.47-1.25-1.72-2.29-3.58-3.11-5.54-1.64-4.05-2.88-8.24-3.72-12.53-1-4.69-1.86-9.54-2.44-14.42s-.92-9.4,1-13.73c2.66-5.57,8.27-9.12,14.44-9.15,1.38,0,2.76,.2,4.08,.6,3.37,1,6.15,3.07,8.84,5.07,.67,.5,1.35,1,2,1.48,2.12,1.39,5.29,3.39,8.48,3.39,.68,0,1.35-.09,2-.28,.19-.06,.38-.08,.58-.08,1,.02,1.84,.78,1.95,1.78,.15,.99-.46,1.94-1.43,2.22-1.01,.28-2.05,.42-3.1,.42h0c-1.14,0-2.27-.15-3.37-.44-3.7-1-6.71-3.19-9.62-5.33l-1.34-1c-1.51-1.16-3.15-2.14-4.88-2.93-1.34-.59-2.78-.89-4.24-.89h-.16c-1.44,.03-2.86,.32-4.2,.86-1.29,.53-2.49,1.27-3.55,2.18-1.08,.93-1.96,2.05-2.6,3.32-.36,.71-.64,1.46-.82,2.24-.24,.98-.38,1.99-.42,3-.06,2.12,.06,4.25,.34,6.35,.26,2.26,.58,4.55,.95,6.82,.71,4.41,1.65,8.77,2.81,13.08,.89,3.7,2.37,7.24,4.38,10.48,.88,1.47,2.08,2.73,3.51,3.67,.45,.29,.96,.45,1.49,.47h.14c.16-.02,.32-.08,.46-.17,.17-.12,.32-.27,.43-.44,.41-.66,.72-1.37,.93-2.11v-.09c.28-.8,.55-1.68,.86-2.76,.25-.85,.48-1.69,.71-2.54,.27-1,.54-2,.84-3,1.06-3.62,2.53-7.74,5.36-10.82,.81-.95,1.88-1.62,3.09-1.93,.35-.08,.72-.12,1.08-.12,.8,0,1.59,.19,2.31,.54,1.87,1.05,3.32,2.71,4.1,4.7,.87,2.16,1.58,4.38,2.13,6.64,.4,1.53,.82,3.1,1.34,4.6,.51,1.6,1.28,3.11,2.28,4.46,.37,.56,.89,1.01,1.5,1.29,.14,.06,.3,.09,.45,.1h.21l.22-.06,.21-.06c1.14-.71,2.03-1.76,2.56-3,.78-1.54,1.48-3.12,2.1-4.74l.36-.88c3.38-8.28,6.06-16.82,8-25.55,.82-3.76,1.57-8.07,0-11.57-1.33-2.76-3.64-4.94-6.47-6.11-1.62-.68-3.36-1.02-5.12-1-1.57,0-3.12,.26-4.61,.75-3.46,1.11-4.33,1.75-6.14,3.44-.37,.36-.86,.57-1.38,.57-.82-.02-1.56-.51-1.89-1.26-.32-.74-.17-1.6,.39-2.18l.17-.18c.44-.48,.96-.88,1.53-1.2l.26-.18c3.4-2.43,7.47-3.77,11.65-3.83,4.02,.03,7.9,1.44,11,4,3.27,2.67,5.28,6.58,5.57,10.79,.11,2.38-.08,4.76-.58,7.09-.47,2.42-1.06,4.83-1.57,6.86-1.15,4.51-2.5,9-4,13.4-1.5,4.42-3.23,8.76-5.18,13-.79,1.86-2.03,3.5-3.6,4.77-1.02,.78-2.26,1.2-3.54,1.21-.94,0-1.86-.24-2.68-.69-2.15-1.18-3.46-3.48-4.26-5.1-.89-1.89-1.59-3.86-2.1-5.88l-.45-1.66c-.34-1.33-.7-2.7-1.14-4-.4-1.6-1.18-3.08-2.27-4.31-.3-.35-.72-.57-1.18-.64h0c-.52,.09-.98,.37-1.29,.8-1.18,1.36-2.12,2.91-2.79,4.58-1,2.44-1.81,4.96-2.43,7.52-.32,1.23-.65,2.45-1,3.66-.23,.78-.56,1.81-.95,2.84-.38,1.13-.99,2.17-1.79,3.06-1.01,.99-2.39,1.52-3.81,1.45Z"/><path class="cls-2" d="M591.83,281.26c-.18,0-.35-.02-.52-.07-1.05-.3-1.68-1.37-1.44-2.43l.21-1.11c.2-1,.4-2.09,.67-3.14,1-3.72,2.8-6.28,5.49-7.6,1.95-.87,4.03-1.39,6.15-1.56h.34c1.85-.18,3.7-.49,5.51-.91,1.79-.42,3.53-1.05,5.18-1.87,1.76-.91,2-1.62,1.92-2.14-.08-1.06-1.17-1.95-2.17-2.43-1.33-.55-2.75-.83-4.19-.82h-1.44c-4.44,.12-8.86,.59-13.23,1.41-3.13,.5-6.36,1-9.58,1.26-1.43,.12-2.76,.17-4.05,.17h-2.14c-2.11-.03-4.21-.36-6.22-1-2.08-.66-3.77-2.21-4.6-4.23-.67-2.19-.17-4.58,1.32-6.32,3.32-4.45,8.85-6.62,16.89-6.62,1.48,0,3.06,.07,4.83,.22,1.25,.11,2.49,.23,3.73,.36,2.72,.28,5.52,.57,8.27,.58h.2c1.82,.03,3.65-.13,5.44-.47,1.91-.4,3.09-1,3.69-2,.54-.94,.36-2.13-.44-2.87-1.18-1.07-2.65-1.76-4.22-2-1.71-.37-3.46-.55-5.21-.53-2.17,.02-4.33,.2-6.47,.52-1.11,.15-2.23,.32-3.36,.5-3.6,.65-7.25,1.02-10.91,1.12-3.37,.07-6.71-.56-9.82-1.84-1.86-.67-3.45-1.93-4.52-3.6-1.13-2.09-.94-4.65,.5-6.54,1.9-2.61,5.09-3.93,9.47-3.93h1.08l1.91,.12c1,.08,2,.16,3,.16,1.75,.12,3.5-.31,5-1.23,1.04-.72,1.7-1.88,1.78-3.15,.06-.9,.06-1.79,0-2.69-.06-.94-.06-1.89,0-2.83,.03-1.09,.91-1.97,2-2,.57,0,1.12,.25,1.51,.67,.37,.38,.55,.9,.52,1.43-.05,.86-.05,1.71,0,2.57,.07,.91,.09,1.83,.05,2.74-.07,2.18-.98,4.24-2.54,5.76-1.41,1.27-3.14,2.12-5,2.46-1.08,.2-2.17,.3-3.27,.29-1,0-2-.06-2.89-.13h-.46c-.95-.08-1.93-.15-2.87-.15-.71-.01-1.41,.05-2.11,.17-1.32,.16-2.55,.74-3.51,1.65-.81,.69-1.02,1.86-.49,2.78,.95,1.01,2.16,1.73,3.5,2.09,1.7,.57,3.48,.9,5.27,1,.64,0,1.31,.06,2,.06,3.41-.07,6.82-.41,10.18-1,3.45-.65,6.94-1.03,10.45-1.14h1.36c2.17,.05,4.33,.39,6.41,1,2.09,.56,3.95,1.8,5.27,3.52,1.36,1.84,1.61,4.27,.65,6.35-1,1.93-2.73,3.37-4.81,4-2.02,.63-4.12,.97-6.23,1-.64,0-1.28,.05-1.93,.05-1.29,0-2.69-.06-4.3-.18-1.45-.11-2.9-.26-4.34-.41-2.55-.26-5.18-.53-7.77-.57h-.72c-3.25-.14-6.49,.47-9.47,1.78-1.39,.65-2.64,1.57-3.66,2.71-.47,.51-.83,1.1-1.08,1.75-.19,.45-.19,.95,0,1.4,.47,1,1.54,1.61,3.26,2,1.86,.35,3.76,.51,5.65,.49h.18c3.95-.08,7.88-.47,11.77-1.16l1.41-.22c3.6-.56,7.33-1.15,11.06-1.37,.79,0,1.84-.1,2.92-.1,.96,0,1.92,.05,2.87,.16,1.9,.14,3.75,.73,5.37,1.74,1.91,1.17,3.14,3.18,3.32,5.41-.01,2.18-1.2,4.17-3.11,5.22-1.74,1.04-3.62,1.83-5.58,2.36-2.04,.6-4.13,1.03-6.25,1.26l-.72,.09c-1.67,.13-3.33,.44-4.93,.94-.85,.27-1.62,.75-2.23,1.4l-.32,.34-.1,.14c-.7,1-1.19,2.12-1.45,3.31-.27,1-.48,2.11-.67,3.16l-.22,1.13c-.21,.93-1.05,1.58-2,1.56Z"/><path class="cls-2" d="M445.26,102c-1.2,0-2.37-.35-3.37-1-2.59-1.68-3.61-4.71-4-7-.55-2.84-.37-5.77,.51-8.53,.94-2.36,2.25-4.55,3.88-6.5,.45-.6,.9-1.2,1.33-1.81,.85-1.12,1.54-2.35,2.06-3.66,.44-1.18,.48-2.47,.12-3.67-.19-.59-.08-1.23,.29-1.73,.4-.53,1.03-.84,1.7-.83,.9,0,1.68,.59,1.93,1.45,.25,.86,.39,1.76,.4,2.66,0,3.53-1.91,6.44-3.9,9.12l-.59,.79c-.72,1-1.47,2-2.11,3-.69,1.01-1.2,2.13-1.51,3.31-.07,.3-.13,.6-.19,.9,0,.12,0,.24-.05,.36s0,.3,0,.3c-.06,.58-.09,1.17-.08,1.75,0,.56,.04,1.13,.1,1.69l.07,.46c0,.14,.05,.27,.08,.41s.13,.55,.2,.81,.15,.51,.24,.76l.15,.39v.08c.21,.46,.47,.9,.76,1.31l.08,.1,.23,.25,.22,.21,.08,.06c.15,.11,.31,.21,.47,.29h.06l.24,.08,.31,.07h.76l.39-.09,.37-.11,.24-.09c.5-.23,.98-.5,1.44-.8l.62-.38c.85-.51,1.75-.93,2.69-1.25,.83-.27,1.7-.41,2.58-.41,.67,0,1.35,.08,2,.25,.54,.14,1.06,.32,1.57,.55,.28,.11,1.19,.51,1.19,.51l.27,.11c.45,.18,.91,.32,1.38,.42h1.39l.38-.06,.52-.12c.35-.09,.69-.2,1-.32,.58-.25,1.13-.55,1.64-.91,.25-.18,.49-.38,.72-.59,.23-.22,.46-.46,.67-.7,.39-.47,.73-.98,1-1.53,.04-.08,.08-.16,.11-.24,.08-.23,.14-.38,.18-.53,.09-.3,.17-.61,.22-.92v-.39c0-.16,0-.32,0-.48,.01-.33,0-.67-.05-1l-.08-.39c0-.16-.08-.32-.12-.49-.08-.27-.17-.54-.28-.8-.36-.77-.81-1.49-1.33-2.15-.52-.68-1.09-1.32-1.69-2s-1.28-1.44-1.87-2.22c-2.32-3-3.47-7.09-3.5-12.36-.01-.53,.19-1.04,.55-1.42,.39-.38,.92-.59,1.47-.59,1.1-.03,2.02,.85,2.05,1.95v.05c0,.97,.04,1.93,.14,2.89,.16,1.93,.69,3.8,1.56,5.53,.76,1.29,1.68,2.5,2.72,3.58l.55,.61c1.44,1.53,2.58,3.31,3.37,5.26,.61,1.76,.74,3.66,.38,5.49-.78,3.6-3.28,6.59-6.68,8-1.34,.59-2.78,.91-4.24,.94-.31,0-.62-.02-.93-.06-1.33-.2-2.61-.6-3.82-1.18l-.56-.24-.64-.23c-.24-.07-.48-.13-.72-.18h-.99c-.34,.06-.67,.14-1,.24-.75,.27-1.46,.63-2.13,1.07-1.38,.96-2.97,1.58-4.64,1.8-.18,.04-.37,.08-.56,.1Z"/><path class="cls-2" d="M448.67,139c-.96,.02-1.79-.64-2-1.57-.12-.62-.23-1.24-.34-1.86l-.16-.84c-.72-3.92-1.52-7.71-3.45-11-.38-.66-.82-1.28-1.28-1.94-.51-.68-.98-1.4-1.41-2.13-.85-1.47-1.56-3.01-2.11-4.62-1-2.85-1.72-6.95,.21-10.33,1.05-1.95,2.93-3.31,5.1-3.72,.35-.05,.71-.08,1.07-.08,1.9,.1,3.73,.73,5.27,1.84,.68,.46,1.42,.84,2.2,1.11l.5,.14h.98l.29-.06,.29-.1h.06c.37-.18,.73-.41,1.05-.67l1-.79c.47-.39,.99-.72,1.53-1,1.43-.61,2.97-.92,4.53-.93h.78c2.8-.12,5.54,.88,7.6,2.79,2.27,2.29,3.15,6.06,2.36,10.08-.44,1.91-1.43,3.64-2.84,5-.36,.39-.75,.77-1.14,1.16-.76,.71-1.46,1.48-2.09,2.3-1.5,2.15-3.84,6.43-2.65,11,.16,.6,.04,1.24-.34,1.73-.41,.52-1.03,.82-1.69,.81h0c-.9,.01-1.7-.6-1.91-1.48-.3-1.14-.46-2.32-.47-3.5,0-2.29,.48-4.55,1.39-6.64,.8-1.99,1.92-3.85,3.31-5.49,.51-.59,1.06-1.14,1.6-1.66,.61-.59,1.2-1.21,1.75-1.86,.37-.45,.67-.96,.91-1.49,.24-.7,.37-1.42,.39-2.16,0-.43,0-.84,0-1.23v-.83c-.06-.34-.13-.67-.23-1,0-.13-.08-.27-.13-.4v-.1c-.12-.29-.27-.57-.44-.84l-.15-.22-.18-.21c-.17-.19-.36-.37-.56-.54h-.07l-.35-.24c-.19-.12-.39-.22-.59-.32l-.26-.11h-.14l-.36-.12c-.28-.09-.56-.16-.85-.22l-.4-.07h-.25c-.4-.05-.8-.07-1.2-.07h-.67c-.35,0-.69,0-1,.09l-.3,.05-.48,.08c-.27,.04-.54,.11-.8,.19l-.24,.11c-.17,.09-.33,.2-.49,.31l-.26,.19-.49,.39c-.68,.61-1.44,1.13-2.26,1.55-.9,.42-1.87,.64-2.86,.64-.54,0-1.07-.06-1.6-.18-.91-.22-1.79-.55-2.62-1-.44-.23-.86-.5-1.28-.76-.4-.27-.82-.52-1.25-.75-.55-.28-1.16-.43-1.78-.45-.6,0-1.18,.19-1.65,.55-.88,.69-1.45,1.7-1.6,2.81v.31c0,.17,0,.34,0,.51-.02,.33-.02,.67,0,1,.03,.67,.13,1.34,.29,2,.33,1.43,.84,2.82,1.5,4.14,.56,1.19,1.23,2.32,2,3.38,1.27,1.72,2.3,3.61,3.07,5.61,1.08,3.06,1.87,6.23,2.36,9.44,.12,.62,.23,1.25,.35,1.87,.24,1.06-.39,2.13-1.44,2.43-.21,.02-.42,.01-.63-.03Z"/><path class="cls-2" d="M86.62,246.44c-1.66,0-3.3-.25-4.89-.73-2.37-.77-4.63-1.84-6.73-3.18-3.42-2.08-6.94-4.37-9.37-7.61-.98,.57-2.1,.86-3.23,.84-.72,0-1.43-.1-2.13-.28-1.83-.52-3.55-1.36-5.08-2.48-1.62-1.19-3.18-2.47-4.66-3.84l-.14-.14c-1.35-1.21-3-2.73-3.13-5s.57-2.81,1.88-3.79c.32-.24,.7-.37,1.1-.37,.73,0,1.41,.38,1.8,1,.54,.92,.74,1.7-.18,2.38-.13,.11-.25,.23-.37,.35-.08,.08-.13,.17-.15,.28-.06,.44,.69,1.13,1.14,1.54l.15,.13c.67,.62,1.34,1.23,2,1.83,1.16,1.04,2.4,1.99,3.71,2.83,1.03,.71,2.19,1.21,3.41,1.47,.19,.02,.38,.02,.57,0,.63,.05,1.25-.2,1.68-.67,.42-.67,.56-1.47,.4-2.24-.3-1.2-.9-2.31-1.75-3.22-.78-.94-1.63-1.86-2.46-2.75-.31-.35-.63-.69-.94-1l-2-2.16c-.39-.47-.83-.89-1.3-1.28-.19,.21-.35,.44-.47,.7-.36,.75-1.1,1.24-1.93,1.28-.16,0-.32-.02-.48-.07-1.06-.3-1.69-1.37-1.44-2.44,.39-2.04,2.15-3.53,4.22-3.58,.47,0,.93,.08,1.37,.24,1.12,.46,2.09,1.21,2.82,2.17l2.58,2.83,1,1c2.31,2.45,4.94,5.23,4.91,9,0,.7-.11,1.39-.32,2.05,.93,1.47,2.11,2.76,3.47,3.84,1.59,1.25,3.26,2.4,5,3.43,1.77,1.16,3.67,2.11,5.65,2.84,1.41,.48,2.9,.73,4.39,.74,.46,0,.93-.02,1.39-.07,1.91-.25,3.76-.81,5.48-1.68,2.55-1.28,4.94-2.85,7.12-4.7l-1.18-1.14c-1.14-1.11-2.29-2.22-3.44-3.31-2.52-2.42-5.13-4.92-7.65-7.44-3.09-3.09-6.4-6.88-7.61-11.63-1.27-5-.07-9.85,3.11-12.76,1.78-1.62,4-2.66,6.38-3,.58-.08,1.16-.12,1.75-.12,1.88,.01,3.74,.41,5.46,1.18,1.12,.49,2.17,1.13,3.13,1.88,.26,.2,.53,.45,.8,.7,.31,.3,.64,.58,1,.82l.21-.27c.21-.27,.44-.57,.67-.83,.72-.83,1.53-1.59,2.4-2.26,1.85-1.45,3.97-2.52,6.24-3.15,1.25-.35,2.55-.53,3.85-.54,1.19-.01,2.38,.19,3.5,.6,2.14,.81,3.87,2.44,4.8,4.53,.82,1.89,1.2,3.94,1.1,6-.13,4-1.56,8.24-4.5,13.27-2.44,4.13-5.25,8.03-8.39,11.66-1.77,2.06-3.64,4.02-5.62,5.87,2.38,2.32,4.9,4.55,8.16,5.21,.84,.16,1.69,.24,2.54,.24,3.22-.16,6.38-.91,9.33-2.22,3.51-1.43,6.78-3.38,9.7-5.79,1.47-1.2,2.85-2.5,4.14-3.89-.56-.34-1.09-.75-1.56-1.21-1.33-1.16-2.11-2.83-2.16-4.59,.14-1.87,1.04-3.6,2.49-4.8,1.32-1.26,3.05-2,4.87-2.1h.19c2.29,.1,4.22,1.75,4.68,4,.29,1.57,.06,3.18-.64,4.61-.19,.42-.42,.79-.63,1.16s-.29,.47-.42,.72l-.05,.1c-.59,.95-1.26,1.84-2,2.67l-.93,1.1c-.48,.56-1,1.13-1.46,1.66-1.7,1.8-3.55,3.46-5.53,4.94-3.54,2.67-7.48,4.76-11.67,6.2-2.72,.99-5.58,1.52-8.47,1.58h0c-2.19,.02-4.37-.41-6.38-1.28-2.16-1.04-4.13-2.44-5.84-4.12-.49-.45-1-.92-1.46-1.38-.5,.42-1,.86-1.58,1.28-4.71,3.66-8.81,5.63-12.91,6.22-.83,.11-1.67,.15-2.51,.14Zm5.5-45.85c-2.92-.07-5.63,1.51-7,4.09-1.54,3.14-.64,7,.72,9.61,1.79,3.41,4.68,6.18,7.47,8.87l10.4,10.06h0c3.14-2.96,6.02-6.19,8.6-9.65,2.67-3.4,4.95-7.09,6.8-11,.84-1.86,1.43-3.81,1.78-5.82,.24-1.5,.19-3.02-.15-4.5-.14-.64-.39-1.25-.73-1.81-.16-.28-.36-.54-.58-.78-.17-.19-.37-.36-.57-.52-.95-.65-2.09-.97-3.24-.93-.53,0-1.06,.05-1.58,.15-1.78,.33-3.48,1.01-5,2-.72,.47-1.39,1.02-2,1.62-.44,.45-.86,.92-1.24,1.42l-.57,.7c-.67,.8-1.65,1.26-2.69,1.26-.56,0-1.11-.13-1.62-.36-.74-.39-1.42-.88-2-1.48l-.66-.57c-1.44-1.16-3.17-1.93-5-2.21-.38-.08-.76-.13-1.14-.15Zm50.14,25.26c.28,.21,.58,.38,.9,.51,.2-.27,.38-.55,.57-.83l.05-.07,.35-.54c.5-.71,.84-1.51,1-2.36,.05-.34,.01-.68-.11-1-.04-.07-.08-.14-.13-.21v-.06l-.07-.08-.08-.07-.13-.08-.21-.05h-.63l-.4,.13-.14,.06c-.28,.13-.55,.29-.8,.47l-.11,.07-.11,.09-.34,.31-.34,.36-.13,.15c-.15,.24-.29,.47-.42,.72,0,.04,0,.09,0,.13-.02,.07-.04,.15-.06,.22v.28c0,.07,.03,.15,.05,.22v.07c.1,.22,.23,.44,.37,.64l.08,.1h0c.11,.14,.22,.26,.35,.38l.28,.26,.21,.18Z"/><path class="cls-2" d="M267.89,125.66c-4.57,0-9.22-.08-13.71-.15l-8-.12h-4.12c-2.58,0-5.25,0-7.89-.11-3.06-.1-6.9-.56-9.47-3.2-1.32-1.43-2.21-3.21-2.57-5.12-.43-2.02-.65-4.08-.66-6.14-.06-2.65,.11-5.32,.28-7.91,.09-1.47,.18-3,.24-4.48,.09-2.58,.11-5.21,.13-7.75-.07-5.71,.22-11.41,.88-17.08,.17-1.87,.6-3.7,1.26-5.45,.69-1.78,1.9-3.32,3.47-4.41,1.63-.99,3.45-1.63,5.35-1.85,1.91-.32,4-.56,6.07-.71s4.26-.22,6.63-.22c4.75,0,9.57,.3,14.23,.59l3.33,.21c3.54,.21,7.39,.4,12.12,.58h2c1.21,0,2.46,0,3.7,.15,2.03,.13,3.96,.92,5.5,2.24,2.84,2.55,3.47,6.38,3.71,9.8,.24,4.16,.15,8.33-.25,12.47-.1,1.2-.21,2.4-.32,3.6-.25,2.85-.52,5.8-.67,8.7-.18,3.66-.27,7.56-.26,12.29v1.92c0,1.14,.06,2.33,0,3.51-.01,1.97-.57,3.91-1.62,5.58-1,1.43-2.54,2.39-4.26,2.66-1.46,.22-2.94,.31-4.42,.28h-1.22c-2,.04-4.03,.07-6.1,.09h-3.39l.03,.03Zm-22.25-61.25c-3.93-.03-7.85,.25-11.73,.85-1.54,.16-3.02,.65-4.35,1.44-1.05,.81-1.83,1.92-2.23,3.18-.52,1.62-.85,3.3-1,5-.23,1.82-.39,3.74-.5,5.88-.18,3.29-.2,6.65-.23,9.89v2.05c0,3.59-.18,7.42-.46,12.07-.21,3.57-.45,7.62,.38,11.32,.23,1.41,.89,2.71,1.88,3.73,.94,.81,2.08,1.36,3.3,1.58,1.41,.28,2.84,.42,4.27,.41h5.89c4.04,0,8.09,.05,12.14,.14,4.42,.08,9.66,.16,15,.16,3.34,0,6.41,0,9.36-.09l3-.07,1.1-.05c.26-.01,.51-.04,.77-.08,.49-.07,.97-.23,1.4-.47,.4-.24,.73-.59,.95-1,.66-1.35,.97-2.84,.9-4.34v-5.31c0-2.15,0-4.12,.07-6,.1-4.36,.31-8.31,.66-12.08l.17-1.81c.31-3.32,.63-6.74,.73-10.11,.07-2.1,0-4-.07-5.77-.04-1.6-.3-3.18-.77-4.71-.39-1.22-1.11-2.31-2.09-3.14-1.15-.8-2.51-1.21-3.91-1.19-1,0-2-.07-3-.08s-1.78,0-2.66-.07l-2.73-.13-3.35-.14c-2.81-.12-5.67-.3-8.43-.47l-3.15-.2c-3.46-.17-7.42-.39-11.31-.39Z"/><path class="cls-2" d="M240.84,92.31c-.43,0-.86-.06-1.28-.18-2.17-.66-3.08-2.8-2.54-6,.37-2.02,1.04-3.98,1.98-5.81,3.24-6.74,10-11.56,16.91-12h.81c3.36,0,6.72,1.3,10.27,4,2.8,1.96,5.1,4.55,6.74,7.55,.77,1.5,1.31,3.11,1.61,4.77,.16,.89,.25,1.79,.28,2.7,.05,.74-.05,1.49-.27,2.2-.49,1.35-1.76,2.26-3.2,2.28h-4.15c-4.11,0-8.3,.14-12.35,.26-4.41,.12-9,.25-13.49,.25-.14,.02-.28,.02-.42,0h-.25c-.19-.04-.42-.02-.65-.02Zm15.88-20.54c-.88,0-1.76,.1-2.62,.3-2.35,.55-4.55,1.6-6.47,3.06-1.9,1.44-3.51,3.22-4.75,5.25-1.86,3-2.65,5.53-2.52,7.85,0,.45,.1,.53,.11,.53s.11,.06,.48,.06c3.17,0,7.27-.06,11.42-.19l2.74-.09c2.38-.07,4.75-.15,7.13-.2h9.48c.12,.01,.25,.01,.37,0v-.39c.04-2.85-.79-5.64-2.37-8-1.71-2.41-3.9-4.46-6.43-6-1.35-.91-2.85-1.59-4.43-2-.71-.13-1.42-.2-2.14-.18Z"/><path class="cls-2" d="M271.7,93.32c.14-.38,.48-.64,.88-.66l2.17-.2-1.33,1.86-.12,.14-.09,.08-1.51-1.22Z"/><path class="cls-2" d="M255.81,88.78h-.14c-.88-.12-1.22-1-1.34-1.28-1.39-3.63-2.51-7.35-3.33-11.15-.11-.55,.02-1.13,.36-1.58,.24-.31,.61-.5,1-.51,.21,0,.41,.06,.59,.16,.59,.42,1.05,.98,1.34,1.64,1.19,2.23,2.26,4.53,3.19,6.88,.28,.67,.56,1.35,.85,2l.16,.4c.11,.29,.15,.59,.14,.9-.06,1.23-1.24,1.91-1.74,2.2-.3,.19-.64,.3-1,.32l-.08,.02Z"/><path d="M68.31,274.41c-.64,0-1.28-.09-1.9-.27-.57-.17-1.11-.45-1.58-.82-.49-.37-.92-.81-1.27-1.32l1.33-1.53c.44,.69,1.02,1.28,1.69,1.75,.59,.33,1.25,.5,1.93,.48,.42,0,.84-.07,1.24-.21,.34-.12,.64-.33,.88-.6,.24-.24,.37-.56,.37-.89,0-.21-.04-.41-.11-.61-.07-.2-.18-.37-.33-.52-.17-.17-.37-.32-.58-.44-.26-.14-.54-.26-.82-.35-.35-.11-.71-.2-1.08-.26-.58-.11-1.15-.28-1.69-.52-.45-.2-.86-.47-1.21-.81-.32-.31-.56-.69-.72-1.11-.16-.45-.24-.92-.23-1.39,0-.49,.11-.97,.33-1.41,.23-.43,.54-.81,.92-1.12,.41-.33,.88-.58,1.38-.74,.55-.18,1.13-.26,1.71-.26,.6,0,1.2,.08,1.78,.25,.52,.16,1.01,.41,1.44,.75,.41,.33,.75,.75,1,1.21l-1.37,1.33c-.22-.37-.49-.71-.81-1-.29-.27-.63-.48-1-.62-.37-.13-.76-.2-1.15-.2-.42,0-.83,.06-1.22,.21-.32,.13-.6,.34-.82,.61-.2,.26-.31,.57-.3,.9,0,.24,.05,.48,.15,.7,.1,.22,.25,.41,.44,.56,.24,.18,.51,.33,.8,.43,.39,.14,.79,.25,1.2,.33,.61,.13,1.2,.31,1.77,.55,.47,.2,.91,.46,1.31,.78,.34,.27,.62,.61,.82,1,.19,.37,.29,.79,.28,1.21,.02,.73-.18,1.46-.56,2.08-.38,.6-.93,1.07-1.58,1.36-.77,.35-1.6,.52-2.44,.51Z"/><path d="M78.82,274.41c-.76,0-1.5-.22-2.13-.65-.66-.45-1.19-1.05-1.54-1.76-.39-.78-.59-1.65-.58-2.52-.01-.88,.19-1.75,.59-2.53,.36-.71,.91-1.31,1.58-1.74,.67-.42,1.45-.64,2.24-.63,.46,0,.92,.07,1.35,.22,.39,.13,.76,.33,1.08,.6,.29,.26,.55,.56,.75,.89,.2,.33,.32,.7,.37,1.08l-.41-.14v-2.45h1.88v9.45h-1.88v-2.23l.43-.13c-.08,.34-.23,.67-.44,.95-.23,.32-.52,.6-.85,.82-.35,.24-.73,.43-1.13,.57-.42,.14-.87,.21-1.31,.2Zm.49-1.71c.53,0,1.04-.13,1.49-.41,.43-.29,.77-.68,1-1.15,.26-.52,.38-1.08,.37-1.66,.01-.57-.12-1.13-.37-1.64-.23-.46-.57-.85-1-1.13-.44-.28-.96-.43-1.49-.42-.52,0-1.03,.14-1.47,.42-.43,.28-.77,.67-1,1.13-.25,.51-.38,1.07-.37,1.64,0,.57,.12,1.14,.37,1.66,.23,.46,.57,.86,1,1.15,.44,.27,.95,.42,1.47,.41Z"/><path d="M86.62,274.23v-13.32h1.85v13.32h-1.85Z"/><path d="M94.32,274.41c-.62,.01-1.22-.15-1.75-.47-.51-.32-.91-.77-1.16-1.31-.28-.63-.42-1.31-.4-2v-5.83h1.85v5.33c-.01,.49,.08,.98,.26,1.43,.16,.38,.42,.7,.76,.93,.36,.22,.78,.33,1.2,.32,.34,0,.68-.05,1-.17,.28-.1,.54-.27,.75-.48,.21-.21,.38-.46,.49-.74,.12-.29,.18-.61,.18-.93v-5.69h1.86v9.45h-1.91v-2l.33-.22c-.15,.45-.4,.87-.73,1.21-.71,.75-1.7,1.18-2.73,1.17Z"/><path d="M105.84,274.41c-.82,.01-1.62-.21-2.31-.64-.68-.43-1.24-1.03-1.61-1.74-.41-.78-.62-1.65-.6-2.53-.01-.88,.19-1.75,.59-2.53,.37-.71,.92-1.32,1.59-1.75,1.5-.92,3.4-.84,4.82,.2,.32,.23,.6,.52,.82,.85,.19,.27,.29,.59,.3,.92h-.54v-6.32h1.85v13.32h-1.85v-2.19h.36c0,.31-.11,.61-.29,.86-.21,.3-.46,.56-.76,.78-.33,.25-.71,.44-1.1,.57-.41,.14-.84,.21-1.27,.2Zm.25-1.6c.53,0,1.05-.14,1.5-.43,.43-.3,.78-.7,1-1.18,.25-.53,.38-1.11,.37-1.7,.01-.59-.11-1.17-.37-1.7-.22-.48-.56-.89-1-1.18-.44-.29-.97-.45-1.5-.44-.53,0-1.05,.15-1.49,.44-.43,.3-.78,.71-1,1.18-.25,.53-.38,1.11-.37,1.7,0,.59,.12,1.17,.37,1.7,.22,.47,.57,.88,1,1.18,.44,.29,.96,.44,1.49,.43Z"/><path d="M122.29,274.41c-.82,.01-1.62-.21-2.31-.64-.68-.43-1.24-1.03-1.61-1.74-.41-.78-.62-1.65-.6-2.53-.01-.88,.19-1.75,.59-2.53,.37-.71,.92-1.32,1.59-1.75,.69-.43,1.48-.65,2.29-.64,.46,0,.92,.08,1.36,.23,.42,.14,.82,.35,1.18,.61,.32,.23,.6,.52,.82,.85,.18,.27,.28,.59,.29,.92h-.54v-6.32h1.86v13.32h-1.86v-2.19h.36c0,.31-.11,.61-.29,.86-.21,.3-.46,.56-.76,.78-.33,.25-.7,.44-1.1,.57-.41,.14-.84,.21-1.27,.2Zm.25-1.6c.53,0,1.05-.14,1.5-.43,.43-.3,.78-.71,1-1.18,.25-.53,.37-1.11,.36-1.7,.01-.59-.11-1.17-.36-1.7-.22-.47-.57-.88-1-1.18-.91-.59-2.09-.59-3,0-.43,.3-.78,.71-1,1.18-.25,.53-.38,1.11-.37,1.7,0,.59,.12,1.17,.37,1.7,.22,.47,.57,.88,1,1.18,.45,.29,.97,.44,1.5,.43Z"/><path d="M134.17,274.41c-.9,.02-1.79-.2-2.58-.62-.73-.4-1.35-.98-1.77-1.7-.43-.76-.65-1.62-.63-2.49,0-.68,.12-1.36,.36-2,.23-.59,.57-1.13,1-1.59,.43-.45,.95-.81,1.53-1.05,.62-.25,1.28-.37,1.94-.37,.59,0,1.17,.12,1.71,.36,.52,.24,.99,.58,1.38,1,.4,.42,.7,.91,.9,1.45,.22,.58,.32,1.2,.29,1.82v.8h-7.73l-.41-1.48h6.53l-.27,.31v-.44c-.03-.38-.16-.75-.39-1.06-.23-.31-.53-.56-.87-.74-.35-.18-.74-.27-1.13-.27-.57-.01-1.13,.11-1.64,.37-.44,.25-.78,.63-1,1.08-.24,.56-.36,1.16-.34,1.76-.01,.6,.13,1.19,.42,1.72,.27,.48,.68,.87,1.17,1.12,.54,.28,1.14,.41,1.74,.4,.45,0,.89-.08,1.31-.24,.48-.2,.92-.49,1.3-.84l.94,1.31c-.31,.31-.67,.56-1.06,.76-.42,.22-.86,.39-1.31,.51-.46,.1-.92,.15-1.39,.12Z"/><path d="M76.41,295.83v-13.32h1.85v5.81l-.32,.22c.13-.44,.37-.84,.7-1.16,.36-.36,.78-.65,1.24-.86,1.05-.48,2.26-.45,3.28,.09,.49,.3,.87,.75,1.08,1.28,.26,.7,.38,1.44,.36,2.18v5.76h-1.85v-5.63c.01-.46-.06-.91-.22-1.34-.12-.33-.36-.61-.67-.78-.34-.17-.73-.24-1.11-.21-.34,0-.68,.06-1,.18-.29,.1-.55,.26-.78,.47-.22,.2-.4,.44-.53,.71-.13,.28-.19,.58-.19,.88v5.72h-1.84Z"/><path d="M88.33,284.29c-.33,.02-.66-.08-.92-.3-.23-.23-.35-.55-.33-.87-.01-.32,.11-.62,.34-.84,.24-.23,.57-.35,.91-.33,.33-.02,.66,.09,.91,.31,.23,.23,.35,.54,.33,.86,.01,.32-.11,.62-.33,.85-.25,.22-.58,.34-.91,.32Zm-.9,11.54v-9.45h1.85v9.45h-1.85Z"/><path d="M96.53,296c-.9,.02-1.79-.2-2.58-.62-.73-.39-1.34-.98-1.76-1.7-.44-.76-.66-1.62-.64-2.49,0-.68,.12-1.36,.36-2,.23-.59,.57-1.13,1-1.59,.43-.46,.95-.81,1.53-1.05,.61-.25,1.27-.37,1.93-.37,.59,0,1.17,.12,1.71,.36,.52,.24,.99,.58,1.38,1,.4,.42,.7,.91,.9,1.45,.21,.58,.32,1.2,.3,1.82v.8h-7.74l-.42-1.48h6.5l-.27,.31v-.44c-.03-.38-.17-.75-.4-1.06-.23-.31-.52-.56-.86-.74-.35-.18-.74-.27-1.14-.27-.57-.01-1.13,.11-1.64,.37-.44,.25-.79,.62-1,1.08-.25,.55-.37,1.15-.35,1.76-.01,.6,.13,1.19,.42,1.72,.3,.47,.73,.84,1.24,1.06,.54,.28,1.14,.41,1.74,.4,.45,0,.89-.08,1.31-.24,.48-.2,.92-.48,1.3-.84l.94,1.31c-.31,.3-.66,.56-1.05,.76-.42,.22-.86,.39-1.32,.51-.45,.12-.92,.19-1.39,.18Z"/><path d="M102.67,295.83v-9.45h1.87v3l-.18-.72c.14-.46,.37-.88,.68-1.24,.3-.36,.68-.66,1.1-.88,.39-.22,.83-.33,1.28-.33,.2,0,.4,.02,.59,.06,.15,.02,.3,.06,.44,.12l-.49,2c-.15-.06-.31-.11-.47-.15-.17-.05-.34-.07-.52-.07-.32,0-.63,.07-.92,.19-.29,.12-.55,.3-.78,.52-.22,.23-.4,.49-.53,.78-.14,.31-.21,.66-.2,1v5.22l-1.87-.05Z"/><path d="M109.93,295.83v-9.45h1.87v3l-.18-.72c.13-.46,.36-.88,.67-1.24,.31-.36,.68-.66,1.1-.88,.57-.31,1.23-.41,1.87-.27,.15,.02,.3,.06,.44,.12l-.48,2c-.16-.06-.32-.11-.48-.15-.17-.05-.34-.07-.51-.07-.32,0-.64,.07-.93,.19-.29,.12-.55,.3-.77,.52-.22,.23-.4,.49-.53,.78-.15,.31-.21,.66-.2,1v5.22l-1.87-.05Z"/><path d="M121,296c-.87,.02-1.72-.2-2.47-.64-.72-.42-1.31-1.02-1.72-1.74-.84-1.58-.84-3.48,0-5.06,.41-.73,1-1.33,1.72-1.75,1.53-.85,3.4-.85,4.93,0,.72,.42,1.31,1.02,1.72,1.75,.84,1.58,.84,3.48,0,5.06-.41,.72-1,1.32-1.72,1.74-.75,.43-1.6,.65-2.46,.64Zm0-1.69c.53,.01,1.06-.14,1.51-.42,.43-.29,.78-.69,1-1.16,.26-.51,.38-1.07,.36-1.64,.02-.58-.1-1.15-.36-1.67-.22-.46-.57-.86-1-1.14-.45-.28-.98-.43-1.51-.42-1.09,0-2.08,.61-2.57,1.58-.26,.51-.38,1.08-.36,1.65-.02,.57,.1,1.13,.36,1.64,.24,.47,.6,.88,1.05,1.16,.46,.28,.98,.43,1.52,.43h0Z"/><path d="M533.53,308.09v-12.6h4.93c.84-.01,1.66,.14,2.44,.45,.71,.29,1.34,.73,1.86,1.3,.53,.58,.93,1.26,1.19,2,.28,.82,.42,1.68,.41,2.55,0,.87-.13,1.74-.41,2.57-.26,.74-.66,1.42-1.18,2-.52,.56-1.15,.99-1.86,1.28-.78,.31-1.61,.46-2.45,.45h-4.93Zm1.94-1.67l-.05-.2h3c.58,.01,1.16-.09,1.7-.31,.48-.19,.91-.49,1.26-.87,.35-.4,.62-.88,.78-1.39,.19-.6,.28-1.23,.27-1.86,0-.62-.08-1.25-.27-1.84-.16-.52-.43-.99-.79-1.4-.35-.38-.78-.68-1.26-.88-.54-.21-1.11-.32-1.69-.31h-3l.11-.16-.06,9.22Z"/><path d="M547.73,296.55c-.33,.02-.66-.09-.92-.3-.43-.49-.43-1.22,0-1.71,.24-.23,.57-.35,.91-.33,.33-.02,.66,.09,.92,.31,.43,.49,.43,1.22,0,1.71-.25,.22-.58,.34-.91,.32Zm-.9,11.54v-9.45h1.85v9.45h-1.85Z"/><path d="M555.76,312.23c-.68,0-1.35-.1-2-.31-.58-.17-1.13-.45-1.61-.82l.68-1.44c.26,.19,.55,.36,.85,.48,.32,.13,.66,.24,1,.32,.35,.08,.71,.12,1.07,.12,.57,.02,1.13-.09,1.65-.33,.43-.2,.78-.53,1-.95,.24-.49,.36-1.03,.34-1.57v-1.82l.2,.13c-.08,.41-.28,.78-.58,1.07-.36,.35-.78,.64-1.24,.84-.48,.21-.99,.32-1.51,.32-1.69,.03-3.26-.89-4.07-2.38-.42-.78-.63-1.65-.61-2.53-.02-.88,.19-1.75,.6-2.53,.39-.72,.96-1.33,1.66-1.75,.72-.43,1.54-.65,2.37-.64,.34,0,.67,.05,1,.14,.33,.09,.64,.22,.94,.38,.27,.15,.53,.33,.77,.53,.21,.18,.4,.38,.56,.61,.13,.19,.22,.39,.27,.61l-.4,.15v-2.22h1.86v8.88c0,.68-.11,1.36-.34,2-.21,.56-.56,1.07-1,1.48-.44,.41-.96,.73-1.53,.92-.62,.21-1.27,.31-1.93,.31Zm.07-5.67c.55,0,1.09-.13,1.56-.41,.45-.28,.82-.67,1.07-1.14,.5-1.05,.5-2.27,0-3.32-.25-.47-.62-.86-1.07-1.14-.96-.55-2.13-.55-3.09,0-.45,.28-.82,.68-1.06,1.15-.52,1.04-.52,2.26,0,3.3,.5,.97,1.51,1.58,2.6,1.55h0Z"/><path d="M567.62,308.27c-.9,.02-1.79-.19-2.59-.62-.73-.4-1.34-.98-1.76-1.7-.44-.75-.66-1.61-.64-2.48,0-.68,.12-1.36,.36-2,.23-.59,.57-1.13,1-1.59,.43-.44,.96-.78,1.53-1,.62-.25,1.28-.38,1.94-.37,.59,0,1.17,.11,1.71,.35,1.05,.46,1.87,1.33,2.27,2.41,.21,.59,.32,1.21,.3,1.83v.79h-7.74l-.41-1.48h6.53l-.27,.31v-.43c-.03-.39-.17-.76-.4-1.07-.22-.31-.52-.56-.86-.73-.35-.18-.74-.27-1.13-.27-.57-.02-1.13,.11-1.64,.37-.44,.24-.79,.62-1,1.08-.24,.55-.36,1.15-.34,1.75-.01,.6,.13,1.19,.41,1.72,.27,.48,.68,.87,1.17,1.12,.95,.47,2.05,.53,3.05,.17,.48-.21,.92-.5,1.31-.85l.93,1.31c-.31,.31-.66,.56-1.05,.76-.41,.22-.85,.39-1.31,.51-.45,.1-.91,.14-1.37,.11Z"/><path d="M576.91,308.27c-.74,0-1.47-.13-2.15-.41-.62-.27-1.16-.69-1.58-1.23l1.26-1.08c.32,.39,.72,.7,1.18,.91,.46,.2,.95,.29,1.45,.28,.2,0,.41-.02,.6-.08,.18-.05,.35-.13,.49-.24,.13-.11,.24-.24,.31-.39,.07-.15,.11-.32,.11-.49,.01-.29-.11-.57-.34-.76-.18-.11-.37-.21-.57-.28-.33-.12-.66-.23-1-.31-.59-.15-1.16-.35-1.71-.62-.38-.19-.72-.45-1-.77-.18-.22-.32-.48-.4-.75-.09-.29-.13-.59-.13-.89,0-.38,.09-.75,.26-1.09,.18-.33,.43-.62,.72-.86,.32-.26,.69-.45,1.08-.57,.43-.13,.88-.2,1.33-.2,.45,0,.89,.06,1.32,.18,.43,.12,.84,.3,1.22,.53,.36,.21,.67,.48,.93,.81l-1.06,1.17c-.23-.23-.48-.43-.75-.61-.26-.17-.53-.3-.82-.4-.24-.09-.49-.14-.75-.15-.23,0-.46,.03-.69,.08-.18,.04-.35,.11-.51,.21-.13,.09-.24,.22-.31,.36-.08,.15-.12,.32-.11,.49,.01,.15,.05,.3,.11,.44,.07,.14,.16,.25,.28,.35,.19,.13,.39,.23,.6,.31,.33,.12,.66,.23,1,.3,.51,.13,1,.3,1.48,.52,.35,.15,.66,.36,.93,.63,.23,.22,.41,.49,.5,.8,.1,.32,.15,.66,.15,1,0,.52-.16,1.03-.46,1.45-.32,.44-.75,.78-1.24,1-.54,.25-1.13,.37-1.73,.36Z"/><path d="M581.59,300.44v-1.8h6v1.8h-6Zm2,7.65v-11.86h1.85v11.86h-1.85Z"/><path d="M590.5,296.55c-.33,.02-.66-.08-.92-.3-.23-.23-.35-.55-.33-.87-.01-.32,.11-.62,.34-.84,.24-.23,.57-.35,.91-.33,.33-.02,.66,.09,.91,.31,.45,.48,.45,1.23,0,1.71-.25,.23-.58,.34-.91,.32Zm-.9,11.54v-9.45h1.85v9.45h-1.85Z"/><path d="M598.54,308.27c-.87,.02-1.72-.2-2.47-.64-.72-.41-1.32-1.01-1.72-1.74-.84-1.58-.84-3.48,0-5.06,.41-.73,1-1.33,1.72-1.75,1.53-.85,3.4-.85,4.93,0,.72,.42,1.31,1.03,1.72,1.75,.84,1.58,.84,3.48,0,5.06-.41,.72-1,1.32-1.72,1.74-.75,.43-1.6,.65-2.46,.64Zm0-1.69c.53,0,1.06-.14,1.51-.42,.45-.28,.81-.68,1.05-1.16,.48-1.05,.48-2.27,0-3.32-.24-.47-.6-.86-1.05-1.14-.45-.28-.98-.42-1.51-.41-.54,0-1.06,.14-1.52,.42-.43,.29-.77,.68-1,1.15-.47,1.05-.47,2.25,0,3.3,.23,.47,.57,.86,1,1.15,.46,.28,.98,.43,1.52,.43Z"/><path d="M605.36,308.09v-9.45h1.86v1.95l-.33,.21c.14-.44,.38-.84,.7-1.16,.36-.36,.79-.65,1.25-.86,1.04-.48,2.25-.45,3.27,.09,.49,.3,.87,.75,1.08,1.28,.26,.7,.38,1.44,.36,2.18v5.76h-1.85v-5.63c.02-.46-.06-.91-.22-1.34-.12-.33-.35-.61-.66-.78-.35-.17-.74-.24-1.12-.2-.34,0-.68,.05-1,.17-.29,.1-.55,.26-.78,.47-.22,.2-.4,.45-.52,.72-.13,.27-.19,.57-.19,.87v5.72h-1.85Z"/><path d="M620.48,308.27c-.9,.02-1.79-.19-2.58-.62-.73-.39-1.34-.98-1.76-1.7-.44-.75-.66-1.61-.64-2.48,0-.68,.12-1.36,.36-2,.23-.59,.57-1.13,1-1.59,.43-.44,.95-.78,1.53-1,.61-.25,1.27-.38,1.93-.37,.59,0,1.17,.11,1.71,.35,.52,.24,.99,.58,1.38,1,.4,.42,.7,.91,.9,1.45,.22,.59,.31,1.21,.29,1.83v.79h-7.73l-.41-1.48h6.54l-.27,.31v-.43c-.02-.39-.16-.76-.39-1.07-.23-.31-.52-.55-.86-.73-.35-.18-.74-.27-1.14-.27-.57-.02-1.13,.11-1.64,.37-.44,.24-.79,.62-1,1.08-.24,.55-.36,1.15-.34,1.75-.01,.6,.13,1.19,.42,1.72,.27,.48,.67,.88,1.17,1.12,.54,.28,1.14,.41,1.74,.4,.45,0,.89-.08,1.31-.23,.48-.21,.92-.5,1.3-.85l.94,1.31c-.31,.3-.66,.56-1.05,.76-.42,.22-.86,.39-1.32,.51-.46,.09-.93,.11-1.39,.07Z"/><path d="M629.77,308.27c-.73,0-1.46-.13-2.14-.41-.63-.27-1.17-.69-1.59-1.23l1.26-1.08c.32,.39,.72,.7,1.18,.91,.46,.19,.95,.29,1.45,.28,.21,0,.41-.02,.61-.08,.17-.05,.34-.13,.48-.24,.13-.11,.24-.24,.32-.39,.07-.15,.1-.32,.1-.49,.01-.29-.11-.57-.34-.76-.18-.11-.36-.21-.56-.28-.33-.12-.66-.23-1-.31-.59-.14-1.17-.35-1.71-.62-.38-.18-.72-.45-1-.77-.18-.23-.31-.48-.4-.75-.08-.29-.12-.59-.12-.89,0-.38,.09-.75,.26-1.09,.18-.33,.42-.63,.72-.86,.32-.26,.69-.45,1.08-.57,.43-.13,.87-.2,1.32-.2,.45,0,.9,.06,1.33,.18,.43,.12,.83,.3,1.21,.53,.36,.21,.68,.49,.94,.81l-1.07,1.17c-.22-.23-.47-.43-.74-.61-.26-.17-.53-.3-.82-.4-.24-.09-.5-.14-.76-.15-.23,0-.46,.03-.68,.08-.18,.03-.36,.11-.51,.21-.13,.09-.24,.22-.32,.36-.07,.15-.11,.32-.11,.49,.01,.15,.05,.3,.12,.44,.07,.14,.16,.25,.28,.35,.18,.13,.38,.23,.59,.31,.33,.12,.66,.22,1,.3,.51,.13,1.01,.3,1.49,.52,.34,.15,.66,.36,.92,.63,.23,.22,.41,.5,.51,.8,.1,.32,.14,.66,.14,1,0,.52-.15,1.03-.46,1.45-.31,.44-.74,.78-1.23,1-.55,.25-1.15,.37-1.75,.36Z"/><path d="M554.87,329.69v-13.32h1.86v13.32h-1.86Z"/><path d="M560.56,318.15c-.33,.02-.66-.09-.92-.3-.22-.23-.34-.55-.32-.87-.01-.31,.11-.62,.33-.84,.25-.23,.57-.35,.91-.33,.34-.02,.66,.09,.92,.31,.23,.23,.34,.54,.32,.86,.01,.32-.11,.62-.33,.85-.25,.23-.58,.34-.91,.32Zm-.9,11.54v-9.45h1.86v9.45h-1.86Z"/><path d="M568.59,333.83c-.68,0-1.35-.11-2-.31-.58-.17-1.13-.45-1.61-.82l.69-1.44c.26,.19,.54,.35,.84,.48,.32,.13,.66,.24,1,.32,.35,.08,.7,.12,1.06,.12,.57,.02,1.14-.09,1.66-.33,.44-.21,.79-.56,1-1,.25-.49,.37-1.03,.35-1.57v-1.82l.19,.13c-.08,.41-.28,.78-.58,1.07-.35,.36-.77,.64-1.23,.84-.48,.21-1,.32-1.52,.32-1.69,.03-3.26-.89-4.06-2.38-.82-1.59-.82-3.47,0-5.06,.78-1.48,2.32-2.41,4-2.39,.34,0,.67,.05,1,.14,.33,.09,.64,.22,.94,.38,.27,.15,.53,.33,.77,.53,.22,.17,.41,.38,.56,.61,.13,.18,.23,.39,.27,.61l-.39,.15v-2.22h1.85v8.88c.01,.68-.1,1.36-.33,2-.22,.56-.56,1.07-1,1.48-.44,.41-.96,.73-1.53,.92-.62,.22-1.27,.34-1.93,.36Zm.07-5.67c.55,.01,1.09-.13,1.57-.41,.45-.28,.82-.67,1.06-1.14,.51-1.05,.51-2.27,0-3.32-.25-.47-.61-.86-1.06-1.14-.96-.55-2.14-.55-3.1,0-.45,.28-.81,.68-1.06,1.15-.52,1.04-.52,2.26,0,3.3,.25,.47,.61,.86,1.06,1.14,.46,.27,.99,.42,1.53,.42h0Z"/><path d="M580.45,329.87c-.9,.02-1.79-.19-2.58-.62-.73-.4-1.35-.98-1.77-1.7-.43-.76-.65-1.61-.63-2.48,0-.68,.11-1.36,.36-2,.23-.59,.57-1.13,1-1.59,.43-.44,.96-.78,1.53-1,.62-.25,1.28-.38,1.94-.37,.59,0,1.17,.11,1.71,.35,.52,.24,.99,.58,1.38,1,.4,.42,.7,.91,.9,1.45,.21,.59,.31,1.21,.29,1.83v.79h-7.73l-.41-1.48h6.56l-.27,.31v-.43c-.02-.39-.16-.76-.39-1.07-.23-.31-.53-.56-.87-.73-.35-.18-.74-.27-1.13-.27-.57-.02-1.13,.11-1.64,.37-.44,.24-.79,.62-1,1.08-.24,.55-.36,1.15-.34,1.75-.01,.6,.13,1.19,.42,1.72,.27,.48,.67,.88,1.17,1.12,.54,.28,1.14,.41,1.74,.4,.45,0,.89-.08,1.31-.23,.48-.21,.92-.5,1.3-.85l.94,1.31c-.31,.31-.67,.56-1.06,.76-.41,.22-.85,.39-1.31,.51-.47,.09-.95,.11-1.42,.07Z"/><path d="M586.59,329.69v-9.45h1.87v3l-.18-.72c.13-.46,.37-.88,.68-1.24,.3-.36,.67-.66,1.09-.88,.4-.21,.84-.33,1.29-.33,.2,0,.4,.02,.59,.06,.15,.03,.3,.07,.44,.12l-.49,2c-.16-.06-.32-.11-.48-.15-.17-.04-.34-.07-.51-.07-.32,0-.64,.07-.93,.19-.29,.12-.55,.3-.77,.53-.22,.22-.4,.48-.53,.77-.14,.31-.21,.66-.2,1v5.22l-1.87-.05Z"/><path d="M597.08,329.87c-.76,0-1.5-.22-2.13-.65-.65-.45-1.18-1.05-1.54-1.76-.39-.78-.59-1.65-.57-2.52-.02-.88,.18-1.75,.58-2.53,.36-.71,.91-1.31,1.58-1.74,1.08-.66,2.4-.81,3.6-.41,.39,.14,.75,.34,1.07,.6,.29,.26,.55,.56,.75,.89,.2,.33,.32,.7,.37,1.08l-.41-.14v-2.45h1.87v9.45h-1.87v-2.25l.43-.12c-.08,.34-.23,.66-.44,.94-.23,.32-.52,.6-.85,.82-.35,.24-.73,.44-1.13,.58-.42,.14-.86,.21-1.31,.21Zm.49-1.71c.53,0,1.04-.13,1.49-.41,.43-.28,.77-.68,1-1.14,.25-.52,.38-1.09,.37-1.67,.01-.57-.12-1.13-.37-1.64-.22-.46-.57-.85-1-1.13-.44-.28-.96-.43-1.49-.42-.52,0-1.03,.14-1.47,.42-.43,.28-.77,.67-1,1.13-.25,.51-.37,1.07-.36,1.64,0,.58,.11,1.15,.36,1.67,.23,.46,.57,.85,1,1.14,.44,.27,.95,.42,1.47,.41Z"/><path d="M608,329.87c-.73,0-1.46-.13-2.14-.41-.62-.27-1.17-.69-1.58-1.23l1.26-1.08c.32,.39,.72,.7,1.17,.91,.46,.19,.95,.29,1.45,.28,.21,0,.41-.02,.61-.08,.17-.05,.34-.13,.48-.24,.14-.1,.25-.24,.32-.39,.07-.15,.11-.32,.11-.49,0-.29-.12-.58-.35-.76-.18-.11-.36-.21-.56-.28-.33-.12-.66-.23-1-.31-.59-.14-1.17-.35-1.71-.62-.38-.18-.72-.45-1-.77-.18-.22-.31-.48-.39-.75-.09-.29-.14-.59-.13-.89,0-.38,.09-.75,.26-1.09,.18-.33,.42-.63,.72-.86,.32-.26,.69-.45,1.08-.57,.43-.13,.87-.2,1.32-.2,.45,0,.9,.06,1.33,.18,.43,.12,.83,.3,1.21,.53,.36,.21,.68,.48,.94,.81l-1.06,1.17c-.23-.23-.48-.43-.75-.61-.26-.17-.53-.3-.82-.4-.24-.09-.5-.14-.76-.15-.23,0-.46,.03-.68,.08-.18,.04-.36,.11-.51,.21-.13,.09-.24,.22-.32,.36-.07,.15-.11,.32-.11,.49,.02,.15,.06,.3,.12,.44,.07,.14,.16,.25,.28,.35,.18,.13,.38,.23,.59,.31,.33,.12,.66,.22,1,.3,.51,.13,1.01,.3,1.49,.52,.35,.15,.66,.36,.92,.63,.23,.22,.41,.5,.51,.8,.1,.32,.14,.66,.14,1,0,.52-.15,1.03-.46,1.45-.31,.44-.74,.78-1.23,1-.55,.25-1.15,.37-1.75,.36Z"/><path d="M280.4,390.79v-12.6h5.13c.66,0,1.3,.17,1.86,.51,.56,.34,1.03,.83,1.35,1.4,1.04,1.85,.44,4.19-1.35,5.33-.55,.36-1.2,.55-1.86,.54h-3.18v4.82h-1.95Zm2-6.7h3.15c.32,0,.62-.1,.88-.28,.27-.19,.48-.44,.64-.73,.16-.31,.24-.65,.24-1,.02-.69-.31-1.34-.88-1.73-.26-.18-.57-.27-.88-.27h-3.15v4.01Z"/><path d="M292.55,379.25c-.33,.02-.66-.09-.92-.3-.22-.23-.34-.55-.32-.87-.01-.31,.11-.62,.33-.84,.25-.23,.57-.35,.91-.33,.34-.02,.67,.09,.92,.31,.23,.23,.34,.54,.32,.86,.01,.32-.11,.62-.33,.85-.25,.22-.58,.34-.91,.32Zm-.9,11.54v-9.45h1.86v9.45h-1.86Z"/><path d="M300.76,391c-.9,.02-1.79-.2-2.58-.62-.73-.4-1.34-.99-1.77-1.7-.43-.76-.65-1.62-.64-2.49,0-.68,.12-1.36,.36-2,.23-.59,.57-1.13,1-1.59,.43-.45,.95-.81,1.53-1.05,.62-.25,1.28-.37,1.94-.37,.59,0,1.17,.12,1.71,.35,.52,.24,.98,.58,1.37,1,.4,.42,.7,.91,.9,1.45,.22,.58,.32,1.2,.3,1.82v.8h-7.72l-.41-1.48h6.53l-.27,.31v-.44c-.03-.38-.17-.75-.39-1.06-.23-.31-.53-.56-.87-.74-.35-.18-.74-.27-1.13-.27-.57-.02-1.13,.11-1.64,.37-.44,.25-.78,.63-1,1.08-.25,.55-.36,1.16-.34,1.76-.01,.6,.13,1.19,.41,1.72,.27,.48,.68,.87,1.17,1.12,.54,.28,1.14,.41,1.75,.4,.44,0,.89-.08,1.3-.24,.48-.2,.93-.48,1.31-.84l.94,1.31c-.31,.31-.67,.56-1.06,.76-.42,.21-.86,.38-1.31,.51-.45,.11-.92,.15-1.39,.13Z"/><path d="M306.93,390.79v-13.32h1.86v13.32h-1.86Z"/><path d="M318,394.93l1.91-4.41v1.48l-4.72-10.66h2.16l2.95,7c.08,.18,.16,.36,.22,.55,.08,.24,.15,.49,.21,.73l-.46,.1,.27-.75,.27-.76,2.46-6.82h2.2l-3.89,9.45-1.6,4.14-1.98-.05Z"/><path d="M335.9,391c-.82,.02-1.62-.21-2.32-.64-.68-.43-1.24-1.04-1.61-1.75-.78-1.59-.78-3.46,0-5.05,.37-.72,.92-1.32,1.6-1.75,1.09-.67,2.43-.82,3.64-.41,.42,.14,.82,.35,1.18,.61,.32,.23,.6,.51,.82,.84,.19,.27,.29,.6,.3,.93h-.54v-6.32h1.85v13.32h-1.82v-2.25h.36c0,.31-.11,.6-.29,.85-.21,.3-.47,.57-.77,.79-.33,.25-.7,.44-1.1,.57-.41,.17-.85,.25-1.3,.26Zm.25-1.6c.53,0,1.05-.14,1.49-.43,.43-.3,.78-.71,1-1.18,.49-1.08,.49-2.33,0-3.41-.23-.47-.57-.87-1-1.17-.44-.29-.96-.45-1.49-.44-.53,0-1.06,.15-1.5,.44-.43,.29-.78,.7-1,1.17-.49,1.08-.49,2.33,0,3.41,.22,.48,.57,.88,1,1.18,.45,.28,.97,.42,1.5,.4v.03Z"/><path d="M344.57,379.25c-.33,.02-.66-.09-.92-.3-.22-.23-.34-.55-.32-.87-.01-.31,.11-.62,.33-.84,.25-.23,.57-.35,.91-.33,.34-.02,.67,.09,.92,.31,.23,.23,.34,.54,.32,.86,.01,.32-.11,.62-.33,.85-.25,.22-.58,.34-.91,.32Zm-.9,11.54v-9.45h1.85v9.45h-1.85Z"/><path d="M352.78,391c-.9,.02-1.79-.2-2.58-.62-.73-.4-1.34-.99-1.77-1.7-.43-.76-.65-1.62-.64-2.49,0-.68,.12-1.36,.36-2,.23-.59,.57-1.13,1-1.59,.43-.45,.95-.81,1.53-1.05,.62-.25,1.28-.37,1.94-.37,.59,0,1.17,.12,1.71,.35,.52,.24,.98,.58,1.37,1,.4,.42,.7,.91,.9,1.45,.22,.58,.32,1.2,.3,1.82v.8h-7.72l-.41-1.48h6.53l-.27,.31v-.44c-.03-.38-.17-.75-.4-1.06-.22-.31-.52-.57-.86-.74-.35-.18-.74-.27-1.13-.27-.57-.02-1.13,.11-1.64,.37-.44,.25-.79,.62-1,1.08-.25,.55-.36,1.16-.34,1.76-.01,.6,.13,1.19,.41,1.72,.27,.48,.68,.87,1.17,1.12,.54,.28,1.14,.41,1.75,.4,.44,0,.89-.08,1.3-.24,.48-.2,.93-.48,1.31-.84l.93,1.31c-.31,.31-.66,.56-1.05,.76-.42,.21-.86,.38-1.31,.51-.45,.11-.92,.15-1.39,.13Z"/><path d="M358.92,390.79v-9.45h1.85v1.94l-.32,.22c.13-.44,.37-.84,.7-1.16,.36-.36,.78-.65,1.24-.87,1.05-.47,2.26-.44,3.28,.09,.49,.3,.87,.75,1.08,1.29,.26,.7,.38,1.44,.36,2.18v5.76h-1.86v-5.63c.01-.46-.06-.92-.21-1.35-.13-.33-.36-.6-.67-.77-.35-.17-.73-.24-1.12-.21-.34,0-.68,.05-1,.17-.29,.11-.56,.27-.79,.48-.22,.2-.39,.44-.52,.71-.13,.28-.19,.58-.19,.88v5.72h-1.83Z"/><path d="M368.83,383.14v-1.8h6v1.8h-6Zm2,7.65v-11.86h1.85v11.86h-1.85Z"/><path d="M380.86,391c-.9,.02-1.79-.2-2.58-.62-.73-.4-1.34-.99-1.77-1.7-.43-.76-.65-1.62-.64-2.49,0-.68,.12-1.36,.36-2,.23-.59,.57-1.13,1-1.59,.43-.45,.95-.81,1.53-1.05,.62-.25,1.28-.37,1.94-.37,.59,0,1.17,.12,1.71,.35,.52,.24,.98,.58,1.37,1,.4,.42,.7,.91,.9,1.45,.22,.58,.32,1.2,.3,1.82v.8h-7.72l-.41-1.48h6.53l-.27,.31v-.44c-.03-.38-.17-.75-.4-1.06-.22-.31-.52-.57-.86-.74-.35-.18-.74-.27-1.13-.27-.57-.02-1.13,.11-1.64,.37-.44,.25-.79,.62-1,1.08-.25,.55-.36,1.16-.34,1.76-.01,.6,.13,1.19,.41,1.72,.27,.48,.68,.87,1.17,1.12,.54,.28,1.14,.41,1.75,.4,.44,0,.89-.08,1.3-.24,.48-.2,.93-.48,1.31-.84l.93,1.31c-.31,.31-.66,.56-1.05,.76-.42,.21-.86,.38-1.31,.51-.45,.11-.92,.15-1.39,.13Z"/><path d="M390.15,391c-.74,0-1.47-.13-2.15-.41-.62-.27-1.16-.69-1.58-1.23l1.26-1.08c.32,.39,.72,.7,1.18,.91,.46,.19,.95,.29,1.45,.28,.2,0,.4-.03,.6-.08,.18-.05,.34-.13,.49-.24,.13-.1,.24-.24,.31-.39,.07-.16,.11-.33,.11-.5,.01-.29-.11-.57-.34-.75-.18-.12-.37-.21-.57-.28-.33-.12-.66-.23-1-.32-.59-.14-1.16-.35-1.71-.61-.38-.19-.72-.45-1-.77-.18-.22-.32-.48-.4-.75-.09-.29-.13-.59-.13-.89,0-.38,.09-.76,.27-1.09,.17-.34,.42-.63,.72-.86,.32-.26,.69-.45,1.08-.57,.43-.13,.87-.2,1.32-.2,.45,0,.89,.06,1.32,.18,.43,.12,.84,.29,1.22,.52,.35,.22,.67,.49,.93,.81l-1.06,1.17c-.23-.22-.48-.43-.75-.6-.26-.17-.53-.3-.82-.4-.24-.09-.49-.14-.75-.15-.23,0-.46,.02-.69,.07-.18,.04-.36,.12-.51,.22-.13,.09-.24,.22-.31,.36-.08,.15-.12,.32-.11,.49,.01,.15,.05,.3,.12,.44,.06,.14,.15,.25,.27,.35,.19,.12,.39,.22,.6,.3,.32,.13,.66,.23,1,.31,.51,.13,1,.3,1.48,.51,.35,.16,.66,.37,.93,.64,.23,.21,.41,.49,.5,.79,.1,.32,.15,.66,.15,1,0,.52-.16,1.03-.46,1.45-.32,.44-.75,.78-1.24,1-.54,.25-1.13,.38-1.73,.37Z"/><path d="M315.72,412.57c-.73,0-1.46-.13-2.14-.41-.63-.27-1.17-.69-1.59-1.23l1.26-1.08c.32,.39,.72,.7,1.18,.91,.46,.19,.95,.29,1.45,.28,.2,0,.4-.03,.6-.08,.18-.05,.34-.13,.49-.24,.27-.22,.42-.54,.42-.89,.01-.29-.11-.57-.34-.75-.18-.12-.37-.21-.57-.28-.33-.12-.66-.23-1-.32-.59-.14-1.16-.35-1.71-.61-.38-.19-.72-.45-1-.77-.18-.23-.31-.48-.4-.75-.08-.29-.12-.59-.12-.89,0-.38,.08-.75,.26-1.09,.17-.34,.42-.63,.72-.86,.32-.26,.69-.45,1.08-.57,.43-.13,.87-.2,1.32-.2,.45,0,.89,.06,1.32,.18,.43,.12,.84,.29,1.22,.52,.35,.22,.67,.49,.93,.81l-1.1,1.17c-.23-.22-.48-.43-.75-.6-.25-.17-.53-.3-.81-.4-.24-.09-.5-.14-.76-.15-.23,0-.46,.02-.68,.07-.19,.04-.36,.11-.52,.22-.13,.09-.24,.22-.31,.36-.07,.15-.11,.32-.11,.49,.01,.15,.05,.3,.12,.44,.07,.14,.16,.26,.28,.35,.18,.12,.38,.22,.59,.3,.32,.13,.66,.23,1,.31,.51,.13,1,.3,1.48,.51,.35,.16,.66,.37,.93,.64,.23,.21,.41,.49,.5,.79,.1,.32,.15,.66,.15,1,0,.52-.16,1.03-.46,1.45-.32,.43-.74,.78-1.23,1-.53,.24-1.11,.37-1.7,.37Z"/><path d="M324.83,412.57c-.76,0-1.51-.22-2.14-.65-.65-.45-1.18-1.05-1.54-1.76-.39-.78-.58-1.65-.57-2.52-.02-.88,.18-1.75,.58-2.53,.36-.71,.91-1.31,1.59-1.74,.67-.42,1.45-.64,2.24-.63,.46,0,.92,.07,1.35,.22,.39,.13,.75,.33,1.07,.6,.3,.25,.55,.55,.75,.89,.2,.33,.32,.7,.37,1.08l-.41-.14v-2.45h1.88v9.45h-1.87v-2.25l.43-.13c-.08,.34-.23,.67-.44,.95-.23,.32-.52,.6-.85,.82-.35,.24-.73,.43-1.13,.57-.42,.15-.86,.22-1.31,.22Zm.48-1.71c.53,0,1.05-.13,1.5-.41,.43-.28,.78-.68,1-1.15,.26-.52,.38-1.08,.37-1.66,.01-.57-.12-1.13-.37-1.64-.22-.46-.57-.85-1-1.13-.45-.28-.97-.43-1.5-.42-.52,0-1.03,.14-1.47,.42-.43,.28-.78,.67-1,1.13-.25,.51-.38,1.07-.37,1.64-.01,.58,.11,1.14,.37,1.66,.22,.47,.57,.86,1,1.15,.44,.27,.95,.42,1.47,.41h0Z"/><path d="M332.58,412.39v-9.45h1.86v1.94l-.33,.22c.13-.44,.37-.84,.7-1.16,.36-.36,.79-.65,1.25-.87,1.05-.47,2.25-.44,3.27,.09,.49,.3,.87,.75,1.08,1.29,.26,.7,.38,1.44,.36,2.18v5.76h-1.85v-5.63c.02-.46-.06-.92-.22-1.35-.12-.33-.35-.6-.66-.77-.35-.17-.73-.24-1.12-.21-.34,0-.68,.05-1,.17-.29,.11-.55,.27-.78,.48-.22,.2-.4,.44-.52,.71-.13,.28-.19,.58-.19,.88v5.72h-1.85Z"/><path d="M347.54,412.57c-.87,.02-1.72-.2-2.47-.64-.72-.42-1.32-1.02-1.72-1.75-.84-1.58-.84-3.47,0-5.05,.41-.73,1-1.33,1.72-1.75,1.53-.85,3.4-.85,4.93,0,.72,.42,1.31,1.03,1.72,1.75,.84,1.58,.84,3.47,0,5.05-.41,.73-1,1.33-1.72,1.75-.75,.43-1.6,.65-2.46,.64Zm0-1.69c.53,.01,1.06-.14,1.51-.43,.45-.28,.81-.68,1.05-1.15,.26-.51,.38-1.07,.36-1.64,.02-.58-.1-1.15-.36-1.67-.24-.47-.6-.87-1.05-1.14-.92-.56-2.08-.56-3,0-.43,.29-.78,.68-1,1.15-.48,1.04-.48,2.25,0,3.29,.22,.47,.57,.86,1,1.15,.44,.29,.96,.44,1.49,.44Z"/><path d="M357.51,412.57c-.73,0-1.46-.13-2.14-.41-.62-.27-1.17-.69-1.58-1.23l1.26-1.08c.32,.39,.72,.7,1.18,.91,.45,.2,.95,.29,1.44,.28,.21,0,.41-.03,.61-.08,.17-.05,.33-.13,.48-.24,.14-.1,.25-.24,.32-.39,.07-.16,.11-.33,.11-.5,0-.29-.12-.57-.35-.75-.17-.12-.36-.21-.56-.28-.33-.12-.66-.23-1-.32-.59-.14-1.16-.34-1.71-.61-.38-.19-.72-.45-1-.77-.18-.22-.31-.48-.39-.75-.09-.29-.13-.59-.13-.89,0-.38,.09-.75,.26-1.09,.18-.33,.43-.62,.72-.86,.32-.26,.69-.45,1.08-.57,.43-.13,.87-.2,1.32-.2,.45,0,.9,.06,1.33,.18,.43,.12,.83,.29,1.21,.52,.36,.22,.67,.49,.94,.81l-1.06,1.17c-.23-.22-.48-.43-.75-.6-.26-.17-.53-.3-.82-.4-.24-.09-.49-.14-.75-.15-.23,0-.46,.02-.69,.07-.18,.04-.36,.12-.51,.22-.13,.09-.24,.22-.32,.36-.07,.15-.1,.32-.1,.49,.01,.15,.05,.3,.11,.44,.07,.14,.16,.25,.28,.35,.18,.12,.38,.22,.59,.3,.33,.13,.66,.23,1,.31,.51,.13,1.01,.3,1.49,.51,.34,.15,.66,.37,.92,.64,.23,.22,.41,.49,.51,.79,.09,.32,.14,.66,.14,1,0,.52-.15,1.03-.46,1.45-.31,.44-.74,.78-1.23,1-.55,.25-1.15,.38-1.75,.37Z"/><path d="M416.25,159.16v-12.6h1.95v12.6h-1.95Zm.85-5.34v-1.88h8.24v1.88h-8.24Zm7.38,5.34v-12.6h1.94v12.6h-1.94Z"/><path d="M432.79,159.34c-.62,.02-1.23-.15-1.75-.47-.5-.32-.9-.77-1.15-1.31-.28-.63-.42-1.31-.41-2v-5.83h1.86v5.27c-.01,.49,.07,.98,.26,1.43,.15,.38,.41,.7,.75,.93,.36,.22,.78,.33,1.2,.32,.32,0,.65-.05,.95-.17,.28-.1,.54-.27,.75-.48,.21-.21,.38-.46,.5-.73,.12-.3,.18-.62,.18-.94v-5.69h1.85v9.45h-1.85v-2l.32-.21c-.15,.45-.4,.86-.73,1.2-.34,.36-.75,.65-1.21,.86-.47,.23-.99,.36-1.52,.37Z"/><path d="M444.78,159.34c-.9,.02-1.79-.19-2.58-.62-.73-.4-1.35-.98-1.77-1.7-.43-.76-.65-1.61-.63-2.48,0-.68,.12-1.36,.36-2,.23-.59,.57-1.13,1-1.59,.43-.44,.96-.78,1.53-1,.62-.25,1.28-.38,1.94-.37,.59,0,1.17,.11,1.71,.35,.52,.24,.99,.58,1.38,1,.4,.42,.7,.91,.9,1.45,.22,.59,.31,1.21,.29,1.83v.79h-7.73l-.41-1.48h6.53l-.27,.31v-.43c-.02-.39-.16-.76-.39-1.07-.23-.31-.53-.56-.87-.73-.35-.18-.74-.27-1.13-.27-.57-.02-1.13,.11-1.64,.37-.44,.24-.79,.62-1,1.08-.24,.55-.36,1.15-.34,1.75-.01,.6,.13,1.19,.42,1.72,.27,.48,.67,.88,1.17,1.12,.54,.28,1.14,.41,1.74,.4,.45,0,.89-.08,1.31-.23,.48-.21,.92-.5,1.3-.85l.94,1.31c-.31,.31-.67,.56-1.06,.76-.41,.22-.85,.39-1.31,.51-.46,.09-.93,.11-1.39,.07Z"/><path d="M454.07,159.34c-.73,0-1.46-.13-2.14-.41-.63-.27-1.17-.69-1.59-1.23l1.26-1.08c.32,.39,.72,.7,1.18,.91,.46,.19,.95,.29,1.45,.28,.2,0,.41-.02,.6-.08,.18-.04,.35-.13,.49-.24,.13-.11,.24-.24,.32-.39,.07-.15,.1-.32,.1-.49,.01-.29-.11-.57-.34-.76-.18-.11-.37-.21-.57-.28-.33-.13-.66-.23-1-.31-.59-.14-1.17-.35-1.71-.62-.38-.18-.72-.45-1-.77-.18-.23-.31-.48-.4-.75-.08-.29-.12-.59-.12-.89,0-.38,.08-.75,.26-1.09,.18-.33,.42-.63,.72-.86,.32-.26,.69-.45,1.08-.57,.43-.13,.87-.2,1.32-.2,.45,0,.89,.06,1.32,.18,.43,.12,.84,.3,1.22,.53,.36,.21,.68,.49,.94,.81l-1.07,1.17c-.22-.23-.47-.43-.74-.61-.26-.17-.53-.3-.82-.4-.24-.09-.5-.14-.76-.15-.23,0-.46,.03-.68,.08-.19,.04-.36,.11-.52,.21-.13,.1-.24,.22-.31,.36-.07,.15-.11,.32-.11,.49,.01,.15,.05,.3,.12,.44,.07,.14,.16,.26,.28,.35,.18,.13,.38,.23,.59,.31,.33,.12,.66,.22,1,.3,.51,.13,1,.3,1.48,.52,.35,.15,.66,.36,.93,.63,.23,.22,.41,.5,.51,.8,.1,.32,.14,.66,.14,1,0,.53-.17,1.05-.5,1.47-.32,.43-.74,.78-1.23,1-.54,.23-1.12,.35-1.7,.34Z"/><path d="M463.79,159.34c-.87,.02-1.73-.21-2.48-.64-.71-.4-1.3-.99-1.71-1.7-.84-1.58-.84-3.48,0-5.06,.41-.72,1-1.33,1.71-1.75,1.54-.85,3.4-.85,4.94,0,.72,.41,1.33,1,1.75,1.71,.84,1.58,.84,3.48,0,5.06-.41,.72-1,1.32-1.72,1.74-.76,.44-1.62,.66-2.49,.64Zm0-1.69c.53,0,1.06-.14,1.51-.42,.45-.28,.81-.68,1.05-1.15,.48-1.05,.48-2.27,0-3.32-.24-.47-.61-.86-1.05-1.14-.45-.28-.98-.42-1.51-.41-.54,0-1.06,.14-1.52,.42-.43,.29-.77,.68-1,1.15-.47,1.05-.47,2.25,0,3.3,.23,.47,.57,.86,1,1.15,.46,.28,.98,.43,1.52,.42Z"/><path d="M473.76,159.34c-.73,0-1.46-.13-2.14-.41-.64-.26-1.2-.69-1.62-1.23l1.26-1.08c.32,.39,.72,.7,1.17,.91,.46,.19,.95,.29,1.45,.28,.21,0,.41-.02,.61-.08,.17-.05,.34-.13,.48-.24,.14-.1,.25-.24,.32-.39,.07-.15,.11-.32,.11-.49,0-.29-.12-.58-.35-.76-.18-.11-.36-.21-.56-.28-.33-.12-.66-.23-1-.31-.59-.14-1.17-.35-1.71-.62-.38-.18-.72-.45-1-.77-.18-.22-.31-.48-.39-.75-.09-.29-.14-.59-.13-.89,0-.38,.09-.75,.26-1.09,.18-.33,.42-.63,.72-.86,.32-.26,.69-.45,1.08-.57,.43-.13,.87-.2,1.32-.2,.45,0,.9,.06,1.33,.18,.43,.12,.83,.3,1.21,.53,.36,.21,.68,.48,.94,.81l-1.06,1.17c-.23-.23-.48-.43-.75-.61-.26-.17-.53-.3-.82-.4-.24-.09-.5-.14-.76-.15-.23,0-.46,.03-.68,.08-.18,.04-.36,.11-.51,.21-.13,.09-.24,.22-.32,.36-.07,.15-.11,.32-.11,.49,.02,.15,.06,.3,.12,.44,.07,.14,.16,.25,.28,.35,.18,.13,.38,.23,.59,.31,.33,.12,.66,.22,1,.3,.51,.13,1.01,.3,1.49,.52,.35,.15,.66,.36,.92,.63,.23,.22,.41,.5,.51,.8,.1,.32,.14,.66,.14,1,0,.52-.15,1.03-.46,1.45-.31,.44-.74,.78-1.23,1-.54,.24-1.12,.37-1.71,.36Z"/><path d="M485.86,163.3l1.91-4.41v1.48l-4.71-10.66h2.16l2.95,6.95c.08,.18,.16,.36,.22,.55,.08,.25,.15,.49,.21,.73l-.47,.11c.1-.26,.19-.51,.28-.76s.18-.5,.26-.76l2.47-6.82h2.2l-3.89,9.45-1.61,4.14h-1.98Z"/><path d="M397.51,180.94c-.76,0-1.5-.22-2.13-.65-.65-.45-1.18-1.05-1.54-1.76-.39-.78-.59-1.65-.57-2.52-.02-.88,.18-1.75,.58-2.53,.36-.71,.91-1.31,1.59-1.74,.67-.42,1.45-.64,2.24-.63,.46,0,.92,.07,1.35,.22,.39,.14,.75,.34,1.07,.6,.3,.25,.55,.55,.75,.89,.2,.33,.32,.7,.37,1.08l-.41-.14v-2.45h1.87v9.45h-1.87v-2.25l.43-.12c-.08,.34-.23,.66-.44,.94-.23,.32-.52,.6-.85,.82-.35,.24-.73,.44-1.13,.58-.42,.14-.86,.21-1.31,.21Zm.49-1.71c.53,0,1.04-.13,1.49-.41,.43-.28,.78-.68,1-1.14,.25-.52,.38-1.09,.37-1.67,.01-.57-.12-1.13-.37-1.64-.22-.46-.57-.85-1-1.13-.44-.28-.96-.43-1.49-.42-.52,0-1.03,.14-1.47,.42-.43,.28-.78,.67-1,1.13-.25,.51-.38,1.07-.37,1.64-.01,.58,.12,1.15,.37,1.67,.23,.46,.57,.85,1,1.14,.44,.27,.95,.42,1.47,.41Z"/><path d="M405.27,180.76v-9.45h1.87v3l-.18-.72c.14-.46,.37-.88,.68-1.24,.3-.36,.68-.66,1.1-.88,.39-.22,.83-.33,1.28-.33,.2,0,.4,.02,.59,.06,.15,.03,.3,.07,.44,.12l-.49,2c-.15-.06-.31-.11-.47-.15-.48-.12-.99-.08-1.44,.12-.29,.12-.56,.3-.78,.53-.22,.22-.4,.48-.53,.77-.14,.31-.21,.66-.2,1v5.22l-1.87-.05Z"/><path d="M412.09,173.11v-1.8h6v1.8h-6Zm2,7.65v-11.86h1.85v11.86h-1.85Z"/><path d="M421,169.22c-.33,.02-.66-.09-.91-.3-.44-.48-.44-1.23,0-1.71,.25-.23,.57-.35,.91-.33,.34-.02,.67,.09,.92,.31,.23,.23,.35,.54,.33,.86,0,.32-.11,.63-.34,.85-.25,.23-.58,.34-.91,.32Zm-.9,11.54v-9.45h1.9v9.45h-1.9Z"/><path d="M428.82,180.94c-.83,.02-1.65-.21-2.35-.65-.69-.43-1.26-1.04-1.64-1.76-.8-1.57-.8-3.43,0-5,.38-.73,.95-1.34,1.64-1.77,.71-.44,1.52-.66,2.35-.65,.79,0,1.58,.17,2.29,.52,.65,.3,1.2,.78,1.58,1.39l-1,1.26c-.2-.29-.45-.54-.74-.75-.29-.22-.61-.4-.95-.53-.32-.13-.66-.2-1-.2-.54,0-1.08,.14-1.54,.42-.45,.28-.82,.68-1.07,1.16-.87,1.55-.38,3.51,1.11,4.47,.45,.28,.98,.43,1.51,.43,.32,0,.64-.06,.95-.16,.32-.12,.62-.28,.89-.49,.3-.23,.57-.49,.81-.79l1,1.26c-.43,.57-1,1.03-1.65,1.33-.68,.33-1.43,.51-2.19,.51Z"/><path d="M437.74,180.94c-.62,.02-1.23-.15-1.75-.47-.5-.32-.9-.77-1.15-1.31-.28-.63-.42-1.31-.41-2v-5.83h1.86v5.33c-.01,.49,.07,.98,.26,1.43,.15,.38,.41,.7,.75,.93,.36,.22,.78,.33,1.2,.32,.32,0,.65-.05,.95-.17,.28-.1,.54-.27,.75-.48,.21-.21,.38-.46,.5-.73,.12-.3,.18-.62,.18-.94v-5.69h1.85v9.45h-1.85v-2l.32-.21c-.15,.45-.4,.86-.73,1.2-.34,.36-.75,.65-1.21,.86-.48,.21-1,.32-1.52,.31Z"/><path d="M445.36,180.76v-13.32h1.85v13.32h-1.85Z"/><path d="M453.3,180.94c-.76,0-1.51-.22-2.14-.65-.65-.45-1.18-1.05-1.54-1.76-.39-.78-.59-1.65-.57-2.52-.02-.88,.18-1.75,.58-2.53,.36-.71,.91-1.31,1.59-1.74,.67-.42,1.45-.64,2.24-.63,.46,0,.92,.07,1.35,.22,.77,.26,1.41,.79,1.82,1.49,.2,.33,.33,.7,.37,1.08l-.41-.14v-2.45h1.87v9.45h-1.87v-2.25l.43-.12c-.08,.34-.23,.66-.44,.94-.23,.32-.52,.6-.85,.82-.35,.24-.73,.44-1.13,.58-.42,.14-.86,.21-1.3,.21Zm.48-1.71c.53,0,1.05-.13,1.5-.41,.43-.28,.78-.68,1-1.14,.25-.52,.38-1.09,.37-1.67,.01-.57-.12-1.13-.37-1.64-.22-.46-.57-.85-1-1.13-.45-.28-.97-.43-1.5-.42-.52,0-1.03,.14-1.47,.42-.43,.28-.78,.67-1,1.13-.25,.51-.38,1.07-.37,1.64-.01,.58,.12,1.15,.37,1.67,.23,.46,.57,.85,1,1.14,.44,.27,.95,.42,1.47,.41Z"/><path d="M465.07,180.94c-.83,.02-1.65-.21-2.35-.65-.69-.43-1.26-1.04-1.64-1.76-.8-1.57-.8-3.43,0-5,.38-.73,.95-1.34,1.64-1.77,.71-.44,1.52-.66,2.35-.65,.79,0,1.58,.17,2.29,.52,.65,.3,1.2,.78,1.58,1.39l-1,1.26c-.2-.29-.45-.54-.74-.75-.29-.23-.61-.41-.95-.54-.32-.13-.66-.2-1-.2-.54,0-1.08,.14-1.54,.42-.45,.28-.82,.68-1.07,1.16-.27,.51-.41,1.08-.4,1.66-.01,1.13,.56,2.19,1.51,2.81,.46,.28,.98,.43,1.52,.43,.32,0,.64-.06,.94-.16,.32-.12,.62-.28,.89-.49,.3-.23,.57-.49,.81-.79l1,1.26c-.43,.57-1,1.03-1.65,1.33-.68,.34-1.43,.52-2.19,.52Z"/><path d="M471.89,169.22c-.33,.02-.66-.09-.92-.3-.22-.23-.34-.55-.32-.87-.01-.31,.11-.62,.33-.84,.24-.23,.57-.35,.91-.33,.34-.02,.66,.09,.92,.31,.43,.49,.43,1.22,0,1.71-.25,.23-.58,.34-.92,.32Zm-.9,11.54v-9.45h1.85v9.45h-1.85Z"/><path d="M479.94,180.94c-.87,.02-1.73-.2-2.48-.64-.72-.41-1.32-1.01-1.72-1.74-.84-1.58-.84-3.48,0-5.06,.41-.73,1-1.33,1.72-1.75,.75-.43,1.61-.65,2.48-.64,.86-.01,1.71,.21,2.45,.64,.72,.42,1.31,1.02,1.72,1.75,.84,1.58,.84,3.48,0,5.06-.4,.73-1,1.33-1.72,1.74-.74,.43-1.59,.66-2.45,.64Zm0-1.69c.53,0,1.06-.14,1.51-.42,.43-.29,.77-.69,1-1.15,.48-1.05,.48-2.27,0-3.32-.23-.46-.57-.85-1-1.14-.45-.28-.98-.42-1.51-.41-.54,0-1.07,.14-1.53,.42-.45,.28-.81,.68-1.05,1.15-.47,1.05-.47,2.25,0,3.3,.24,.47,.6,.87,1.05,1.15,.46,.28,.99,.43,1.53,.42Z"/><path d="M486.76,180.76v-9.45h1.85v1.95l-.32,.21c.13-.44,.37-.84,.7-1.16,.36-.36,.78-.65,1.24-.86,1.05-.48,2.26-.45,3.28,.09,.49,.3,.87,.75,1.08,1.28,.28,.69,.42,1.43,.41,2.18v5.76h-1.86v-5.63c.01-.46-.06-.91-.21-1.34-.13-.33-.36-.61-.67-.78-.35-.17-.74-.24-1.12-.2-.34,0-.68,.05-1,.17-.29,.1-.55,.26-.78,.47-.22,.21-.39,.45-.52,.72-.13,.27-.19,.57-.19,.87v5.72h-1.89Z"/><path d="M501.88,180.94c-.9,.02-1.8-.19-2.59-.62-.73-.4-1.34-.98-1.76-1.7-.44-.75-.66-1.61-.64-2.48,0-.68,.12-1.36,.36-2,.23-.59,.57-1.13,1-1.59,.43-.44,.96-.78,1.53-1,.61-.25,1.27-.38,1.93-.37,.59-.01,1.17,.11,1.71,.35,.52,.24,.99,.58,1.38,1,.4,.42,.7,.91,.9,1.45,.21,.59,.31,1.21,.3,1.83v.79h-7.72l-.42-1.48h6.54l-.27,.31v-.43c-.03-.39-.17-.76-.4-1.07-.47-.63-1.21-1.01-2-1-.57-.02-1.13,.11-1.63,.37-.44,.24-.79,.62-1,1.08-.24,.55-.36,1.15-.34,1.75-.02,.6,.12,1.19,.41,1.72,.27,.48,.68,.87,1.17,1.12,.54,.28,1.14,.41,1.75,.4,.44,0,.88-.08,1.3-.23,.48-.21,.92-.5,1.31-.85l.93,1.31c-.31,.3-.66,.56-1.05,.76-.41,.22-.85,.39-1.31,.51-.46,.09-.93,.11-1.39,.07Z"/><path d="M511.16,180.94c-.73,0-1.46-.13-2.14-.41-.62-.27-1.16-.69-1.58-1.23l1.26-1.08c.32,.39,.72,.7,1.18,.91,.46,.2,.95,.29,1.45,.28,.2,0,.41-.02,.6-.08,.18-.04,.35-.13,.49-.24,.13-.11,.24-.24,.31-.39,.07-.15,.11-.32,.11-.49,0-.29-.12-.57-.34-.76-.18-.11-.37-.21-.57-.28-.33-.12-.66-.23-1-.31-.59-.14-1.17-.35-1.71-.62-.38-.19-.72-.45-1-.77-.18-.22-.31-.48-.39-.75-.09-.29-.14-.59-.13-.89,0-.38,.09-.75,.26-1.09,.18-.33,.43-.62,.72-.86,.32-.26,.69-.45,1.08-.57,.43-.13,.88-.2,1.33-.2,.45,0,.89,.06,1.32,.18,.43,.12,.83,.3,1.21,.53,.36,.21,.68,.48,.94,.81l-1.06,1.17c-.23-.23-.48-.43-.75-.61-.26-.17-.53-.3-.82-.4-.24-.09-.49-.14-.75-.15-.23,0-.46,.03-.69,.08-.18,.04-.35,.11-.51,.21-.13,.09-.24,.22-.32,.36-.07,.15-.1,.32-.1,.49,.01,.15,.05,.3,.11,.44,.07,.14,.16,.25,.28,.35,.19,.13,.39,.23,.6,.31,.33,.12,.66,.22,1,.3,.51,.13,1.01,.3,1.49,.52,.35,.15,.66,.36,.93,.63,.23,.22,.4,.5,.5,.8,.1,.32,.15,.66,.14,1,0,.52-.15,1.03-.45,1.45-.32,.44-.75,.78-1.24,1-.55,.25-1.15,.37-1.76,.36Z"/><path d="M423.71,194.78v-1.71h5.62v1.71h-5.62Zm1.51,7.58v-10.51c0-.5,.11-1,.36-1.44,.23-.42,.58-.77,1-1,.45-.25,.95-.37,1.46-.36,.37,0,.74,.07,1.08,.22,.31,.12,.59,.32,.81,.57l-.63,1.42c-.15-.14-.32-.26-.51-.35-.16-.08-.35-.13-.53-.13-.22,0-.44,.03-.64,.12-.17,.07-.31,.2-.39,.36-.08,.18-.13,.38-.12,.58v10.51h-1.89Z"/><path d="M434.58,202.54c-.62,.02-1.23-.15-1.75-.47-.5-.32-.9-.77-1.15-1.31-.28-.63-.42-1.31-.41-2v-5.83h1.86v5.33c-.01,.49,.07,.98,.26,1.43,.15,.38,.41,.7,.75,.93,.36,.22,.78,.33,1.2,.32,.34,.02,.68-.04,1-.17,.28-.1,.54-.27,.75-.48,.21-.21,.38-.46,.5-.73,.12-.3,.18-.62,.18-.94v-5.69h1.85v9.45h-1.85v-2l.32-.21c-.15,.45-.4,.86-.73,1.2-.34,.36-.75,.65-1.21,.86-.49,.22-1.03,.32-1.57,.31Z"/><path d="M446.57,202.54c-.9,.02-1.79-.19-2.58-.62-.73-.39-1.34-.98-1.76-1.7-.44-.75-.66-1.61-.64-2.48,0-.68,.12-1.36,.36-2,.23-.59,.57-1.13,1-1.59,.43-.44,.95-.78,1.53-1,.61-.25,1.27-.38,1.93-.37,.59,0,1.17,.11,1.71,.35,.52,.24,.99,.58,1.38,1,.4,.42,.7,.91,.9,1.45,.22,.59,.31,1.21,.29,1.83v.79h-7.69l-.41-1.48h6.53l-.27,.31v-.43c-.02-.39-.16-.76-.39-1.07-.23-.31-.53-.56-.87-.73-.35-.18-.74-.27-1.13-.27-.57-.02-1.13,.11-1.64,.37-.44,.24-.79,.62-1,1.08-.24,.55-.36,1.15-.34,1.75-.01,.6,.13,1.19,.42,1.72,.27,.48,.67,.88,1.17,1.12,.54,.28,1.14,.41,1.74,.4,.45,0,.89-.08,1.31-.23,.48-.21,.92-.5,1.3-.85l.94,1.31c-.31,.3-.66,.56-1.05,.76-.42,.22-.86,.39-1.32,.51-.47,.09-.95,.11-1.42,.07Z"/><path d="M452.71,202.36v-9.45h1.87v3l-.18-.72c.13-.46,.37-.88,.68-1.24,.3-.36,.68-.66,1.1-.88,.39-.22,.83-.33,1.28-.33,.2,0,.4,.02,.59,.06,.15,.03,.3,.07,.44,.12l-.49,2c-.15-.06-.31-.11-.47-.15-.48-.12-.99-.08-1.44,.12-.29,.12-.56,.3-.78,.53-.22,.22-.4,.48-.53,.77-.14,.31-.21,.66-.2,1v5.22l-1.87-.05Z"/><path d="M459.53,194.71v-1.8h6v1.8h-6Zm2,7.65v-11.86h1.86v11.86h-1.86Z"/><path d="M471.56,202.54c-.9,.02-1.8-.19-2.59-.62-.73-.39-1.34-.98-1.76-1.7-.44-.75-.66-1.61-.64-2.48,0-.68,.12-1.36,.36-2,.23-.59,.57-1.13,1-1.59,.43-.44,.95-.78,1.53-1,.61-.25,1.27-.38,1.93-.37,.59-.01,1.17,.11,1.71,.35,.52,.24,.99,.58,1.38,1,.4,.42,.7,.91,.9,1.45,.21,.59,.31,1.21,.3,1.83v.79h-7.72l-.42-1.48h6.54l-.27,.31v-.43c-.03-.39-.17-.76-.4-1.07-.47-.63-1.21-1.01-2-1-.57-.02-1.13,.11-1.63,.37-.44,.24-.79,.62-1,1.08-.24,.55-.36,1.15-.34,1.75-.02,.6,.12,1.19,.41,1.72,.27,.48,.68,.87,1.17,1.12,.54,.28,1.14,.41,1.75,.4,.44,0,.88-.08,1.3-.23,.48-.21,.92-.5,1.31-.85l.93,1.31c-.3,.3-.63,.56-1,.76-.42,.22-.86,.39-1.31,.51-.47,.09-.96,.12-1.44,.07Z"/><path d="M480.84,202.54c-.73,0-1.46-.13-2.14-.41-.62-.27-1.16-.69-1.58-1.23l1.26-1.08c.32,.39,.72,.7,1.18,.91,.46,.19,.95,.28,1.44,.27,.2,0,.41-.02,.6-.08,.18-.04,.35-.13,.49-.24,.13-.11,.24-.24,.31-.39,.07-.15,.11-.32,.11-.49,0-.29-.12-.57-.34-.76-.18-.11-.37-.21-.57-.28-.33-.12-.66-.23-1-.31-.59-.14-1.17-.35-1.71-.62-.38-.19-.72-.45-1-.77-.18-.22-.31-.48-.39-.75-.09-.29-.14-.59-.13-.89,0-.38,.09-.75,.26-1.09,.18-.33,.43-.62,.72-.86,.32-.26,.69-.45,1.08-.57,.43-.13,.88-.2,1.33-.2,.45,0,.89,.06,1.32,.18,.43,.12,.83,.3,1.21,.53,.36,.21,.68,.48,.94,.81l-1.06,1.17c-.23-.23-.48-.43-.75-.61-.26-.17-.53-.3-.82-.4-.24-.09-.49-.14-.75-.15-.23,0-.46,.03-.69,.08-.18,.04-.35,.11-.51,.21-.13,.09-.24,.22-.32,.36-.07,.15-.1,.32-.1,.49,.01,.15,.05,.3,.11,.44,.07,.14,.16,.25,.28,.35,.19,.13,.39,.23,.6,.31,.33,.12,.66,.22,1,.3,.51,.13,1.01,.3,1.49,.52,.35,.15,.66,.36,.93,.63,.23,.22,.4,.5,.5,.8,.1,.32,.15,.66,.14,1,0,.52-.15,1.03-.45,1.45-.32,.44-.75,.78-1.24,1-.55,.25-1.15,.38-1.75,.37Z"/><path d="M224.28,147.44v-12.6h5.13c.66,0,1.31,.17,1.87,.51,1.78,1.14,2.37,3.47,1.34,5.32-.32,.57-.78,1.06-1.34,1.41-.56,.35-1.21,.54-1.87,.53h-3.18v4.83h-1.95Zm1.95-6.7h3.15c.32,0,.62-.1,.88-.28,.27-.19,.49-.45,.64-.74,.16-.31,.24-.65,.24-1,0-.35-.08-.69-.24-1-.15-.29-.37-.54-.64-.72-.26-.18-.57-.27-.88-.27h-3.15v4.01Z"/><path d="M239.46,147.62c-.9,.02-1.8-.2-2.59-.63-.73-.39-1.34-.98-1.76-1.7-.44-.75-.66-1.61-.64-2.48,0-.68,.12-1.36,.36-2,.22-.59,.56-1.14,1-1.6,.43-.44,.96-.78,1.53-1,.61-.25,1.27-.38,1.93-.37,.59,0,1.17,.11,1.71,.35,.52,.24,.99,.58,1.38,1,.4,.42,.7,.91,.9,1.45,.21,.59,.31,1.21,.3,1.83v.79h-7.72l-.42-1.47h6.56l-.27,.3v-.43c-.03-.38-.17-.75-.4-1.06-.47-.64-1.21-1.01-2-1-.57-.02-1.13,.11-1.63,.37-.44,.24-.79,.62-1,1.08-.24,.55-.36,1.15-.34,1.75-.02,.6,.12,1.19,.41,1.72,.27,.48,.68,.87,1.17,1.13,.54,.27,1.14,.4,1.75,.39,.44,0,.89-.07,1.3-.23,.48-.21,.92-.5,1.31-.85l.93,1.32c-.31,.3-.66,.56-1.05,.75-.42,.22-.86,.39-1.31,.52-.47,.08-.94,.11-1.41,.07Z"/><path d="M248.74,147.62c-.73,.01-1.46-.13-2.14-.42-.63-.26-1.18-.67-1.6-1.2l1.26-1.08c.32,.39,.72,.7,1.18,.91,.46,.19,.95,.29,1.45,.28,.2,0,.41-.03,.6-.09,.18-.04,.35-.13,.49-.24,.13-.11,.24-.24,.31-.39,.07-.15,.11-.32,.11-.49,0-.29-.12-.57-.34-.76-.18-.11-.37-.2-.57-.28-.33-.12-.66-.22-1-.31-.59-.14-1.16-.34-1.71-.61-.38-.19-.72-.46-1-.78-.18-.22-.31-.47-.39-.74-.09-.29-.13-.59-.13-.89,0-.38,.09-.75,.26-1.09,.18-.33,.43-.63,.72-.87,.32-.25,.69-.44,1.08-.56,.43-.14,.88-.21,1.33-.2,.46,0,.91,.07,1.35,.19,.43,.11,.83,.29,1.21,.52,.36,.21,.68,.49,.94,.81l-1.06,1.17c-.23-.23-.48-.43-.75-.6-.26-.17-.53-.31-.82-.41-.24-.09-.49-.13-.75-.14-.23,0-.46,.02-.69,.07-.18,.04-.36,.12-.51,.22-.14,.09-.25,.21-.32,.36-.07,.15-.1,.31-.1,.48,.01,.15,.05,.3,.11,.44,.07,.14,.16,.26,.28,.35,.19,.13,.39,.23,.6,.31,.33,.13,.66,.23,1,.31,.51,.12,1.01,.29,1.49,.51,.35,.15,.66,.37,.93,.64,.23,.22,.4,.49,.5,.79,.1,.32,.15,.66,.14,1,0,.52-.15,1.03-.45,1.45-.32,.43-.75,.78-1.24,1-.56,.25-1.16,.36-1.77,.34Z"/><path d="M258.46,147.62c-.86,.01-1.71-.2-2.46-.62-.72-.42-1.31-1.02-1.72-1.75-.84-1.58-.84-3.48,0-5.06,.4-.73,1-1.33,1.72-1.74,.75-.43,1.6-.66,2.47-.64,.86-.02,1.71,.2,2.46,.64,.72,.41,1.32,1.01,1.72,1.74,.84,1.58,.84,3.48,0,5.06-.41,.73-1,1.33-1.72,1.75-.75,.43-1.61,.64-2.47,.62Zm0-1.7c.54,0,1.06-.14,1.52-.42,.43-.29,.77-.69,1-1.15,.48-1.05,.48-2.26,0-3.31-.47-.98-1.47-1.59-2.56-1.56-.54,0-1.06,.14-1.52,.42-.45,.28-.81,.68-1.05,1.15-.47,1.05-.47,2.25,0,3.3,.24,.47,.6,.87,1.05,1.15,.47,.29,1.01,.43,1.56,.42Z"/><path d="M277,151.58l1.91-4.41v1.47l-4.75-10.64h2.16l2.95,6.94c.06,.12,.13,.31,.22,.55s.15,.49,.21,.73l-.46,.11c.09-.25,.19-.5,.27-.76s.18-.5,.27-.75l2.46-6.82h2.2l-3.89,9.45-1.6,4.14h-1.95Z"/><path d="M203.11,169v-9.45h1.89v2l-.34,.22c.1-.32,.25-.63,.45-.9,.22-.3,.48-.56,.78-.77,.31-.22,.64-.4,1-.53,.35-.13,.72-.2,1.09-.2,.49-.01,.97,.08,1.42,.27,.4,.18,.74,.46,1,.81,.28,.41,.47,.87,.57,1.35l-.28-.07,.12-.3c.14-.29,.33-.56,.55-.79,.24-.25,.51-.47,.8-.65,.31-.2,.65-.35,1-.45,.32-.11,.66-.17,1-.17,.61-.02,1.22,.13,1.75,.44,.47,.32,.82,.78,1,1.31,.26,.7,.38,1.45,.36,2.2v5.68h-1.88v-5.57c.01-.45-.05-.9-.2-1.32-.12-.31-.34-.58-.62-.76-.33-.19-.7-.28-1.07-.26-.32,0-.64,.06-.94,.17-.28,.11-.54,.27-.77,.48-.21,.2-.38,.44-.5,.71-.12,.28-.18,.58-.18,.89v5.66h-1.87v-5.6c.01-.43-.06-.85-.22-1.25-.12-.32-.34-.6-.63-.79-.3-.19-.65-.28-1-.27-.32,0-.63,.06-.93,.17-.28,.11-.54,.27-.76,.47-.21,.2-.38,.44-.5,.7-.12,.28-.18,.58-.18,.88v5.69h-1.91Z"/><path d="M223,169.22c-.62,.01-1.22-.15-1.75-.47-.51-.32-.91-.78-1.16-1.32-.28-.63-.42-1.31-.4-2v-5.83h1.85v5.32c-.01,.49,.08,.98,.26,1.43,.15,.38,.42,.71,.76,.93,.36,.23,.78,.34,1.2,.33,.34,.01,.68-.05,1-.18,.57-.21,1.02-.65,1.24-1.21,.12-.3,.18-.62,.18-.94v-5.68h1.82v9.4h-1.86v-2l.33-.22c-.15,.45-.4,.86-.73,1.21-.35,.36-.76,.65-1.22,.85-.47,.24-.99,.37-1.52,.38Z"/><path d="M233.76,169.22c-.73,.01-1.46-.13-2.14-.42-.63-.26-1.17-.68-1.59-1.22l1.26-1.08c.32,.39,.72,.7,1.18,.91,.46,.19,.95,.28,1.45,.28,.2,0,.41-.03,.6-.09,.18-.04,.35-.13,.49-.24,.13-.11,.24-.24,.32-.39,.07-.15,.1-.32,.1-.49,0-.29-.12-.57-.34-.76-.18-.11-.37-.2-.57-.28-.33-.12-.66-.22-1-.31-.59-.14-1.16-.34-1.71-.61-.38-.19-.72-.46-1-.78-.18-.22-.31-.47-.4-.74-.08-.29-.12-.59-.12-.89,0-.38,.08-.75,.26-1.09,.18-.34,.42-.63,.72-.87,.32-.25,.69-.44,1.08-.56,.43-.14,.87-.21,1.32-.2,.45,0,.89,.06,1.32,.18,.43,.11,.84,.29,1.22,.52,.35,.22,.67,.49,.94,.81l-1.07,1.17c-.44-.44-.97-.78-1.56-1-.24-.09-.5-.13-.76-.14-.23,0-.46,.02-.68,.07-.19,.04-.36,.11-.52,.22-.13,.09-.24,.21-.31,.36-.07,.15-.11,.31-.11,.48,0,.15,.05,.3,.12,.44,.06,.14,.16,.26,.28,.35,.18,.13,.38,.23,.59,.31,.33,.13,.66,.23,1,.31,.51,.12,1.01,.29,1.48,.51,.35,.15,.66,.37,.93,.64,.23,.22,.41,.49,.51,.79,.09,.32,.14,.66,.14,1,0,.52-.15,1.03-.46,1.45-.32,.43-.74,.78-1.23,1-.55,.25-1.14,.37-1.74,.36Z"/><path d="M243.25,169.22c-.83,.01-1.64-.21-2.35-.65-.69-.43-1.26-1.04-1.64-1.77-.8-1.57-.8-3.43,0-5,.38-.74,.94-1.36,1.64-1.8,.7-.44,1.52-.67,2.35-.65,.79-.01,1.58,.16,2.29,.51,.65,.3,1.2,.79,1.58,1.4l-1,1.26c-.2-.29-.45-.55-.74-.76-.29-.22-.61-.41-.95-.54-.32-.13-.66-.2-1-.2-.54,0-1.08,.14-1.54,.42-.46,.29-.82,.69-1.07,1.17-.54,1.03-.54,2.27,0,3.3,.27,.47,.65,.87,1.1,1.16,.74,.46,1.64,.55,2.46,.27,.32-.12,.62-.28,.89-.49,.3-.23,.58-.49,.81-.79l1,1.26c-.43,.58-1,1.03-1.65,1.33-.67,.35-1.42,.55-2.18,.57Z"/><path d="M252.17,169.22c-.62,.01-1.22-.15-1.75-.47-.51-.32-.91-.78-1.15-1.32-.29-.63-.43-1.31-.41-2v-5.83h1.86v5.32c-.02,.49,.07,.98,.26,1.43,.15,.38,.41,.7,.75,.93,.36,.23,.78,.34,1.2,.33,.33,0,.65-.06,.95-.18,.28-.1,.53-.26,.75-.47,.21-.21,.38-.46,.5-.74,.12-.3,.18-.62,.18-.94v-5.68h1.85v9.4h-1.85v-2l.32-.22c-.15,.45-.4,.87-.73,1.21-.34,.36-.76,.65-1.21,.85-.47,.23-.99,.36-1.52,.38Z"/><path d="M259.79,169v-13.28h1.85v13.28h-1.85Z"/><path d="M267.72,169.22c-.76,0-1.5-.22-2.13-.65-.66-.45-1.19-1.06-1.54-1.77-.39-.78-.59-1.65-.57-2.52-.02-.88,.18-1.75,.58-2.53,.37-.71,.92-1.3,1.59-1.73,.67-.42,1.45-.64,2.24-.63,.46,0,.91,.07,1.35,.21,.39,.14,.75,.35,1.07,.61,.3,.25,.56,.55,.75,.89,.2,.33,.32,.7,.37,1.08l-.43-.18v-2.44h1.87v9.44h-1.87v-2.25l.43-.13c-.08,.34-.23,.66-.44,.94-.23,.32-.52,.6-.85,.82-.35,.26-.73,.47-1.14,.62-.41,.14-.84,.22-1.28,.22Zm.49-1.71c.53,0,1.05-.14,1.49-.42,.43-.28,.78-.67,1-1.14,.26-.52,.38-1.09,.37-1.67,.01-.57-.12-1.13-.37-1.63-.22-.46-.57-.86-1-1.14-.45-.28-.96-.42-1.49-.41-.52,0-1.03,.14-1.47,.41-.43,.29-.77,.68-1,1.14-.25,.5-.38,1.06-.37,1.63-.01,.58,.11,1.15,.37,1.67,.22,.46,.57,.86,1,1.14,.44,.28,.95,.43,1.47,.42Z"/><path d="M274.69,161.39v-1.8h6v1.8h-6Zm2,7.65v-11.87h1.86v11.83l-1.86,.04Z"/><path d="M285.71,169.22c-.62,.01-1.23-.15-1.76-.47-.51-.32-.91-.78-1.15-1.32-.29-.63-.43-1.31-.41-2v-5.83h1.86v5.32c-.01,.49,.08,.98,.26,1.43,.15,.38,.42,.71,.76,.93,.35,.23,.77,.34,1.19,.33,.34,0,.68-.05,1-.18,.27-.11,.53-.27,.74-.47,.21-.21,.38-.46,.5-.74,.12-.3,.18-.62,.18-.94v-5.68h1.85v9.4h-1.85v-2l.32-.22c-.15,.45-.4,.87-.73,1.21-.34,.36-.75,.65-1.21,.85-.48,.24-1.01,.37-1.55,.38Z"/><path d="M293.28,169v-9.45h1.88v3l-.18-.72c.13-.46,.36-.89,.67-1.25,.31-.36,.68-.66,1.1-.88,.4-.21,.84-.32,1.29-.32,.19,0,.39,.02,.58,.05,.15,.03,.3,.07,.44,.13l-.48,2c-.16-.06-.32-.11-.48-.15-.17-.04-.34-.06-.51-.06-.32,0-.64,.06-.93,.19-.29,.12-.55,.3-.77,.52-.23,.22-.41,.48-.54,.77-.13,.32-.2,.66-.19,1v5.17h-1.88Z"/><path d="M303.78,169.22c-.76,0-1.5-.22-2.13-.65-.66-.44-1.19-1.05-1.54-1.77-.78-1.59-.78-3.46,0-5.05,.36-.72,.91-1.32,1.59-1.75,1.08-.65,2.39-.81,3.59-.42,.39,.14,.75,.34,1.07,.61,.31,.25,.56,.55,.76,.89,.2,.33,.32,.7,.37,1.08l-.42-.15v-2.44h1.93v9.43h-1.88v-2.25l.44-.13c-.08,.34-.24,.66-.45,.94-.23,.32-.52,.6-.84,.82-.35,.25-.73,.44-1.14,.58-.43,.16-.89,.25-1.35,.26Zm.48-1.71c.53,.01,1.05-.14,1.5-.42,.43-.28,.77-.68,1-1.14,.25-.52,.37-1.09,.36-1.67,0-.56-.11-1.12-.36-1.63-.23-.46-.57-.85-1-1.14-.45-.28-.97-.42-1.5-.41-.52,0-1.02,.13-1.46,.41-.43,.29-.77,.68-1,1.14-.25,.5-.38,1.06-.37,1.63-.01,.58,.11,1.15,.37,1.67,.23,.46,.57,.86,1,1.14,.43,.28,.94,.43,1.46,.42Z"/><path d="M237.11,179.1c-.34,.02-.67-.09-.92-.31-.23-.23-.35-.54-.33-.86,0-.32,.11-.63,.34-.85,.25-.22,.58-.34,.91-.32,.33-.02,.66,.09,.92,.3,.22,.23,.34,.55,.32,.87,.01,.31-.11,.62-.33,.84-.25,.23-.57,.35-.91,.33Zm-.9,11.54v-9.45h1.85v9.45h-1.85Z"/><path d="M244.85,190.82c-.82,.01-1.62-.21-2.32-.64-.68-.44-1.23-1.04-1.61-1.75-.78-1.6-.78-3.46,0-5.06,.37-.71,.92-1.32,1.6-1.74,1.09-.67,2.42-.82,3.64-.42,.42,.14,.82,.35,1.18,.61,.32,.23,.6,.52,.82,.85,.19,.27,.29,.6,.3,.93h-.54v-6.31h1.85v13.32h-1.85v-2.25h.36c0,.31-.11,.6-.29,.85-.21,.3-.47,.56-.77,.78-.33,.25-.7,.45-1.09,.58-.41,.15-.84,.24-1.28,.25Zm.25-1.61c.53,.01,1.05-.14,1.49-.43,.43-.3,.78-.7,1-1.18,.49-1.08,.49-2.32,0-3.4-.22-.48-.57-.88-1-1.18-.92-.58-2.08-.58-3,0-.44,.29-.78,.7-1,1.18-.49,1.08-.49,2.32,0,3.4,.22,.48,.56,.89,1,1.18,.45,.3,.97,.45,1.51,.43Z"/><path d="M256.73,190.82c-.9,.02-1.8-.2-2.59-.63-.73-.4-1.34-.98-1.76-1.7-.44-.75-.66-1.61-.64-2.48,0-.68,.12-1.36,.36-2,.22-.59,.56-1.14,1-1.6,.43-.44,.96-.78,1.53-1,.61-.25,1.27-.38,1.93-.37,.59,0,1.17,.11,1.71,.35,.52,.24,.99,.58,1.38,1,.4,.42,.7,.91,.9,1.45,.21,.59,.31,1.21,.3,1.83v.79h-7.72l-.42-1.47h6.54l-.27,.3v-.43c-.03-.38-.17-.75-.4-1.06-.47-.64-1.21-1.01-2-1-.57-.02-1.13,.11-1.63,.37-.44,.24-.79,.62-1,1.08-.24,.55-.36,1.15-.34,1.75-.02,.6,.12,1.19,.41,1.72,.27,.48,.68,.87,1.17,1.13,.54,.27,1.14,.4,1.75,.39,.44,0,.89-.07,1.3-.23,.48-.21,.92-.5,1.31-.85l.93,1.32c-.31,.3-.66,.56-1.05,.75-.42,.22-.86,.39-1.31,.52-.46,.08-.93,.11-1.39,.07Z"/><path d="M266.5,190.82c-.76,0-1.5-.22-2.13-.65-.66-.45-1.19-1.06-1.54-1.77-.39-.78-.59-1.65-.58-2.52-.01-.88,.19-1.75,.59-2.53,.37-.7,.91-1.3,1.58-1.73,.67-.42,1.45-.64,2.24-.63,.46,0,.92,.06,1.35,.21,.39,.14,.75,.34,1.07,.61,.31,.25,.56,.55,.76,.89,.2,.33,.32,.7,.37,1.08l-.41-.15v-2.44h1.87v9.45h-1.87v-2.25l.43-.13c-.08,.34-.23,.66-.44,.94-.24,.32-.52,.59-.85,.82-.35,.25-.73,.44-1.13,.58-.42,.14-.86,.22-1.31,.22Zm.49-1.71c.53,0,1.05-.14,1.49-.42,.43-.28,.77-.68,1-1.14,.25-.52,.38-1.09,.37-1.67,0-.56-.12-1.12-.37-1.63-.23-.46-.57-.85-1-1.14-.45-.28-.96-.42-1.49-.41-.52,0-1.03,.13-1.47,.41-.43,.29-.77,.68-1,1.14-.25,.51-.38,1.07-.37,1.63,0,.58,.12,1.15,.37,1.67,.23,.46,.57,.86,1,1.14,.44,.29,.96,.43,1.48,.42h-.01Z"/><path d="M274.3,190.64v-13.32h1.85v13.32h-1.85Z"/></svg>