<svg id="Capa_1" data-name="Capa 1" xmlns="http://www.w3.org/2000/svg" viewBox="0 0 493.39 462.14">
  <defs>
    <style>
      .cls-2{fill:#bed530}
    </style>
  </defs>
  <path d="M479.48 200.46c-35.27-181.55-196.24-221-345-161.8C62.3 67.38 12.25 141.42 10.4 218.78 9 278.51 38 331.41 80.37 371.77c37 35.19 83.71 71.64 136.19 75.89a123.17 123.17 0 0 0 23-.27c54.69-5.78 111.76-30.62 158.48-58.85 68.52-41.38 96.28-109.8 81.44-188.08Z" style="fill:white"/>
  <path class="cls-2" d="M308.48 93.67H185.25a74.87 74.87 0 0 0-74.79 74.78v123.24a74.87 74.87 0 0 0 74.79 74.78h123.23a74.86 74.86 0 0 0 74.78-74.78V168.45a74.86 74.86 0 0 0-74.78-74.78Zm58.67 198a58.74 58.74 0 0 1-58.67 58.67H185.25a58.74 58.74 0 0 1-58.68-58.67V168.45a58.74 58.74 0 0 1 58.68-58.67h123.23a58.74 58.74 0 0 1 58.67 58.67Z"/>
  <path class="cls-2" d="M246.86 155.25a74.82 74.82 0 1 0 74.83 74.82 74.9 74.9 0 0 0-74.83-74.82Zm0 133.53a58.71 58.71 0 1 1 58.72-58.71 58.78 58.78 0 0 1-58.72 58.71ZM326.16 128a22.73 22.73 0 1 0 22.74 22.73A22.76 22.76 0 0 0 326.16 128Zm0 29.35a6.62 6.62 0 1 1 6.63-6.62 6.63 6.63 0 0 1-6.63 6.66Z"/>
</svg>
