<svg id="Capa_1" data-name="Capa 1" xmlns="http://www.w3.org/2000/svg" viewBox="0 0 321.49 341.58"><defs><style>.cls-1{fill:#fff;}</style></defs><title>icono pavo _ blanco </title><path class="cls-1" d="M145.77,102a20.31,20.31,0,0,1-5.62-2.06,13.4,13.4,0,0,1-5-3.94,11.61,11.61,0,0,1-1-12c1.7-3.71,4.83-7.61,9.36-7.15,4.85.5,8.36,5.29,9.58,9.65a14.11,14.11,0,0,1,.18,7.49,19.3,19.3,0,0,1-1.95,4.35,8.63,8.63,0,0,1-2.54,3.14A4.19,4.19,0,0,1,145.77,102Z"/><path class="cls-1" d="M174.64,95.64a6,6,0,0,0,2-1A14.52,14.52,0,0,0,181,88.21c1.42-4,.18-8.16-2.35-11.47-4.81-6.3-11.91-3.63-15.24.79-2.91,3.86-4.67,11.3-1.41,16.35C163.33,96,166.8,96,169,96A18.67,18.67,0,0,0,174.64,95.64Z"/><path class="cls-1" d="M138.78,163.13a39.49,39.49,0,0,0-10-13.91,47.67,47.67,0,0,0-7.33-5.28c-2.56-1.55-5.19-3-7.62-4.77a26,26,0,0,1-3-2.53c-.44-.44-.87-.9-1.28-1.37s-.74-.88-1-1.29a29,29,0,0,1-2-3.21c-.28-.52-.55-1-.8-1.57-.14-.3-.28-.6-.41-.9-.06-.12-.11-.24-.16-.36.14.33-.07-.19-.1-.25a41.63,41.63,0,0,1-2.16-7.49c-.28-1.41-.45-2.55-.58-3.7s-.25-2.58-.32-3.88a98.8,98.8,0,0,1,.7-17c.33-2.71.82-5.71,1.42-8.57s1.37-5.89,2.28-8.78a75.22,75.22,0,0,1,7.1-16.13q1.14-1.9,2.38-3.74c.37-.54.75-1.07,1.13-1.6l.56-.75c.31-.41.21-.29.51-.66a60.32,60.32,0,0,1,5.39-6A55.63,55.63,0,0,1,136,40c1.17-.64,2.37-1.24,3.58-1.8l.94-.41.37-.16.09,0c.67-.27,1.33-.53,2-.78a49.84,49.84,0,0,1,7.59-2.08c.64-.12,1.28-.22,1.93-.32.08,0,.51-.07.18,0l.41-.05,1.25-.14c1.47-.13,2.93-.19,4.4-.19a44.91,44.91,0,0,1,8.68.84A51.69,51.69,0,0,1,184,41.1a56.17,56.17,0,0,1,12.87,10.41,65.34,65.34,0,0,1,9.71,13.54,72.83,72.83,0,0,1,8.75,34.66c0,11.45-2.53,23.15-8.82,32.78a38.21,38.21,0,0,1-5.17,6.38,86.83,86.83,0,0,1-7,6c-4.52,3.65-9,7.6-11.33,13.05a21.23,21.23,0,0,0-1.79,8.36,2,2,0,0,0,4,0,14.27,14.27,0,0,1,.46-3.88,19.47,19.47,0,0,1,.57-1.88c.11-.3.22-.59.34-.87-.14.33.13-.29.13-.28.09-.19.17-.37.27-.56a22.14,22.14,0,0,1,2.13-3.44s.3-.4.13-.18l.26-.33c.22-.28.45-.55.68-.81.47-.53,1-1.05,1.46-1.55,4.46-4.43,9.88-7.77,14.08-12.48,8-9,12-20.87,13.2-32.72a76.51,76.51,0,0,0-5.53-37.2,69.33,69.33,0,0,0-20.92-28C182.7,34.45,170.52,29.83,158,30A52.94,52.94,0,0,0,127,41.06,67.94,67.94,0,0,0,105.9,68.14a101.47,101.47,0,0,0-8,36.28c-.47,10.6.57,22.37,6.91,31.27a29.13,29.13,0,0,0,5.81,6.08,76.58,76.58,0,0,0,7.87,5.09,47.78,47.78,0,0,1,7.09,4.9,38.78,38.78,0,0,1,3.11,3c.44.48.87,1,1.28,1.48s.72.89,1.22,1.58a38.4,38.4,0,0,1,4.1,7.29,2,2,0,0,0,2.73.72,2.05,2.05,0,0,0,.72-2.74Z"/><path class="cls-1" d="M185.44,168.29c6.48-.39,12.47,3.63,17.28,7.65,5.09,4.25,10.15,9,13.58,14.73a30.18,30.18,0,0,1,4,10.72,2,2,0,0,0,1.93,1.47c7.07-.22,15.16,2.67,20.26,7.74a13.8,13.8,0,0,1,3,4.11c.26.56-.07-.19.06.13,0,.14.1.28.14.42a7.89,7.89,0,0,1,.23.93c-.1-.57,0,.29,0,.45,0,.43.08-.33,0-.08a3.2,3.2,0,0,0-.1.42c-.06.39.23-.36,0,0a3.07,3.07,0,0,0-.17.31c-.07.14-.34.39,0,0-.09.09-.16.19-.25.28s-.65.53-.18.19a8.42,8.42,0,0,1-.8.52c-.14.07-.95.43-.45.23-.24.1-.48.19-.73.27a16.31,16.31,0,0,1-2.08.55c-.34.08-.68.14-1,.2l-.53.08-.35,0h0c-.77.09-1.55.17-2.32.23-1.49.12-3,.18-4.46.26s-2.85,2.24-1.41,3.41a59.47,59.47,0,0,1,7.49,6.78,10.34,10.34,0,0,1,2.79,10.44,5.66,5.66,0,0,1-.72,1.76c-.09.15-.18.29-.28.43.23-.33,0,0,0,0a6.33,6.33,0,0,1-.59.57c.38-.31-.17.06-.31.15s0,0,.11,0c-.18.05-.35.12-.52.16l-.27.06c-.43.12.44,0,0,0H238c-.11,0-.59-.09-.05,0l-.29,0c-.31-.07-.61-.14-.91-.23l-.76-.27c-.51-.18.36.18-.14-.06l-.39-.18a18.81,18.81,0,0,1-1.69-1c-.62-.39-1.22-.81-1.81-1.25l-.1-.08-.5-.41-.82-.7a31.27,31.27,0,0,1-2.82-2.82c-1.5-1.69-4.4.53-3.14,2.43a15.12,15.12,0,0,1,1.85,10.95,14.84,14.84,0,0,1-.81,2.76c-.13.29-.39.79-.6,1.15a8.59,8.59,0,0,1-.68,1,6,6,0,0,1-2.23,1.72,5,5,0,0,1-.66.18.83.83,0,0,1-.35.05,5.75,5.75,0,0,1-1.26-.06,14,14,0,0,1-6-3.24,2.07,2.07,0,0,0-2.83,0,26.56,26.56,0,0,0-3.55,4.61,18.07,18.07,0,0,1-3.59,3.92,54.82,54.82,0,0,1-10.18,6.08,138.64,138.64,0,0,1-22.6,9.14,94.31,94.31,0,0,1-11.81,2.82,43.5,43.5,0,0,1-10,.3A50.06,50.06,0,0,1,130,274.85a47.77,47.77,0,0,1-16.83-14.73c-.77-1.13-2.75-1.46-3.45,0a14.07,14.07,0,0,1-6.18,6.55,9.26,9.26,0,0,1-4,1,8.09,8.09,0,0,1-2-.2,10.68,10.68,0,0,1-1.1-.33s-.36-.15-.07,0l-.51-.25a8.18,8.18,0,0,1-.7-.43c-.09-.06-.39-.3-.09-.06l-.27-.23c-.18-.18-.36-.36-.53-.55s-.3-.37-.06-.05l-.29-.42a6.65,6.65,0,0,1-.33-.58c-.06-.11-.1-.21-.15-.31-.25-.49.08.24,0-.08a9.8,9.8,0,0,1-.47-1.6c-.07-.3-.12-.6-.17-.9.06.4,0-.26,0-.39a17.6,17.6,0,0,1-.07-1.92,31.73,31.73,0,0,1,.28-3.78c0-.05,0-.39,0-.07L93,255l.15-1c.11-.67.23-1.34.35-2,.23-1.23.47-2.46.67-3.69s-.89-3.07-2.46-2.46c-2.44,1-4.85,2-7.37,2.71-.67.19-1.35.36-2,.5l-.93.16c-.6.1.4,0-.2,0l-.55.05a15.85,15.85,0,0,1-2,0c-.56,0,.26.05-.07,0l-.42-.08c-.33-.07-.65-.17-1-.27-.07,0-.56-.24-.14,0l-.45-.23a5.41,5.41,0,0,1-.72-.45c.32.23,0,0-.06-.07s-.22-.19-.33-.3-.25-.26-.37-.4c-.38-.44.19.3-.15-.19a7.89,7.89,0,0,1-1-1.8,8.88,8.88,0,0,1-.31-1c0-.07-.07-.65,0-.19,0-.17,0-.35,0-.53a4.53,4.53,0,0,1,0-.52c0,.47,0-.08,0-.16a7.93,7.93,0,0,1,.25-.83c-.13.36,0,0,0-.1s.13-.26.2-.39a7.45,7.45,0,0,1,.61-.93c-.24.32.15-.17.16-.19l.33-.35c.25-.27.51-.52.78-.76a9.36,9.36,0,0,1,1.56-1.18,17.56,17.56,0,0,1,4.41-2.1,17.09,17.09,0,0,1,2.24-.57l.53-.09c-.46.07.05,0,.15,0,.38,0,.74,0,1.12,0a2,2,0,0,0,1-3.72,16.44,16.44,0,0,1-1.7-1l-.81-.58c-.18-.14,0,0,.07,0l-.28-.22-.49-.4A33.44,33.44,0,0,1,80.26,226a21.06,21.06,0,0,1-1.43-1.79A24.4,24.4,0,0,1,77.41,222c-.2-.36-.39-.72-.56-1.09-.08-.16-.16-.33-.23-.5.15.35-.1-.27-.14-.36a11.11,11.11,0,0,1-.55-2.13c0,.35,0,.07,0-.11s0-.37,0-.56,0-.31,0-.46c0-.47-.07.16,0-.16s.15-.64.25-1-.1.12.07-.16.17-.32.27-.48.3-.43.17-.25.19-.23.27-.31a4.17,4.17,0,0,1,.37-.36l.21-.18c.23-.2-.23.16,0,0a8.76,8.76,0,0,1,2.3-1.23,8.22,8.22,0,0,1,5.95.29c2,.73,3.85,1.9,5.78,2.8,2.85,1.34,8.09,3.5,10-.38.77-1.59,1.15-3.37,1.8-5,.74-1.85,1.52-3.77,2.25-5.48,3.25-7.57,7.1-15.32,12.22-21.63s11.51-11.21,19.37-13.22c1-.27,2.08-.48,3.13-.65a2,2,0,0,0,1.4-2.46c-.78-2.28-2.41-3.89-4-5.6-1.77-1.87-4.6,1-2.83,2.83,1.09,1.15,2.46,2.29,3,3.83l1.4-2.46a38.93,38.93,0,0,0-22.23,12.53c-5.91,6.46-10.17,14.26-13.73,22.2a112.67,112.67,0,0,0-4.82,11.93l-.36,1.08c-.12.38,0,0,0,0a4.23,4.23,0,0,0-.22.42c-.17.34.11-.13,0-.06-.28.32.31-.19,0,0s.42-.13.09,0,.41,0-.08,0l-.53,0c-.22,0,.08,0,.1,0l-.28-.05c-.57-.12-1.13-.25-1.68-.42a18.32,18.32,0,0,1-2.82-1.19c-4.31-2.13-8.79-4.78-13.76-3.2-3.78,1.21-6.92,4-7.16,8.14-.19,3.47,1.65,6.91,3.64,9.61a33.26,33.26,0,0,0,7.86,7.71,16.44,16.44,0,0,0,1.7,1l1-3.73a19.43,19.43,0,0,0-9.67,2.87c-2.91,1.69-5.91,4.32-6.62,7.78a9.87,9.87,0,0,0,4.18,9.6c2.74,1.86,6.24,1.77,9.35,1.15a59,59,0,0,0,9.41-3.21l-2.46-2.46c-.88,5.38-2.45,11-1.27,16.44a9.92,9.92,0,0,0,4.45,6.52,12.12,12.12,0,0,0,10.51.62,17.47,17.47,0,0,0,9.13-8.66h-3.45a53.77,53.77,0,0,0,36.09,22.14,48.09,48.09,0,0,0,10.92.42,69.72,69.72,0,0,0,12-2.28,134.9,134.9,0,0,0,24-9,77.87,77.87,0,0,0,12.39-6.93,22.63,22.63,0,0,0,5.08-4.88,34.5,34.5,0,0,1,3.73-4.93H211c4,3.27,9.7,6.48,14.52,2.84,4.2-3.17,5.53-9.1,5.07-14.11a17.56,17.56,0,0,0-2.6-8.1l-3.14,2.42a32.59,32.59,0,0,0,6.48,5.64c2.37,1.57,5.24,2.88,8.15,2.44,3.35-.52,5.17-3.62,5.86-6.68a14.33,14.33,0,0,0-2.25-11.38c-2.46-3.6-5.9-6.29-9.23-9l-1.42,3.41a69.76,69.76,0,0,0,9.24-.86c2.72-.51,5.94-1.51,7.41-4.07,1.91-3.3-.21-7.09-2.29-9.71A26.76,26.76,0,0,0,236.55,202a33.32,33.32,0,0,0-14.33-3.1l1.93,1.47c-1.22-7.46-5.3-14.11-10.44-19.55a95.57,95.57,0,0,0-7.52-7.13,50.94,50.94,0,0,0-9.21-6.48,22.27,22.27,0,0,0-11.54-2.88,2,2,0,0,0,0,4Z"/><path class="cls-1" d="M128.91,127.82c-.36-.23-.71-.48-1.06-.73l-.46-.34c-.29-.21,0,0,.06,0l-.33-.26c-.67-.54-1.32-1.11-1.93-1.7s-1.21-1.21-1.78-1.86c-.25-.28-.5-.58-.74-.87l-.41-.51c-.19-.23.29.39,0,0l-.22-.29a35.3,35.3,0,0,1-2.77-4.36c-.42-.78-.82-1.58-1.19-2.39l-.24-.54-.15-.34c-.12-.26.13.33,0,.06-.18-.44-.36-.88-.53-1.33a50.56,50.56,0,0,1-2.71-10.56c0-.1,0-.2,0-.31s-.07-.53,0-.2,0,0,0-.12,0-.26-.05-.39q-.09-.7-.15-1.41c-.09-.94-.16-1.88-.21-2.83-.09-1.86-.09-3.74,0-5.6q.06-1.38.18-2.76c0-.47.09-.94.14-1.41,0-.2,0-.41.07-.62s.12-.91,0-.4c.26-1.84.59-3.68,1-5.49a51.93,51.93,0,0,1,1.5-5.18c.28-.81.58-1.63.9-2.43,0-.11.1-.23.14-.34s.16-.36,0-.1l.07-.16.11-.27c.18-.4.36-.79.55-1.19a40.26,40.26,0,0,1,2.47-4.45c.2-.31.41-.62.62-.92l.37-.53.29-.4.21-.27c-.16.21.23-.29.2-.25l.24-.3.5-.58c.38-.44.78-.86,1.2-1.27s.72-.7,1.1-1l.53-.44c.11-.1.23-.18.34-.27s-.24.17.06,0a22.34,22.34,0,0,1,2.49-1.59c.41-.23.84-.44,1.27-.63l.28-.13c-.06,0-.39.16-.05,0l.72-.27a18.08,18.08,0,0,1,2.6-.68l.59-.1c-.54.1.05,0,.19,0,.46,0,.92-.07,1.38-.08s.82,0,1.24,0l.64,0,.29,0c.47.05-.13,0,.05,0a24,24,0,0,1,2.48.56c.42.12.83.27,1.24.43.17.06.61.25.21.07l.68.31a20.42,20.42,0,0,1,2.36,1.34l.5.35.25.18s.42.31.17.12.06.05.11.09l.3.24.6.52a23.59,23.59,0,0,1,2,2l.48.57c.08.1.45.57.21.25.32.43.64.87.94,1.32a28.44,28.44,0,0,1,1.56,2.66c.89,1.72,3.87,1,3.73-1q0-.42,0-.84c0-.15,0-.31,0-.46s0-.13,0-.2c0-.44,0,0,0,.07-.15-.11.37-1.64.43-1.83s.24-.64.35-1-.06.12-.06.13l.09-.2c.08-.19.17-.37.26-.55a18.33,18.33,0,0,1,1-1.83c.2-.32.41-.62.63-.93l.28-.39c.23-.3,0,0,0,0l.2-.26c.49-.6,1-1.17,1.54-1.72s1.07-1,1.64-1.52c.14-.13.29-.25.44-.37l.19-.15c.23-.19-.25.18,0,0s.61-.45.92-.66a20.41,20.41,0,0,1,1.9-1.15l.9-.44c.18-.08.4-.16.08,0l.55-.21a13.23,13.23,0,0,1,1.93-.55l.41-.07c.36-.06-.4,0,.08,0,.31,0,.62,0,.93,0s.67,0,1,.07l.29,0s-.3,0-.06,0l.74.12a21.56,21.56,0,0,1,2.49.62c.37.12.73.25,1.1.39l.49.19c-.36-.14.23.11.33.16a19.34,19.34,0,0,1,2.15,1.16c.32.19.64.4,1,.61l.49.35c.09.07.6.45.29.21.62.48,1.21,1,1.78,1.53a31.44,31.44,0,0,1,3.24,3.58c-.23-.29.11.14.17.23s.25.33.37.5l.72,1c.46.69.91,1.39,1.34,2.11.85,1.39,1.63,2.83,2.36,4.29q.61,1.23,1.17,2.49c.44,1,.61,1.37,1,2.4.7,1.78,1.33,3.6,1.87,5.44s1,3.72,1.37,5.61c.19,1,.35,1.93.49,2.9,0,.11,0,.21.05.31.05.35,0-.25,0,.09s.05.42.08.63c.06.52.11,1,.16,1.56a52.54,52.54,0,0,1-.17,11.42c0-.3,0,.31-.06.39s-.06.41-.1.61q-.12.77-.27,1.53c-.18.91-.38,1.81-.62,2.71a42.6,42.6,0,0,1-1.8,5.39c-.15.38-.07.18,0,.09,0,.1-.09.2-.13.29s-.19.44-.3.66c-.2.45-.41.88-.63,1.32a2,2,0,0,0,3.46,2,48.46,48.46,0,0,0,4.82-23.93,64.63,64.63,0,0,0-6-24c-3-6.43-6.91-12.75-12.76-16.93a22.34,22.34,0,0,0-9.84-3.94,13.08,13.08,0,0,0-4.91.15,17,17,0,0,0-4.28,1.71,24.69,24.69,0,0,0-7.41,6.35,18.19,18.19,0,0,0-4,8.64,9.24,9.24,0,0,0-.09,2.1l3.72-1c-3.77-7.28-10.9-13.07-19.38-13.1a19.78,19.78,0,0,0-11.38,3.67,30,30,0,0,0-8.55,9.71,54.43,54.43,0,0,0-6.59,21.9,59,59,0,0,0,2.28,23.36c2.25,7.06,6.13,13.86,12,18.49.78.61,1.56,1.2,2.39,1.74a2,2,0,0,0,2.73-.72,2,2,0,0,0-.72-2.74Z"/><path class="cls-1" d="M159.39,109.59a160.72,160.72,0,0,0,29.29,8.67c2.85.56,5.71,1,8.59,1.43l-.89-3.34A277,277,0,0,0,173.43,151q-2.87,5.13-5.51,10.38l2.73-.71L151.32,147.3l-9.56-6.59-4.84-3.33c-.65-.45-1.32-.9-2-1.37,0,0-.49-.39-.16-.12l-.41-.33a10.09,10.09,0,0,1-.74-.72l-.34-.38c.29.36,0-.08-.07-.14s-.16-.28-.24-.42-.08-.32,0,0c0-.16-.09-.32-.14-.47-.16-.47,0,.37,0-.13,0-.18,0-.36,0-.53s0-.24,0,0l.06-.28c0-.17.1-.33.15-.49.16-.54-.17.25.1-.25a10.27,10.27,0,0,1,.61-1c.36-.51-.12.14.11-.14l.33-.38a13.4,13.4,0,0,1,1-1c.15-.13.3-.26.46-.38-.05,0,.47-.37.27-.22s0,0,0,0l.5-.39c.23-.18.46-.36.68-.55.61-.48,1.2-1,1.79-1.48,3.38-2.84,6.71-5.75,10.09-8.59,1.92-1.62,3.86-3.23,5.84-4.79l.3-.24.09-.07.58-.44,1.15-.85A22.4,22.4,0,0,1,159,110a2,2,0,0,0,.72-2.74,2.06,2.06,0,0,0-2.74-.72,39.83,39.83,0,0,0-4.27,3c-1.78,1.39-3.53,2.82-5.26,4.27-3.58,3-7.1,6-10.65,9.06-.67.57-1.33,1.13-2,1.68l-.7.57-.33.26c.55-.45.34-.26.21-.16l-.77.59c-2.65,2.08-5.22,5.46-4.07,9,1.06,3.32,4.56,5.13,7.24,7l9.88,6.8,22.41,15.45a2,2,0,0,0,2.74-.72,273.18,273.18,0,0,1,21.15-35.13c2.15-3,4.51-6.23,6.69-9a2.15,2.15,0,0,0,.52-2,2,2,0,0,0-1.4-1.39,161.19,161.19,0,0,1-29.71-7.07q-4.12-1.41-8.16-3a2,2,0,0,0-2.46,1.4,2.05,2.05,0,0,0,1.39,2.46Z"/><path class="cls-1" d="M148.26,149.47c1.89,1.13,3.3,7.78,4.7,9.79a13.54,13.54,0,0,0,8,5.49c-4.66,3.15-7,8.89-7.52,14.5-.74,8.33,3.48,19.43,13.37,19.5a11.39,11.39,0,0,0,8.6-3.92c2.22-2.59,3.14-6,3.58-9.41.27-2.07.05-22.41-4.23-20.41,5.72-2.67,17.64-24.5,9.84-27.49l-14.92,24.82Z"/><path class="cls-1" d="M73.12,232.76c-2.19-.86-4-1.61-6.16-2.65q-3.09-1.46-6.06-3.12c-2-1.14-4-2.36-6-3.66-1-.63-1.87-1.27-2.79-1.94-.46-.33-.91-.67-1.36-1l-1.19-.93A72.8,72.8,0,0,1,39.73,210a63.32,63.32,0,0,1-7.52-10.87A54.13,54.13,0,0,1,27.28,187a51.73,51.73,0,0,1,.37-28.78c.15-.48.31-1,.48-1.45.09-.25.18-.51.28-.76l.15-.38c.24-.61-.07.16.08-.18a19.81,19.81,0,0,1,1.56-2.95c.14-.22.29-.45.45-.66l.23-.33c-.05.07-.19.24.06-.07A13.48,13.48,0,0,1,32,150.28a11.25,11.25,0,0,1,1-.86c-.4.32.11-.07.2-.13s.37-.25.56-.37c.34-.21.7-.41,1.06-.59l.48-.23.28-.13c-.46.21,0,0,.09,0a16.58,16.58,0,0,1,2.4-.72c.41-.09.83-.16,1.25-.23.1,0,.39,0-.06,0l.32,0,.72-.07a21.47,21.47,0,0,1,2.66,0l1.21.11c.3,0-.34-.06-.05,0l.32,0c.24,0,.48.08.71.13a17.68,17.68,0,0,1,2.47.67c.2.06.4.14.59.21l.3.12,0,0c.4.19.8.37,1.19.58s.71.41,1.05.63l.44.3.25.18c.41.3-.32-.27.07.06a14.19,14.19,0,0,1,1.7,1.68,2,2,0,0,0,2.83,0,2.06,2.06,0,0,0,0-2.83,17.18,17.18,0,0,0-9.61-5.41A21.23,21.23,0,0,0,34.9,144a16.33,16.33,0,0,0-5.07,2.91,17.3,17.3,0,0,0-4.18,5.56,45.06,45.06,0,0,0-3.93,15.1,56.73,56.73,0,0,0,5.05,29.63,68.6,68.6,0,0,0,17.06,22.66,91.24,91.24,0,0,0,24.6,15.3c1.2.51,2.41,1,3.63,1.49a2,2,0,0,0,2.46-1.4,2.06,2.06,0,0,0-1.4-2.46Z"/><path class="cls-1" d="M103.42,198.77A126.73,126.73,0,0,1,75.15,176.1,112.74,112.74,0,0,1,64,162.49c-1.67-2.44-3.24-5-4.68-7.54-.71-1.28-1.38-2.58-2-3.89-.32-.64-.62-1.28-.92-1.93-.15-.32-.29-.64-.44-1l-.25-.58c0-.05-.25-.58-.14-.31a75.07,75.07,0,0,1-3-8.34c-.4-1.41-.77-2.83-1.08-4.27-.17-.74-.32-1.49-.46-2.24-.06-.38-.13-.76-.19-1.13s-.07-.46-.1-.68c0-.06-.09-.64-.06-.38a39.92,39.92,0,0,1-.16-9.46,28.91,28.91,0,0,1,.84-4.25c.19-.68.4-1.35.64-2,.11-.29.22-.57.34-.86-.14.34,0,0,0-.11l.27-.59a24.26,24.26,0,0,1,1.95-3.34q.26-.39.54-.75c-.22.29.25-.31.31-.39.41-.49.84-1,1.29-1.43a16.61,16.61,0,0,1,2.67-2.24,16.25,16.25,0,0,1,1.54-.94c.27-.15.54-.28.81-.41l.41-.19c.13-.06.11,0-.07,0l.34-.13a18,18,0,0,1,8.56-1,48.59,48.59,0,0,1,8,1.48c1.52.42,3,1,4.49,1.53l1.3.52.41.17c-.06,0-.41-.17-.08,0l.83.36c1,.43,2,.89,2.91,1.37a45.31,45.31,0,0,1,5.36,3.11c.38.26.75.53,1.12.81-.46-.35.13.11.22.19s.39.33.58.5.59.55.87.84l.37.42c.05.06.09.12.14.17.23.26-.28-.42,0,0,.17.27.33.53.49.81.27.48-.09-.35,0,0,0,.16.1.31.14.47a2,2,0,0,0,2.46,1.39,2,2,0,0,0,1.4-2.46,9.32,9.32,0,0,0-2.88-4.34A29.53,29.53,0,0,0,94,105.81a64.93,64.93,0,0,0-11.74-5.32,42.13,42.13,0,0,0-5.41-1.4,34.25,34.25,0,0,0-10.57-.91,19.62,19.62,0,0,0-8.39,2.87,23.77,23.77,0,0,0-6.16,5.8c-7.8,10.36-5.89,24.69-2,36.2,4,11.84,10.77,22.47,19,31.83a134.92,134.92,0,0,0,28.86,25c1.29.81,2.59,1.61,3.9,2.37a2,2,0,1,0,2-3.45Z"/><path class="cls-1" d="M128.57,170.58c-2.56-4-5.5-7.8-8.2-11.74a67.52,67.52,0,0,1-3.77-6.07q-.81-1.49-1.5-3l-.12-.28c.11.26-.12-.3-.11-.27l-.27-.7c-.22-.58-.42-1.17-.61-1.76a26.28,26.28,0,0,1-.89-3.83c0-.12,0-.25,0-.37,0,.42,0-.2,0-.23,0-.31-.07-.63-.09-1,0-.72-.06-1.43,0-2.15a2,2,0,0,0-4,0c-.15,10.24,5.83,18.68,11.55,26.62,1.61,2.23,3.2,4.46,4.67,6.78a2,2,0,1,0,3.46-2Z"/><path class="cls-1" d="M193.34,167.62c3.45-6.06,6.87-12.36,8.72-19.13a30.13,30.13,0,0,0,1-5.8,2,2,0,0,0-2-2,2,2,0,0,0-2,2c0,.36-.06.72-.1,1.07a1.2,1.2,0,0,1,0,.2c0,.22-.07.43-.1.65-.14.78-.32,1.57-.52,2.34a45,45,0,0,1-1.56,4.81c-.31.82-.61,1.55-.86,2.13-.37.83-.74,1.65-1.13,2.47-.73,1.55-1.51,3.07-2.31,4.57s-1.71,3.13-2.59,4.68a2,2,0,0,0,3.46,2Z"/><path class="cls-1" d="M219.44,107.23c.37-.34.74-.67,1.12-1l.58-.47.27-.21c-.45.36,0,0,.13-.1q1.2-.9,2.46-1.68c.89-.55,1.79-1.06,2.71-1.53l1.22-.59.74-.33.25-.1.14-.06a37.71,37.71,0,0,1,5.76-1.81c1-.21,1.91-.39,2.88-.53.25,0,.39.07,0,0a1.24,1.24,0,0,0,.33,0l.72-.08,1.51-.12a34.86,34.86,0,0,1,5.78.14c.18,0,1,.2.36,0,.2,0,.42.06.63.09.5.08,1,.17,1.5.28.9.19,1.8.42,2.68.69l1.3.44.58.22.34.14c.38.15-.42-.19,0,0a24.93,24.93,0,0,1,2.48,1.24,23.65,23.65,0,0,1,2.27,1.46l.29.22c.36.26-.35-.29,0,0l.47.39c.38.31.75.64,1.11,1a22.13,22.13,0,0,1,1.86,2c.08.09.15.19.23.29.23.27-.07-.08-.08-.11,0,.16.36.48.45.62q.42.57.78,1.17a21.86,21.86,0,0,1,1.42,2.66c0,.11.35.82.12.27.11.25.21.5.3.76.18.48.35,1,.5,1.45a28,28,0,0,1,.79,3.25l.12.75c0,.15,0,.3.07.45,0-.06-.06-.45,0-.07.07.68.14,1.35.18,2a36.44,36.44,0,0,1-.81,10,77.46,77.46,0,0,1-7.08,18.67,111.8,111.8,0,0,1-10.3,16.69c-.86,1.14-1.77,2.29-2.8,3.53s-2.18,2.54-3.31,3.77a90.41,90.41,0,0,1-7.12,6.86c-1.29,1.11-2.57,2.14-3.82,3.07s-2.32,1.61-3.44,2.46c-.88.67-1.72,1.39-2.56,2.1l-1.1.9c-.4.33.34-.25-.09.07l-.38.29-.84.59a34.71,34.71,0,0,1-4,2.31,2,2,0,0,0-.72,2.73,2,2,0,0,0,2.74.72,35.83,35.83,0,0,0,7.28-4.83l1.09-.93.53-.43.29-.23,0,0c1.27-.93,2.58-1.8,3.83-2.75a88.79,88.79,0,0,0,15-14.53,109,109,0,0,0,11.35-16.88,98.34,98.34,0,0,0,8.33-19.29c3.08-10.49,3.06-22.65-4.27-31.4-5.27-6.28-13.51-9.22-21.54-9.38a38.42,38.42,0,0,0-23.75,7.64c-.93.71-1.84,1.44-2.7,2.23a2,2,0,0,0,0,2.83,2.05,2.05,0,0,0,2.83,0Z"/><path class="cls-1" d="M267,145.86c3.51,1,7.08,1.74,10.59,2.74,1.64.46,3.27,1,4.86,1.6l.55.23c.27.1-.32-.15-.06,0l.27.12c.38.16.76.34,1.14.52.74.37,1.46.77,2.17,1.21.33.2.65.42,1,.64.16.11.32.22.47.34l.24.17c-.42-.3,0,0,.05,0A20.24,20.24,0,0,1,290,155.1c.28.3.55.6.81.91.14.15.26.32.4.47s-.2-.26,0,0l.24.32a22.07,22.07,0,0,1,1.48,2.35c.22.41.43.82.63,1.24l.3.66c.15.35,0,.1,0,0l.21.52a30.77,30.77,0,0,1,1.05,3.25,29,29,0,0,1,1,7.11c0,1.24,0,2.47-.11,3.71,0,.6-.1,1.2-.17,1.8l-.06.45c0,.37,0-.23,0,.14l-.18,1.12a55.28,55.28,0,0,1-1.8,7.39c-.37,1.17-.78,2.32-1.22,3.47-.2.52-.4,1-.61,1.55-.05.12-.11.25-.16.38-.13.32.1-.22,0,.1l-.37.85c-1,2.16-2,4.26-3.19,6.31a70.18,70.18,0,0,1-7.76,11.05c-1.52,1.76-3.11,3.45-4.79,5.07-.85.82-1.73,1.63-2.63,2.41s-1.75,1.46-2.53,2C262.84,225.4,254,229,246,234c-1,.62-2,1.27-2.94,1.94a2.05,2.05,0,0,0-.72,2.74,2,2,0,0,0,2.74.71c8-5.54,17.09-9.11,25.13-14.53a70.13,70.13,0,0,0,20-21.28c5.29-8.52,9.17-18.39,9.78-28.46.53-8.78-1.88-18.76-9-24.49-5.78-4.64-13.19-6.07-20.2-7.85L268,142a2,2,0,1,0-1.06,3.85Z"/><path class="cls-1" d="M178.39,279.35a6,6,0,0,1,.17.73l.06.29c.08.45,0-.34,0-.05,0,.45,0,.9,0,1.36a1.06,1.06,0,0,1,0,.25c.14-.33.07-.36,0-.18s-.08.39-.13.58-.11.37-.17.55a1.12,1.12,0,0,1-.09.22c.21-.21.16-.33,0-.06a8.7,8.7,0,0,1-.53.94l-.3.43s-.26.36,0,.08-.05.06-.1.11a19.82,19.82,0,0,1-1.61,1.69c-2.49,2.37-5.23,4.57-6.33,7.95-1.5,4.63,1.14,9.79,4.61,12.82a12,12,0,0,0,7.51,2.9c2.65.15,5.28-.3,7.92-.16l.38,0s.56.05.23,0,.21,0,.22,0l.31.06a11.11,11.11,0,0,1,1.49.45c.48.17-.38-.19.08,0l.27.13c.22.11.44.22.65.35a12.56,12.56,0,0,1,1.24.81l.24.18c-.37-.28-.09-.07,0,0l.52.43c.38.32.75.66,1.11,1l2.11,2.05c2.89,2.76,6.79,5.54,11,4.67,3.47-.71,4.57-4.44,4.34-7.55a17.68,17.68,0,0,0-2.89-8.74,15.15,15.15,0,0,0-5.33-4.73,19.58,19.58,0,0,0-7.21-1.87c-3.31-.29-6.6.77-9.92.51l-.2,0c-.37,0,.44.11.21,0a2.33,2.33,0,0,0-.36-.08c-.41-.07.42.24.12,0,.61.38.38.32.28.21.41.43.29.43.2.25a2,2,0,0,0-2.73-.71,2.05,2.05,0,0,0-.72,2.73c.75,1.57,3,1.6,4.47,1.56,1.73,0,3.45-.25,5.17-.42.72-.07,1.44-.15,2.17-.17.31,0,.62,0,.93,0l.95.09.37,0c-.45-.05.14,0,.19,0a16.36,16.36,0,0,1,3.17.8c.14.05.68.29.29.11l.75.36a13.5,13.5,0,0,1,1.35.82l.34.25c-.07,0-.29-.24,0,0s.4.34.59.52a14.06,14.06,0,0,1,1.19,1.25l.2.25.06.08c.07.1.14.19.2.29q.26.39.48.81c.15.27.29.55.42.83,0,.09.26.6.11.26s.12.29.15.38a21,21,0,0,1,.64,2c.09.36.17.73.23,1.09,0,.15.06.31.08.46s.07.45,0,.08,0,0,0,.13a11.36,11.36,0,0,1,0,2c0,.09,0,.17,0,.26,0,.26.1-.55,0-.18,0,.13,0,.26-.07.39-.06.29-.24.61-.27.9,0-.42.18-.4.09-.23a1.74,1.74,0,0,0-.1.19c-.07.12-.15.22-.21.34s.36-.38,0,0l-.15.15c-.16.17-.3.07.14-.1a1.87,1.87,0,0,0-.29.2l-.19.1c-.27.15,0-.13.18-.08-.08,0-.27.09-.36.12l-.24.05c-.41.11.33,0,.12,0s-.69,0-1,0,.39.08-.19,0c-.23,0-.47-.1-.7-.16s-.5-.14-.74-.23-.63-.26-.22-.08a11.78,11.78,0,0,1-1.32-.69c-.38-.23-.74-.49-1.1-.75s0,0,0,0l-.29-.23-.63-.54c-3-2.64-5.54-5.82-9.46-7.14a19.12,19.12,0,0,0-7.15-.48,37.53,37.53,0,0,1-3.82.08c-.34,0-.67,0-1-.07h-.06l-.39-.06c-.32-.06-.64-.14-1-.23a2.65,2.65,0,0,1-.37-.12s-.58-.22-.25-.08a7.26,7.26,0,0,1-1.3-.74l-.28-.2c.37.27-.09-.08-.14-.12l-.66-.6a16.21,16.21,0,0,1-1.11-1.23c-.25-.3-.08-.11,0,0l-.27-.38c-.2-.28-.38-.57-.56-.86a13.84,13.84,0,0,1-.77-1.48c.16.35-.09-.23-.14-.35-.1-.3-.2-.6-.28-.91s-.11-.48-.16-.73,0,0,0,.05c0-.13,0-.26,0-.39s0-.45,0-.67,0-.18,0-.27c.05-.49.07,0,0,0a7.28,7.28,0,0,0,.26-1.11c0-.13.11-.5.21-.58s-.22.45-.06.14c.06-.11.11-.22.16-.33a9.64,9.64,0,0,1,.55-.94l.31-.45c.09-.12.2-.37-.05.07a3.11,3.11,0,0,1,.23-.28,35.17,35.17,0,0,1,3.25-3.21c2.51-2.31,4.81-5,4.88-8.55a11,11,0,0,0-.4-3,2,2,0,0,0-3.86,1.07Z"/><path class="cls-1" d="M211.48,307.5a29.79,29.79,0,0,1,3.83-1c.55-.1-.27,0,.07,0l.43,0c.22,0,.44,0,.66,0a13.63,13.63,0,0,1,1.69,0l.79.08c.35,0-.49-.08.11,0l.38.06c.71.11,1.41.25,2.11.39a9.71,9.71,0,0,0,4,.13c2.43-.55,4-2.87,4.35-5.22a12.37,12.37,0,0,0-.77-6.45,9.7,9.7,0,0,0-10.58-6.8,40.74,40.74,0,0,0-7.51,1.24c-1.17.27-2.34.54-3.52.76l-.81.14-.44.06h0c-.58.06-1.16.1-1.75.11-1.67,0-3.34.09-5,.06a23.1,23.1,0,0,1-4.28-.38c-2.42-.55-4.73-1.75-7.22-1.94a2,2,0,0,0-2,2,2,2,0,0,0,2,2c.33,0-.21,0-.21,0l.31.05.62.14c.48.13.95.28,1.42.43,1.06.34,2.11.7,3.17,1a29.3,29.3,0,0,0,8,.75,42.31,42.31,0,0,0,7.46-.56c2.27-.43,4.5-1,6.77-1.46l.76-.13.37-.06c.6-.1-.23,0,.13,0,.58-.06,1.17-.12,1.76-.15s1,0,1.43,0l.44,0,.17,0,.25,0,.42.09q.38.09.75.21c.13,0,.69.27.32.1.21.1.42.2.62.32l.21.13.16.1h0s-.16-.15,0,.05l.25.22c.13.13.25.26.37.4s.39.5.14.15l.41.6a10.18,10.18,0,0,1,.66,1.21c0,.09.09.19.13.28-.18-.38-.05-.13,0,0,.09.25.19.5.27.75q.21.67.36,1.38c0,.14.1.75.05.24,0,.26.05.52.06.78,0,.42-.05.85,0,1.28,0,.27.09-.37,0-.1,0,.11,0,.24-.07.35s-.11.46-.18.69-.07.17-.1.26.2-.4,0-.1-.17.32-.27.48-.26.37-.09.15-.08.08-.13.13-.37.31-.05.08a3.87,3.87,0,0,0-.34.21c-.18.16.38-.08,0,0a2.48,2.48,0,0,0-.39.1c-.25.11.45,0,0,0H224l-.44,0c-.05,0-.53-.06-.28,0s-.31-.06-.29-.05l-.49-.1a38.46,38.46,0,0,0-4.26-.66,20.7,20.7,0,0,0-7.83,1.15,2,2,0,0,0,1.07,3.86Z"/><path class="cls-1" d="M221.58,290.31a9.6,9.6,0,0,0,.17-6,6.68,6.68,0,0,0-3.4-3.81c-3.87-1.81-8.31-.52-11.83,1.49-2,1.12-3.77,2.51-5.67,3.76a26.45,26.45,0,0,1-3,1.76l-.74.35c.35-.16-.21.08-.32.12a9.36,9.36,0,0,1-1.27.4,1.38,1.38,0,0,1-.49.1s.54,0,.19,0a.74.74,0,0,0-.21,0c-.09,0-.33-.06-.4,0,.33-.16.46.11.26,0l-.25-.08s.51.22.25.1l-.14-.08.21.16-.11-.12s.27.45.16.2l-.09-.15c-.14-.19.2,0,.08.22,0,0-.07-.2-.08-.23s-.05-.29-.1-.43,0,.45,0,.18c0-.08,0-.17,0-.25a9.69,9.69,0,0,1,0-1.32c0-.22,0-.45.06-.68,0-.06,0-.44,0-.17s0-.08,0-.15c.07-.47.15-.95.23-1.42a71.35,71.35,0,0,1,1.67-7.08c.32-1.13.67-2.25,1.06-3.36.17-.47.34-.94.52-1.4.05-.13.37-.85.15-.36.09-.22.18-.43.28-.64a2.05,2.05,0,0,0-.72-2.74,2,2,0,0,0-2.73.72,54.92,54.92,0,0,0-3.73,12,28.83,28.83,0,0,0-.85,6.05c0,1.7.46,3.56,2,4.49s3.36.52,4.89,0a27.63,27.63,0,0,0,6.2-3.38,46,46,0,0,1,5.91-3.74l.74-.34c-.26.11.33-.12.44-.16a14.6,14.6,0,0,1,1.47-.43l.63-.13.32-.05c-.07,0-.44.05-.07,0a10,10,0,0,1,1.34,0l.64,0c.27,0-.39-.08-.13,0l.34.07a4.91,4.91,0,0,1,.63.17l.24.08c.37.12-.37-.2,0,0,.16.09.33.16.49.26l.2.13c.29.18.06,0-.07-.06.15,0,.34.3.44.4a1.37,1.37,0,0,0,.16.18c.24.24-.15-.27-.06-.07s.22.35.31.52.09.31,0,0,0,0,0,.12a4.5,4.5,0,0,1,.17.63,1.57,1.57,0,0,1,.05.27c0-.06,0-.46,0,0,0,.22,0,.44,0,.67s-.08.9,0,.42a11.57,11.57,0,0,1-.42,1.76,2,2,0,0,0,3.86,1.07Z"/><path class="cls-1" d="M146.52,285.06c1.47,2.62,3.24,5.06,4.67,7.7l.45.87c.07.14.14.29.2.43a1383251445345.86,1383251445345.86,0,0,0,.16.36c.05.1,0,.09,0-.05s0-.13,0,0l.09.24.15.42a8.84,8.84,0,0,1,.25.88c0,.14.05.27.08.41.1.44,0-.36,0,0s0,.56,0,.85c0,.13,0,.26,0,.39,0,.34.11-.49,0,0-.07.28-.15.54-.23.82s.2-.38,0,0l-.2.37c-.07.13-.15.25-.23.37l-.11.16c-.23.35.21-.21,0,0s-.43.49-.67.72-.26.24-.4.35l-.18.16c-.16.15.26-.19-.05,0a15,15,0,0,1-5.09,2.48c-.49.13-1,.23-1.47.31l-.32.05c-.35.06.25,0-.1,0l-.84.09-3.11.27a18.72,18.72,0,0,0-6.42,1.6,29,29,0,0,0-4.53,2.81c-.61.44-1.19.91-1.78,1.37l-.81.63-.42.33-.19.15c-.23.18.38-.29,0,0a31.74,31.74,0,0,1-3.87,2.63c-.31.18-.62.34-.94.49s-.38.16-.06,0L120,314a7.84,7.84,0,0,1-.83.23,1.09,1.09,0,0,0-.24,0s.5,0,.16,0h-.47c-.41,0,0-.08.07,0a1.89,1.89,0,0,0-.44-.1c-.23-.07-.2-.12,0,0-.18-.11-.38-.19-.57-.29s-.34-.21-.51-.33.22.22,0,0l-.33-.33-.18-.2c-.16-.16.25.4,0,.06-.07-.11-.14-.21-.2-.32a2.39,2.39,0,0,0-.12-.22c-.16-.26.09.16.06.15s-.2-.67-.23-.81c-.1-.36,0,.18,0,.17a2.12,2.12,0,0,1,0-.24c0-.12,0-.24,0-.37s0-.29,0-.43,0-.17,0-.25c0-.25-.1.51,0,.09a11,11,0,0,1,.51-1.78c.12-.33-.16.33,0-.09l.21-.43a10.14,10.14,0,0,1,.55-1c.16-.26.33-.51.5-.76s.31-.39.06-.09l.35-.42a13.06,13.06,0,0,1,1.32-1.36l.33-.28c.26-.22-.35.25,0,0s.45-.31.69-.44c.42-.24.85-.45,1.29-.65-.23.1.1,0,.12,0l.3-.12.8-.27a18.88,18.88,0,0,1,5.61-.79,57.27,57.27,0,0,1,5.86,0,35.67,35.67,0,0,0,5.47.25,8.94,8.94,0,0,0,3-.73,2,2,0,0,0,.72-2.74,2.07,2.07,0,0,0-2.74-.72c.48-.21-.13,0-.24.06l-.56.11c-.28.08.33,0,0,0l-.26,0-.82,0a29.55,29.55,0,0,1-3-.16c-2-.17-4-.2-6-.19a32.53,32.53,0,0,0-6.75.59,15.13,15.13,0,0,0-5.51,2.26c-4.77,3.4-9.07,11.94-2.69,16a6.27,6.27,0,0,0,4.95.85,14.3,14.3,0,0,0,4.41-2.05c1.47-.95,2.85-2,4.22-3.11l.86-.67.37-.29c-.45.35.06,0,.16-.12.64-.48,1.31-.93,2-1.38a26.81,26.81,0,0,1,2.53-1.51l.7-.32.32-.13a14.22,14.22,0,0,1,1.54-.45,20.41,20.41,0,0,1,3.06-.4c1.1-.09,2.2-.17,3.29-.31,4.2-.55,8.71-2.34,11.34-5.82,4.05-5.37-1.07-11.78-3.9-16.36-.42-.68-.84-1.38-1.23-2.08a2,2,0,0,0-3.45,2Z"/><path class="cls-1" d="M116.69,303c-2.37-1.2-4.56-3-7.25-3.46a7.45,7.45,0,0,0-4.67.63,8.84,8.84,0,0,0-1.26.83l-.94.73c.32-.25,0,0-.06,0l-.49.34a4.68,4.68,0,0,1-.73.4c.41-.17-.26,0-.38.07-.32.1,0,.11.11,0l-.22,0h-.63c-.31,0,.23,0,.25,0s-.22,0-.27-.06l-.17-.06c-.33-.07.44.26.16.07-.08-.06-.46-.32-.15-.07s-.07-.11-.16-.17c-.25-.19.22.36.13.17s-.08-.11-.11-.17-.12-.3-.21-.38.18.5.1.23c0-.08,0-.15-.07-.22a4.77,4.77,0,0,1-.13-.51.93.93,0,0,0-.05-.29s.05.55,0,.23,0-.34,0-.51a8,8,0,0,1,0-1.1c0-.11,0-.22,0-.34s.09.06,0,.19a2.06,2.06,0,0,0,.1-.57c.08-.41.18-.81.3-1.21s.23-.71.36-1.06c.19-.53-.17.33.07-.17q.12-.29.27-.57a10.19,10.19,0,0,1,.52-.91s.28-.44.3-.43-.34.4-.09.12c.08-.08.15-.17.23-.26s.44-.36.6-.57c-.29.37-.33.22-.12.11l.14-.09a4.67,4.67,0,0,1,.49-.27c.08,0,.56-.26.19-.1a8.68,8.68,0,0,1,1.65-.49l.44-.08c-.37.07-.07,0,0,0,.37,0,.73-.06,1.1-.07a16.71,16.71,0,0,1,1.87.08l.38,0c.6.06-.24,0,.13,0l1.05.17c2.54.46,5,1.22,7.55,1.7a47.67,47.67,0,0,0,10.27.44c3.64-.1,7.28-.31,10.92-.34a2,2,0,0,0,0-4c-3.4,0-6.8.22-10.2.32-1.73.06-3.47.09-5.21.07-.81,0-1.64,0-2.45-.07-.29,0-.57,0-.86-.06l-.34,0h0l-.35-.05c-5.33-.87-10.91-3.42-16.34-1.73a8.47,8.47,0,0,0-4.87,3.66,14,14,0,0,0-1.9,5,9.71,9.71,0,0,0,.22,5.24,4.81,4.81,0,0,0,4.42,3.19,6.72,6.72,0,0,0,3.95-1.23c.35-.25.68-.51,1-.77l.34-.26.13-.1c.27-.19.55-.38.84-.55.07,0,.56-.23.13-.08a4,4,0,0,1,.49-.15c.06,0,.63-.08.23-.05l.58,0a5.12,5.12,0,0,1,.56,0c-.36,0,.09,0,.2.05.37.09.72.21,1.07.33.56.19-.19-.1.13.05l.6.29c1.38.71,2.66,1.6,4,2.3a2,2,0,1,0,2-3.45Z"/><path class="cls-1" d="M108.91,288.68c-.13-.45-.24-.91-.33-1.37,0-.11,0-.21,0-.32s0,.36,0,.13,0-.47-.06-.7c0-.39,0-.77,0-1.16s-.09.42,0-.08c0-.19.08-.38.14-.57s.1-.32.15-.48c.11-.33-.19.36,0,0,.08-.14.15-.29.23-.42l.13-.2c.18-.3-.07,0-.07.07,0-.14.51-.54.61-.64.34-.31-.33.21.06-.05l.46-.28a1.51,1.51,0,0,1,.44-.22s-.4.15-.19.09l.24-.09a8.26,8.26,0,0,1,1.09-.27c.35-.07-.38,0,.09,0l.58,0a11.39,11.39,0,0,1,1.31,0l.24,0c.3,0-.34-.06,0,0l.67.12a13.46,13.46,0,0,1,1.54.42l.64.23.07,0,.35.17a13.88,13.88,0,0,1,1.37.74c.43.25.84.52,1.24.8l.64.46.32.24.15.11c.83.66,1.64,1.34,2.46,2a22.13,22.13,0,0,0,4.81,3.47,4.45,4.45,0,0,0,4.33.06,4.93,4.93,0,0,0,2-3.31c.6-3,.16-6.09.15-9.12a2,2,0,0,0-4,0c0,2.62.29,5.23,0,7.85,0,.28.09-.49,0,0,0,.14,0,.27-.07.4s-.15.49-.22.73.26-.45,0-.08a2.4,2.4,0,0,0-.16.27c-.11.26.36-.41.08-.11s0,0,.1-.06c-.3.2.05-.08.19-.06l-.28.08s.55,0,.3,0h-.16c-.43.06.4.11,0,0-.11,0-.23-.05-.34-.09l-.21-.07c-.32-.1.13,0,.15.06a2.93,2.93,0,0,0-.47-.23l-.58-.34c-.37-.24-.72-.5-1.08-.77.24.18,0,0-.06-.05l-.3-.24c-.24-.18-.47-.37-.7-.56-.82-.67-1.62-1.36-2.45-2a26.33,26.33,0,0,0-5.48-3.69c-3.33-1.55-7.71-2.32-11-.33-3.7,2.2-4.12,6.73-3,10.52a2,2,0,1,0,3.86-1.06Z"/></svg>