<svg id="Capa_1" data-name="Capa 1" xmlns="http://www.w3.org/2000/svg" viewBox="0 0 290.31 427.91"><defs><style>.cls-1{fill:white;}</style></defs><title>perro coral</title><path class="cls-1" d="M111.65,130.3a20.49,20.49,0,0,1-5.63-2.06,13.44,13.44,0,0,1-5-3.94,11.61,11.61,0,0,1-1-12c1.71-3.71,4.84-7.61,9.37-7.15,4.85.5,8.35,5.29,9.58,9.65a14.31,14.31,0,0,1,.18,7.49,19.34,19.34,0,0,1-2,4.35,8.43,8.43,0,0,1-2.54,3.14A4.17,4.17,0,0,1,111.65,130.3Z"/><path class="cls-1" d="M187.18,127.09a6.22,6.22,0,0,0,2-1,14.6,14.6,0,0,0,4.36-6.45c1.41-4,.18-8.16-2.35-11.47-4.81-6.3-11.91-3.63-15.25.8-2.9,3.85-4.66,11.29-1.4,16.34,1.37,2.11,4.84,2.14,7,2.16A18.42,18.42,0,0,0,187.18,127.09Z"/><path class="cls-1" d="M208.48,74.71c.42.8.83,1.61,1.21,2.43.21.47.43.94.63,1.41,0-.07-.21-.49,0-.06l.36.9A57.24,57.24,0,0,1,212.45,85c.52,1.9,1,3.83,1.29,5.77a47.13,47.13,0,0,1,.72,5.26,113.39,113.39,0,0,1-.53,24.15c-.05.47-.11.94-.17,1.41,0,.27-.07.54-.1.8,0-.08.07-.53,0-.06-.15,1.06-.3,2.12-.47,3.18q-.47,2.94-1,5.85c-.71,3.73-1.46,7.48-2.45,11.14A106.3,106.3,0,0,1,205.78,154q-.53,1.34-1.08,2.67l-.63,1.52-.12.29-.28.66-2.44,5.7c-3.24,7.62-6.47,15.35-8.11,23.51a57.78,57.78,0,0,0-.05,23c1.24,6.21,3.7,12.32,7.93,17.11a22.56,22.56,0,0,0,17.54,7.48,28.84,28.84,0,0,0,12.08-3.06,108.57,108.57,0,0,0,10.16-6.21,47.28,47.28,0,0,1,5.15-2.88l.72-.32c.44-.19.89-.36,1.33-.53q1.44-.54,2.91-1.05c4.06-1.41,8.26-2.78,11.9-5.13,6.37-4.11,11.75-9.94,14.27-17.17s1.43-14.74-.6-21.87c-5.14-18.07-13-35.15-19-52.92-5.59-16.46-9.85-33.52-18.91-48.54-4.2-7-9.34-13.85-16.84-17.43-2-1-4.13-1.78-6.23-2.59l-2.67-1L212,54.9l-.16-.07c-.49-.21-1-.43-1.46-.66a66.5,66.5,0,0,1-10.74-7.09,61.32,61.32,0,0,0-10.81-7A55,55,0,0,0,176,36.19c-9.27-1.76-18.42-3.07-27.88-2.48-18,1.13-36.19,6-51.85,15-3.53,2-6.86,4.4-10.46,6.31q-1.11.6-2.28,1.11c-.58.25.53-.21-.08,0l-.53.2c-.56.21-1.12.4-1.69.58a46.6,46.6,0,0,0-5.93,2,22.92,22.92,0,0,0-8.2,7,76.53,76.53,0,0,0-7.22,11.19C55.76,84.8,52.72,93,49,100.83c-2,4.14-4.27,8.11-6.42,12.17q-3.36,6.38-6.42,12.92a115.17,115.17,0,0,0-5.66,13.47c-1.4,4.41-2.35,8.94-3.46,13.42-2.08,8.43-5.46,16.52-7,25.09-1.59,9-.91,18.14,4.15,26,4.38,6.82,10.61,11.87,17.25,16.37,3.13,2.13,6.34,4.16,9.44,6.34,1.64,1.16,3.21,2.42,4.9,3.51s3.7,2.18,5.58,3.23a49,49,0,0,1,5.42,3.38c-.33-.25.54.45.66.55l1,.9c.71.64,1.4,1.3,2.1,2,2.72,2.55,5.58,4.83,9.2,5.95,6.36,2,14.06,1,19-3.67,4.06-3.8,5.8-9.48,6.56-14.83a114.77,114.77,0,0,0,.7-18.63c-.22-8.92-1.36-17.82-4.48-26.22-6.49-17.48-15.53-33.58-19.47-52q-.64-3-1.09-6.11a5.22,5.22,0,0,1-.07-.57c-.07-.54-.13-1.08-.19-1.63-.1-1-.19-2-.26-3.07a80.9,80.9,0,0,1,.2-12.55c.08-.82.23-2.21.3-2.7.1-.71.33-2.2.51-3.21q.61-3.42,1.47-6.8c.55-2.18,1-4.37,1.43-6.57.55-2.66,1.13-5.33,1.94-7.93.18-.57.38-1.13.58-1.7a2.67,2.67,0,0,1,.18-.44s-.38.8-.19.43.21-.45.33-.67.25-.45.38-.68c.35-.66-.19.2-.19.19a1.54,1.54,0,0,0,.36-.36s-.89.65-.49.39.79-.22-.63.27a4.08,4.08,0,0,0,2.79-4.92c-.63-2-2.8-3.52-4.92-2.8-2.88,1-4.21,3.58-5.25,6.24a51.8,51.8,0,0,0-2.17,7.82c-.49,2.23-.88,4.48-1.38,6.7-.85,3.78-1.82,7.51-2.38,11.35a87.09,87.09,0,0,0,0,25.74,117.63,117.63,0,0,0,6.58,24.08c3.28,8.75,7.36,17.56,10.87,26a111.53,111.53,0,0,1,4.73,12.8q.84,3,1.39,6.1c.1.55.19,1.11.28,1.67,0,.15.17,1.17.09.61.15,1.13.27,2.25.37,3.38a137.87,137.87,0,0,1,.26,20.12c-.08,1.32-.23,2.62-.35,3.94-.06.55.12-.81,0-.26l-.06.4c0,.31-.09.62-.14.93-.12.65-.25,1.3-.39,1.94a28.88,28.88,0,0,1-1.1,3.68c0,.12-.1.23-.14.35-.16.5.36-.73.12-.27-.13.25-.24.52-.36.77a15,15,0,0,1-.89,1.56c-.14.24-.31.46-.46.69-.37.56.61-.69,0,0A15.84,15.84,0,0,1,93,236.93c-.11.11-.84.72-.31.28s-.2.13-.36.24c-.51.33-1.06.56-1.59.86-.36.2.36-.18.38-.16a4.3,4.3,0,0,0-.47.18c-.29.1-.58.18-.87.26s-.61.16-.92.22l-.54.1c-.56.11.06.07.22,0a5.76,5.76,0,0,1-2.12.11,21.47,21.47,0,0,1-2.53-.15c-.7-.08.51.1-.15,0l-.57-.11c-.42-.09-.83-.2-1.24-.33s-1.21-.44-.49-.13a11.41,11.41,0,0,1-1.16-.58,17.5,17.5,0,0,1-1.86-1.22c.76.56-.29-.26-.43-.39-.33-.28-.66-.58-1-.87a57.86,57.86,0,0,0-9.34-7.45A120.45,120.45,0,0,1,57.1,221.3c-3-2.2-6-4.21-9.11-6.24-1.57-1-3.13-2.09-4.67-3.18-.72-.5-1.43-1-2.13-1.55l-.45-.34c-.51-.38.42.34-.08-.06L39.49,209a52.13,52.13,0,0,1-4-3.69c-.62-.64-1.23-1.3-1.81-2-.29-.34-.58-.69-.86-1s0,0,0,0c-.2-.26-.39-.53-.58-.79A24.24,24.24,0,0,1,27.55,191c0-.17-.21-1.37-.14-.79-.06-.48-.1-1-.13-1.44-.07-1-.09-2.08-.07-3.11s.08-1.95.18-2.92l.09-.84c0-.08.1-.78,0-.18.08-.56.17-1.12.27-1.67,1.45-8.27,4.68-16.07,6.74-24.18,1.1-4.33,2-8.72,3.28-13a87.65,87.65,0,0,1,5.06-12.46q2.94-6.31,6.17-12.5c2.08-4,4.34-7.82,6.3-11.84,3.75-7.68,6.73-15.72,10.62-23.34A79.75,79.75,0,0,1,72.45,72l.45-.6s.39-.52.13-.18.18-.22.25-.3l.33-.41a23.89,23.89,0,0,1,1.74-1.89c.27-.27.56-.53.85-.79l.5-.42s-.53.36-.15.12c.71-.44,1.38-.93,2.13-1.31.18-.09,1.39-.57.64-.32.35-.11.69-.25,1-.36,1-.33,2.11-.57,3.15-.9a39.9,39.9,0,0,0,5.66-2.34c3.45-1.75,6.62-4,10-6a102.14,102.14,0,0,1,11.23-5.72l.51-.22.31-.13,1.39-.55c1-.4,2-.77,3-1.13,2-.73,4.06-1.39,6.12-2,4.17-1.22,8.41-2.2,12.68-3q3.36-.64,6.76-1.13l1-.13,1.6-.19c1.15-.12,2.29-.22,3.43-.3a86,86,0,0,1,13.33,0,124.14,124.14,0,0,1,12.92,2c2,.38,4.08.79,6.09,1.32,1,.26,1.92.54,2.86.86a25,25,0,0,1,2.45.94,59.86,59.86,0,0,1,10.64,6.91,69,69,0,0,0,10.56,7c1.94,1,4,1.76,6,2.54l2.68,1L216,65l.28.11.64.28a27.17,27.17,0,0,1,5,2.84c.37.27,0,0-.1-.08l.56.46c.33.28.65.57,1,.87.7.66,1.37,1.34,2,2.05s1.21,1.4,1.79,2.12c0,.06.47.59.12.14l.36.48c.33.43.64.87.95,1.31,1.12,1.59,2.17,3.22,3.17,4.88a113.82,113.82,0,0,1,9.95,21.78c2.87,8.17,5.28,16.49,8.06,24.68,2.9,8.52,6.32,16.86,9.53,25.26,3.32,8.66,6.5,17.38,9.1,26.28.58,2,1.18,4,1.6,6q.14.63.24,1.26c.05.26.21,1.34.1.53.11.86.19,1.72.23,2.58a29.11,29.11,0,0,1-.17,4.76c.1-.83,0,0-.08.35s-.14.72-.23,1.08a22.33,22.33,0,0,1-.64,2.26c-.12.34-.25.68-.38,1-.26.69,0,0,0-.09-.07.14-.13.29-.2.43-.34.71-.7,1.42-1.1,2.1s-.8,1.28-1.24,1.9l-.39.53c.09-.12.49-.61,0,0-.29.35-.58.7-.88,1a35.1,35.1,0,0,1-3.73,3.58c-.13.11-1,.84-.52.43-.36.28-.72.55-1.09.81a25.66,25.66,0,0,1-2.58,1.65c-.83.46-1.7.87-2.57,1.27-.07,0-.7.3-.18.08l-.58.23c-.51.21-1,.4-1.54.59-1.88.69-3.78,1.31-5.65,2a54.17,54.17,0,0,0-10.91,5.43,83.53,83.53,0,0,1-10,6l-.54.24c.58-.25,0,0-.13,0-.43.15-.86.31-1.29.45a26.3,26.3,0,0,1-2.88.71c-.15,0-.84.1-.05,0l-.54.06-1.22.1a23,23,0,0,1-2.49,0c-.37,0-.74-.06-1.1-.09s-.73-.17.14,0c-.15,0-.3,0-.45-.08-.73-.15-1.45-.3-2.16-.52-.32-.1-.64-.22-.95-.33-1-.33.41.23-.23-.09s-1.24-.62-1.84-1l-.81-.53-.44-.32s.59.49.26.2c-.52-.45-1.05-.89-1.54-1.37s-.9-.94-1.32-1.44l-.35-.43c.07.09.52.71.11.14l-.65-.93a27.93,27.93,0,0,1-2.06-3.66c-.15-.31-.28-.63-.43-.94.34.72,0,.07-.1-.29-.28-.7-.53-1.42-.76-2.14a42.52,42.52,0,0,1-1.14-4.3c-.15-.71-.29-1.42-.41-2.14-.06-.35-.11-.71-.17-1.07,0-.2-.1-.78,0,.14,0-.21-.05-.41-.07-.62a50.77,50.77,0,0,1-.2-10.53c.05-.54.11-1.07.17-1.61a3.07,3.07,0,0,1,.07-.53c.16-1.07.35-2.13.56-3.18.39-1.91.87-3.81,1.42-5.68C206.75,169.31,215,156,218.53,140c3.38-15.31,5.65-31.37,3.59-47a65.83,65.83,0,0,0-6.73-22.32,4,4,0,0,0-5.47-1.44,4.09,4.09,0,0,0-1.44,5.47Z"/><path class="cls-1" d="M97.24,192.06a73.64,73.64,0,0,0,18.19,13.38,35.44,35.44,0,0,0,10.81,4,64.7,64.7,0,0,0,11.47.81c13.89,0,28.11-.29,41.39-4.9a57.12,57.12,0,0,0,20.71-12.28,4,4,0,0,0,0-5.66,4.08,4.08,0,0,0-5.65,0c-.58.55-1.17,1.08-1.77,1.6l-.9.76-.46.36c-.51.42.41-.3-.11.1q-1.93,1.45-4,2.72t-4.19,2.3c-.75.37-1.5.71-2.26,1a2.53,2.53,0,0,1-.45.19l-1.25.5a70,70,0,0,1-9.2,2.76c-1.57.36-3.16.68-4.75.95l-2.3.37c-.21,0-1.14.15-.48.07l-1.35.17a175.79,175.79,0,0,1-19.74.92c-3.49,0-7,.09-10.46-.23l-1.2-.13c.62.08-.35,0-.53-.08-.86-.14-1.72-.32-2.57-.53s-1.59-.44-2.36-.7c-.4-.14-.79-.28-1.18-.44s-.12,0,0,0c-.27-.11-.53-.23-.79-.36a77.89,77.89,0,0,1-10-5.84,51.45,51.45,0,0,1-8.95-7.53,4,4,0,0,0-5.66,0,4.09,4.09,0,0,0,0,5.66Z"/><path class="cls-1" d="M150.58,148c8,0,23-1,17.41,12-3.2,7.42-13.5,14.49-21.5,13-6.56-1.21-16.93-7.88-16-15.47,1.22-9.84,13.79-9.54,21.1-9.54"/><path class="cls-1" d="M147.61,176.34A13.3,13.3,0,0,0,153,188.78c3.51,2.61,8.14,3.1,12.33,2.39a15.81,15.81,0,0,0,6.36-2.61c1.71-1.2,2.68-3.55,1.44-5.47-1.09-1.7-3.64-2.72-5.47-1.44a20.17,20.17,0,0,1-2.07,1.19c-.21.12,1-.36.26-.11l-.54.2c-.39.13-.78.24-1.18.34s-.75.12-1.11.22c.34-.09,1-.12.32-.05l-.66.05a22.48,22.48,0,0,1-2.32-.08,3.08,3.08,0,1,0,.34,0l-.53-.11A11.16,11.16,0,0,1,159,183a3.19,3.19,0,0,0-.59-.21c.3,0,.91.42.31.12-.34-.17-.68-.35-1-.55l-.44-.29c-.59-.38.41.37.25.21s-.57-.5-.83-.77-.22-.27-.34-.39c-.43-.45.52.78.19.25-.2-.33-.42-.65-.6-1l-.12-.25c-.25-.46.17.39.18.45-.05-.2-.15-.41-.22-.61-.13-.44-.2-.89-.31-1.33s.07.61.07.56a2.85,2.85,0,0,0,0-.41c0-.25,0-.5,0-.75a14,14,0,0,1,.11-1.71c.24-2.09-2-4.09-4-4a4.12,4.12,0,0,0-4,4Z"/><path class="cls-1" d="M147.65,174.25c.17.46.29.92.42,1.39a1.59,1.59,0,0,0,.07.4s-.07-.94-.08-.57.05.53.05.8,0,.46,0,.69a2.56,2.56,0,0,0,0,.39s.18-.94.07-.57-.19,1-.34,1.45a3.89,3.89,0,0,0-.28.76c0-.36.38-.81.08-.2s-.51,1-.81,1.45l-.42.61c-.48.71.47-.54,0,0s-.7.82-1.08,1.21-.73.71-1.12,1c-.19.17-.42.31-.59.49s.72-.53.38-.29l-.45.32a17.81,17.81,0,0,1-2.7,1.58l-.39.18c-.37.2.52-.21.47-.19-.23.06-.46.18-.68.26-.49.17-1,.32-1.47.44-.26.07-.52.12-.79.17-.66.14-.08-.06.29,0-.48,0-1,.09-1.52.07-.23,0-.5-.07-.73-.05-.05,0,1,.19.61.09-.14,0-.3-.05-.44-.09l-.69-.18-.34-.12c-.49-.15.43.16.47.2a4.06,4.06,0,0,0-.62-.33l-.3-.19c-.54-.3.62.57.3.25-.17-.17-.37-.32-.54-.49s-.83-1,0,0c-1.24-1.67-3.51-2.7-5.47-1.43-1.65,1.06-2.77,3.67-1.43,5.47a11.09,11.09,0,0,0,7,4.61,15.66,15.66,0,0,0,8.16-.79,21.44,21.44,0,0,0,12.48-11.7,12.75,12.75,0,0,0,.21-9.18c-.74-1.95-2.73-3.51-4.92-2.8-1.9.62-3.59,2.83-2.79,4.92Z"/><path class="cls-1" d="M79.85,244.09c1.16,12.79.16,25.69.77,38.51.66,14,1.92,28.07,3.9,42,1.77,12.43,3.76,25,7.87,36.93A84,84,0,0,0,100.53,379c2.7,4.31,5.84,8.55,10,11.54a12.2,12.2,0,0,0,7.92,2.41,47.28,47.28,0,0,0,8.45-1.29A64,64,0,0,0,146.23,383a4,4,0,1,0-4-6.91,56.39,56.39,0,0,1-15.68,7.4c-1.14.32-2.28.6-3.44.84-.55.11-1.1.22-1.65.31l-.81.12.27,0-.62.08c-1,.1-2,.1-3,.19-.67.06.35-.14.26.07a5.6,5.6,0,0,1-.8-.18c-.18-.06-.35-.13-.53-.18,1,.3,0,0-.24-.15-.44-.24-.85-.61-1.31-.82s.67.59-.09-.07l-.63-.54a27.9,27.9,0,0,1-2.52-2.58c-.38-.44-.74-.89-1.1-1.34-.72-.88.45.64-.21-.27l-.39-.53c-.66-.9-1.29-1.83-1.89-2.77a69.77,69.77,0,0,1-4-7.15,68.46,68.46,0,0,1-3.29-7.8c-4.09-11.37-6.08-23.4-7.88-35.31C90.73,312.6,89.5,299.14,88.79,286c-.38-7.14-.51-14.26-.46-21.4,0-6.83.14-13.68-.48-20.48-.18-2.08-1.7-4.11-4-4-2,.09-4.2,1.77-4,4Z"/><path class="cls-1" d="M83.85,244.09l11.91-4.32,5.65-12.69c-1.61,12.36,10.45,32.09,6.11,44.19-2.5.09-4.34-2.83-6.63-1.64-3,1.55-2.92,13-5.53,16-3.39-4.31-2.61-10.38-4.64-15.23-1.17.93-5.85,3.39-6.17,4.92Z"/><path class="cls-1" d="M127.22,264.07c-2.59,16.57-1.76,33.17,1.05,49.65,2.7,15.79,7,31.27,11.16,46.72.41,1.51.82,3,1.18,4.53.2.81.38,1.62.54,2.44.1.48.19.95.27,1.43l.09.54c0,.08.12.83.06.37s0,.13,0,.18c0,.24,0,.48.07.72,0,.41.06.82.08,1.24a20.2,20.2,0,0,1,0,2.58c0,.16,0,.33,0,.49,0,.56.17-.62,0-.09-.11.34-.14.72-.24,1.08s-.5,1.27-.11.48a10.41,10.41,0,0,1-.56,1,4,4,0,1,0,6.91,4c3.54-5.75,2-13.37.45-19.5-1.78-7.11-3.78-14.16-5.62-21.25-2.05-7.92-4-15.87-5.55-23.9a173.53,173.53,0,0,1-3.1-23.36,129,129,0,0,1,1.08-27.3c.32-2.06-.52-4.4-2.79-4.92-1.91-.44-4.58.58-4.92,2.79Z"/><path class="cls-1" d="M174.87,268a71.45,71.45,0,0,1-1.61,17.49A130.1,130.1,0,0,1,168,302.74c-.89,2.42,1.42,5.15,3.86,5.06a30.86,30.86,0,0,0,5.65-.86c1-.22-.55-.05.11,0a4,4,0,0,0,.49,0c.62-.07-.25,0-.37-.06.63.14-.71-.48,0,0,.43.28-.59-.51-.19-.12s-.31-.59.05.06c0,.06.33.49.3.53s-.31-1-.11-.26c.08.29.13.61.23.89.15.46-.1-.42,0-.38a2.9,2.9,0,0,1,0,.56c0,.45,0,.89,0,1.34s-.07.73-.1,1.09c.09-1-.07.34-.11.55-.17.9-.38,1.78-.61,2.66-.81,3.06-2,6-2.64,9.13q-1.57,7.47-3.4,14.88c-2.24,9.14-4.49,18.34-7.33,27.31-1.11,3.55-2,7.19-1.36,10.91.73,4.08,3.92,7.25,7.52,9.05,4.38,2.19,9.14,2.58,14,2.26,2.24-.15,4.48-.39,6.72-.51,1.27-.07,2.53-.11,3.8-.09.58,0,1.16,0,1.75.07l.89.07c.1,0,1.25.14.74.07,2.07.28,4.4-.5,4.92-2.8.43-1.88-.57-4.62-2.79-4.92a61.71,61.71,0,0,0-13.72-.07c-2,.17-4,.33-6.05.3-.85,0-1.71-.07-2.55-.17.81.1-.47-.11-.73-.16-.47-.11-.95-.23-1.41-.38-.14,0-1.48-.54-.81-.25-.48-.21-.94-.45-1.4-.7s-.81-.49-1.21-.76.39.35-.07-.05c-.22-.19-.44-.38-.65-.58s-.75-.94-.52-.57-.32-.63-.4-.74c-.24-.32.09.24.11.3-.05-.18-.12-.35-.18-.53s-.1-.37-.14-.55,0-.86-.07-.3,0,.13,0,0,0-.39,0-.58c0-.39,0-.78.06-1.17,0-.23.15-.73,0,.17,0-.15.05-.3.08-.46.09-.46.18-.92.29-1.38.41-1.67,1-3.3,1.47-4.94,1.41-4.44,2.52-9,3.7-13.49q1.95-7.41,3.75-14.84c1.11-4.6,1.91-9.3,3.15-13.85.86-3.19,2-6.28,2.73-9.52.93-4.35,1.16-9.06-2-12.61a7.27,7.27,0,0,0-6-2.35,27.92,27.92,0,0,0-3.27.56l-1.24.25c-.75.14-.08,0,.06,0-.35,0-.71.05-1.06.06l3.85,5.07c4.37-11.89,7.45-24.13,7.13-36.89a4,4,0,0,0-8,0Z"/><path class="cls-1" d="M199,387.05c4.06,0,8.3-.3,11.94-2.31s6.11-5.7,7.91-9.37c5.26-10.68,6.45-23,6.71-34.75.26-11.91-.71-23.82-.4-35.73s2.6-23.19,4.2-35.14a84,84,0,0,0,.86-18.81c-.5-5.69-1.38-11.31-1.24-17a4,4,0,0,0-4-4,4.09,4.09,0,0,0-4,4,111.25,111.25,0,0,0,1,14.7,71.89,71.89,0,0,1,.07,15.45c-1.2,11.11-3.58,22.65-4.52,34.12s-.11,23.19,0,34.77c.14,11.14-.11,22.32-3.48,32.93a35.41,35.41,0,0,1-3.15,7.36c-.28.48-.56,1-.86,1.43-.18.27-1.06,1.45-.43.67a18.85,18.85,0,0,1-1.85,1.94c-.61.57.59-.34.12-.09-.17.09-.33.23-.5.34-.35.22-.72.39-1.07.59-.71.41.69-.2.17-.06-.2.05-.39.14-.59.21a13,13,0,0,1-1.36.37l-.53.11c-.13,0-1.08.22-.43.08s0,0-.19,0l-.9.08c-1.18.09-2.36.12-3.53.13a4,4,0,1,0,0,8Z"/><path class="cls-1" d="M226.47,256c-5.09,7.81-15.12,16.22-18.51,24.91-1.07,2.73-6.27,11.81-5.17,15,1.39,4,5.9,0,9-1.19,1.11,6.75-2.08,14,0,20.73,1.52,4.84,6.19,7.38,7.43,12.31l6.26-50.07Z"/><path class="cls-1" d="M147.65,377.09a35.33,35.33,0,0,0,9.74.47c1.46-.07,2.92-.13,4.38-.06l1.13.08-.24,0,.55.09a12.63,12.63,0,0,1,2.08.59,4,4,0,0,0,4.92-2.79,4.11,4.11,0,0,0-2.8-4.92c-3-1.13-6.29-1.12-9.43-1-1.48.07-3,.16-4.44.17-.78,0-1.55,0-2.32-.08l-.57-.05.22,0c-.18.09-.89-.17-1.09-.22a4,4,0,0,0-2.13,7.71Z"/><path class="cls-1" d="M209.2,384.23c7.77,1.72,15.86,3.27,23.85,3,4.34-.14,9.23-.8,12.84-3.44a13.75,13.75,0,0,0,5.41-8.28,30,30,0,0,0,.54-4.33,12.5,12.5,0,0,0-.22-4.8c-1.26-3.76-4.91-6.2-8.3-7.88a34.17,34.17,0,0,0-9.18-3.3l1,7.31c5-3.53,8-8.7,10.13-14.29a71.3,71.3,0,0,0,4-18.6,89.11,89.11,0,0,0,.07-17.36,39.74,39.74,0,0,0-1.72-9.06,37.28,37.28,0,0,0-5-9.51c-2.31-3.23-4.94-6.22-7.49-9.27-.59-.71-1.17-1.42-1.75-2.14l-.43-.55c.24.31.22.28,0,0s-.55-.73-.82-1.11a40.55,40.55,0,0,1-3.08-5,4,4,0,0,0-5.47-1.44,4.09,4.09,0,0,0-1.43,5.47c3.07,6,7.82,10.82,12,16l.65.81c-.47-.59.17.24.31.43.52.69,1,1.39,1.5,2.11a35.9,35.9,0,0,1,2.35,4c.18.36.34.74.52,1.11-.32-.68.11.28.19.51a24.7,24.7,0,0,1,.78,2.39c.22.81.39,1.64.54,2.47,0,.22.07.44.11.66s.17,1.23.07.52,0,.24,0,.43l.09.75c.07.64.12,1.29.18,1.94.1,1.3.16,2.61.2,3.91q.12,4.28-.14,8.54c-.09,1.44-.21,2.88-.37,4.31,0,.37-.08.75-.13,1.12s-.16,1.21,0,.38c-.1.74-.22,1.49-.34,2.23a65.4,65.4,0,0,1-2,8.63c-.24.77-.5,1.54-.77,2.31l-.42,1.12c-.07.16-.46,1.1-.24.61s0,.06-.09.19l-.24.52c-.16.35-.33.69-.5,1-.33.66-.69,1.32-1.07,1.95s-.71,1.15-1.09,1.7c-.1.14-.21.28-.31.43-.36.51.16-.14.15-.19,0,.12-.58.7-.66.79-.41.47-.85.93-1.3,1.36l-.74.65c-.67.6.63-.44-.25.19a4.08,4.08,0,0,0-1.91,4,3.92,3.92,0,0,0,2.86,3.32,22.31,22.31,0,0,1,2.89.75c.59.18,1.16.38,1.74.6l1.05.41c.09,0,.55.22.06,0s.21.09.33.15a28.17,28.17,0,0,1,3.87,2.07c.27.18.53.4.81.56.46.26-.54-.51-.17-.14a3.61,3.61,0,0,0,.3.25q.38.33.72.69l.24.26c.58.61-.18-.11-.13-.18s.33.58.39.65c.3.37-.35-.84-.17-.4a1,1,0,0,1,.08.29c0,.54,0-1.08-.05-.1,0,.12,0,.25,0,.38,0,.5,0,1-.08,1.5s-.06,1-.11,1.56c0,.25,0,.49-.08.74-.05.55.2-1.22.08-.59,0,.16,0,.32-.08.48a14.25,14.25,0,0,1-.36,1.57l-.24.72c-.29.85.51-1,0-.05-.26.48-.56.92-.84,1.38.6-1,.42-.5,0-.05-.21.23-.43.43-.65.64-.81.74.8-.51-.06,0-.29.18-.57.37-.87.54a5.16,5.16,0,0,0-1,.49c.21-.21,1-.4.31-.13l-.62.22a20.3,20.3,0,0,1-2.66.67l-.7.12c-.13,0-.28,0-.41.06s1-.11.52-.07-1.21.12-1.82.16a57.4,57.4,0,0,1-9.72-.34l-1.41-.17-.72-.09c.59.08.06,0-.24,0-1.12-.16-2.24-.34-3.35-.54-2.51-.43-5-.94-7.51-1.49a4,4,0,0,0-2.13,7.71Z"/><path class="cls-1" d="M228.4,331.45l.22-.3c.1-.16-.72.89-.29.38.27-.34.55-.67.84-1a21.5,21.5,0,0,1,2-2c.31-.26.88-.46,0,0,.18-.1.35-.26.52-.37l.61-.37.26-.13c.47-.27-.35.18-.44.18a2.51,2.51,0,0,0,.59-.18c.29-.14-.66.09-.65.09h.32c.1,0-1-.19-.68-.08s-.69-.33-.59-.28l.21.12c.25.16.1,0-.47-.36l-.39-.53c.3.54-.24-.92-.1-.3s0-1,0-.2l0,.73c0,.64.17-.94,0-.06a30.41,30.41,0,0,0-.6,3.92,7.4,7.4,0,0,0,5.71,7.31,13.42,13.42,0,0,0,5.32,0c.72-.11,1.43-.26,2.15-.39.32-.06.64-.1,1-.17.55-.1-.79.08-.24,0l.69-.06a4.08,4.08,0,0,0,4-4c-.1-2-1.77-4.17-4-4a44.8,44.8,0,0,0-4.76.72l-.93.16c-.73.12.82,0-.1,0-.29,0-.58,0-.87,0a2.57,2.57,0,0,0-.47,0c.15-.06.9.21.38,0a4,4,0,0,0-.44-.13c-.06,0,.85.31.44.18-.06,0-.25-.19-.3-.18.25-.07.63.59.25.18s.16.06.12.21c0-.06-.17-.24-.19-.3a2.4,2.4,0,0,1,.28,1c0-.2,0-.47,0-.68s0-.29,0-.42-.18.93-.06.52.21-1.13.31-1.69c.56-3.2.39-7-3-8.6-3.22-1.53-6.28-.06-8.85,1.95a23.15,23.15,0,0,0-4.65,5,4,4,0,0,0,1.43,5.47,4.09,4.09,0,0,0,5.47-1.43Z"/><path class="cls-1" d="M78.42,286.15a37.12,37.12,0,0,0-12.48,14.19,40.37,40.37,0,0,0-3.71,17.32c0,12.31,4.22,24.25,9,35.44,2.45,5.74,5.18,11.35,7.91,17l2.39-5.87c-3.75.61-7.24,3-9.88,5.64A23.39,23.39,0,0,0,65.46,380a12.36,12.36,0,0,0,2.35,11.74c3.39,3.82,9.11,4.74,13.94,4.79,10.43.1,21-3.14,30.74-6.49a4.07,4.07,0,0,0,2.79-4.92c-.63-2-2.8-3.53-4.92-2.8a151.47,151.47,0,0,1-15.08,4.43c-2,.47-4.06.88-6.11,1.21a6.49,6.49,0,0,1-1.38.21c1,.09.36-.05,0,0l-.52.06c-.87.1-1.74.18-2.61.23a36.78,36.78,0,0,1-4.33,0c-.59,0-1.18-.1-1.78-.15s1.17.18,0,0l-.89-.17a14.11,14.11,0,0,1-1.42-.37c-.22-.07-.45-.14-.67-.23-.67-.24-.46-.25.13.08-.35-.2-.72-.35-1.07-.56l-.5-.32c-.77-.46.64.6.21.19-.24-.25-.51-.46-.75-.71a4.32,4.32,0,0,0-.34-.39c.87.72.53.76.23.27-.16-.27-.3-.56-.46-.83-.36-.61.36,1.09.17.41,0-.17-.12-.34-.17-.52s-.12-.61-.2-.92.11,1.3.08.47c0-.2,0-.41,0-.61s0-.62,0-.93c0-.48.29-.92-.07.43,0-.2.06-.43.11-.64a14.9,14.9,0,0,1,.62-2.14c.38-1.08-.46.94,0-.11.18-.39.37-.78.58-1.16a21,21,0,0,1,1.3-2.06c.1-.15.22-.29.32-.44.41-.58-.72.88-.21.27.3-.34.58-.69.89-1a21.3,21.3,0,0,1,1.93-1.87l.56-.47c.37-.33-.59.44-.53.41s.23-.17.34-.25c.37-.26.74-.52,1.12-.76s.72-.43,1.1-.62l.55-.28.26-.11c.47-.26-1.07.39-.55.23a20.65,20.65,0,0,1,2.33-.66c2.75-.45,3.41-3.79,2.4-5.87-2.29-4.7-4.57-9.4-6.69-14.18L78.5,350c-.12-.3-.25-.59-.38-.89l-.05-.12c.22.52-.13-.32-.17-.42-.55-1.3-1.07-2.61-1.58-3.93-1-2.7-2-5.44-2.86-8.21s-1.54-5.4-2.1-8.16c-.29-1.4-.52-2.81-.73-4.22.11.71,0,.21,0-.18s-.07-.62-.1-.94q-.12-1.08-.18-2.16a44,44,0,0,1,.16-7.87c0-.2.05-.39.07-.59,0,0-.13.78,0,.33.06-.29.09-.59.15-.88.11-.68.25-1.36.41-2A33.58,33.58,0,0,1,72.17,306l.37-1c.27-.68,0,0-.06.13.09-.18.16-.36.25-.54.31-.68.65-1.34,1-2a30.94,30.94,0,0,1,2.42-3.7c-.48.63.06-.06.26-.29s.55-.65.84-1c.55-.6,1.12-1.19,1.71-1.75s1.16-1.07,1.77-1.57c.18-.15,1.17-.92.56-.46.38-.29.77-.57,1.16-.84,1.7-1.21,2.67-3.55,1.43-5.48-1.09-1.69-3.64-2.72-5.47-1.43Z"/><path class="cls-1" d="M76,356.29a33.45,33.45,0,0,1-5.19,1.59l-1.15.22-.76.12c.37-.06.41-.06.12,0-.81,0-1.6.13-2.4.14s-1.45,0-2.16-.06l-.88-.08c.49.06-.74-.12-.86-.14a28,28,0,0,1-4.22-1.16l-1-.38.14.06-.65-.29c-.65-.3-1.29-.63-1.92-1A39.7,39.7,0,0,1,51,352.79c-.63-.43-1.24-.88-1.84-1.34l-.56-.44-1.06-.87c-1.33-1.12-2.63-2.29-3.9-3.48A4,4,0,0,0,37,350.55c2.08,6,6.57,10.6,9.3,16.26l3.46-6c-.36,0-.71,0-1.06-.07-.76-.07.25.07-.22,0-.7-.16-1.41-.26-2.11-.43-1.41-.33-2.81-.74-4.2-1.17-2.8-.86-5.56-1.85-8.39-2.62a4,4,0,0,0-4.92,4.92c1.76,7.24,6.07,13.86,11.13,19.22s11.69,10.15,19,11.88a22.58,22.58,0,0,0,12.31-.32,4,4,0,1,0-2.12-7.71,18.32,18.32,0,0,1-2,.55c-.26.05-1.5.16-.4.09-.4,0-.79.07-1.18.09a20.59,20.59,0,0,1-2.08,0l-.67-.05c.58,0-.07,0-.22,0l-.74-.14a29.28,29.28,0,0,1-4.48-1.36c.74.28-.08,0-.37-.18l-1-.49c-.74-.38-1.46-.78-2.17-1.21s-1.42-.89-2.11-1.38c-.33-.22-.65-.46-1-.69-.13-.11-.27-.21-.41-.31.64.48,0,0-.13-.12a47.15,47.15,0,0,1-3.85-3.49C45.14,374.51,44,373.25,43,372c-.48-.6-.11-.13,0,0l-.41-.55c-.23-.32-.47-.64-.7-1-.48-.69-1-1.39-1.39-2.11a43,43,0,0,1-2.6-4.88c0-.08-.24-.57,0-.1s-.11-.27-.15-.38c-.15-.38-.29-.76-.42-1.15-.29-.83-.53-1.68-.74-2.54l-4.92,4.92c6,1.64,11.82,4.3,18.11,4.61,3.25.17,4.68-3.46,3.45-6a59.54,59.54,0,0,0-4.56-7.38c-.79-1.17-1.57-2.34-2.28-3.56-.38-.65-.74-1.31-1.07-2,0-.1-.42-.9-.18-.33-.15-.36-.28-.73-.41-1.1L38,352.32c5.4,5.07,11.32,9.73,18.36,12.28A31,31,0,0,0,78.09,364c2-.75,3.51-2.72,2.79-4.92-.61-1.9-2.83-3.6-4.92-2.8Z"/><path class="cls-1" d="M67.37,332.83c2.24,2.09,4,4.64,6.37,6.63a4,4,0,0,0,6.83-2.83c.23-4.46.27-8.92.53-13.37l-7.45,2c2.81,4.14,5.12,8.85,9.09,12.05,1,.83,2.52,1.6,3.89,1a9.83,9.83,0,0,0,6.2-6.71,4,4,0,0,0-7.71-2.13L85,330c-.15.55,0-.14.11-.24-.09.06-.19.35-.24.45-.33.61.42-.42.1-.1-.12.11-.22.24-.35.36s-.54.48-.08.09,0,0-.13.05-.82.39.12,0l3.9,1A18.37,18.37,0,0,1,86,329.28c-.2-.22-.38-.46-.57-.69s.42.59,0,0-.7-1-1-1.48c-1.3-1.93-2.46-3.94-3.77-5.85A4.08,4.08,0,0,0,76,319.4a4.16,4.16,0,0,0-2.94,3.86c-.26,4.45-.3,8.91-.53,13.37l6.82-2.83c-2.35-2-4.12-4.53-6.36-6.63a4,4,0,0,0-5.66,5.66Z"/></svg>