<svg id="Capa_1" data-name="Capa 1" xmlns="http://www.w3.org/2000/svg" viewBox="0 0 244.46 276.37"><defs><style>.cls-1{fill:#fff;}</style></defs><title>perro mini</title><path class="cls-1" d="M115.13,95a5.28,5.28,0,0,0,.62-.63,15.75,15.75,0,0,0,2.73-6,6.59,6.59,0,0,0-2.92-7.36c-5.93-4-11.41-.68-13.86,5a7.82,7.82,0,0,0,1.54,8.32,7.94,7.94,0,0,0,6.09,2.27C111.3,96.6,113.58,96.32,115.13,95Z"/><path class="cls-1" d="M122.68,96.07c10.83-3.66,6.32-23-4.19-16.83-4.61,2.73-6.61,19.46,4,16.91Z"/><path class="cls-1" d="M154,57.41c-.43,12,1.62,24,2.16,35.93.28,6.32.65,12.64,1.56,18.91a93.44,93.44,0,0,0,4.18,16.54c3.42,10,8.65,20.78,17.78,26.8,4.8,3.15,10.84,4.17,16.17,1.81,4.2-1.85,6.52-6.07,7.87-10.24,1.24-3.83,2-7.84,2.94-11.76,1-4.35,2-8.72,2.91-13.11,1.81-9.2,3.13-18.64,2.7-28-.43-9.24-2.57-18.59-7.66-26.43a41.82,41.82,0,0,0-10.86-11.21c-2.09-1.52-4.27-2.92-6.32-4.49-.6-.46.69.58-.29-.24l-.63-.51c-.46-.39-.91-.8-1.36-1.21-1-.94-1.86-2-2.77-3-7.37-8.2-19-12.65-29.81-9.75-1.19.31-2.36.71-3.57,1a6.3,6.3,0,0,1-2.89-.05,68.33,68.33,0,0,1-8-2.66c-5.76-2-11.81-2.08-17.84-1.72-2.9.18-5.8.39-8.71.37a38.86,38.86,0,0,1-4.17-.24c-1.42-.17.35.05-.45-.06l-1.06-.16c-.91-.13-1.82-.26-2.73-.35A17.1,17.1,0,0,0,94.28,35c-2.32,1-4.56,2.24-6.81,3.42-1.07.55-2.15,1.09-3.23,1.63l-1.53.76-.55.27-.49.22.4-.17-.93.26c0-.39,1,0,.43-.08a5.56,5.56,0,0,0-.58,0c-.35,0-.72.14.13,0a2.88,2.88,0,0,1-.63-.11c-.74-.14-1.48-.32-2.22-.47A29.73,29.73,0,0,0,62.1,42.13a61.38,61.38,0,0,0-7.43,3.5c-1.08.58-2.16,1.16-3.26,1.7a26.47,26.47,0,0,1-3.31,1.43,108.81,108.81,0,0,0-13.71,5.7A31.29,31.29,0,0,0,23,64.48a40.16,40.16,0,0,0-5.73,15.26,115.2,115.2,0,0,0-1.39,16.59,151.73,151.73,0,0,0,0,16.52c.86,10.83,3.41,22,8.76,31.53,4.24,7.56,12.09,15.71,21.63,12.47,8.94-3,13.38-12.79,16.43-21a78.9,78.9,0,0,0,3.8-13.39,134,134,0,0,0,1.77-18.33c.25-6,.35-12,1.14-18,0,.19-.08.53,0-.32,0-.31.09-.62.14-.92.12-.76.26-1.52.4-2.28.29-1.5.61-3,1-4.48.7-2.83,1.55-5.62,2.48-8.38a38.43,38.43,0,0,1,2.81-6.65,33.23,33.23,0,0,0,3.3-7.68,4,4,0,0,0-7.72-2.12A15.41,15.41,0,0,1,71.41,55c0,.15-.37.93-.12.35l-.34.75c-.58,1.22-1.23,2.4-1.85,3.59a56.26,56.26,0,0,0-3.31,8,91.56,91.56,0,0,0-4,16.06,170.59,170.59,0,0,0-1.36,17.64c-.11,2.89-.23,5.79-.42,8.68-.08,1.32-.19,2.65-.31,4s-.31,2.93-.44,3.82a77.69,77.69,0,0,1-3.42,13.67c-.29.86-.6,1.72-.92,2.57-.17.47-.35.94-.54,1.4-.1.26-.21.52-.32.78-.28.71.14-.29-.06.15a56.68,56.68,0,0,1-2.83,5.68c-.48.82-1,1.62-1.53,2.39-.15.21-1,1.31-.44.62-.35.39-.67.8-1,1.19a18,18,0,0,1-2,1.84c.68-.54-.05,0-.36.21s-.86.49-1.3.71c.71-.36-.62.21-.82.27s-1.69.29-.65.2a12.27,12.27,0,0,1-1.36.06c-.19,0-.39,0-.59,0s.79.21-.09,0l-1.25-.36c-.21-.06-.67-.31.14.08l-.53-.25a12,12,0,0,1-1.16-.66l-.63-.42c-.69-.45.52.47-.16-.12s-1.32-1.19-1.93-1.84c-.33-.35-.65-.71-.95-1.08-.14-.17-.27-.34-.41-.5.6.72-.08-.12-.15-.22a39,39,0,0,1-3-4.85,59.52,59.52,0,0,1-4.82-13,82.27,82.27,0,0,1-1.66-8.06c-.19-1.26-.24-1.67-.4-3.13s-.26-2.79-.34-4.19c-.29-5.19,0-10.4.16-15.59.08-2.53.18-5.06.38-7.59.1-1.26.22-2.52.38-3.77.08-.7-.08.51,0-.19.05-.35.1-.69.16-1,.11-.68.23-1.37.37-2,1-5,2.34-9,5.35-13.06-.4.55.09-.09.2-.22s.4-.47.61-.7.67-.72,1-1.06.8-.75,1.22-1.11c.18-.16.37-.31.56-.46s.18-.16-.1.06l.44-.32a37.37,37.37,0,0,1,5.84-3.4l1.34-.62.68-.3c1.1-.48-.41.17.25-.1,1.1-.45,2.21-.89,3.32-1.3,2.39-.91,4.81-1.74,7.16-2.75s4.44-2.17,6.62-3.33c1-.56,2.11-1.1,3.2-1.6L63.7,50c-.6.26.19-.07.34-.12.63-.25,1.27-.46,1.91-.66a29.37,29.37,0,0,1,3.59-.76l1.06-.17c.75-.11-.91.08.28,0,.58,0,1.16-.11,1.74-.13s.91,0,1.36,0l.7.06c1.13.07-.47-.12.23,0,1.26.26,2.52.53,3.78.75a10.51,10.51,0,0,0,5.83-.28A65.21,65.21,0,0,0,91,45.63c2.2-1.14,4.39-2.33,6.65-3.38l.68-.3c.09,0,.65-.23.13-.05.28-.09.55-.19.84-.27-.11,0,1.24-.26.71-.18s.4,0,.49,0c.35,0,.69,0,1,0,.69,0,1.37.08,2,.15.09,0,.78.11.19,0l.84.12,2.58.35a37.9,37.9,0,0,0,4.39.27c2.76,0,5.51-.17,8.26-.34,5.71-.35,10.87-.43,16.16,1.4A78.77,78.77,0,0,0,143.58,46a17.37,17.37,0,0,0,8.74-.14c1.22-.33,2.43-.73,3.68-1,.12,0,1.71-.28,1-.2.73-.08,1.46-.13,2.19-.14s1.18,0,1.77,0c.25,0,1.61.17.89.07a23.94,23.94,0,0,1,3.64.82c.56.17,1.12.37,1.67.57.74.27.31.11.14,0l.72.32a30.53,30.53,0,0,1,3.45,1.91c.44.28.88.58,1.3.89-.08-.06.94.72.54.4l.36.3a29.82,29.82,0,0,1,2.71,2.56,51,51,0,0,0,5.15,5.14c2.07,1.68,4.26,3.19,6.45,4.72.93.64,1.84,1.29,2.75,2s-.3-.25.29.22l.61.5q.85.7,1.65,1.47a30.12,30.12,0,0,1,2.25,2.41c.11.13,1.08,1.35.6.72.36.47.7,1,1,1.43a39.87,39.87,0,0,1,3.12,5.42c.1.21.2.41.29.62,0,0,.45,1,.21.47s.2.49.2.48c.08.21.16.42.25.64.36,1,.69,1.94,1,2.93a51.76,51.76,0,0,1,1.45,6.24l.24,1.56c-.13-.87,0,.42.07.68.13,1.17.23,2.34.29,3.52a86.13,86.13,0,0,1-.31,12.95c-.1,1.09-.22,2.18-.35,3.27-.06.48-.12,1-.19,1.44.11-.8,0,0,0,.2l-.15,1.08c-.33,2.16-.7,4.3-1.11,6.44-.79,4.21-1.73,8.38-2.71,12.55-.91,3.83-1.76,7.68-2.77,11.48q-.33,1.28-.75,2.52l-.25.72c0,.12-.27.74-.08.21s-.13.29-.15.34c-.13.26-.26.52-.4.78s-.37.66-.58,1l-.33.46c.55-.78.2-.23,0,0s-.59.58-.89.87c.09-.08.73-.48.15-.11-.25.15-.48.31-.73.45l-.52.26c.71-.4.36-.13.11-.06-.52.14-1,.29-1.55.4.16,0,.82-.06,0,0-.25,0-.51,0-.76,0a7.3,7.3,0,0,1-.81,0c-.16,0-1.2-.16-.51,0a14.57,14.57,0,0,1-1.73-.43c-.31-.1-.63-.21-.93-.33.17.07.57.28-.13-.08a20.36,20.36,0,0,1-3.06-1.87c.5.38-.16-.14-.28-.23l-.74-.65q-.57-.53-1.11-1.08c-.93-.95-1.8-1.95-2.63-3-.49-.6.53.73-.26-.33l-.48-.66c-.32-.44-.63-.89-.93-1.34-.76-1.12-1.46-2.28-2.11-3.46-.56-1-1.08-2-1.57-3-.27-.55-.52-1.1-.77-1.65l-.32-.75c.26.61-.22-.55-.22-.54-.92-2.28-1.73-4.61-2.47-7-.83-2.6-1.62-5.21-2.23-7.86a75.64,75.64,0,0,1-1.41-8.11c-.67-5.7-.89-11.43-1.15-17.16s-.87-11.44-1.39-17.15A133.9,133.9,0,0,1,162,57.41a4,4,0,0,0-4-4,4.09,4.09,0,0,0-4,4Z"/><path class="cls-1" d="M63.21,93.75A99.06,99.06,0,0,1,74,111.87c.73,1.59,1.24,2.76,1.79,4.1q1.06,2.64,2,5.34,1.71,4.91,2.94,9.94a118.57,118.57,0,0,0,5.89,18.51c2.45,5.73,5.76,11.68,10.72,15.62A23.63,23.63,0,0,0,115,170.5a25.55,25.55,0,0,0,16.07-8.45c3.86-4.38,6.53-9.6,8.84-14.93,1.21-2.8,2.34-5.63,3.49-8.45.26-.62.52-1.25.77-1.87.41-1-.21.49.05-.11l.32-.75c.53-1.23,1.1-2.43,1.67-3.64,1.35-2.92,2.55-5.9,3.75-8.88.59-1.45,1.17-2.9,1.77-4.35l.42-1,.29-.68q-.25.59,0-.06c.34-.8.68-1.59,1-2.37a75.63,75.63,0,0,1,4.43-8.64c.35-.58.72-1.15,1.1-1.71.18-.28.37-.55.56-.82s1-1.27.35-.5a26.48,26.48,0,0,1,2.92-3.16,4,4,0,0,0,0-5.66,4.09,4.09,0,0,0-5.65,0c-4,3.67-6.87,8.59-9.23,13.45-2.57,5.31-4.67,10.84-6.91,16.29l-.39.94c-.29.7,0,.09,0,0-.25.59-.51,1.18-.77,1.77-.49,1.11-1,2.2-1.53,3.31-1.18,2.57-2.23,5.19-3.29,7.81-.51,1.25-1,2.51-1.54,3.75,0,0-.43,1.05-.21.51s-.23.55-.22.52c-.33.77-.67,1.53-1,2.3a67.86,67.86,0,0,1-3.76,7.23c-.66,1.07-1.37,2.1-2.11,3.11.55-.74-.12.14-.2.24-.21.26-.43.51-.65.76-.46.53-1,1-1.46,1.53s-.87.79-1.32,1.17c-.8.69.67-.43-.2.15l-.87.59q-.77.49-1.56.93c-.32.16-.65.31-1,.48s-.43.2,0,0l-.66.26a25.34,25.34,0,0,1-3.73,1c-1.11.23.82,0-.31.05l-1,.08c-.7,0-1.39,0-2.08,0l-1-.08c-1.12-.1.8.19-.3-.05-.57-.13-1.13-.23-1.69-.38s-1.33-.41-2-.65c-1-.39.67.38-.33-.15-.42-.22-.85-.42-1.26-.66s-1-.61-1.52-.95c-.06-.05-1-.78-.35-.25l-.85-.73c-.46-.42-.91-.86-1.34-1.33-.25-.27-.5-.55-.74-.84-.09-.1-1-1.25-.54-.65a44.33,44.33,0,0,1-4.56-7.67c-.35-.73-.68-1.45-1-2.19l-.22-.52-.3-.75c-.63-1.62-1.21-3.27-1.75-4.92-.92-2.83-1.71-5.7-2.44-8.58C85.26,116.41,79.46,102,70.12,89.71c-1.26-1.66-3.51-2.7-5.47-1.43-1.65,1-2.79,3.68-1.44,5.47Z"/><path class="cls-1" d="M81.34,137.15a27.16,27.16,0,0,1-.08,3.61c0,.26-.05.53-.08.79s-.11.78,0,.12c-.1.66-.22,1.32-.36,2a50.09,50.09,0,0,1-2.08,7c-1,2.56-1.58,4-2.59,6.33S74,161.79,73,164.23A67.15,67.15,0,0,0,69,179a86.5,86.5,0,0,0-1.16,17.6,63.63,63.63,0,0,0,2.93,16.94,73.23,73.23,0,0,0,4.89,10.28q1.4,2.67,2.63,5.41c-.38-.85.1.27.19.51.17.42.32.85.46,1.28a23.07,23.07,0,0,1,.66,2.57c.11.51.16,0,0-.31a1.91,1.91,0,0,1,0,.49c0,.34,0,.72,0,1,0,.5.23-.86.06-.4a3,3,0,0,0-.13.52c-.16.81.4-.88.23-.53-.34.72.58-.6.3-.35s-.35.38-.54.56c-.43.42-.91.79-1.38,1.17-.64.52.84-.62.28-.21l-.46.34-1,.72c-1.47,1.07-3,2.11-4.43,3.18-3.12,2.28-6.43,4.66-8.6,7.92a6.93,6.93,0,0,0,2.77,10.38A24.36,24.36,0,0,0,74.91,260a92.16,92.16,0,0,0,12.21.27c4.83-.15,9.46-.68,13.5-3.58a19.66,19.66,0,0,0,7.79-11.18A28,28,0,0,0,107,228.3a151.78,151.78,0,0,1-5.49-15,21.25,21.25,0,0,0-3.13-7c-1.26-1.66-3.5-2.71-5.47-1.44-1.64,1.06-2.79,3.7-1.43,5.47C93,212.28,93.24,213.5,94,216s1.65,5.05,2.58,7.54c1,2.66,2,5.29,3.15,7.9a18.28,18.28,0,0,1,1.41,7c0,1.27-.17,2.53-.19,3.8,0,.51,0-.08,0-.17l-.12.68a16.13,16.13,0,0,1-.42,1.66c-.09.27-.54,1.37-.2.62-.18.4-.38.8-.59,1.19s-.45.77-.7,1.14l-.38.54c.52-.72-.07.07-.21.22a16.43,16.43,0,0,1-1.9,1.83c.7-.58-.51.32-.68.43-.42.26-.85.51-1.3.73l-.6.29c.7-.34.19-.08,0,0-.48.16-1,.33-1.45.46s-.89.19-1.33.29c-.6.14.65,0,0,0l-1.1.08a118.81,118.81,0,0,1-12.8,0c-.78-.05-1.55-.11-2.32-.19a8,8,0,0,1-1-.12c1.27.33.08,0-.27,0a21.76,21.76,0,0,1-3-.74c-.71-.23-.06-.11.29.14a2.86,2.86,0,0,0-.47-.22l-.41-.24c-.77-.4.49.5.29.25-.08-.09-.2-.16-.28-.26-.44-.5.62.89.35.47-.58-.89.26,1,.07.23s.1,1.24.08.64a1.71,1.71,0,0,1,0-.32c-.1,1.48,0,.8,0,.24s-.51.95-.23.53a3.84,3.84,0,0,0,.18-.35c.16-.28.35-.53.52-.8.34-.56-.73.86-.27.36l.35-.42c.26-.29.52-.57.8-.84.56-.56,1.16-1.1,1.77-1.61l.93-.77.48-.38c.71-.57-.8.6-.07.06l2.15-1.6a69.29,69.29,0,0,0,8-6c4.62-4.47,1.61-11.66-.68-16.54-1.59-3.41-3.5-6.67-5.11-10.07-.19-.38-.36-.77-.54-1.16-.26-.57.07.22.09.22s-.2-.51-.19-.48c-.38-1-.66-2-.94-3-.34-1.25-.64-2.51-.9-3.77q-.19-.94-.36-1.89l-.15-.94s-.18-1.17-.13-.82a69.87,69.87,0,0,1-.16-16c.25-2.62.57-4.75,1.08-7.48A56,56,0,0,1,79,171c1.56-4.73,3.21-8.09,5.16-12.67a64.13,64.13,0,0,0,4.55-13.73,34.39,34.39,0,0,0,.59-7.44,4,4,0,0,0-8,0Z"/><path class="cls-1" d="M107,244c6.48,1.52,13.11,1.65,19.74,1.66a4,4,0,0,0,0-8c-3.07,0-6.14,0-9.21-.19-.7,0-1.4-.09-2.1-.16l-1.22-.12c-.18,0-1.45-.18-.51,0-1.54-.21-3.06-.5-4.57-.86A4,4,0,1,0,107,244Z"/><path class="cls-1" d="M130.34,216.9a49.12,49.12,0,0,0-6.83,19.75,21,21,0,0,0,1.56,10.66,24.19,24.19,0,0,0,6.06,7.76c2.59,2.35,5.65,4.45,9.24,4.67a26.13,26.13,0,0,0,6.47-.75,52.11,52.11,0,0,0,7.24-2,27.21,27.21,0,0,0,6.66-3.13c2.36-1.67,4.23-4,3.6-7.07-.34-1.7-1.72-2.64-2.87-3.79s-2.38-2.49-3.56-3.75-2.43-2.58-3.74-3.78c-.29-.28-.6-.54-.9-.81s-.79-1-.47-.46c-.12-.19-.48-1-.25-.35a6.2,6.2,0,0,1-.21-.7c-.11-.41,0-.39,0,0,0-.24,0-.51,0-.75,0,0,.07-.67,0-.24s0-.19,0-.22l.15-.74a20,20,0,0,1,.74-2.51c.08-.23.17-.46.26-.69,0,.07-.23.53,0,.11s.36-.79.55-1.18c.39-.78.8-1.54,1.24-2.3,1.77-3.1,3.79-6,5.26-9.31a48.83,48.83,0,0,0,3.32-11.23,77.12,77.12,0,0,0,.81-24.44c-2.21-16.17-10.28-30.64-14.55-46.25q-.79-2.91-1.39-5.86a4,4,0,0,0-4.92-2.79,4.09,4.09,0,0,0-2.79,4.92c3.54,17.74,13.41,33.66,15.88,51.67-.08-.56.07.66.09.81.05.51.1,1,.14,1.53.08,1.06.14,2.13.17,3.19q.08,3.24-.12,6.48c-.07,1.06-.15,2.12-.26,3.18s-.23,2.1-.33,2.74q-.47,3.16-1.21,6.29c-.24,1-.51,2-.8,3-.13.43-.27.86-.41,1.29-.09.25-.17.49-.27.74s-.36.91-.11.31a44.28,44.28,0,0,1-2.79,5.28c-2.11,3.52-4.32,7-5.63,10.89a15.94,15.94,0,0,0-.84,7.85c.51,2.67,2.18,4.56,4.1,6.34,3.08,2.86,5.64,6.31,8.89,9l-1-1.76a1.8,1.8,0,0,1,.1.33,2.23,2.23,0,0,1,0-1.57c-.18.75.57-1,.13-.29-.32.51.78-.75.29-.36-.08.06-.14.16-.21.22a3.81,3.81,0,0,0-.36.33c-.44.5.8-.52.24-.18s-1.29.82-2,1.17c-.36.18-.72.34-1.08.51-.8.38.88-.35,0,0l-.72.28a49.38,49.38,0,0,1-5.69,1.79c-.92.23-1.86.44-2.79.63l-1.19.21-.68.11c-.83.14,1-.1.2,0a18.82,18.82,0,0,1-2,.13,5.48,5.48,0,0,0-.7,0c1.07-.16,1,.18.28,0-.28-.08-.56-.18-.84-.28.95.36,0-.06-.18-.14s-.58-.34-.86-.52l-.58-.39c-.94-.64.56.51-.32-.25a32.74,32.74,0,0,1-2.88-2.77c-.23-.26-.46-.52-.68-.79-.09-.1-.79-1-.2-.22-.3-.39-.59-.8-.86-1.21s-.5-.86-.74-1.29c-.51-.88.21.76-.11-.22-.09-.31-.21-.61-.3-.92-.16-.58-.24-1.18-.38-1.77s0,1,0-.1c0-.34-.05-.68-.07-1a25.29,25.29,0,0,1,.2-3.89c-.12.93.06-.27.08-.38q.09-.54.21-1.08c.18-.85.38-1.69.62-2.53.4-1.42.87-2.82,1.4-4.2.11-.29.22-.57.34-.85l.2-.5c-.17.41-.16.4,0,0,.29-.62.57-1.25.87-1.87q.88-1.81,1.92-3.57a4,4,0,0,0-6.91-4Z"/><path class="cls-1" d="M160.74,192.47a37.13,37.13,0,0,1,3.7,4c-.39-.5.32.44.35.49.24.33.47.66.7,1,.52.79,1,1.61,1.47,2.45.19.35.38.72.55,1.08s.23.49.34.73c-.11-.27-.11-.28,0,0a21.34,21.34,0,0,1,.82,2.45c.12.45.22.89.31,1.35,0,.19.07.38.1.57,0-.42,0-.38,0,.1a16.31,16.31,0,0,1,0,2.52c0,.2,0,.39-.05.58.06-.42,0-.38,0,.1s-.17.77-.27,1.15-.24.75-.38,1.12c.26-.71-.3.64-.37.77a21.4,21.4,0,0,1-1.17,1.95c-.08.11-.95,1.29-.5.72l-.73.89c-2.21,2.63-4.74,5-6.86,7.66-1.29,1.64-1.72,4.08,0,5.66,1.44,1.32,4.28,1.75,5.66,0,2.36-3,5.21-5.57,7.58-8.55a21.62,21.62,0,0,0,5.13-12.05c.63-8.53-4.76-16.77-10.69-22.41a4,4,0,1,0-5.66,5.66Z"/><path class="cls-1" d="M152.59,244a25.71,25.71,0,0,0,9.46.18,45.43,45.43,0,0,0,11.78-2.77,15.79,15.79,0,0,0,5.61-3.25,6.3,6.3,0,0,0,1.47-6.51c-1.19-3.29-4.45-5.54-7.39-7.19-3.5-2-8.1-1.44-12-1.44a4,4,0,0,0,0,8c1.36,0,2.72,0,4.08,0,.76,0,1.53,0,2.29.1l.54,0c.4,0,.36.22-.28,0a8.86,8.86,0,0,0,1,.2c.16,0,1.14.36.37.07s0,0,.13.13q.69.41,1.35.84l.74.5.37.27c.54.38-.21-.15-.25-.2a4.29,4.29,0,0,0,.72.61c.21.2.53.7.78.81-.07,0-.53-.83-.23-.3a2.8,2.8,0,0,0,.21.34c.16.18.28.88-.15-.43a2,2,0,0,1,.1.35s-.06-1.12-.08-.54c0,0,.21-1.13.07-.53-.06.28-.32.58.18-.43-.28.58.43-.63.16-.21-.1.16-.54.36-.09.1s0,0-.06,0c-.3.16-.58.34-.87.49s-.62.32-.94.47a2.43,2.43,0,0,1-.49.22c.49-.21.6-.25.32-.14l-.39.16a35.33,35.33,0,0,1-4.63,1.41c-.78.19-1.56.36-2.35.51L163,236l-.59.09c-.55.08-.42.09,0,0a26.66,26.66,0,0,1-5,.37c-.65,0-1.3,0-2-.07l-.38,0c-.74-.05,1,.2.36,0-.25,0-.49-.09-.74-.16a4,4,0,0,0-2.13,7.72Z"/><path class="cls-1" d="M180.57,236.44a27.53,27.53,0,0,1,5-.36c2,0,4.08,0,6.13-.16,3.68-.29,7.35-.68,11-1,5.79-.56,13.12-1.48,16.7-6.7a4.92,4.92,0,0,0-2.6-7.71,16.13,16.13,0,0,0-6.6.13c-.76.12-1.5.27-2.25.41-.24.05-.48.08-.71.14s-.61.17.37-.05a14.31,14.31,0,0,1-2,.2,111.79,111.79,0,0,1-12.28.21c-4.55-.1-9.15,0-13.69-.45a29.87,29.87,0,0,1-6-1.08c-1.81-.52-3.63-1.62-5.8-2.3a4,4,0,0,0-4.92,2.79,4.08,4.08,0,0,0,2.79,4.92c1.27.4,2.84,1.29,4.48,1.88a28.49,28.49,0,0,0,5.47,1.31,88.75,88.75,0,0,0,11.75.8c7.24.13,14.71.75,21.88-.51.52-.1,1-.21,1.55-.3l1.2-.22.54-.08c1-.15-.87.07-.08,0s1.49-.06,2.23-.1-1-.24-.41-.06c.45.12.48.27-.44-.24.44.24-.68-.64-.79-.77a2.87,2.87,0,0,1-.72-2.06c.16-.87.19-1.11.09-.71.36-1.16.34-.7.09-.36.69-.95.14-.2,0,0l-.41.38c.68-.68.1-.07-.13.08-.52.33-1.07.59-1.62.87.73-.37.25-.1.06,0-.41.14-.82.29-1.24.42a29.63,29.63,0,0,1-3.59.83l-1,.15c-1.08.18.86-.09-.2,0-.59.07-1.18.14-1.77.19-3.83.38-7.67.79-11.5,1.08-4.29.32-8.55-.11-12.79.76a4,4,0,0,0-2.8,4.92,4.1,4.1,0,0,0,4.92,2.8Z"/><path class="cls-1" d="M101.42,148.55c-2.76,3.31-2,10.66,1.22,13.36a15.85,15.85,0,0,0,12,3.77c3.83-.33,8.1-2.6,9.65-6.21,2.77-6.46,1.46-11.27-5.64-12.91-5.31-1.22-12.89-1.64-17,2.35"/><path class="cls-1" d="M98.59,145.72a13.32,13.32,0,0,0-2.85,8.86,15.17,15.17,0,0,0,2.61,8.47c4.25,5.67,12.66,7.85,19.36,6.14a16.13,16.13,0,0,0,8.85-5.8,16.94,16.94,0,0,0,3-8.82,10.82,10.82,0,0,0-2.64-7.91,14,14,0,0,0-7.68-4c-6.83-1.49-15-1.62-20.47,3.47a4,4,0,0,0,0,5.66,4.07,4.07,0,0,0,5.65,0c.14-.13.92-.74.11-.15a7.52,7.52,0,0,1,.75-.5c.26-.16,1.61-.77.67-.41a18,18,0,0,1,3.32-.88c-1,.18.58,0,.87-.05.59,0,1.19,0,1.79,0s1.2,0,1.79.08l.64.06.64.07c-.54-.08-.58-.08-.12,0,1,.16,2,.34,3,.59.51.13,1,.3,1.51.46.94.3-.71-.41.11,0,.28.15.56.29.83.45.07,0,.48.37.53.35-.19.09-.7-.6-.07,0l.33.33c.58.55-.44-.79-.06-.09.08.15.19.32.29.47.39.59.08-.16-.08-.25.28.16.23,1,.36,1.31-.34-.68-.07-.72,0-.13,0,.17,0,.33,0,.49s0,.51,0,.76c0,.86.2-.69,0-.15-.35,1.08-.54,2.18-1,3.25s.3-.43,0,.08c-.15.22-.25.47-.39.69s-.76.88-.14.22c-.15.16-.28.32-.43.47s-.48.45-.72.66c.6-.54.09-.06-.1.07-.55.38-1.15.66-1.72,1s.87-.28-.11.05c-.31.11-.62.22-.94.31-.52.16-1,.26-1.57.37.93-.19.18,0-.07,0l-.92.05c-.73,0-1.45,0-2.17-.09.94.08-.19,0-.34-.06l-.68-.15a17.19,17.19,0,0,1-2-.63c.15.06.67.32,0,0-.32-.15-.64-.31-1-.48a16.52,16.52,0,0,1-1.81-1.18c.71.53-.81-.73-.74-.75s.51.76,0,0c-.14-.23-.26-.47-.39-.7-.47-.79.25.84,0-.05-.09-.27-.19-.53-.27-.8a5.09,5.09,0,0,1-.37-1.71c-.11,1,0,.22,0-.1s0-.59,0-.88,0-.58,0-.87,0-.38,0-.57l-.06.5c-.16-.19.34-1.34.42-1.59.25-.85-.46.73,0,0,.15-.23.81-1.17.06-.23,1.3-1.63,1.72-4.08,0-5.66-1.45-1.33-4.26-1.75-5.66,0Z"/></svg>