<svg id="Capa_1" data-name="Capa 1" xmlns="http://www.w3.org/2000/svg" viewBox="0 0 216 357.86"><defs><style>.cls-1{fill:#fff;}</style></defs><title>Perro grande</title><path class="cls-1" d="M84.24,117.49a3.42,3.42,0,0,0,.62-.53,16.77,16.77,0,0,0,3.26-5.54A8.13,8.13,0,0,0,87,103.26c-4.22-5.31-9.31-3-12.3,2.33a9.88,9.88,0,0,0-.13,8.85A6.63,6.63,0,0,0,79.17,118C80.81,118.36,82.74,118.53,84.24,117.49Z"/><path class="cls-1" d="M115,117.91c10.4-2.23,8-22.93-2.31-18-4.54,2.16-8,19.17,2.14,18Z"/><path class="cls-1" d="M118.28,71.3c1.12-6.53,3.48-13,5.83-19.16.4-1,.81-2.09,1.24-3.12.09-.25.19-.49.29-.73s.42-.92.16-.36.14-.34.2-.49.25-.56.37-.84c.91-2.05,1.87-4.08,2.9-6.07s2-3.73,3.18-5.51c.56-.86,1.14-1.7,1.75-2.52.37-.51.25-.13-.1.12a2.83,2.83,0,0,0,.4-.5c.31-.37.62-.74.94-1.09a21.36,21.36,0,0,1,1.78-1.78l.42-.35c.48-.43,0,0-.26.18.35-.18.65-.48,1-.68a8.92,8.92,0,0,1,.85-.49c.16-.08.34-.15.49-.24s-1,.36-.31.15l.86-.25c.2-.06.87-.14.05,0s-.15,0,0,0l1,0c.66,0-.7-.14-.49-.07a4.64,4.64,0,0,0,.51.11c.24.07,1.31.47.55.16s-.13-.06,0,0l.51.28.44.29c.69.43-.26-.24-.15-.14.48.46,1,.87,1.47,1.35.26.27.51.55.76.83.1.11.68.83.41.48s.28.4.37.53c.22.32.44.65.65,1a34.17,34.17,0,0,1,2.14,4c.18.37.35.75.51,1.13l.22.49c0-.06-.23-.56-.06-.13.3.79.62,1.57.91,2.36,1.06,2.88,2,5.81,2.91,8.73,2.18,6.72,5.25,13.09,7.51,19.78.61,1.81,1.16,3.64,1.61,5.51.22.93.42,1.87.59,2.81a19.06,19.06,0,0,1,.31,2.24,36.86,36.86,0,0,1,.16,5c0,.75-.07,1.51-.13,2.26,0,.36-.08.71-.11,1.06,0,.06-.08.65,0,.17s-.09.54-.08.53a40.27,40.27,0,0,1-1,4.58c-.19.69-.41,1.38-.64,2.06-.12.35-.24.68-.37,1-.07.18-.59,1.42-.27.71a34.68,34.68,0,0,1-2.16,4.09c-.38.59-.78,1.17-1.19,1.73.44-.6-.2.24-.35.42s-.53.61-.81.9a18.39,18.39,0,0,1-1.49,1.44c-.11.1-1,.8-.66.57s-.59.41-.71.49a4.07,4.07,0,0,0-1.43,5.47c1.1,1.72,3.62,2.7,5.47,1.44,12.39-8.44,15.83-25.51,13-39.44-1.61-7.93-5.21-15.21-8-22.74-2.31-6.18-3.9-12.59-6.69-18.6C153.13,27.4,149.49,22,144,20c-3.62-1.24-7.64-.1-10.61,2.13-7.41,5.55-11.57,14.85-15.07,23.15a130.35,130.35,0,0,0-7.41,22.37c-.11.49-.21,1-.3,1.48-.35,2,.55,4.41,2.79,4.92,1.94.44,4.55-.59,4.92-2.79Z"/><path class="cls-1" d="M130,43.14c-4.42,11-7.95,22.28-9.3,34.1a3.93,3.93,0,0,0,2,3.46,4.15,4.15,0,0,0,4,0c1.86-.91,3.09-2.67,4.43-4.17.29-.33.6-.65.92-1,.66-.62.08,0,0,0s.6-.38.63-.4c.54-.42-.6.2-.18.06.78-.25-.11.1-.23,0h.38c.31,0,.17,0-.41-.07,0-.07.8.23.84.24l-2.79-4.92a13.26,13.26,0,0,1-.37,1.41c-.17.44-.19.49-.05.16-.12.25-.23.5-.36.74-.46,1-1,1.87-1.49,2.79a4,4,0,0,0,3.46,6,16.88,16.88,0,0,0,4.6-.94c.33-.1.65-.2,1-.28l.33-.07c.46-.09.43-.08-.09,0,.73.24-.46-.22,0,0,.28.07.21,0-.21-.13.38.23.39.23,0,0L138,73.8c-1.56,1.1-3.31,1.65-4.7,3a7.55,7.55,0,0,0-1.71,2.3,4.18,4.18,0,0,0,.92,4.61,7.49,7.49,0,0,0,1.15.86c.31.18-.29-.21-.29-.22a3.79,3.79,0,0,0,.53.53c.77.84,1.48,1.74,2.18,2.63.25.31,1,1.26,1.42,1.88.71,1,1.4,2,2.08,3,2.34,3.46,4.56,7,6.58,10.67,1,1.79,1.93,3.62,2.81,5.47.42.9.83,1.79,1.22,2.7,0,0,.26.62.13.3l.2.5c.22.53.42,1,.63,1.58,6.17,16.14,5.59,34.06,12.45,50,0,.12.16.53,0,0s0,.1.08.24.17.59.29.86c.2.47,0-1,0-.12a2.88,2.88,0,0,1,1.32-2.35c-.46.29.26-.28.36-.14,0,0-.49.12-.53.13.83-.21-.11,0-.48,0-.57,0-1.15.08-1.72.13-1.6.13-3.19.29-4.79.37-.7,0-1.4.07-2.1,0-.22,0-1.18-.1-.35,0s.35.06.21,0c-.58-.18.94.49.54.24a4,4,0,0,0-5.47,1.43,4.09,4.09,0,0,0,1.43,5.48c2.24,1.39,5.64.81,8.12.6,1.23-.1,2.45-.23,3.67-.3a11.09,11.09,0,0,0,5.06-1.06,5.45,5.45,0,0,0,2.72-5,13.33,13.33,0,0,0-1.43-4.67c-.3-.7.24.64,0-.09l-.45-1.18c-.38-1.06-.74-2.14-1.07-3.21-.63-2-1.18-4.08-1.67-6.14-2-8.38-3-16.94-4.86-25.36a89.66,89.66,0,0,0-8.64-23.26,138.1,138.1,0,0,0-7.29-12q-2.13-3.14-4.47-6.13c-.75-1-1.51-1.89-2.31-2.8a9.43,9.43,0,0,0-1.32-1.21c-.19-.15-.4-.32-.61-.46-.88-.62.53.09.91,1l.55,2v-.09l-.55,2c.18-.36-.3.44-.33.42s.41-.44.44-.46c.17-.18.34-.36.52-.52-.43.38-.19.18.16,0a27.25,27.25,0,0,0,2.54-1.4c2-1.42,2.85-4.41.81-6.28a8,8,0,0,0-7.21-2,22.44,22.44,0,0,0-2.31.62c-.44.14-.87.28-1.31.39l-.64.13c.54-.07.59-.09.14-.07l3.45,6c1.2-2.21,2.62-4.51,3.07-7a4.13,4.13,0,0,0-2.79-4.92c-3.21-1.16-6.42.07-8.8,2.31-.77.73-1.44,1.57-2.14,2.37-.32.38-.65.76-1,1.11-.1.09-.83.79-.28.27s-.11,0-.3.12l6,3.45c.15-1.3.26-2.07.5-3.52s.48-2.74.76-4.09c.59-2.8,1.3-5.56,2.1-8.3,1.58-5.46,3.54-10.79,5.65-16.06.78-2-.85-4.48-2.79-4.92A4.1,4.1,0,0,0,130,43.14Z"/><path class="cls-1" d="M151.37,170.5a29.7,29.7,0,0,0,1.8,2.67c.38.57.77,1.15,1.12,1.74l.44.81c.47.83-.33-.74.09.22.31.71,0-.21,0-.26,0-1.23.43-1.53,1.41-2.26,1.48-1.12,1.15-1,.77-.68-.58.43.38-.14.3,0a4.38,4.38,0,0,1-.59,0c-.4,0-.8,0-1.19.06a20.56,20.56,0,0,0-6.94,2.21c-5,2.28-9.51,5.66-13.85,9a53.44,53.44,0,0,0-7.74,6.66,4.08,4.08,0,0,0,0,5.66c1.52,1.39,4.18,1.67,5.66,0a30.08,30.08,0,0,1,2.81-2.72c.59-.51,1.18-1,1.78-1.49l.84-.67.49-.39c.84-.65-.66.5.2-.15,2.63-2,5.31-3.92,8.07-5.73,1-.65,2-1.3,3-1.88a31.73,31.73,0,0,1,3.71-1.77,17.39,17.39,0,0,1,1.71-.61c1.36-.42-.47-.09.25-.1a20.77,20.77,0,0,0,3.25-.29,4.91,4.91,0,0,0,4-5.09c-.22-3.6-2.94-6-4.53-9A4,4,0,0,0,152.8,165a4.08,4.08,0,0,0-1.43,5.47Z"/><path class="cls-1" d="M142.84,186.53l.49.36c-.4-.31-.42-.33-.07,0s.66.57,1,.87c.59.56,1.15,1.15,1.69,1.76q.48.54.93,1.11c-.48-.61.41.57.49.69.55.77,1.06,1.57,1.53,2.39s.89,1.66,1.29,2.52c.19.43.21.45,0,.07.09.23.18.46.26.69.15.4.28.8.41,1.2a20.47,20.47,0,0,1,.59,2.55c-.16-1,0,.4,0,.59,0,.43,0,.86,0,1.28l5.06-3.85a8.76,8.76,0,0,1-1.44-.4c.87.32-.26-.18-.54-.34-.86-.5-1.67-1.07-2.53-1.56a11.56,11.56,0,0,0-8-1.46c-2.07.34-3.41,3-2.8,4.92a22.64,22.64,0,0,0,1.34,3.17c.18.36.35.71.54,1.06s.21.65-.05-.18c.07.23.15.45.22.68s.12.76.07.21,0,.14,0,.28-.08.84,0,.41-.11.4-.13.51c-.28,1.16-.62,2.31-1,3.44-.18.53-.38,1.06-.58,1.59-.1.26-.2.52-.31.78.07-.16.24-.53-.1.21-.49,1.1-1,2.17-1.59,3.22a47.94,47.94,0,0,1-3.79,5.85c.3-.39-.6.76-.68.85-.35.43-.71.86-1.09,1.28a32.37,32.37,0,0,1-2.49,2.48c-.36.32-.73.64-1.1.94l-.64.52c.43-.33-.12.08-.18.12-1,.72-2,1.42-3.07,2.07-3.56,2.24-7.33,4.18-11.07,6.11s-7.79,3.84-9.44,7.8c-.8,1.94.87,4.48,2.8,4.92,2.33.53,4-.72,4.92-2.8-.44,1.07-.31.72-.15.47-.62,1-.41.45-.21.3a8.18,8.18,0,0,0,.75-.69c-.71.69.1-.07.37-.25.44-.3.89-.58,1.35-.85,1.38-.82,2.82-1.55,4.25-2.3a132.42,132.42,0,0,0,11.68-6.58A46.64,46.64,0,0,0,149.76,212c.92-2.61,1.83-5.46,1.46-8.24a11.78,11.78,0,0,0-1.2-3.68c-.22-.45-.46-.88-.68-1.33-.1-.2-.19-.39-.28-.59.3.67,0-.16-.11-.4l-2.79,4.92c-.38.06-.43,0,0,0l.65,0c-.53,0-.43-.09,0,.07.19.06.4.14.59.19.47.13-.5-.32-.1,0a3.19,3.19,0,0,0,.55.29c.41.23.81.48,1.2.73a15.12,15.12,0,0,0,5.35,2.45,4.08,4.08,0,0,0,5.07-3.86c.27-4.51-1.46-9.09-3.67-12.94a31.3,31.3,0,0,0-8.91-10,4,4,0,0,0-5.47,1.43,4.1,4.1,0,0,0,1.43,5.47Z"/><path class="cls-1" d="M110,233.57a30.15,30.15,0,0,0-6,10.63,28,28,0,0,0-1.12,5.82c0,.16-.22,1.67-.07.8-.06.36-.15.7-.22,1.05s-.14.42,0-.06c-.09.16-.17.32-.25.48-1.09,2.28-.23.15.38-.33l1.77-1c1.65-.36.57-.19-.11-.2s.48.27-.23-.07c-.24-.07-.46-.15-.69-.24.32.14.34.15.09,0-1.28-.61-2.53-1.3-3.77-2S97.22,247,96,246.09c-.61-.41-1.2-.84-1.79-1.28.54.41-.22-.18-.35-.29l-.85-.7a32.5,32.5,0,0,1-3.13-3.08c-.24-.27-.47-.55-.7-.82-.76-.9.42.62-.26-.33-.42-.59-.83-1.18-1.2-1.8s-.72-1.24-1-1.88c-.09-.21-.43-1-.17-.36-.13-.33-.26-.67-.38-1a20.22,20.22,0,0,1-.62-2.28,6.25,6.25,0,0,0-.15-.75,7.52,7.52,0,0,0-.08-1,4,4,0,0,0-6-3.45c.73-.28.91-.35.52-.23s-.21,0,.2,0c.94-.17-.56-.18.31,0s-.17-.05-.32-.09-.46-.14-.69-.22l-.36-.13.35.15a2.84,2.84,0,0,1-.75-.35q-.83-.4-1.62-.87c-1-.56-1.89-1.16-2.79-1.81l-.54-.39c-.62-.44.69.59.21.16-.21-.2-.45-.37-.65-.58-2.19-2.28-5.76-1-6.69,1.76-1.09,3.25-2,7.12-3.31,9.88l3.45-2c1.11.11-.08-.08-.35-.18,1,.35-.1-.14-.33-.29.85.55-.15-.18-.33-.37s-.94-1.2-.39-.4a19.92,19.92,0,0,1-1.33-2.21c-.2-.38-.37-.76-.54-1.14.44,1-.09-.23-.16-.42-.92-2.48-1.73-5-2.62-7.5-1.07-3-2.14-6-3.09-9-.39-1.25-.77-2.51-1.06-3.78-.06-.25-.11-.5-.16-.75-.11-.61.18-.71,0,.27a2.13,2.13,0,0,0,0-.5c-.09-.73-.2,1-.08.6a4,4,0,0,0-6.69-3.89c-1.51,1.78-2.61,3.88-3.93,5.79-.08.12-.17.22-.25.34s.52-.59.23-.29-.31.37-.47.54-.7.59-.12.18.24-.16.12-.1c-.46.25.58-.24.57-.23A3.22,3.22,0,0,1,49,210.13a1.85,1.85,0,0,1,.44.77,2.31,2.31,0,0,0-.12-.52c-.12-.33.08.54.07.56s0-.34,0-.44a27.2,27.2,0,0,1,.09-3.13c0-.32,0-1.4.19-1.64,0,0-.14.9-.07.48,0-.11,0-.22.05-.33s.07-.47.11-.71a37.05,37.05,0,0,1,2.3-8.25c0,.09-.17.38,0,0,.11-.27.23-.53.36-.79.22-.46.44-.92.68-1.37.42-.79.89-1.54,1.36-2.31s.87-1.34,1.28-2c.23-.38-.06.07-.11.13.14-.17.3-.32.43-.49.3-.38.14,0,0-.1-.22.15-.24.17-.07.06s.15-.12-.38.13a4.08,4.08,0,0,0,2.8-4.92c-.64-1.95-2.81-3.52-4.92-2.79-2.31.79-3.79,2.52-5.09,4.52a44.74,44.74,0,0,0-2.85,4.93A41,41,0,0,0,42,203a30.52,30.52,0,0,0-.62,8.19c.23,2,.79,4,2.63,5.09a5.11,5.11,0,0,0,6.11-.87,19.27,19.27,0,0,0,3.16-4l1.34-2.11c.16-.26.32-.52.5-.77s.15-.21.21-.32c.33-.56-.64.78-.26.34l-6.69-3.89c-.53,2,.12,4.29.68,6.26.7,2.52,1.56,5,2.42,7.46s1.83,5.1,2.72,7.65a52.37,52.37,0,0,0,2.86,7.28c2,3.78,5.11,6.7,9.49,7.13a3.9,3.9,0,0,0,3.45-2c1.85-3.78,2.79-7.83,4.13-11.79l-6.69,1.76a25.51,25.51,0,0,0,6.14,4.3c2.91,1.57,6.5,3.07,9.69,1.34l-6-3.45c.68,9.44,6.55,16.76,14.07,22a49.16,49.16,0,0,0,5.29,3.23,24.33,24.33,0,0,0,6,2.69c2.28.5,5.28.59,6.56-1.78.18-.33.3-.71.45-1.05-.55,1.28-.31.69-.17.45a11.2,11.2,0,0,0,.8-1.81,17.26,17.26,0,0,0,.64-3.92c0-.25,0-.5.07-.74s.27-1.21,0-.33c.15-.55.25-1.13.4-1.68a25,25,0,0,1,1.13-3.43c-.29.69.37-.72.45-.88.26-.49.53-1,.82-1.45s.69-1.06,1.06-1.58c0-.07.45-.59.09-.13.25-.32.52-.63.78-.94,1.35-1.6,1.68-4.12,0-5.66-1.49-1.37-4.21-1.7-5.66,0Z"/><path class="cls-1" d="M115.05,67.39c-5.92-2.59-12.44-2.8-18.81-2.57-5.93.22-12.14.51-17.61,3-1.91.88-2.53,3.78-1.44,5.48a4.13,4.13,0,0,0,5.48,1.43c.91-.42-.82.25.21-.08.27-.08.53-.18.81-.27.57-.17,1.16-.33,1.75-.47s1.37-.29,2.07-.41l.95-.16c.28,0,.86-.11.26,0,2.5-.3,5-.4,7.52-.5a71.64,71.64,0,0,1,8.16.1l1,.09s1.29.16.5,0c.63.09,1.27.2,1.9.34s1.21.27,1.81.45c.35.1.7.21,1,.33.17.06,1.14.47.36.12,1.91.84,4.38.63,5.47-1.43.92-1.73.61-4.58-1.43-5.47Z"/><path class="cls-1" d="M84.28,68.41C81,56.57,76,45,68.61,35.14c-1.93-2.58-4-5.07-6-7.57A20.63,20.63,0,0,0,57,22.27c-4.09-2.25-8.61-1.17-11.76,2.1-2.8,2.9-4.48,6.68-6,10.36-1.28,3.18-2.29,6.46-3.4,9.7-1.54,4.48-3.45,8.8-4.81,13.36a120.58,120.58,0,0,0-3.8,17.65c-1,6.88-1.78,14-.68,20.87a38.06,38.06,0,0,0,7.55,16.91c1.26,1.66,3.5,2.7,5.47,1.44,1.64-1.06,2.79-3.69,1.43-5.48a40.83,40.83,0,0,1-4.07-6.46c-.29-.58-.58-1.18-.83-1.78.25.6-.24-.64-.32-.86a32.41,32.41,0,0,1-1.1-3.76c-.14-.58-.25-1.16-.35-1.74,0-.17-.16-1-.07-.32l-.09-.8A33.48,33.48,0,0,1,34,89.33c.05-2.79.26-5.59.54-8.37a115.65,115.65,0,0,1,2.83-16A109.58,109.58,0,0,1,42.62,49c1.07-2.57,1.84-5.26,2.75-7.89q.85-2.49,1.85-4.92c-.33.82,0,0,.16-.33s.38-.83.58-1.25c.37-.75.76-1.5,1.19-2.23a9.27,9.27,0,0,1,1.3-2s-.63.74-.19.26c.11-.11.2-.24.3-.35a11.36,11.36,0,0,1,.85-.85c.11-.1.32-.22.39-.34,0,.08-.83.53-.32.27a4.71,4.71,0,0,0,.76-.44c.35-.28-1,.29-.35.15a2.15,2.15,0,0,0,.36-.11c.89-.31-.89-.07,0,0a2.46,2.46,0,0,0,.47,0c.45-.06-1.14-.18-.12,0,.21.05.61.31,0,0l.6.34s.89.64.47.3.45.42.42.39a17.55,17.55,0,0,1,1.27,1.32c1.72,1.93,3.32,4,4.92,6C68,47.13,73.24,58.5,76.56,70.54a4,4,0,0,0,7.72-2.13Z"/><path class="cls-1" d="M55.13,44.54C56.85,49.32,58.29,54.18,60,59c.84,2.41,1.77,4.79,2.61,7.21a53,53,0,0,0,2.69,6.68c.38.75.77,1.5,1.11,2.26-.31-.69.13.42.2.66a2.2,2.2,0,0,1,.13.6l-.08-.5c0,.38,0,.36,0-.08a2.94,2.94,0,0,1,1.71-2.17,3.09,3.09,0,0,1,1.09-.24h-.35c1.35.12.43.07,0,0s-.68-.22-1-.34c-.93-.32.53.26-.14,0l-1-.45c-.66-.31-1.31-.63-2-.92a13.76,13.76,0,0,0-5.19-1.39,4.56,4.56,0,0,0-5,4.45c0,1.61.93,2.72,1.73,4,.06.1.29.65.38.68s-.35-1-.21-.45c0,.09-.09-1-.09-.66a3.06,3.06,0,0,1,1.88-2.73c.61-.3.36-.13.15-.08s1.13,0,.49-.06c-1.11-.09-2.24-.16-3.36-.21a7.18,7.18,0,0,0-4.75,1.25,5.8,5.8,0,0,0-2,6.12,6.45,6.45,0,0,0,1.73,2.83c.25.24.53.46.79.69,0,0,.4.36.39.37l-.3-.41c.17.3.18.29,0,0l-.11-.24a1.79,1.79,0,0,1,.1-1.49c0-.15.1-.31-.05.05.26-.62.28-.31,0-.12s-.32.29-.48.42a20.57,20.57,0,0,0-2.1,2,87.4,87.4,0,0,0-9.27,13.08c-2.88,4.73-5.29,9.52-6.1,15.06-.3,2.06.51,4.4,2.8,4.92,1.89.43,4.59-.58,4.92-2.79A30.91,30.91,0,0,1,43.19,110a9.19,9.19,0,0,1,.48-1.07c.26-.53.53-1.06.82-1.57.56-1,1.17-2,1.76-3,1.24-2.06,2.5-4.11,3.84-6.1a54.24,54.24,0,0,1,3.79-5.13,20.09,20.09,0,0,1,2-2.15A15.26,15.26,0,0,0,58,89a6.07,6.07,0,0,0,.07-7.63,7.65,7.65,0,0,0-1.75-1.75c-.31-.18.2.28.23.35a2.54,2.54,0,0,1,.28,1.15c0-.67-.09.39-.11.44q.12-.44-.09.15a2,2,0,0,1-.59.88c.14-.14.31-.19-.17.12-.1.06-1.25.61-.86.47a2.09,2.09,0,0,1,.34-.08c.46-.1-1,0-.5.07s1.2,0,1.8.06a12.73,12.73,0,0,0,4-.06,5.08,5.08,0,0,0,3.92-4.84A7.49,7.49,0,0,0,63,74l-.41-.6c-.33-.47-.13-.75.09.33,0,0-2.65,5.58-3.29,4.51,0,0,.27,0,.3,0s.7.1.15,0,.43.1.54.13.44.13.65.2c.91.3-.51-.26,0,0l1.87.88a22.12,22.12,0,0,0,4.49,1.75c2.25.48,4.57.11,6-1.79s1.31-4.4.52-6.52a36.79,36.79,0,0,0-1.61-3.57c-.23-.44-.46-.89-.68-1.34-.08-.18-.17-.35-.25-.53.27.61,0-.17-.13-.41-1-2.7-2-5.44-2.95-8.16-2-5.43-3.6-11-5.56-16.45a4.08,4.08,0,0,0-4.92-2.79c-1.93.62-3.55,2.81-2.79,4.92Z"/><path class="cls-1" d="M33.92,115.78c-.83,5.66-1.23,11.35-1.73,17a88.48,88.48,0,0,1-2.38,15.72c-.32,1.21-.67,2.41-1.07,3.6-.12.35-.25.69-.37,1-.17.52-.48.56.13-.26a6.4,6.4,0,0,0-.43.87c-.8,1.53-1.71,3-2.52,4.52-2,3.74-4.21,8.88.07,11.95,1.81,1.3,4.23,1.54,6.37,1.82.93.12,1.87.22,2.81.33l.63.07c.53.05-.94-.16-.25,0a10,10,0,0,1,1.06.23l-2.39-5.88c-1.3,2.36-3,4.48-3.69,7.16-.38,1.57.22,3.79,1.84,4.52a7.31,7.31,0,0,0,2.94.79,17.1,17.1,0,0,0,2.45-.31c-.73.09,1,.14.32,0a15.81,15.81,0,0,1,1.88.5A28.13,28.13,0,0,1,46,182.17,54.6,54.6,0,0,1,57.93,192a4,4,0,0,0,5.66,0,4.09,4.09,0,0,0,0-5.66,65.08,65.08,0,0,0-13.16-10.82,38.16,38.16,0,0,0-7.49-3.3,21.19,21.19,0,0,0-4-1.06,8.24,8.24,0,0,0-2.16-.08c-.49.05-1,.13-1.47.21l-.27.05a1.23,1.23,0,0,1,1,.27l1.83,4.52c.06-.24.13-.47.2-.71-.12.4-.09.15,0-.11.27-.54.58-1.07.9-1.59.58-1,1.21-1.87,1.75-2.84A4.06,4.06,0,0,0,38.37,165a28.74,28.74,0,0,0-4.81-.69l-1.14-.14c-.57-.06.76.15.21,0-.23,0-.47-.07-.7-.11-.71-.12-1.4-.39-2.11-.51-.51-.09.93.43.29.11a1.9,1.9,0,0,0-.32-.19c.26-.06,1,.94,1,1s.37,1.08.24.54c0,0,.2,1.16.09.55,0-.07.05-.34,0-.38.37.43-.24.92,0,.43.08-.2.12-.47.19-.68s.24-.66.36-1c-.38,1,.07-.09.19-.35.4-.82.84-1.62,1.28-2.42.71-1.28,1.5-2.53,2.14-3.86a37.3,37.3,0,0,0,2.32-6.82A102,102,0,0,0,40,134.61c.27-2.83.48-5.68.72-8.52q.2-2.22.42-4.44c.08-.73.16-1.46.25-2.19,0-.29.08-.59.11-.88-.08.64.1-.66.1-.67.31-2.06-.51-4.4-2.79-4.92-1.9-.43-4.6.58-4.92,2.79Z"/><path class="cls-1" d="M99.14,131.92c-4.93,0-15.28,2.24-15.28,8.11,0,5.17,7.67,10.44,11.76,12.37,4.66,2.21,10.9-3.57,14.52-6.43,3.9-3.08,4.75-6.57.83-10.26C108.44,133.34,102.37,131.78,99.14,131.92Z"/><path class="cls-1" d="M99.14,127.92c-5.46,0-11.6,1.48-15.86,5a9.14,9.14,0,0,0-3.36,7.9c.44,3.65,2.56,6.69,5.2,9.16a34.9,34.9,0,0,0,7.8,5.5c3.56,1.83,7,1.57,10.56,0a38.34,38.34,0,0,0,8.14-5.59c3-2.42,5.83-5.16,5.9-9.29.08-4.43-3.46-8.32-7.29-10.1a25.24,25.24,0,0,0-11.09-2.58,4,4,0,0,0,0,8,14.72,14.72,0,0,1,1.63.05l.6.06c-1.06-.12,0,0,.21.06a22.94,22.94,0,0,1,4,1.08l.65.24c-.87-.34.14.08.26.14a11.33,11.33,0,0,1,1.36.77c.25.16.79.75.1.05.28.28.58.55.85.84.58.61.29.34.18.19.15.21.66,1.46.43.67.09.31.08,1.12.1.22,0,.21,0,.41,0,.63.06-1,0-.07-.13.17.3-.88-.13.1-.21.26s-.44.56,0,.07a9.78,9.78,0,0,1-.83.87c-.52.49-1.08.92-1.64,1.37l-1.44,1.17c-.22.18-1.43,1.12-.78.63a32.61,32.61,0,0,1-3.34,2.26,17.3,17.3,0,0,1-1.66.85c.78-.34.11,0-.1,0l-.76.23c-.27.06-1.15.09-.12.06l-.73,0c-.4,0-.74-.25.06,0a5.12,5.12,0,0,1-.56-.15c.49.22.55.24.19.07-.9-.47-1.79-.94-2.66-1.48-.51-.32-1-.65-1.52-1-.24-.16-.47-.33-.7-.5l-.42-.31c.35.26.34.25,0,0a27.62,27.62,0,0,1-2.77-2.64c-.15-.17-.29-.34-.43-.52.58.72-.07-.12-.15-.24a8.3,8.3,0,0,1-.49-.81c-.13-.23-.38-1-.11-.13-.08-.27-.16-.56-.26-.83-.31-.84,0,.84,0,0a4.51,4.51,0,0,0,0-.52c0-.86-.14,1,0,.13s-.15-.06-.1.1a2.08,2.08,0,0,1,.22-.41c.26-.41.14-.72-.09,0,.07-.23.49-.54.67-.71l.38-.33c-.48.36-.55.42-.2.16l.44-.29a12,12,0,0,1,1.45-.79c.19-.1,1.08-.44.08-.06l.82-.31c.59-.21,1.2-.4,1.81-.56s1.22-.31,1.84-.44c.24,0,1.48-.41,1.65-.28-.22-.17-.86.1,0,0l.75-.07c.52,0,1.05-.06,1.57-.06a4,4,0,1,0,0-8Z"/><path class="cls-1" d="M94.78,155.49c.08.3.16,1.52.13.4,0,.37,0,.73,0,1.1,0,.71.22-.87-.05.23,0,.16-.09.33-.15.49-.15.4-.11.32.12-.25a7.75,7.75,0,0,0-.48.88l-.14.21c-.25.35-.19.28.16-.19a10.49,10.49,0,0,1-1.5,1.46c.87-.74-.08,0-.29.16s-.63.39-.95.57l-.75.38-.51.24.17-.07a25.07,25.07,0,0,1-4.15,1.16l-.4.06c-.44.07-.34.06.29,0a3.48,3.48,0,0,0-1,.09,19.78,19.78,0,0,1-2.31,0c-.48,0-1-.07-1.44-.13.71.09,0,0-.29-.08a17.67,17.67,0,0,1-2.49-.7c-.42-.16-.39-.15.1.05l-.55-.27a10.93,10.93,0,0,1-1-.6c-.25-.16-.49-.34-.74-.51.85.61-.19-.21-.35-.35s-.58-.58-.86-.88c-.13-.15-.92-1.22-.37-.43-.51-.74-1-1.49-1.43-2.28a4,4,0,0,0-5.47-1.44,4.08,4.08,0,0,0-1.43,5.47,19.54,19.54,0,0,0,6.87,7.48,20.75,20.75,0,0,0,10.45,2.7c5.53.09,12.21-1.93,15.94-6.2a11.62,11.62,0,0,0,2.62-10.85,4,4,0,0,0-7.72,2.13Z"/><path class="cls-1" d="M96.2,161.5c4.21,7.31,13.2,10.58,20.83,6.49,5.63-3,11.59-7.22,14.47-13.07a4.09,4.09,0,0,0-1.43-5.48c-1.8-.95-4.49-.57-5.47,1.44a17.9,17.9,0,0,1-1.26,2.16c-.11.15-.76.94-.23.32l-.69.8a26,26,0,0,1-3.28,3c.73-.57-.13.09-.23.16l-.77.54c-.55.38-1.12.75-1.69,1.11L114,160.49a14,14,0,0,1-1.78,1c.64-.28,0,0-.32.07s-.65.15-1,.24c-.89.24.6,0-.24,0-.38,0-.75,0-1.13,0s-1.38-.19-.38,0c-.32-.06-.64-.12-1-.2s-.62-.19-.93-.29c-.85-.25.47.3-.24-.1-.34-.19-.68-.36-1-.57-.16-.1-1.1-.81-.42-.25a18.14,18.14,0,0,1-1.48-1.43c-.62-.64.2.38-.26-.3-.27-.41-.53-.82-.78-1.24a4,4,0,1,0-6.9,4Z"/><path class="cls-1" d="M88,168.63c.08.33.15.67.23,1-.21-.94,0,.09,0,.28a20.18,20.18,0,0,1,0,2.06c-.06,1.13.18-.79,0,.33-.06.35-.12.7-.2,1-.18.84-.4,1.66-.63,2.48a90.17,90.17,0,0,0-2.53,8.91c-.59,3.28-.79,6.94.85,10a12,12,0,0,0,6.29,5.12,22.58,22.58,0,0,0,14.65.63,11.73,11.73,0,0,0,7.13-5.68,15.15,15.15,0,0,0,.94-8.95,63.71,63.71,0,0,0-2.18-9c-.55-1.82-1.13-3.64-1.57-5.49a19.28,19.28,0,0,1-.64-5.27,4,4,0,0,0-8,0c.06,6.36,2.48,12.23,4,18.32.24,1,.44,2,.63,3s-.07-.9,0,.09c0,.28.06.56.07.85,0,.55,0,1.1,0,1.65,0,.93.22-.89,0,0-.06.21-.09.42-.15.64,0,.06-.19.62-.2.61s.44-.85,0,0c-.13.23-.65.85,0,.06-.12.14-.24.28-.37.41s-.86.72,0,.13c-.34.24-.69.44-1.06.66-.6.35-.14.09,0,0-.29.12-.59.22-.89.32s-.78.21-1.18.29l-.58.11c-.88.18,1-.09.06,0-.53,0-1.06.09-1.59.1a26.52,26.52,0,0,1-3.09-.12c-1-.08.9.18-.08,0l-.7-.13a16.4,16.4,0,0,1-1.77-.45l-.64-.22c-.77-.25,0,.1.08,0-.13.1-1.21-.64-1.36-.74a3.56,3.56,0,0,0-.41-.29c.43,0,.57.57.06,0-.11-.14-.43-.36-.48-.53.23.82.34.39.08,0l-.11-.21c-.18-.38-.15-.28.11.3-.1-.07-.17-.58-.2-.7s-.14-1.1-.09-.49,0-.49,0-.49a16,16,0,0,1,.08-2.08c0,.16-.14.8,0,0,.08-.47.17-.94.28-1.41,1.43-6.4,4.78-12.59,3-19.3A4,4,0,1,0,88,168.63Z"/><path class="cls-1" d="M51.12,219.47a71.16,71.16,0,0,0-.4,21.46c1,7.61,2.31,15.17,3.24,22.55.95,7.54,2,14.89,2.89,22.21.47,3.8.88,7.6,1.16,11.41.26,3.57.21,7.14.41,10.7.07,1.2.22,2.4.28,3.59,0,.67,0,1.33,0,2,0,.35-.22.51,0-.18-.41,1.1.3-.26.53-.55-.14.18-.79.65,0,0l-.75.54c-.58.42-1.18.84-1.73,1.3a13.9,13.9,0,0,0-3,3.71A14.14,14.14,0,0,0,52,324.55a14.8,14.8,0,0,0,5.87,13.26c3.11,2.24,7.18,2.95,10.94,2.92,6.27,0,12.5-1.86,18.34-4,2-.71,3.5-2.75,2.8-4.92-.63-1.92-2.82-3.56-4.92-2.79a79.77,79.77,0,0,1-8.8,2.7c-1.17.27-2.35.51-3.54.7-.2,0-.4.06-.6.09,1.09-.17.11,0-.1,0l-1.65.15c-.9.05-1.82.07-2.73,0-.44,0-.89-.07-1.33-.1s0-.22.43.07a3,3,0,0,0-.8-.13,14.91,14.91,0,0,1-2-.52l-.41-.15c-.59-.19.26-.14.41.18-.07-.15-.77-.37-.94-.47s-.47-.29-.71-.44-.25-.22-.36-.25.82.71.46.36-.8-.76-1.18-1.17c-.58-.62.58.88.14.18-.14-.22-.29-.43-.43-.66s-.21-.37-.3-.56c-.51-1,.18.6,0,.09s-.29-.82-.4-1.24-.22-2.16-.15-.47c0-.84-.13-1.66-.09-2.51,0-.35.09-.71.09-1.06,0,1.67-.07.48,0-.08.06-.27.13-.53.21-.79l.1-.3c0-.05,0-.11.06-.16-.22,1.22-.46,1-.08.26.15-.29.32-.58.49-.86,0,0,.76-1,.29-.46.25-.3.69-1,1.09-1.15l-.42.32c.16-.11.32-.22.47-.34l.75-.53a15,15,0,0,0,1.82-1.45c2.2-2.2,1.9-5.81,1.66-8.64-.26-3-.2-6-.34-8.95-.19-3.72-.52-7.45-.93-11.16-.82-7.37-1.92-14.62-2.81-21.74Q60.94,255.41,59,243.06a70.54,70.54,0,0,1-.2-21.47c.35-2.05-.55-4.41-2.8-4.92-1.94-.44-4.54.59-4.92,2.8Z"/><path class="cls-1" d="M89.56,334.9c2.39-3.09,2.52-7.46,2.07-11.17-.24-2-.59-4.06-1-6.07-.15-.79-.31-1.57-.45-2.36,0-.2-.06-.39-.1-.58s-.24-.7,0-.16,0,.2,0,0l-.15-1.45c-1-10.07-.3-20.21-.38-30.31,0-5.8.06-11.59.25-17.38a4,4,0,0,0-4-4,4.07,4.07,0,0,0-4,4c-.33,9.91-.23,19.84-.36,29.76-.07,5-.08,10,.25,15a105.28,105.28,0,0,0,1.64,11.59c.1.52.19,1.05.27,1.57,0,.12.13.86.06.35s.06.53,0,.52a20.68,20.68,0,0,1,.14,2.94c0,.17,0,.33,0,.5,0,0-.06,1.06,0,.45s0,.11,0,.25-.11.51-.18.77-.12.38-.18.58c-.15.48-.1.11.06-.12-.28.41-.49.84-.79,1.25-1.29,1.66-.31,4.55,1.43,5.47,2.12,1.12,4.1.34,5.47-1.44Z"/><path class="cls-1" d="M49.19,243.39c.17-.42-.11.24-.12.27l-.35.8c-.24.53-.48,1-.73,1.58-.49,1-1,2.06-1.49,3.09-1,2-2,4.07-2.87,6.16a49.2,49.2,0,0,0-3.77,15,60.89,60.89,0,0,0,.91,15.36C41.46,290.06,42,294.55,43,299a44.83,44.83,0,0,0,5.64,14.62,4,4,0,0,0,6.91-4,30.93,30.93,0,0,1-2.69-5.26,46.87,46.87,0,0,1-1.82-6c-1-4.19-1.56-8.46-2.19-12.71-.33-2.17-.74-4.35-.92-6.27a47.85,47.85,0,0,1-.15-7.38,40.58,40.58,0,0,1,2.88-12.75c.3-.76.16-.39.09-.23l.42-1c.26-.58.53-1.15.8-1.73.52-1.09,1-2.17,1.58-3.25,1.2-2.46,2.35-4.94,3.4-7.47.81-1.93-.86-4.48-2.79-4.92-2.34-.53-4.06.72-4.92,2.8Z"/><path class="cls-1" d="M47.88,309.4c-4.81,4.67-8.47,11.32-7.36,18.2a7.4,7.4,0,0,0,5.66,6.16c2.29.49,4.56.11,6.87.17a4,4,0,1,0,0-8c-1.73,0-3.46.1-5.19.06-.28,0,1.12.28.28,0a2.35,2.35,0,0,0-.48-.14c.79.07.81.41.37.12s.75.67.29.24l-.23-.24c.42.57.54.72.38.45s-.44-.79-.1-.12,0-.18,0-.36c-.2-.74,0,1,0,0a14.27,14.27,0,0,1,0-1.73c0-.19,0-.38,0-.57l-.06.49c-.08-.21.15-.78.2-1a18.94,18.94,0,0,1,.56-1.81c.31-.93-.38.76,0-.13.13-.26.25-.53.39-.8a14.32,14.32,0,0,1,2-3.23c-.7.74,0,.05.09-.09s.37-.44.56-.65c.43-.49.88-.95,1.35-1.4a4,4,0,0,0-5.66-5.66Z"/><path class="cls-1" d="M89.71,328.44c3.91.8,7.76.26,11.66-.25a50.27,50.27,0,0,1,5.48-.51c.45,0,.91,0,1.37,0l.59,0c.62,0,.35-.1,0,0a3.65,3.65,0,0,1,1.11.22c.3.08,1.62.58.59.13,1.92.83,4.38.63,5.47-1.43.92-1.73.62-4.59-1.43-5.48-3.93-1.7-8-1.6-12.15-1.07-1.9.24-3.81.53-5.72.7a26.61,26.61,0,0,1-2.82.13c-.45,0-.89,0-1.34-.06a5.44,5.44,0,0,0-.58-.05c.9,0,.32,0,0,0a4.08,4.08,0,0,0-4.92,2.79c-.45,2,.6,4.48,2.79,4.92Z"/><path class="cls-1" d="M111,263.13c.84,5.21,1.38,10.6,1.75,16.31.36,5.49.68,11,1.27,16.46a88,88,0,0,1,.56,10c0,1.56-.08,3.12-.19,4.68,0,.77-.12,1.55-.2,2.32l-.09.93c0,.31-.08.62-.11.93-.07.51-.08.62,0,.33a91.24,91.24,0,0,1-1.81,9.29,18.71,18.71,0,0,0-.66,7.58c.95,5.67,6.75,7,11.65,7a4,4,0,0,0,0-8c-.56,0-1.12,0-1.68-.05a6.32,6.32,0,0,0-.75-.06c-.6,0,1,.19.09,0-.37-.08-.74-.14-1.1-.25a4.25,4.25,0,0,0-.54-.18c-.46.38,1.18.14.19,0-.13,0-.68-.5-.08,0s.07.05,0,0c-.34-.43.53.93,0,0-.39-.72.35.92,0,0s.07.26,0,.23,0-.64,0-.7c0-.38.08-.77.06-1.15,0-.58-.19,1,0,.06,0-.2.07-.4.11-.6.29-1.46.69-2.89,1-4.34.7-3.19,1.22-6.41,1.6-9.65a84.62,84.62,0,0,0-.07-18.89c-.55-5.19-.86-10.4-1.19-15.62-.41-6.3-1.06-12.56-2.06-18.8-.34-2.07-3-3.4-4.93-2.79a4.12,4.12,0,0,0-2.79,4.92Z"/><path class="cls-1" d="M123.08,339a57.62,57.62,0,0,0,16.22.24c3.15-.49,6.49-1.67,8.68-4.09,4.1-4.56,2.58-10.6.36-15.63-.8-1.82-1.76-3.56-2.66-5.34-.08-.18-.17-.35-.26-.53s-.24-.5-.35-.75c.29.64,0,.06,0-.07a32.05,32.05,0,0,1-1.25-4.3c-.15-.75-.28-1.51-.39-2.27.12.86,0-.42,0-.48,0-.26,0-.53-.07-.79-.14-1.59-.19-3.19-.19-4.79,0-6,.73-12,1-18.09.15-3.2.35-7,.72-9.75.51-3.83,1.2-7.63,1.7-11.47.54-4.08.65-8.19.82-12.31a116.42,116.42,0,0,1,1.14-11.68c.64-4.35,1.33-8.68,1.89-13a17.06,17.06,0,0,0-.07-6.21c-.38-1.72-1.12-3.34-1.66-5a4,4,0,1,0-7.71,2.12c.46,1.44,1.06,2.83,1.47,4.29a10.38,10.38,0,0,1,.27,1.1c-.13-.68,0-.06,0,.09a21.9,21.9,0,0,1-.23,3.14c-.1.79-.13,1-.24,1.81s-.23,1.6-.35,2.4c-.28,1.92-.57,3.83-.86,5.75-.55,3.7-1.12,7.41-1.4,11.14-.27,3.54-.32,7.09-.52,10.63-.41,7.08-2.08,14.1-2.69,21.41-.24,3-.26,6-.47,8.92s-.45,5.79-.61,8.68c-.35,6.11-.39,12.43,1.23,18.37a44.3,44.3,0,0,0,3.63,8.43c.47.91.9,1.83,1.32,2.77s-.41-1.08,0,0c.09.22.18.44.26.66.19.51.36,1,.5,1.53a13.36,13.36,0,0,1,.33,1.39c.16.81,0,.31,0-.21,0,.28,0,.56.06.83s-.1.86-.05,1.25c-.15-1.16.15-.86,0-.23a6.28,6.28,0,0,0-.22.7c.09-1,.46-.91.21-.52-.07.11-.11.22-.17.33l-.2.31c-.29.57.19-.3.33-.4a5.91,5.91,0,0,0-.64.68c-.72.74.76-.44,0,0-.27.16-.52.33-.79.48l-.44.22c-.42.23-.55,0,.32-.12-.8.12-1.64.56-2.45.74l-1.35.24c-.87.17,1-.09.08,0l-.78.08c-1.27.11-2.55.15-3.82.14a78.74,78.74,0,0,1-9.58-.73c-2.08-.27-4.09,2-4,4,.11,2.39,1.77,3.71,4,4Z"/><path class="cls-1" d="M143.09,240.46c2.58,4.41,5.33,8.75,7.54,13.37a40.18,40.18,0,0,1,2.51,6.5,54.5,54.5,0,0,1,1.63,7.69,91,91,0,0,1,.75,16.41c0,.56-.07,1.13-.13,1.69l-.09.84c.08-.61,0,.08,0,.17-.22,1.28-.47,2.55-.79,3.81a68.41,68.41,0,0,1-2.12,6.74c-1.85,5.14-4,10.19-5.16,15.53a4.12,4.12,0,0,0,2.79,4.92c.7.26-.4-.27,0,0,.18.12.39.2.57.3a13.42,13.42,0,0,1,1.3.81c.93.61-.31-.29.19.13.24.19.47.39.7.59.41.38.8.77,1.18,1.18.2.23.41.46.6.71-.26-.32-.14-.19,0,.07a13.33,13.33,0,0,1,.81,1.37c.18.33.25.67.08.13.06.21.14.41.2.63,0,.05.16,1,.11.4s0,.44,0,.47c0,.54-.05.11,0-.18-.21.72.31-.51.08-.12s.54-.58.2-.25.77-.39.15-.11a4.08,4.08,0,0,1-.45.24c-.07-.11.83-.24.05-.07-.45.09-.89.23-1.34.32-2.35.51-4.64,1.32-7,1.66-2.08.29-3.4,3-2.79,4.92.73,2.28,2.69,3.1,4.92,2.79a39.1,39.1,0,0,0,4.38-1c1.31-.35,2.68-.57,4-1,3.42-1.05,5.67-3.55,5.8-7.22.24-6.53-5.94-12.43-11.65-14.5l2.79,4.92c2.24-10,7.46-18.94,8.48-29.22a81.73,81.73,0,0,0-.48-17,59.74,59.74,0,0,0-4.39-17.2c-2.36-5.42-5.54-10.43-8.53-15.52a4,4,0,0,0-6.9,4Z"/><path class="cls-1" d="M154.55,311.56a32.61,32.61,0,0,0,13.09-2.28,21.34,21.34,0,0,0,9.5-8.85h-6.91q.35.61.09,0a5.86,5.86,0,0,1,.19.72c.23.82,0-.48.07.46a15.24,15.24,0,0,0,.6,3.3,4.1,4.1,0,0,0,4.92,2.8c5.67-1.33,9.54-7.25,12-12.13a71.61,71.61,0,0,0,3.34-8.47,53.07,53.07,0,0,0,2.68-11.26l-6.83,2.83c.37.38.7.81,1.07,1.18s-.52-.78,0,0c.16.24.33.48.49.73.27.42.51.85.74,1.29.1.18.19.36.28.54s.57,1.42.21.44a30.57,30.57,0,0,1,1.65,6.47c-.14-1,.05.62.08.92.05.61.09,1.22.11,1.84,0,1.23,0,2.47,0,3.71s-.17,2.34-.29,3.51c-.09.77,0,.07,0-.07,0,.33-.09.65-.14,1-.11.64-.22,1.28-.35,1.92a41.85,41.85,0,0,1-1.7,6.13c-.09.26-.19.52-.29.78,0,.07-.4.89-.11.26s-.17.39-.19.43l-.45,1c-.54,1.17-1.12,2.34-1.75,3.47a32.66,32.66,0,0,1-1.83,2.93c-.07.09-.76,1-.19.27-.14.18-.28.35-.43.52a19.2,19.2,0,0,1-1.37,1.48c-.4.39-.82.76-1.24,1.12.69-.59-.16.11-.27.18l-.71.47A17.17,17.17,0,0,1,179,322c-.18.08-.89.37-.18.09-.4.16-.8.3-1.21.43-1.35.42-2.75.72-4.13,1-.75.16-1.5.3-2.25.43l-1,.16c-.48.07-.52.07-.11,0l-.59.07a31.68,31.68,0,0,1-4.67.2c-.31,0-.62-.05-.94-.06-.48-.05-.48-.05,0,0l-.53-.09a13.24,13.24,0,0,1-2.14-.57,4,4,0,0,0-4.92,2.79,4.1,4.1,0,0,0,2.8,4.92c5.88,2.1,12.85.74,18.73-.69a23.43,23.43,0,0,0,14.34-10.42A48.32,48.32,0,0,0,199.72,290c-.58-6.16-2.36-12.39-6.82-16.89a4,4,0,0,0-4.37-.83,4.11,4.11,0,0,0-2.46,3.65c-.15,1.37.15-.71-.09.66-.07.36-.13.72-.2,1.08-.17.81-.36,1.61-.56,2.4-.43,1.61-.94,3.2-1.47,4.78s-1,2.88-1.53,4.3c-.1.28-.7,1.68-.24.67-.23.5-.45,1-.7,1.51-.5,1.05-1.06,2.07-1.66,3.07q-.48.81-1,1.59c-.16.24-.33.47-.5.71-.64.91.51-.58-.2.26a17.83,17.83,0,0,1-2.48,2.51c.39-.31.36-.26,0,0-.21.12-.41.25-.62.36-.39.22-.82.18,0,.05-.25,0-.51.15-.76.21l4.92,2.8c0-.15-.4-1.6-.26-.79-.13-.73-.17-1.49-.29-2.22a8.75,8.75,0,0,0-1.2-3.42,4.05,4.05,0,0,0-6.91,0c-.26.43-.52.85-.8,1.26-.14.22-.91,1.18-.42.61a21.29,21.29,0,0,1-1.78,1.9c-.23.21-1.08.86-.38.36-.33.23-.66.47-1,.69s-.68.41-1,.59l-.54.27c-.11.05-.9.36-.34.16s-.12,0-.22.07l-.57.19c-.38.13-.77.24-1.17.34-.81.21-1.64.35-2.47.49-.58.11.69,0,.09,0-.22,0-.44,0-.66.07l-1.35.1c-1,0-2,.07-3,.08a4,4,0,0,0,0,8Z"/></svg>