<svg id="Capa_1" data-name="Capa 1" xmlns="http://www.w3.org/2000/svg" viewBox="0 0 226.21 355.82"><defs><style>.cls-1{fill:#fff;}</style></defs><title>perro maxi</title><path class="cls-1" d="M107.19,94a5.28,5.28,0,0,0,.62-.63,15.73,15.73,0,0,0,2.72-5.95,6.62,6.62,0,0,0-2.91-7.37c-5.93-4-11.41-.67-13.86,5a7.84,7.84,0,0,0,1.53,8.32,8,8,0,0,0,6.1,2.27C103.36,95.61,105.63,95.33,107.19,94Z"/><path class="cls-1" d="M143.9,96.15c10.82-3.66,6.32-23.05-4.19-16.83-4.61,2.73-6.61,19.46,4,16.91Z"/><path class="cls-1" d="M110.11,61.69c.17.72.32,1.44.44,2.18,0,.16.16,1,.07.35.06.4.1.81.14,1.22a43.53,43.53,0,0,1,.18,4.57,45.09,45.09,0,0,1-.83,8.22,65.14,65.14,0,0,1-2.4,9c-.44,1.31-.93,2.59-1.45,3.87s.31-.66-.22.54l-.33.73c-.35.77-.72,1.55-1.1,2.31a78.06,78.06,0,0,1-4.89,8.39c-.81,1.23-1.66,2.44-2.53,3.63-1,1.36-1.68,2.28-2.59,3.43-3.83,4.83-8.09,9.31-11.89,14.16-7,9-13.41,21.46-8.73,33,4.13,10.19,14.9,18.75,26.18,14.3a36.6,36.6,0,0,0,14-10.39c1.78-2,3.39-4.16,5-6.33l.6-.82c.45-.61.09-.11,0,0,.39-.47.77-.94,1.2-1.38.18-.2.38-.39.57-.57s1-.75.17-.19l.52-.35c.23-.14,1.38-.58.45-.29.19-.06.41-.11.6-.19.88-.34-.76,0,.23-.05.22,0,1.33-.14,1.43,0,0-.07-.92-.23-.14,0,.21.06.43.1.64.17.9.28,0,.09,0,0a6.19,6.19,0,0,0,.68.35l.65.41c.53.33-.22-.15-.19-.16s.85.75,1,.88c.35.35.68.71,1,1.09l.43.53c-.68-.84,0,0,.13.2,2.45,3.42,4.27,7.42,7.36,10.33,4,3.8,9.87,6.37,15.47,5.93a21.05,21.05,0,0,0,14.78-8.26,25.89,25.89,0,0,0,5.6-16.85,39.75,39.75,0,0,0-4.59-16.88c-5-9.93-13.83-17.08-20.78-25.57l-.7-.87c-.08-.09-.47-.6-.07-.08-.38-.5-.75-1-1.12-1.51-.84-1.18-1.64-2.39-2.38-3.64s-1.33-2.36-1.91-3.58l-.33-.72c-.54-1.16.25.7-.22-.51-.31-.8-.61-1.61-.88-2.43-2.12-6.39-2.67-12.22-3.05-18.83-.19-3.23-.32-6.46-.5-9.69a4,4,0,0,0-8,0c.73,12.9.74,26.25,6.94,38,5.1,9.62,13.57,16.69,20.42,25,.41.49.81,1,1.2,1.49s.19.25.09.11l.69.93c.8,1.09,1.54,2.21,2.23,3.37s1.25,2.19,1.8,3.32c.27.57.54,1.14.79,1.73-.26-.61,0,0,0,.1.18.48.36.95.53,1.43a34.86,34.86,0,0,1,1.09,3.65c.15.61.28,1.23.39,1.85l.12.74c.07.48.08.5,0,.05a5.62,5.62,0,0,1,.06.56,27.11,27.11,0,0,1,.12,3.71c0,.68-.08,1.36-.17,2,0-.17.13-.75,0,0-.08.42-.16.84-.26,1.26-.14.6-.31,1.19-.5,1.77-.1.3-.21.59-.31.88-.39,1.11.19-.39-.1.25a22.42,22.42,0,0,1-2,3.48c-.71,1,.46-.49-.37.47l-.53.61c-.47.53-1,1-1.49,1.51-.23.22-.47.42-.71.62-.88.77.36-.24-.2.16a19,19,0,0,1-1.64,1.05L155,162c-.68.34-.14.07,0,0-.52.2-1,.38-1.59.53a14.55,14.55,0,0,1-1.62.34c1-.15-.08,0-.25,0-.33,0-.66,0-1,0s-.66,0-1-.05c-.76,0-.09,0,.06,0a16.78,16.78,0,0,1-1.68-.36,14.39,14.39,0,0,1-1.68-.56c.81.31-.3-.14-.38-.18-.34-.17-.67-.34-1-.53-.57-.32-1.12-.67-1.66-1,0,0-1-.79-.49-.35l-.38-.32c-.31-.29-.61-.58-.9-.89s-1.23-1.54-.55-.61c-1.16-1.61-2.21-3.28-3.27-5-2.44-3.86-5.2-7.63-9.64-9.28-5.33-2-10.56.5-13.93,4.7-.85,1.06-1.64,2.15-2.43,3.24l-1,1.33c-.44.6,0,.05,0-.06l-.95,1.15a55.72,55.72,0,0,1-5.38,5.7c-.51.46-1,.9-1.57,1.33.13-.11.55-.4-.09,0-.3.22-.61.44-.92.64a25.15,25.15,0,0,1-3.47,2c-.15.07-.91.38-.29.13l-.93.35a15.44,15.44,0,0,1-1.76.52l-.8.16c.91-.15.18,0-.06,0-.63,0-1.27-.05-1.9-.05s.92.23,0,0c-.25-.07-.52-.11-.77-.18-.52-.13-1-.36-1.53-.49s.81.42-.09-.05l-.73-.37c-.53-.29-1.05-.6-1.55-.94-.28-.19-.56-.38-.82-.59.61.47.13.1,0,0-.42-.38-.85-.74-1.26-1.14s-.88-.91-1.29-1.39L84,159c.53.65-.1-.15-.21-.3A23.51,23.51,0,0,1,82,155.77c-.15-.3-.29-.61-.44-.92-.32-.69,0-.11,0,0-.24-.62-.46-1.23-.64-1.87s-.27-1-.37-1.56c0-.2-.13-1.24,0-.18,0-.21,0-.41-.05-.62a24,24,0,0,1,.14-4.32c-.09.8.09-.51.1-.55l.15-.79c.14-.65.3-1.31.48-2s.39-1.28.61-1.91c.13-.38.28-.75.42-1.13.29-.76-.15.28.22-.53a48.93,48.93,0,0,1,4.24-7.36c.38-.56.78-1.11,1.19-1.65-.08.1.73-1,.42-.57l.44-.56q1.39-1.74,2.86-3.42c2-2.32,4-4.64,6-7A121.25,121.25,0,0,0,109,103.39c6.12-10.32,10.15-22.55,10-34.64a43.75,43.75,0,0,0-1.12-9.19,4,4,0,0,0-4.92-2.8,4.1,4.1,0,0,0-2.79,4.93Z"/><path class="cls-1" d="M122.57,112.54c5-.78,13.55-1.09,15,5.32,1.44,6.2-5.46,10.29-10,12.86-2.42,1.36-4.42,3.51-7.45,2.92-2.52-.5-5.36-2.89-7.32-4.5-3.32-2.72-9.48-7.08-5.81-11.91C109.94,113.37,118.15,113,122.57,112.54Z"/><path class="cls-1" d="M123.64,116.4c.32-.05,1,0-.1,0a6.83,6.83,0,0,0,.76-.09c.54,0,1.08-.1,1.62-.13a24.12,24.12,0,0,1,3.4,0c.38,0,1-.15.06,0a2.9,2.9,0,0,1,.83.15,11,11,0,0,1,1.59.42,2.21,2.21,0,0,1,.5.19l-.47-.19a4.16,4.16,0,0,1,.47.24s.67.39.66.4c-.47-.37-.53-.42-.21-.15l.38.35c.64.66.08,0,0,0s.38.63.41.68c.35.58,0-.06-.07-.19.08.28.16.57.25.85.3,1,.07-.73,0,.23,0,.31,0,.62,0,.93,0-1,0-.15-.06.12s-.62,1.32-.12.44c-.26.45-.5.88-.78,1.31-.54.84.56-.55-.15.17-.22.22-.42.47-.65.69-.46.47-1,.88-1.45,1.3-.83.7.66-.44-.23.18l-.81.56c-2.16,1.47-4.47,2.78-6.69,4.15-.3.19-.61.35-.92.52l-.31.16c.43-.18.42-.19,0,0l-.33.08c.49,0,.49,0,0,0h-.37c.35.06.39.07.13,0a8.06,8.06,0,0,1-.84-.24c.8.27-.31-.17-.4-.22a23.69,23.69,0,0,1-2.33-1.5c-1-.74.54.45-.43-.33l-.86-.7-1.2-1a42.07,42.07,0,0,1-3.21-2.76c-.4-.39-.77-.81-1.14-1.22-.69-.78.34.65-.16-.23-.15-.27-.31-.54-.47-.8-.48-.78.1.72,0-.15-.07-.39,0-1-.06-.09,0-.35.23-1,0-.11.08-.24.46-1,0-.25.09-.15.75-1,.13-.31.23-.28.5-.51.75-.76-.69.69-.15.12.09,0s.68-.38,1-.57c.62-.34,0,0-.12,0,.39-.16.78-.3,1.18-.43.72-.23,1.46-.42,2.2-.58s1.52-.31,2.29-.42l.65-.1c-1.06.15.34,0,.54-.06,1.32-.14,2.64-.25,4-.38,2.08-.2,4.11-1.69,4-4-.09-2-1.77-4.22-4-4a81.06,81.06,0,0,0-9.57,1.24c-3.14.69-6.62,2-8.73,4.51a9.26,9.26,0,0,0-.52,11.57c1.93,2.77,4.6,4.79,7.19,6.89,3.51,2.85,7.5,5.76,12.28,4.74a14.83,14.83,0,0,0,5-2.46c1.29-.85,2.67-1.57,4-2.38a23.64,23.64,0,0,0,7.77-7,11.38,11.38,0,0,0,.56-11.25c-3.45-6.87-12.56-6.66-19-5.68-2.08.32-3.41,3-2.8,4.92A4.13,4.13,0,0,0,123.64,116.4Z"/><path class="cls-1" d="M75.1,54.49c-8.62,8.74-13.4,20.06-14.9,32.15-1.53,12.33,1,24.62,4.33,36.45a72.91,72.91,0,0,0,4.17,11.27c1.64,3.49,3.13,6,4,9.71a4,4,0,0,0,4.92,2.79,4.09,4.09,0,0,0,2.79-4.92,44.07,44.07,0,0,0-3.65-9.29,64.9,64.9,0,0,1-3.53-8.55,133.75,133.75,0,0,1-4.55-18.41c-.1-.63-.2-1.26-.29-1.89-.19-1.25.08.79-.07-.46,0-.32-.07-.63-.11-1-.16-1.46-.28-2.92-.35-4.38a67.49,67.49,0,0,1,.07-8.17q.08-1,.18-2.07l.09-.75c0-.09.18-1.33,0-.44.2-1.36.44-2.72.73-4.07a53.32,53.32,0,0,1,2.35-7.89l.35-.87c.11-.26.09-.23,0,.1l.3-.69c.31-.68.63-1.36,1-2,.69-1.35,1.43-2.67,2.24-3.94.41-.65.84-1.28,1.27-1.9l.68-.93c.53-.73-.2.22.32-.41,1.07-1.32,2.19-2.59,3.38-3.8a4,4,0,1,0-5.66-5.66Z"/><path class="cls-1" d="M63.19,118.51c-.22,1.38-.44,2.76-.79,4.11a11.24,11.24,0,0,0-.7,2.22c-.14-.24.4-.81,0-.16-.1.18-.18.36-.28.53s-.18.27-.25.4c-.31.6.6-.49.08-.1-.82.63.73-.28-.06.09-.45.21,1-.24.32-.12s.45,0,.46,0c-.16,0-.83-.06-.12,0s-.07,0-.18-.09c.9.5-1-.89-.3-.19-.38-.38-.76-.74-1.11-1.15-.12-.14-.62-.76-.16-.17-.15-.19-.29-.39-.43-.58-.89-1.21-1.79-2.4-2.73-3.57-3.58-4.44-7.63-8.73-10.75-13.21a49.7,49.7,0,0,1-3.94-6.67c-.28-.57-.54-1.13-.79-1.71.23.54-.11-.26-.16-.39-.13-.32-.26-.65-.38-1A38.51,38.51,0,0,1,39.78,93q-.48-1.83-.78-3.69c0-.15-.13-1-.06-.4l-.09-.84c0-.45-.08-.9-.11-1.35-.11-1.68-.14-3.37-.1-5,0-1.92.19-3.82.41-5.72-.13,1.12.09-.55.12-.77.07-.41.14-.82.22-1.22.2-1,.43-2,.7-3s.52-1.76.84-2.61c.08-.23.2-.47.26-.7.17-.59-.4.87,0,0,.21-.44.41-.89.64-1.32a19.09,19.09,0,0,1,1.32-2.22l.41-.57c.32-.49-.64.71,0,0,.31-.34.61-.69.93-1s.66-.53.92-.83-.79.53-.06,0l.46-.31c.34-.23.7-.44,1.06-.64l.63-.31c-.82.43,0,0,.4-.15,2.66-1,5.44-1.69,8.13-2.64a35.69,35.69,0,0,0,8.47-4.34,61.91,61.91,0,0,1,7.25-4.75c1.09-.54-.37.12.31-.13.38-.13.76-.26,1.14-.37s.66-.15,1-.24c.79-.22-.36,0,.53-.09a13,13,0,0,1,2,0c-.69-.06-.07,0,.08,0,.36.11.72.18,1.07.32-.69-.28,0,.05.19.15s.6.37.9.57c.53.36,1,.76,1.56,1.15a15.51,15.51,0,0,0,4,2.16,4,4,0,0,0,4.92-2.79,4.09,4.09,0,0,0-2.79-4.92c.81.3-.21-.12-.33-.18l-.59-.36c-.49-.32-1-.68-1.43-1a16.8,16.8,0,0,0-3.94-2.32,14.68,14.68,0,0,0-9.42-.11c-5.67,1.68-9.87,6.17-15.08,8.79-1.18.59.32-.11-.43.2l-1.05.39q-1,.39-2.13.72c-1.57.5-3.16,1-4.73,1.48a22.41,22.41,0,0,0-6.58,3.14A23.9,23.9,0,0,0,33,66.8,47.89,47.89,0,0,0,30.7,79.92a52.28,52.28,0,0,0,.93,13.39,47.58,47.58,0,0,0,7.23,16.57C42.49,115.27,47,120,51,125.05l.59.73q.49.63.15.18c.14.18.28.36.41.55.39.52.76,1,1.16,1.57a16.8,16.8,0,0,0,3.77,3.85,7.59,7.59,0,0,0,8.41.42c3.81-2.46,4.73-7.57,5.37-11.71.32-2.06-.52-4.41-2.79-4.92-1.91-.44-4.58.58-4.92,2.79Z"/><path class="cls-1" d="M86.57,52.18c9.63-2.94,19.09-6.67,29-8.79a49.25,49.25,0,0,1,7.07-1.07c1.23-.09,2.47-.14,3.7-.12.61,0,1.21,0,1.82.09l.91.08s1.23.15.75.08a45.14,45.14,0,0,1,7.34,1.78,61.16,61.16,0,0,1,6.7,2.61c4.34,2,8.7,3.7,13.22,5.24A4,4,0,0,0,162,49.29a4.1,4.1,0,0,0-2.8-4.92c-2.13-.73-4.26-1.46-6.36-2.27l-1.24-.49c-.19-.07-.71-.3.15.07l-.52-.22c-.92-.4-1.81-.83-2.72-1.25A64.49,64.49,0,0,0,133,34.93c-11.13-2-22.08,1-32.63,4.38-5.33,1.68-10.6,3.52-16,5.16a4,4,0,0,0,2.13,7.71Z"/><path class="cls-1" d="M160.24,51.39c1-.72,2-1.43,3.08-2.08.44-.26.89-.52,1.35-.76l.68-.34c.82-.42-.38.1.41-.17.52-.17,1-.34,1.56-.46.11,0,.86-.17.35-.09s.57,0,.55,0a12.3,12.3,0,0,1,1.49,0c-.69-.06-.05,0,.09,0,.4.1.8.18,1.19.3a11.25,11.25,0,0,1,2.84,1.34c.45.28.89.57,1.32.88l.63.46c-.55-.41.42.34.43.34,2,1.62,3.9,3.33,6,4.79,4.49,3.07,9.84,4.37,14.32,6.72a27.36,27.36,0,0,1,2.57,1.5c.18.12,1.36,1,.58.39.37.32.75.63,1.1,1s.51.55.77.83c.47.52,0,0-.09-.14.14.19.28.38.41.58a16.67,16.67,0,0,1,1.34,2.5c-.36-.82.11.35.2.58.15.45.3.91.44,1.36a40.15,40.15,0,0,1,1,4.2c.06.36.13.73.18,1.1,0-.19-.06-.59,0,.24.06.58.1,1.15.13,1.73a29,29,0,0,1-.11,4.06c0,.14-.14,1,0,.44,0,.29-.09.57-.15.86-.1.58-.23,1.16-.37,1.74a37.49,37.49,0,0,1-1.3,4.23,77.53,77.53,0,0,1-3,7.22c-2.4,5-5.16,9.9-7.87,14.79L188.18,119a37.06,37.06,0,0,0-3.43,7.6,13.38,13.38,0,0,1-.58,2c.35-.76.1-.31,0-.15a2.82,2.82,0,0,1,2.33-1.3,2.94,2.94,0,0,1,1.28.3c-.61-.29.48.57,0,0-.16-.2-.35-.39-.52-.57s.28.45-.13-.17c-1.44-2.19-2.49-4.55-3.75-6.84-.89-1.62-1.85-3.2-2.67-4.85-.22-.44-.41-.9-.64-1.34s.22.7.08.19c-.06-.25-.18-.49-.26-.74s-.32-1.46-.22-.66,0,.24,0,.07c0-.38-.31,1.16,0,.39a4,4,0,0,0-2.79-4.92,4.1,4.1,0,0,0-4.92,2.79c-.82,2.13.19,4.58,1,6.53a50.75,50.75,0,0,0,2.68,5.18c1,1.83,1.92,3.73,2.92,5.57,1.27,2.37,2.89,5,5.32,6.38a5.21,5.21,0,0,0,5.09,0,6.87,6.87,0,0,0,2.85-3.77c.48-1.33.73-2.72,1.29-4-.08.18-.23.5.11-.22l.47-1c.36-.7.73-1.4,1.12-2.09,3-5.53,6.18-11,9.15-16.58a97.46,97.46,0,0,0,7.74-17.64,34.84,34.84,0,0,0,.28-18.65c-1.17-4.63-3.13-9.11-6.94-12.15-4.53-3.61-10.41-5.33-15.17-7.6a27.82,27.82,0,0,1-4-2.3c.08.06-1-.7-.55-.39.19.14-.67-.54-.82-.66l-1.5-1.25a32.16,32.16,0,0,0-8.72-5.65,15.43,15.43,0,0,0-9.68-.55,26.84,26.84,0,0,0-8.47,4.48c-1.69,1.22-2.68,3.54-1.44,5.48,1.09,1.68,3.66,2.74,5.48,1.43Z"/><path class="cls-1" d="M164.78,60.21a81.43,81.43,0,0,1,6.29,14.59,71.46,71.46,0,0,1,2,7.48c.26,1.25.47,2.5.66,3.77,0,.07.1.78,0,.2,0,.28.07.56.1.84.09.77.16,1.55.22,2.33a65.26,65.26,0,0,1,.12,7.91q-.09,1.86-.27,3.69c-.15,1.45-.22,2-.5,3.54a168.37,168.37,0,0,1-4.31,16.81c-.79,2.79-1.62,5.56-2.27,8.39-.28,1.2-.56,2.4-.93,3.58-.09.29-.19.57-.29.86s-.13.33-.19.5c.15-.37.17-.43.05-.17s-.21.4-.32.59-.81,1.11-.19.37c-1.33,1.61-1.7,4.1,0,5.66,1.47,1.35,4.23,1.72,5.66,0,3.37-4.08,3.92-9.66,5.33-14.6,1.67-5.84,3.51-11.7,4.75-17.65a71.18,71.18,0,0,0-1.26-34.16,94.8,94.8,0,0,0-7.72-18.57,4,4,0,0,0-5.48-1.43,4.09,4.09,0,0,0-1.43,5.47Z"/><path class="cls-1" d="M70.19,138.38c-4.87,10.8-9.11,21.93-10.36,33.8-1.23,11.56-.21,23.3,1.23,34.8,1.5,12,3.38,24,5.31,36,1.86,11.51,3.55,23,5.17,34.27l.12.85c.12.83.06.4,0,.22.1.71.19,1.43.27,2.14.15,1.3.28,2.6.38,3.9a51.56,51.56,0,0,1,0,7.86c0,.35-.07.69-.1,1,0,.1-.12.78,0,.15-.09.53-.18,1.06-.29,1.59-.29,1.32-.69,2.61-1.08,3.91A41.13,41.13,0,0,0,69.06,307c-.47,4.95,1.54,9.58,6.17,11.74,3.59,1.67,7.46,2,11.34,2.45a40.41,40.41,0,0,0,15.18-.73c4.58-1.21,10.78-3.69,12.46-8.57,1.39-4-.57-8.41-2.4-11.94-.87-1.67-1.83-3.29-2.74-4.95-.39-.71-.75-1.43-1.1-2.17-.25-.52,0,0,0,.09-.15-.35-.29-.71-.43-1.07-.27-.71-.53-1.42-.78-2.14a66.52,66.52,0,0,1-2.21-8c-.28-1.3-.52-2.61-.73-3.92,0-.29-.09-.58-.13-.88,0-.05-.11-.77,0-.25-.1-.74-.18-1.47-.26-2.21a126,126,0,0,1-.43-16.71c.19-5.86.28-11.73.81-17.57a52.8,52.8,0,0,1,1.24-8.42,77.41,77.41,0,0,1,2.56-7.52,30,30,0,0,0,1.85-8.09,4,4,0,0,0-4-4,4.1,4.1,0,0,0-4,4c0,.27,0,.55-.07.82.09-.66,0,.22-.08.37-.13.63-.28,1.25-.46,1.86-.36,1.27-.8,2.51-1.26,3.75a56.79,56.79,0,0,0-2.4,7.31,102.35,102.35,0,0,0-1.86,17.47c-.46,11-.89,22.13,1,33.07a68.58,68.58,0,0,0,4.58,15.63c1.4,3.26,3.45,6.2,4.94,9.42,0,.12.3.74.1.23s.12.33.13.37c.14.36.26.73.37,1.1s.17.71.25,1.07c.17.74-.08-.24,0-.28a4,4,0,0,0,0,.75s0,.48,0,.48c-.43,0,.41-1,0-.25-.07.13-.27.65,0,.07s0-.09-.05,0c-.15.76-.39-.34.13-.14l-.35.36c.11-.13.87-.6.06,0l-1,.68a22.93,22.93,0,0,1-2.9,1.53c.53-.23-.09,0-.17.06l-1,.35c-.57.19-1.16.37-1.75.53s-1.19.29-1.79.41l-1,.18c-.1,0-.78.11-.15,0a32.49,32.49,0,0,1-3.68.25,51.11,51.11,0,0,1-6.55-.44l-2.24-.26a3.57,3.57,0,0,1-.56-.07c.89.24.47.07.21,0-.48-.08-1-.15-1.43-.24a22.24,22.24,0,0,1-2.41-.58c-.4-.12-.8-.27-1.2-.41.94.35-.19-.13-.52-.32l-.44-.28c-.54-.32.25.1.18.15a6.21,6.21,0,0,1-.73-.72c.08-.08.49.81.1.08a4.17,4.17,0,0,0-.26-.46c-.27-.38.09.68.1.21a5.66,5.66,0,0,0-.22-.88c-.13-.66,0,.52,0-.15,0-.28,0-.55,0-.83s0-.69,0-1c0-.08.06-.79,0-.19a25.65,25.65,0,0,1,.84-3.77c.66-2.31,1.49-4.59,1.94-7A52.1,52.1,0,0,0,80,280.88c-.3-2.7-.7-5.39-1.09-8.07-.17-1.14-.34-2.29-.5-3.43s-.35-2.56-.56-4.1c-.79-5.71-1.68-11.41-2.59-17.11-1.83-11.47-3.69-22.93-5.31-34.43-.37-2.66-.65-4.74-1-7.48s-.67-5.73-.93-8.61a155.88,155.88,0,0,1-.71-16.74A73.55,73.55,0,0,1,69.09,165a106.87,106.87,0,0,1,5-15.62c.95-2.39,1.86-4.47,3-7,.86-1.9.61-4.39-1.44-5.47-1.74-.92-4.55-.6-5.47,1.44Z"/><path class="cls-1" d="M167.13,136.53a126.35,126.35,0,0,1,4.8,15.43,127.07,127.07,0,0,1,2.85,15.77c1.29,11.86.23,23.37-2,34.83-2.28,11.94-5.29,23.74-7.86,35.63s-4.88,24.12-6.39,36.33c-.72,5.84-1.36,11.59-.28,17.43.46,2.53,1.54,4.85,2.12,7.34.08.33.18,1.46.13.59,0,.56.06,1.1,0,1.65,0,.22,0,.44-.05.66,0-.8.07-.35,0-.1-.13.58-.28,1.14-.44,1.71-.06.22-.36.9,0,.09l-.27.58c-.22.43-.47.83-.73,1.24-.07.1-.47.65-.16.24s-.29.32-.3.33c-.36.4-.77.74-1.16,1.11.54-.51.21-.14,0,0s-.45.3-.69.44-.48.26-.72.4-.7.3,0,0a13.64,13.64,0,0,1-1.75.55c-2,.49-4,.95-5.94,1.42l-8.38,2c-.63.15-1.27.27-1.89.45s-1.1.39-1.69.51c1.16-.23,0-.08,0-.06s-1.1-.23,0,0l-.57-.13c-.41-.12-.74-.47-.12,0-.17-.12-1.24-.78-.83-.47s-.55-.53-.71-.7-.27-.31-.4-.46c.57.65.1.14,0-.07-.3-.49-.61-1-.87-1.48l-.27-.57c.37.76.12.28.06.09-.16-.49-.33-1-.44-1.46-.05-.19-.08-.39-.13-.58-.17-.74,0,.13,0,.21a5.88,5.88,0,0,1,0-2.05c0-.18.09-1,0-.32a7.09,7.09,0,0,1,.14-.78c.12-.59.27-1.17.44-1.75s.37-1.16.58-1.74c.09-.26.19-.51.29-.77,0,0,.48-1.16.23-.57,1.09-2.58,2.35-5.09,3.29-7.73,2-5.52,2.79-11.6,3.54-17.4a172.66,172.66,0,0,0,1.29-18c.28-11.63.54-23.43-.87-35-.38-3.13-.85-6.24-1.48-9.32a4,4,0,0,0-4.92-2.8,4.09,4.09,0,0,0-2.79,4.92c.6,3,1.06,5.86,1.35,8.6.33,3,.54,6,.67,9.05.25,6,.18,12,.13,18.06-.11,12.28-.65,24.08-3.52,35.85-.33,1.33-.66,2.65-1.12,3.94a33.44,33.44,0,0,1-1.3,3.16,58.27,58.27,0,0,0-3.14,7.84,17.36,17.36,0,0,0,2,14.79,13.25,13.25,0,0,0,6,5,10.6,10.6,0,0,0,7.24-.05c1.75-.52,3.58-.86,5.35-1.28l8.66-2.08a21,21,0,0,0,7.31-2.75,16.2,16.2,0,0,0,7-13.06,21.1,21.1,0,0,0-1.49-7.15,31.3,31.3,0,0,1-1-3.83c-.07-.34-.13-.69-.19-1-.13-.78.08.93,0-.39-.07-.69-.13-1.38-.16-2.08-.26-5.91.81-12.1,1.63-17.65.91-6.19,2-12.35,3.23-18.49,2.45-12.35,5.4-24.58,8.11-36.87s5-24.85,4.71-37.48a127.45,127.45,0,0,0-5.94-34.41c-.78-2.5-1.63-5-2.57-7.42-.75-1.95-2.73-3.51-4.92-2.8-1.9.62-3.6,2.83-2.8,4.92Z"/><path class="cls-1" d="M173.72,229.48,175,230l.62.25c1,.39-.49-.24.1,0,.8.37,1.61.72,2.4,1.13a24.18,24.18,0,0,1,2.15,1.26c.12.08,1.11.77.63.42s0,0,.13.12.35.29.51.45.52.5.77.76a5.24,5.24,0,0,0,.44.5c.38.36-.4-.62-.14-.17.4.67.79,1.32,1.16,2-.48-.91,0,.07.11.38a11.44,11.44,0,0,1,.34,1.31c.05.2.07.41.12.61.16.56,0-.69,0-.09s.1,1,.11,1.55a50.92,50.92,0,0,1-2,14.55,119.27,119.27,0,0,1-4.89,14.84c-.25.63.21-.47-.05.13l-.38.87c-.25.54-.5,1.09-.77,1.63-.48,1-1,2-1.54,2.92-1.24,2.2-2.6,4.35-3.93,6.5a4,4,0,0,0,1.44,5.48,4.09,4.09,0,0,0,5.47-1.44,92,92,0,0,0,6.69-12.1A114.54,114.54,0,0,0,190,257.62a62.72,62.72,0,0,0,2.44-16.94,17.7,17.7,0,0,0-4.48-11.94c-3.2-3.47-7.78-5.33-12.1-7a4,4,0,0,0-4.92,2.8,4.11,4.11,0,0,0,2.8,4.92Z"/><path class="cls-1" d="M163.87,288.25c.33-.08.66-.16,1-.22.12,0,.93-.17.19,0s-.13,0,0,0a16,16,0,0,1,1.83,0c.75,0-.88-.17-.37-.06l.38.08a6.38,6.38,0,0,1,.72.19c.16,0,1,.39.3.08s.22.12.39.22l.58.37c.7.44-.73-.66-.13-.1a13.5,13.5,0,0,1,1.07,1.07c.55.61-.57-.83-.11-.15.14.21.29.42.42.63.26.43.49.87.71,1.32a2.09,2.09,0,0,0,.14.3s-.41-1-.21-.49c.07.2.15.4.22.61a12.89,12.89,0,0,1,.41,1.38c.1.39.18.79.25,1.19,0,.09,0,.19.05.29.1.55-.13-.68-.09-.64s.06.55.07.68a16.33,16.33,0,0,1,0,2c.06-1.52.18-1,.09-.71a1.78,1.78,0,0,0-.09.33c0-.36.41-.92.19-.5a2.68,2.68,0,0,0-.18.28c.3-.84.57-.64.29-.4a2.45,2.45,0,0,0-.34.31c-.3.34.77-.52.36-.28l-.42.28a10.54,10.54,0,0,1-.94.5l-.4.19c-.75.36.9-.35.11,0s-1.34.51-2,.75a36.77,36.77,0,0,0-5,2,4,4,0,0,0-1.44,5.47,4.11,4.11,0,0,0,5.48,1.44c.31-.16.64-.29.95-.46-1.08.6-.15.07.19-.06.75-.28,1.5-.54,2.25-.81a25.69,25.69,0,0,0,4.82-2.08,8.26,8.26,0,0,0,3.77-4.47,9.54,9.54,0,0,0,.34-3.2c-.18-5.23-2.43-10.57-6.86-13.57-3.27-2.2-7.44-2.31-11.15-1.4a4,4,0,0,0-2.79,4.93,4.09,4.09,0,0,0,4.92,2.79Z"/><path class="cls-1" d="M75.09,289.56A16,16,0,0,1,73,289c-.72-.24-.11-.05,0,0-.29-.15-.58-.29-.86-.45s-.52-.35-.79-.51c.65.38.25.21.08.05a15.69,15.69,0,0,1-1.5-1.55c.1.11.46.66.07.05-.17-.27-.35-.53-.51-.8a15.44,15.44,0,0,1-.77-1.45c-.06-.11-.5-1.14-.15-.28-.11-.27-.21-.54-.31-.81-.34-.9-.66-1.82-1-2.72-1.32-3.37-2.84-6.67-4.43-9.92-.76-1.55-1.53-3.09-2.3-4.64l-1-2c-.1-.22-.18-.45-.3-.66s-.08-.18.12.28c-.08-.18-.15-.36-.23-.55a36.81,36.81,0,0,1-1.83-6.45c-.11-.62-.21-1.24-.3-1.87.14,1,0-.53-.07-.83-.12-1.23-.18-2.47-.18-3.7s0-2.28.12-3.41c0-.54.1-1.08.16-1.62.1-1.09-.15.86,0-.22.07-.43.13-.86.21-1.28a36.51,36.51,0,0,1,1.9-6.82s.39-1,.15-.41.27-.58.31-.68c.27-.57.55-1.13.85-1.68a32,32,0,0,1,2.18-3.42c-.08.11-.52.64,0,.08.26-.32.52-.64.79-1,.41-.46.84-.91,1.28-1.34s.92-.82,1.39-1.23c.77-.69-.68.46.17-.14.34-.25.67-.49,1-.72a4,4,0,1,0-4-6.91c-9.5,6.34-13.91,17.55-14.42,28.64A43.06,43.06,0,0,0,51,263.84a72,72,0,0,0,3.94,8.73c1.59,3.2,3.28,6.64,4.49,9.68,1.4,3.52,2.49,7,4.92,10A14.91,14.91,0,0,0,73,297.28a4.08,4.08,0,0,0,4.92-2.8c.45-2-.6-4.48-2.79-4.92Z"/><path class="cls-1" d="M66.27,291.73a22.11,22.11,0,0,0-6.38,10.82c-1,4.41.08,9.24,4.28,11.6a14.46,14.46,0,0,0,8.34,1.45c2.08-.18,4.1-1.71,4-4-.09-2-1.77-4.2-4-4a20.17,20.17,0,0,1-3.11,0c-.65,0,1,.19.22,0l-.61-.13-.56-.16-.23-.08c-.6-.17.76.38.45.2s-.59-.32-.88-.5c-.54-.33.49.45.37.29a4.35,4.35,0,0,0-.38-.36c-.61-.56.33.31.24.36a3.87,3.87,0,0,1-.25-.37c-.07-.13-.13-.27-.21-.39-.23-.37.37,1.1.15.36-.08-.27-.14-.55-.22-.82-.19-.72.09,1,.06.46,0-.19,0-.37,0-.55,0-.34,0-.67,0-1,.06-.78-.12.69-.06.4s.06-.35.09-.52a14.17,14.17,0,0,1,.66-2.22l.09-.24c.21-.55-.21.52-.2.49a2.87,2.87,0,0,1,.24-.54c.18-.36.37-.72.56-1.07s.48-.81.74-1.2l.4-.59c.09-.13.64-.85.16-.23s.07-.09.19-.23.31-.36.47-.53q.51-.57,1.05-1.08a4,4,0,0,0-5.66-5.66Z"/><path class="cls-1" d="M110.64,313.42c3-.07,6,.28,9.07.38a27.46,27.46,0,0,0,4.35-.1c1.76-.2,3.44-.68,5.19-1,2.07-.33,3.4-3,2.79-4.92a4.12,4.12,0,0,0-4.92-2.79c-.75.11-1.48.28-2.22.45l-1,.2c-.22.05-1.1.36-.21.06a7.59,7.59,0,0,1-2.18.09c-.73,0-1.46,0-2.19,0-2.91-.12-5.81-.44-8.73-.37a4,4,0,1,0,0,8Z"/><path class="cls-1" d="M111.52,312.88c3.34,0,6.67.38,10,.2a44.6,44.6,0,0,0,4.87-.58,9.88,9.88,0,0,0,4.62-2,4,4,0,0,0,1.17-2.83,4.06,4.06,0,0,0-1.17-2.83,4,4,0,0,0-2.83-1.17,4.65,4.65,0,0,0-2.82,1.17c.57-.42.69-.52.33-.31s-.24.13.38-.15a3.23,3.23,0,0,0-.65.2c-.54.14-1.08.22-1.62.31-.76.12,1.06-.14,0,0l-.83.1c-.8.09-1.6.14-2.39.16-3,.07-6-.24-9-.24a4,4,0,1,0,0,8Z"/></svg>