<svg id="Capa_1" data-name="Capa 1" xmlns="http://www.w3.org/2000/svg" viewBox="0 0 238.45 276.28"><defs><style>.cls-1{fill:#fff;}</style></defs><title>perro peque</title><path class="cls-1" d="M73.35,47.23l.33.7c-.28-.64,0,.12.09.28q.27.7.48,1.44c.16.55.29,1.1.41,1.65.06.25.1.5.15.75,0,.09.16,1.09.1.59s0,.31,0,.42c0,.31,0,.63.07.95,0,.51,0,1,0,1.53,0,1.17-.08,2.33-.19,3.49,0,.12-.09.79,0,.11q0,.39-.12.78c-.08.52-.18,1-.28,1.55-.24,1.18-.53,2.34-.87,3.49s-.68,2.17-1.07,3.23c-.19.51-.38,1-.58,1.5-.06.14-.4.93-.14.33-.13.31-.27.61-.41.91A69.68,69.68,0,0,1,64.7,82.28c-1.37,1.94-2.76,3.86-4.21,5.75-.42.54.29-.37-.14.17l-.52.66-1.18,1.47c-.8,1-1.61,1.93-2.45,2.87a68.2,68.2,0,0,1-5.53,5.62c-.5.45-1,.9-1.54,1.33l-.63.51c-1,.83.59-.41-.45.36s-2.15,1.53-3.27,2.21l5.47,1.44c-.54-1,.12.66-.22-.47-.11-.37-.23-.74-.32-1.13-.2-.78-.33-1.57-.47-2.36a21.44,21.44,0,0,0-1.52-5.32c-1.53-3.34-4-6.29-6.32-9.1-1-1.2-2-2.38-3-3.57-.49-.58-1-1.16-1.45-1.75-.07-.09-.46-.59-.06-.07-.31-.4-.6-.8-.89-1.2a29.06,29.06,0,0,1-2.23-3.76c-.51-1,.22.72-.14-.37l-.24-.67c-.1-.34-.2-.69-.28-1-.05-.17-.24-1.62-.16-.72a21.31,21.31,0,0,1,0-2.26c0-1.18-.18.67.05-.52.08-.37.15-.73.23-1.1.14-.57.29-1.13.46-1.69q.15-.5.33-1c.05-.16.61-1.5.22-.64a21.64,21.64,0,0,1,2-3.52l.39-.54c-.55.75.11-.12.2-.22A18.36,18.36,0,0,1,38.37,60c.25-.22.5-.44.76-.65-.71.58.17-.11.28-.18a17.56,17.56,0,0,1,1.76-1.07l.63-.32c.09-.05,1.16-.5.35-.18a23.73,23.73,0,0,1,2.71-.87c1.57-.4,3.16-.67,4.71-1.16A31.94,31.94,0,0,0,55.5,52.8c1.73-1,3.42-2,5.16-3,.8-.44,1.62-.87,2.45-1.27L64.23,48c.44-.2.51-.22.19-.09l.78-.3c.79-.29,1.59-.55,2.39-.77.41-.11.81-.2,1.22-.29l.81-.15c-.38,0-.33,0,.16,0s.81-.05,1.21-.05c.15,0,1.69.09.94,0a10.52,10.52,0,0,1,2.71.77c1.94.8,4.48-.86,4.92-2.79.53-2.33-.71-4.06-2.79-4.92-7.38-3-15.59.81-21.95,4.51-1.71,1-3.41,2-5.17,2.94a18,18,0,0,1-4.76,1.62,26.53,26.53,0,0,0-9.8,4,24.75,24.75,0,0,0-10,16.38A19.15,19.15,0,0,0,26.86,80a39,39,0,0,0,5.87,8.4,71,71,0,0,1,6.94,9c.31.51.6,1,.87,1.54s.06.08,0,0a7.19,7.19,0,0,1,.27.78,22.08,22.08,0,0,1,.63,2.79,20.9,20.9,0,0,0,1.88,6.28,4,4,0,0,0,5.47,1.43c9-5.52,15.79-14,21.87-22.52,5.75-8,10.61-16.84,12-26.75a30.7,30.7,0,0,0-2.39-17.68,4,4,0,0,0-5.47-1.43,4.11,4.11,0,0,0-1.44,5.47Z"/><path class="cls-1" d="M76.36,48.3a4,4,0,1,0-4-4,4.05,4.05,0,0,0,4,4Z"/><path class="cls-1" d="M76.61,47.82c5.34,1.41,11,1.21,16.51.71C99.11,48,105,47,111,45.87c6.11-1.16,11.69-2.27,18-1.67a15,15,0,0,1,1.52.23c.71.12,1.41.27,2.11.43,1.54.35,3.06.76,4.57,1.19,2.8.78,5.6,1.62,8.45,2.18,7.58,1.5,15.14.45,22.77.39a4,4,0,0,0,0-8c-6.34.05-13.07,1.07-19.23.15-5.59-.83-11.25-3.17-17-4.13-6.6-1.11-13.08-.33-19.61.83-3.12.55-6.22,1.19-9.34,1.73q-2.16.36-4.32.66c-.78.11-.16,0,0,0l-1.1.15-1.9.23a87.31,87.31,0,0,1-9.28.64c-1.44,0-2.89,0-4.33-.14l-1.12-.12c.71.08-.14,0-.39-.06q-1-.18-2-.45a4,4,0,1,0-2.12,7.71Z"/><path class="cls-1" d="M166.16,41.7a19.57,19.57,0,0,0-10.1,12.56c-1.34,5.23-.82,10.75.26,16A65.56,65.56,0,0,0,175,103.92c1.19,1.14,2.44,2.23,3.72,3.27.72.58,1.46,1.15,2.2,1.72l.8.62c.29.22.57.44.88.63a5.19,5.19,0,0,0,5.19.31,7,7,0,0,0,3-4.09c.55-1.48.93-3,1.48-4.5,0-.1.31-.67,0-.12.18-.37.37-.75.58-1.11.51-.93,1.11-1.81,1.7-2.69a69.57,69.57,0,0,1,6-7.45c4.63-5.25,8.86-10.84,10-17.93,1-6.44,0-14.19-5.44-18.5-2.48-2-5.4-2.83-8.41-3.66-.71-.2-1.43-.39-2.13-.63,0,0-1.22-.5-.51-.19-.48-.21-.94-.45-1.4-.7a42.59,42.59,0,0,1-4.27-2.76c-3-2.16-6.12-4.38-9.77-5.4a18.67,18.67,0,0,0-12.14,1.15c-1.93.8-3.52,2.69-2.8,4.92.61,1.86,2.85,3.65,4.93,2.8a21.89,21.89,0,0,1,4.18-1.34c.18,0,1-.13.32-.07l1-.05,1,0c.49,0,.54,0,.16,0,.2,0,.41.07.61.12,2.61.59,4.9,2.2,7.22,3.84a43.53,43.53,0,0,0,6.94,4.37A73.18,73.18,0,0,0,197.69,59c.24.08,1.67.7.67.21.42.21.84.41,1.24.65.19.11.92.68.12,0,.15.12.3.24.44.37s.42.44.64.65c.57.55-.32-.57.18.2.33.52.65,1,.93,1.57,0,0,.49,1.2.22.46.09.24.18.49.26.73.19.63.32,1.26.46,1.9.27,1.2,0-.73.08.51,0,.39.06.79.07,1.19a19.26,19.26,0,0,1,0,2c0,.41-.06.81-.11,1.21.08-.64,0,0,0,.14a28.38,28.38,0,0,1-1.15,4.25s-.5,1.18-.2.51c-.14.32-.29.64-.45,1-.32.63-.67,1.25-1,1.85s-.85,1.31-1.31,2q-.24.35-.51.69c.27-.35-.47.59-.57.71-4,5-8.77,9.51-11.77,15.23a26.2,26.2,0,0,0-1.71,4.18c-.2.63-.38,1.26-.58,1.89-.13.4-.26.79-.4,1.19.27-.76-.12.13-.11.14l.38-.47a1.88,1.88,0,0,1,1.79-.58l1.25-.17c-.37-.11-.23,0,.44.19-.07.06-1-.65-1.07-.74.91.68-.53-.4-.8-.62.14.12.4.33-.24-.19s-1.39-1.13-2.06-1.72a57.32,57.32,0,0,1-17.84-28.57c-.33-1.23-.63-2.48-.88-3.73-.12-.57-.22-1.15-.32-1.73l-.12-.79c-.14-.83.06.72-.05-.36s-.21-2.39-.22-3.6c0-.62,0-1.23,0-1.85,0-.3,0-.6.07-.91s.2-1.19,0-.13A24.26,24.26,0,0,1,164.2,55c.08-.22.19-.45.25-.68s.08-.18-.11.29c.07-.18.16-.36.24-.53a15.37,15.37,0,0,1,.88-1.52c.1-.17.22-.32.33-.49.26-.35.23-.32-.09.1l.39-.46a16.07,16.07,0,0,1,1.31-1.3l.49-.41c-.75.63.35-.24.51-.34a20,20,0,0,1,1.8-1,4,4,0,0,0,1.44-5.47,4.1,4.1,0,0,0-5.48-1.43Z"/><path class="cls-1" d="M171.82,99.89c-1.44,5.36-1,11.09-.38,16.55.31,2.85.58,5.74,1.1,8.57a38.3,38.3,0,0,0,3,9c.86,1.91,3.78,2.52,5.47,1.43A4.11,4.11,0,0,0,182.4,130a29.58,29.58,0,0,1-1.25-3.36,34.11,34.11,0,0,1-.9-3.75c-.25-1.37-.27-1.75-.44-3.22-.14-1.21-.28-2.41-.41-3.62-.27-2.51-.49-5-.51-7.55a35.48,35.48,0,0,1,.11-3.57s.11-1.09.05-.6.1-.59.1-.57a17.46,17.46,0,0,1,.39-1.74,4,4,0,0,0-7.72-2.12Z"/><path class="cls-1" d="M130.42,90.58c.06-6.19,2.51-12.83,7.87-16.26,1-.63,3.5-2.19,4.61-.79.85,1.07-1,2.8-1.74,3.65,3.1,1.17,8.16-1.86,11.88-1.24.68.11,3,.56,3,1.47s-3.08,1.92-3.64,2.77c2.79,1.11,7.64,4.13,8.72,7.67A1.4,1.4,0,0,1,159,89.39c-4.32-2.78-9.82-4.88-14.89-4.43-2.64.24-11.4,3.36-12.56,6C131.41,91.17,130.42,91.29,130.42,90.58Z"/><path class="cls-1" d="M104.16,90.66c1.13-5.43-.76-11.29-5.37-14.37-3.82-2.55-5.46-2.21-3.89,2.62-2.51-1.17-11.61-2.46-14.44.44A1.13,1.13,0,0,0,81,81.2c1.11.3,2.27.57,3.34.9-2,.92-9.18,5.19-10.81,9A1.78,1.78,0,0,0,76,93.37a51.26,51.26,0,0,1,6-3.27,31.06,31.06,0,0,1,10.18-2.42,13.24,13.24,0,0,1,6.77,2,22.82,22.82,0,0,1,2.43,1.8,1.81,1.81,0,0,0,2.8-.8Z"/><path class="cls-1" d="M106.78,137.38c-1.65-6.53,2.55-9,7.92-9.48,4.42-.42,10-1.57,14.15.1,8.7,3.47-3.41,15.78-8.79,16.18C116.19,144.46,107.88,141.73,106.78,137.38Z"/><path class="cls-1" d="M110.64,136.31a3.3,3.3,0,0,1-.21-1c-.13.9,0,.18,0-.14a7.66,7.66,0,0,1,0-.83v-.27c0-.45,0-.34,0,.31a3.58,3.58,0,0,0,.18-.7c.18-.79-.47.79-.06.11l.34-.57c.34-.58-.65.74.07,0,.33-.35.66-.28-.13,0a5.13,5.13,0,0,0,.57-.38c.2-.12.41-.22.61-.33.74-.42-.89.29-.07,0a15,15,0,0,1,1.45-.43l.78-.17.53-.08-.25,0c3-.25,5.92-.79,8.91-.8.73,0,1.44,0,2.16.1-.94-.08.19,0,.33.06.34.07.67.15,1,.25a3.12,3.12,0,0,1,1,.33l-.53-.22.39.2.52.32q-.82-.66-.36-.27l.25.25c.53.4-.47-.86-.2-.27a2,2,0,0,0,.24.43c-.43-.4-.35-1-.18-.35s-.2.31,0-.43a4.27,4.27,0,0,0,0,1c-.13-.92.17-.86,0-.36l-.21.72c-.21.75-.19-.14.12-.23a2.55,2.55,0,0,0-.26.55c-.19.38-.41.74-.63,1.1s-.55.71-.76,1.09c.53-.93.28-.35.06-.09s-.4.47-.61.7a20.36,20.36,0,0,1-2,1.94l-.52.44c-.64.54.77-.55.1-.07-.42.3-.82.59-1.25.86s-.7.42-1.06.6l-.51.26c-.64.35,1-.33.29-.13l-.94.3c-.48.14-.49-.18.49-.05a5.62,5.62,0,0,0-.71,0c-.52,0-1-.09-1.53-.1,1.18,0,.43,0,.11,0s-.68-.13-1-.21c-.61-.14-1.21-.32-1.81-.52l-.78-.28-.52-.2c.53.23.6.25.2.07-.57-.28-1.14-.55-1.68-.88l-.67-.43c-.92-.63.28.31-.19-.15-.18-.16-.36-.32-.53-.49s-.22-.23-.32-.35c-.27-.32-.2-.23.2.27a2,2,0,0,0-.34-.56c-.38-.51.3.94,0,0a4,4,0,0,0-7.71,2.13c1.74,6.22,9.37,9,15.15,9.67,4.91.54,9.33-2.48,12.62-5.85,3.48-3.57,7.06-9.33,4.15-14.29-1.76-3-5.21-4.2-8.47-4.64-3.69-.49-7.34.11-11,.5s-7.25,1-10,3.64c-3,2.87-3.36,7.13-2.43,11a4,4,0,0,0,4.92,2.79A4.08,4.08,0,0,0,110.64,136.31Z"/><path class="cls-1" d="M104.62,128.06c-4.31-1.17-8.48-2.87-12.89-3.62a49.22,49.22,0,0,0-15.79.3c-9.2,1.4-17.45,5.28-25.67,9.48-3.21,1.64-6.75,3.9-7.88,7.53a6.82,6.82,0,0,0,1.29,6.47,7.92,7.92,0,0,0,4.44,2.34c.61.13,1.23.22,1.84.35.32.07.63.17.95.24a1.23,1.23,0,0,1,.34.11c-.52-.89-.65.06-.13,0,0,0,.7.34,0-.06l-.24-.17c.28.32.23.19-.17-.39l-.31-.55c.08.33.08.32,0,0,0-.15.21-1.07,0-.67s-.18.7-.3,1-.16.41-.24.61c.3-.77-.12.3-.2.47a11.61,11.61,0,0,0-1.1,6.5,15.44,15.44,0,0,0,1,3.17c1.49,3.75,4.1,8.52,8.93,7.53,3-.62,4-3.55,4.21-6.21,0-.37,0-.74.06-1.11l0-.53c0-.88-.14.93,0,.19,0,.06-.17.78-.08.27.15-.24.13-.23-.08,0l.26-.29c.18-.17.36-.36.56-.52-.53.41.36-.17.46-.23l-6-3.46c-.12,12.05,12.86,20.43,23.51,22.32a4.1,4.1,0,0,0,4.21-1.43,4,4,0,0,0,.31-4.45c-.14-.26-.28-.52-.41-.79s.11.49-.07-.21a5.93,5.93,0,0,0-.24-.85c-.19-.47,0,.8,0-.13,0-.23,0-.46,0-.68.07,1-.16.05.06-.08.09-.28,0-.22-.1.17l.17-.3.19-.29c-.25.35-.22.34.11,0H79.86c9.27,8.84,24.18,8.72,35.17,3.4a27.25,27.25,0,0,0,8-5.84l-6.28-.81C121,172.53,128,176,135,177.12a29.9,29.9,0,0,0,13-.81c3.91-1.14,6.42-3.94,9.44-6.46l-6.28-.81a4.57,4.57,0,0,1,.42.71c-.15-.34-.16-.28,0,.17,0-.8,0,.52,0,.68s-.12,1.47,0,.72c-.07.52-.18,1-.27,1.56-.34,1.94.51,4.54,2.8,4.92,4,.65,7.77-1.38,11-3.49a16,16,0,0,0,4.63-4.21c.56-.77,1-1.59,1.54-2.38.11-.15,1-1.22.4-.59.13-.14,1.15-1,.48-.55l-5.88-2.39c.13.66-.06-1,0-.24,0,.27,0,.55,0,.82,0,.61.06,1.21.13,1.82a7.16,7.16,0,0,0,1.86,4.69c3.2,3.08,7.43,1,10.08-1.6,4.79-4.79,5.31-11.33,5.5-17.75l-6,3.46c-.76-.56.85,1.06.3.32.36.48.67,1,1,1.51a27.3,27.3,0,0,0,2.35,3.39c2.05,2.45,5.83.86,6.69-1.76a18.12,18.12,0,0,0,.42-7.89,37.38,37.38,0,0,0-1.81-7.88L185,147.6c3.85-1.88,7.18-4.86,7.92-9.28a4.12,4.12,0,0,0-2.79-4.92c-8.16-2.48-16-6.08-24.4-7.76-7-1.42-14.15-1.21-21.28-.78-3.67.22-7.35.52-11,1.1-2.07.34-3.41,3-2.79,4.92a4.13,4.13,0,0,0,4.92,2.8l.81-.13c.43-.07-.45.06-.43.06a2.58,2.58,0,0,0,.53-.07c.73-.09,1.46-.16,2.19-.23,1.56-.16,3.12-.28,4.69-.38,3.29-.22,6.58-.37,9.88-.4,1.34,0,2.68,0,4,0a34.24,34.24,0,0,1,5.46.62,80.27,80.27,0,0,1,11.86,3.31c4.47,1.54,8.87,3.24,13.39,4.62l-2.79-4.92a10.22,10.22,0,0,1-.27,1.22c-.05.16-.11.32-.17.48.18-.4.2-.47.07-.21a8.8,8.8,0,0,0-.59.94c.41-.55.07-.12-.19.14s-.47.43-.72.63c.71-.57-.08,0-.25.13a20.84,20.84,0,0,1-2.13,1.16,4,4,0,0,0-1.83,4.52,35.7,35.7,0,0,1,1.61,6.44c-.07-.42,0-.27,0,.06l.09.93c0,.55.06,1.09.05,1.64q0,.43,0,.87c0,.21-.14,1,0,.09a11,11,0,0,1-.36,1.48l6.69-1.76c.58.69-.1-.16-.18-.27s-.31-.49-.46-.74c-.35-.56-.68-1.14-1-1.69a14,14,0,0,0-3.57-3.78c-2.58-1.89-5.93.69-6,3.45,0,1.1-.06,2.2-.12,3.3,0,.56-.08,1.12-.13,1.68,0,.25,0,.5-.08.75-.05.46.1-.52,0,.23a23.74,23.74,0,0,1-.82,3.22c-.1.31-.18.44,0,.06-.13.28-.26.55-.41.82s-.24.43-.37.63-.55.79-.12.25c-.56.7-1.26,1.24-1.86,1.9-.28.3.54-.27-.09,0a2.94,2.94,0,0,0-.53.3c0-.31,1-.26,1.22-.23a2.78,2.78,0,0,1,1.53.89c.2.23.44,1.19.39.56,0-.17-.07-.36-.1-.53.18,1,0-.22,0-.59a22.41,22.41,0,0,0-.32-3.16c-.47-2.37-3.86-3.85-5.87-2.39a16.76,16.76,0,0,0-4.31,4.91c-.19.3-.37.6-.57.9s-.26.39-.4.58c.26-.34.25-.33-.05,0-.13.13-.78.77-.26.34-.23.19-.51.36-.76.53a32.59,32.59,0,0,1-3.78,2.23c-.17.08-1.48.64-.54.28-.29.11-.58.22-.88.31l-1.1.29c.64-.07.74-.1.32-.07s-.31,0,.4.09l2.8,4.92c.6-3.43,1-6.9-1-10a4.07,4.07,0,0,0-6.28-.81c-1.18,1-2.29,2-3.42,3.06-.6.55.41-.22-.34.27-.26.16-.51.34-.77.49s-1,.5-.72.39-.58.17-.67.19a22,22,0,0,1-4.77.9,22.76,22.76,0,0,1-2.48,0c-.46,0-.92-.08-1.38-.11s-.32,0,0,0l-.51-.08a29,29,0,0,1-4-1c-.72-.22-1.42-.48-2.12-.75s.13.07-.26-.12-.69-.31-1-.48a25,25,0,0,1-3.68-2.23c.64.46-.28-.24-.33-.28l-.79-.73c-.21-.2-.41-.41-.61-.63s-.89-1.09-.36-.39c-1.47-2-4.36-2.88-6.28-.81-.55.58-1.12,1.14-1.72,1.66-.15.13-1.21.95-.38.33-.33.25-.66.49-1,.72a30.52,30.52,0,0,1-4.15,2.29q-.63.27.06,0l-.61.24-1.22.44c-.73.24-1.47.46-2.21.65s-1.72.4-2.59.55c-.19,0-1.62.21-.58.1l-1.15.11a30.07,30.07,0,0,1-5.11,0c-.44,0-.87-.08-1.3-.13.7.09.17,0-.22,0-.85-.14-1.68-.33-2.51-.55s-1.61-.51-2.41-.8.56.28-.19-.09c-.38-.19-.75-.36-1.12-.56-.74-.39-1.41-.85-2.11-1.3-.36-.27-.34-.24.07.07l-.48-.39c-.32-.27-.62-.55-.92-.84a4.08,4.08,0,0,0-5.66,0c-3.67,3.55-3.22,8.71-.93,12.87l4.52-5.87a31.1,31.1,0,0,1-3.17-.76c-.54-.16-1.07-.34-1.59-.53-.3-.1-.59-.21-.88-.33s-1.09-.49-.21-.08a50,50,0,0,1-6.35-3.65c-.39-.26.48.41-.08-.08l-.74-.62c-.44-.39-.87-.8-1.28-1.22s-.78-.85-1.16-1.29c-.59-.68.33.52-.12-.17-.17-.26-.35-.51-.51-.77-.3-.47-.56-1-.81-1.45-.41-.78,0,.14-.08-.14s-.17-.47-.24-.71a14.7,14.7,0,0,1-.42-1.74c.13.66,0,.34,0-.14,0-.31,0-.62,0-.93a4,4,0,0,0-6-3.45A10.12,10.12,0,0,0,55,158.79a10.27,10.27,0,0,0-.32,2.28c0,.32,0,.64,0,1s0,.37,0,.56c0,.53.15-.76,0-.27-.06.24-.29.55,0,.09a3,3,0,0,1,.49-.75,3.27,3.27,0,0,1,2.68-.75c-.38-.11.64.29.56.24-.52-.29.37.28.34.31a6.92,6.92,0,0,1-.6-.61c.05,0,.58.85,0-.07a9,9,0,0,1-.46-.79c-.13-.23-.25-.47-.37-.71a2.89,2.89,0,0,1-.22-.5c0,.11.3.78.09.22-.37-1-.57-2-.92-3,0,.08,0,1.24.09.31,0-.09.11-.6,0-.14s.08-.2.11-.32c.11-.39.26-.78.4-1.16,0-.05.23-.6.07-.17-.29.72.86-2.07.47-1.12a8.3,8.3,0,0,0,.64-5.48,6.86,6.86,0,0,0-4.58-4.36,27.11,27.11,0,0,0-3.35-.77c-.27-.06-.54-.14-.8-.21-.06,0-.42-.15-.43-.14s.81.34.47.17c-.73-.36.53.52.09.07a3.87,3.87,0,0,1,.51.78c.13.36.15.38.05.07l.06.59a1.72,1.72,0,0,0,0-.39c.06-.53-.09.88,0,.35a1.33,1.33,0,0,1,.1-.34s-.39.67-.14.39a2.09,2.09,0,0,0,.27-.43c.19-.36-.19.27-.22.29.29-.23.52-.55.79-.79l.45-.37s-.59.36-.21.17a8.44,8.44,0,0,0,.88-.59c.64-.4,1.3-.77,2-1.12,7-3.68,13.7-6.89,21.55-8.41a48.62,48.62,0,0,1,7-.9c1.27-.08,2.54-.13,3.81-.11.6,0,1.2,0,1.79.07l.66.06c1.37.13-.34-.06.43.05,4.56.71,8.87,2.49,13.31,3.69a4,4,0,1,0,2.13-7.71Z"/><path class="cls-1" d="M54.73,100.36a41,41,0,0,1,2.31,8c.14.7.24,1.41.36,2.12-.15-.9,0,.29,0,.38,0,.37.08.73.11,1.1.15,1.53.22,3.07.22,4.61s-.07,3.08-.22,4.61c0,.18-.15,1.26,0,.38,0,.36-.1.71-.16,1.07q-.18,1-.42,2.1a36.19,36.19,0,0,1-1.21,4c-.32.89.25-.48-.12.29-.14.29-.28.59-.43.89a20,20,0,0,1-1.14,2,4,4,0,0,0,1.44,5.48,4.09,4.09,0,0,0,5.47-1.44c3.58-5.53,4.78-12.43,4.83-18.92a48.9,48.9,0,0,0-3.33-18.7c-.79-1.93-2.69-3.52-4.92-2.8-1.86.6-3.64,2.85-2.79,4.92Z"/><path class="cls-1" d="M76.21,175.53a299.55,299.55,0,0,0-3.7,43.11c0,7.16.46,14.28,1.16,21.4.37,3.77.62,7.63,1.35,11.35.4,2,1,4.26,2.47,5.78a5.08,5.08,0,0,0,7.62-.4H79.45c3.38,3.56,8,2.48,12.33,2.83l.68.07c.62.06-.65-.1,0,0l1.27.18a35.38,35.38,0,0,0,3.85.41,11.69,11.69,0,0,0,6.68-1.67c3.81-2.55,6-6.74,7.54-10.93,1.36-3.72,2.44-7.58,3.62-11.36,1.53-4.89,3-10.13,2.58-15.3-.16-2.09-1.73-4.11-4-4-2,.09-4.17,1.76-4,4a20.73,20.73,0,0,1,0,2.73c0,.41-.06.81-.09,1.21,0,.1-.09.78,0,.17,0,.27-.08.55-.13.82a54.45,54.45,0,0,1-1.36,5.81c-1,3.5-2.19,7-3.25,10.45-.26.82-.51,1.65-.79,2.47l-.38,1.05c-.06.16-.58,1.43-.29.76a22.27,22.27,0,0,1-1.15,2.29c-.18.31-.37.62-.57.92l-.42.59c.24-.32.16-.19,0,0s-.56.63-.87.93c-.15.15-1,.8-.45.44-.22.14-1,.49-.32.25a6.85,6.85,0,0,1-1.38.36c.78-.12-.32,0-.57,0-.44,0-.87,0-1.3,0s-.75-.08-1.12-.12c.74.08.1,0,0,0l-.72-.11a39.33,39.33,0,0,0-6.5-.39H86.79c-.22,0-1.26-.13-.84-.05.62.13-1.13-.4-.56-.15s0,0-.1-.07c-.82-.58.54.56-.18-.21-1.39-1.46-4.31-1.64-5.66,0,0,.06-.36.35-.36.41s.87-.59.46-.37a3.2,3.2,0,0,1,3.13,0c1.06.63.78.66.55.42-.4-.4.48,1,.3.4a1.61,1.61,0,0,0-.15-.26c-.4-.56.13.06.12.34a9.73,9.73,0,0,0-.58-1.94c-.17-.73-.3-1.47-.42-2.22,0-.35-.11-1.62,0-.25,0-.33-.08-.67-.12-1-.06-.55-.12-1.11-.17-1.67-.22-2.38-.49-4.76-.71-7.14a221.15,221.15,0,0,1,0-39.11c.62-7.18,1.49-14.19,2.5-21.08.31-2.06-.51-4.4-2.79-4.92-1.9-.44-4.59.58-4.92,2.79Z"/><path class="cls-1" d="M111.45,223.63a36.9,36.9,0,0,0,7.38,1.13,17.49,17.49,0,0,0,7.19-.88,4.39,4.39,0,0,0,2.39-1.84,4.09,4.09,0,0,0,.4-3.08,4,4,0,0,0-1.84-2.39,3.84,3.84,0,0,0-3.08-.41,10.66,10.66,0,0,1-2.44.62l1.06-.14a23.51,23.51,0,0,1-6.1-.1l1.06.14a34.26,34.26,0,0,1-3.89-.76,4,4,0,0,0-2.13,7.71Z"/><path class="cls-1" d="M73.77,188.27c-4.27,10-8.46,20-11.1,30.57A93.55,93.55,0,0,0,60,235.14a60.57,60.57,0,0,0,0,8c.17,2.65.61,5.56,2.2,7.77a13.78,13.78,0,0,0,6.73,4.81,21.46,21.46,0,0,0,3.25.91,10.66,10.66,0,0,0,2.51.27,6.48,6.48,0,0,0,.77-.06c.79-.12-.41-.23.33,0a4,4,0,1,0,2.13-7.71,9.75,9.75,0,0,0-3.61-.22s.6.11.16,0c-.22,0-.44-.09-.65-.14-.49-.12-1-.24-1.47-.38s-.87-.28-1.3-.43c-.17-.06-.67-.32,0,0l-.45-.22c-.4-.2-.76-.49-1.16-.67s.09.06.16.12c-.25-.22-.48-.44-.71-.68s-.24-.52,0,0c-.07-.15-.17-.3-.25-.44-.31-.5.17.54-.07-.1-.1-.27-.18-.54-.26-.81a12.19,12.19,0,0,1-.3-1.46c.08.57,0-.15,0-.22,0-.43-.06-.85-.08-1.28a67.62,67.62,0,0,1,.1-7.12,78.51,78.51,0,0,1,2.23-13.73,138,138,0,0,1,4.41-14.2c1.87-5.12,4-10.18,6-14.91.82-1.91.63-4.37-1.44-5.47-1.72-.91-4.59-.62-5.47,1.44Z"/><path class="cls-1" d="M117.84,223a94.84,94.84,0,0,0,4.85,17c.63,1.57,1.3,3.12,2,4.65.27.57.56,1.13.83,1.7.08.17.15.33.22.5.37.79-.26-.68,0,.09a49.48,49.48,0,0,0,2.84,6.45,12.74,12.74,0,0,0,5,5.15,10,10,0,0,0,8.5.19l1.44-.61c-.7.29-.13.06,0,0,.55-.2,1.09-.38,1.65-.54.93-.27-.42-.1.14,0,.16,0,.94,0,.26,0a18.26,18.26,0,0,1,2.33.52c2.75.69,5.78,1.37,8.56.45,4.28-1.42,6.46-5.59,7.55-9.69a48.1,48.1,0,0,0,1.15-6.41c.1-.78.2-1.55.29-2.32,0-.4.09-.79.14-1.18l.06-.54c0-.35-.17,1.11,0,.16a160,160,0,0,0,1.67-38.3,105.92,105.92,0,0,0-2.65-17.8c-.47-1.81-.94-3.62-1.39-5.43-.2-.81-.4-1.62-.58-2.44-.06-.31-.1-.63-.18-.94a2.91,2.91,0,0,1,0,1.52l-1,1.77h0a4,4,0,0,0,0-5.66,4.1,4.1,0,0,0-5.65,0c-1.67,1.4-1.21,3.72-.81,5.54.34,1.56.74,3.11,1.14,4.66a106.62,106.62,0,0,1,2.29,10.79,144.62,144.62,0,0,1,.56,36.16c-.47,4.41-1.15,8.61-1.73,13.22,0,.09-.1,1,0,.27s0,.19,0,.28c-.06.41-.12.82-.19,1.24-.16.92-.34,1.84-.56,2.75a23.61,23.61,0,0,1-.75,2.48c0,.06-.18.49-.19.49s.38-.8.09-.25-.47.86-.71,1.29a1.67,1.67,0,0,1-.27.39c.32-.19.53-.59.19-.28-.13.13-.27.27-.39.41-.52.58.22-.17.22-.14s-1.27.63-.47.33,0,0-.14,0l-.22.06c-.43.08-.3.07.37,0-.15.17-1.67,0-1.49,0,.49,0-.88-.17-.76-.14l-.84-.19a33.76,33.76,0,0,0-4.88-1,9.78,9.78,0,0,0-3.83.46c-.55.18-1.09.4-1.62.63l-.64.27c-.32.13-.64.26-1,.37a7.76,7.76,0,0,1-.82.25c-.28.08-.91,0-.1,0-.24,0-.46,0-.69,0,.77.06.12,0-.08-.08-.54-.26.83.51,0,0a4.76,4.76,0,0,0-.49-.28c-.73-.38.3.42,0,0a5,5,0,0,0-.61-.6c-.17-.16-.58-.72,0,0L136,250c-.27-.43-.52-.88-.76-1.33s-.47-1-.73-1.56.35.89,0,0c-.11-.29-.23-.57-.35-.86-1-2.53-2.2-4.95-3.3-7.45-.27-.61-.36-.84-.71-1.71-.26-.68-.52-1.37-.76-2.06q-.81-2.26-1.47-4.58c-.91-3.15-1.64-6.35-2.29-9.56a4,4,0,0,0-4.92-2.8,4.09,4.09,0,0,0-2.79,4.92Z"/><path class="cls-1" d="M160.52,194.54c.44.86.85,1.73,1.23,2.62-.35-.82.05.13.18.46.22.58.44,1.18.65,1.78.7,2,1.3,4.06,1.82,6.13q.87,3.51,1.5,7.06c.2,1.09.38,2.19.55,3.29.1.62.18,1.23.27,1.85,0,.14.11.79,0,.05.05.37.1.74.14,1.11a125.39,125.39,0,0,1,.94,26.26c0,.22-.05.44-.07.66.1-1,0,0-.06.26a10.09,10.09,0,0,1-.53,1.88c.41-1-.83.92-.1.14,0,0-.72.77-.3.36.25-.17.2-.15-.13.08-.48.24-.5.29-.09.13,0,.13-1.28.09.22,0-.83,0,.85.27,0,0-.58-.17-1.19-.3-1.78-.41a50.26,50.26,0,0,0-5.75-.23,4,4,0,0,0-4,4,4.09,4.09,0,0,0,4,4,21.3,21.3,0,0,0,2.26,0l1.32,0c1.33,0-.22-.09.43.05a13.64,13.64,0,0,0,3.76.57c3.66-.28,6.39-3.06,7.72-6.29a22.35,22.35,0,0,0,1.2-7.49q.15-3.15.12-6.3a146.28,146.28,0,0,0-3.41-30.94,62.78,62.78,0,0,0-5.23-15.15,4,4,0,0,0-5.47-1.44,4.09,4.09,0,0,0-1.43,5.48Z"/><path class="cls-1" d="M131,248.35c-8.2-.19-16.38-1.35-24.59-1.06a4,4,0,1,0,0,8c8.21-.29,16.39.87,24.59,1.06a4,4,0,0,0,0-8Z"/></svg>