<svg id="Capa_1" data-name="Capa 1" xmlns="http://www.w3.org/2000/svg" viewBox="0 0 303.07 341.58"><defs><style>.cls-1{fill:#fff;}</style></defs><title>icono pollo_blancov</title><path class="cls-1" d="M138.37,119.54a15.8,15.8,0,0,1-4-2.46,10.45,10.45,0,0,1-3.22-3.8,9.06,9.06,0,0,1,1.15-9.31c1.88-2.56,4.88-5,8.27-4,3.62,1.14,5.54,5.35,5.79,8.87a11.05,11.05,0,0,1-1.05,5.75,14.9,14.9,0,0,1-2.18,3,6.72,6.72,0,0,1-2.43,2A3.31,3.31,0,0,1,138.37,119.54Z"/><path class="cls-1" d="M161.4,119.26a4.81,4.81,0,0,0,1.65-.44,11.3,11.3,0,0,0,4.34-4.23,9.44,9.44,0,0,0,0-9.12c-2.68-5.57-8.51-4.65-11.76-1.8-2.82,2.48-5.34,7.88-3.64,12.25.7,1.82,3.35,2.39,5,2.76A14.29,14.29,0,0,0,161.4,119.26Z"/><path class="cls-1" d="M150.74,77c-7.33-.26-14.44,3.37-20,7.82-5.8,4.6-10.07,11-13.28,17.58A119.33,119.33,0,0,0,110,123.71c-2.15,8-4.3,16-7.09,23.75-1.39,3.88-2.92,7.71-4.66,11.44-1.6,3.42-3.64,6.77-4.4,10.51a21.85,21.85,0,0,0-.34,5.36,13.62,13.62,0,0,0,.57,3.81,5.83,5.83,0,0,0,2.1,3,6.22,6.22,0,0,0,3.69,1c3.74,0,7.49-1.73,10.48-3.88a26.24,26.24,0,0,1,4.16-2.86,4.69,4.69,0,0,1,.84-.26c.26,0-.19,0,0,0h.2c.1,0,.58.05.25,0a5.7,5.7,0,0,1,.81.22l-.05,0,.18.09c.16.08.31.17.47.27a6.24,6.24,0,0,1,1.3,1.12c.24.24.46.5.67.75s.32.39.55.7c.83,1.13,1.56,2.31,2.3,3.49s1.43,2.09,2.13,3.15c.81,1.22,1.62,2.44,2.52,3.59,1.65,2.1,4,4.08,6.83,3.8s5-2.12,6.75-4.18,3.28-4.22,5.12-6.14a18.79,18.79,0,0,1,1.37-1.31l.36-.29.12-.09c.23-.17.48-.33.73-.48s.46-.25.7-.36l-.09,0,.22-.09.38-.12.38-.08c.28-.08-.24,0,.05,0h.78c-.38,0,0,0,.11,0a1.89,1.89,0,0,1,.34.09l.41.14c-.29-.12.12.07.2.11.23.13.45.26.67.41l.19.13c-.11-.08.21.17.28.23a12.35,12.35,0,0,1,1.19,1.21l.25.3.2.26.16.21.32.43a59.29,59.29,0,0,0,4.39,6.16,9.25,9.25,0,0,0,6.81,3.21,8.76,8.76,0,0,0,6-2.45,24.63,24.63,0,0,0,3.79-4.89c.55-.84,1.1-1.67,1.69-2.47.09-.12.18-.24,0,0l.24-.29c.15-.19.31-.38.48-.56a9.07,9.07,0,0,1,1-1l.27-.23c.07-.05-.23.16,0,0s.38-.26.58-.38l.57-.3.18-.08-.12,0,.33-.12.64-.17.36-.06c-.34.06,0,0,.14,0a6.12,6.12,0,0,1,.74,0l.36,0h.18c.39,0-.2,0,0,0,3.2.54,6,2.43,8.75,4,3,1.73,6.5,3.56,10.09,3.33a7.9,7.9,0,0,0,7-5.16c1.45-3.73.36-8.07-.67-11.76a73.22,73.22,0,0,0-4.16-11c-3.23-7-7.22-13.61-10.5-20.57-3.52-7.47-5.63-15.4-7.85-23.32s-4.69-15.76-9-22.72c-3.88-6.2-9.21-11.84-16.28-14.23a26.55,26.55,0,0,0-10-1.23,1.54,1.54,0,0,0-1.5,1.5,1.52,1.52,0,0,0,1.5,1.5,23.74,23.74,0,0,1,9.61,1.27,23.42,23.42,0,0,1,8,5.13c5.42,5.19,9,12,11.53,19,2.8,7.79,4.55,15.9,7.13,23.76,2.43,7.41,5.95,14.29,9.61,21.16,3.52,6.6,7,13.27,9.06,20.51a31.14,31.14,0,0,1,1.18,5.71,11.83,11.83,0,0,1-.05,2.79,9.77,9.77,0,0,1-.25,1.07c-.06.17-.12.35-.19.53,0,0-.09.23,0,.11s-.07.15-.09.17a7.07,7.07,0,0,1-.49.84c-.14.22.05,0-.12.17a5.11,5.11,0,0,1-.39.42l-.31.29c-.2.18.07,0-.15.12a6.2,6.2,0,0,1-.86.5l-.09,0-.16.06-.42.13-.44.11-.23,0c-.47.08.14,0-.14,0a8.62,8.62,0,0,1-1.94-.07c-3.44-.61-6.37-2.59-9.35-4.29-2.61-1.49-5.55-3-8.64-3-4.49,0-7.12,3.66-9.35,7-.55.84-1.09,1.68-1.69,2.48l-.19.26c-.17.24.15-.18,0,0l-.48.58a11.92,11.92,0,0,1-1,1l-.46.4c-.16.14.22-.16.06,0l-.13.09-.29.2c-.18.12-.37.23-.57.34l-.27.13c-.33.17.08,0-.11.05a10.32,10.32,0,0,1-1.32.36c-.26.05.27,0-.1,0l-.34,0c-.32,0-.64,0-1,0l-.21,0h.06l-.45-.09c-.3-.07-.58-.17-.87-.26s.15.08-.1,0l-.34-.16a8.23,8.23,0,0,1-.74-.46,3.3,3.3,0,0,1-.3-.22c.25.2-.08-.07-.14-.12-.22-.19-.44-.39-.65-.6-.39-.41-.76-.84-1.11-1.28-.1-.13,0,0,0,0l-.16-.21-.24-.33-.54-.77-1-1.48c-.71-1.08-1.43-2.15-2.23-3.16-1.49-1.88-3.54-3.58-6-3.74s-4.7,1.43-6.4,3.07a66.89,66.89,0,0,0-5.07,6,23.79,23.79,0,0,1-2.35,2.57l-.51.43c.22-.18.07-.06-.07,0s-.35.23-.53.33a5.38,5.38,0,0,1-1.82.72c-.17,0,0,0,.05,0l-.2,0H133a3.55,3.55,0,0,1-.46,0c.3,0-.06,0-.17,0l-.42-.13c-.27-.08.14.08-.11,0A6.74,6.74,0,0,1,131,189l-.33-.23c.2.15-.06-.06-.12-.11a9.08,9.08,0,0,1-.71-.68c-.22-.23-.43-.46-.63-.7s-.37-.45-.51-.65c-1.52-2-3-4.22-4.33-6.38-1.51-2.4-3.06-5-5.44-6.62a5.77,5.77,0,0,0-4-1.06,10.06,10.06,0,0,0-4.55,2.28c-2.76,2.09-5.9,4.12-9.27,4.59a9.65,9.65,0,0,1-2.08.06h.07l-.19,0-.36-.08-.38-.13c.27.09,0,0-.1-.05l-.31-.19c-.23-.12.15.17,0,0s-.15-.13-.22-.21-.27-.36-.09-.09a4.34,4.34,0,0,1-.33-.54s-.19-.41-.11-.22-.06-.19-.08-.25a6.57,6.57,0,0,1-.21-.76c0-.12,0-.25-.07-.37s0-.17-.05-.26,0-.31,0-.13,0-.22,0-.28,0-.33,0-.5c0-.32,0-.64,0-1a18,18,0,0,1,.38-4.86c.87-3.58,2.87-6.79,4.39-10.11a170.8,170.8,0,0,0,8.37-23.14c2.17-7.41,3.88-14.95,6.32-22.28a71.31,71.31,0,0,1,9.56-19.43,37.32,37.32,0,0,1,15.84-12.8A22.75,22.75,0,0,1,150.74,80c1.94.07,1.93-2.93,0-3Z"/><path class="cls-1" d="M130.42,86.79c-5-4.05-8.26-9.89-10.09-16a37.15,37.15,0,0,1-1.6-9.19,75.17,75.17,0,0,1,.1-9.61c.52-5.92,2.32-12.64,7.24-16.45a10.9,10.9,0,0,1,7.5-2.33,9.46,9.46,0,0,1,1.83.31,10.91,10.91,0,0,1,1.79.64,11.31,11.31,0,0,1,3.34,2.42,22.73,22.73,0,0,1,3,4.17,25.76,25.76,0,0,1,2.27,5,19.14,19.14,0,0,1,.95,5.51c.06,2,0,4.06.13,6.08a19.42,19.42,0,0,0,.49,3.13,1.53,1.53,0,0,0,2.21.9,3.21,3.21,0,0,0,1.48-2.44,12.8,12.8,0,0,1,1.1-2.87A20.58,20.58,0,0,1,156,50.85a55.23,55.23,0,0,1,5-4.42,15,15,0,0,1,5.23-2.91,8.34,8.34,0,0,1,5.38.55c.24.09-.16-.08.07,0l.27.12.47.24a11.22,11.22,0,0,1,1.05.63l.35.26.28.23a10.45,10.45,0,0,1,.82.81l.35.4.12.15c-.17-.21,0,0,0,0,.21.31.42.61.61.94s.31.58.45.87c0,.08.07.16.11.25-.11-.26,0-.05,0,0s.14.38.2.56a13.84,13.84,0,0,1,.51,2.09,1.26,1.26,0,0,1,0,.28c0,.18,0,.36.05.55,0,.36,0,.73,0,1.1s0,.85,0,1.27c0,.21,0,.42,0,.63l0,.29s-.05.4,0,.22,0,.12,0,.16,0,.23-.05.35l-.12.64c-.09.42-.18.85-.29,1.26a23.05,23.05,0,0,1-.82,2.47l-.1.27c-.06.15.06-.14-.05.11s-.17.39-.27.58c-.19.41-.39.81-.61,1.21a1.51,1.51,0,0,0,2.35,1.82,10.93,10.93,0,0,1,2.46-1.62,11.06,11.06,0,0,1,2.76-.87,7.73,7.73,0,0,1,1.28-.12c.23,0,.46,0,.68,0l.38,0,.2,0a7.93,7.93,0,0,1,1.46.33,4.64,4.64,0,0,1,1.16.49A6.49,6.49,0,0,1,189.83,65a12.65,12.65,0,0,1,.8,1.32,7.05,7.05,0,0,1,.61,1.72,6,6,0,0,1-.11,2.9,9.36,9.36,0,0,1-1.41,2.85,31.28,31.28,0,0,1-5.57,5.64A1.51,1.51,0,0,0,185.21,82a9.64,9.64,0,0,1,1.52,0c.43,0-.29-.07.14,0l.39.08a6.39,6.39,0,0,1,.78.22c.09,0,.67.26.4.14.25.11.5.23.73.36s.4.23.59.36a4,4,0,0,1,.34.23l.23.16,0,0a12.79,12.79,0,0,1,1.08,1c.2.21.39.42.57.64,0,0,.27.34.15.18l.22.31a12.32,12.32,0,0,1,.82,1.34,7.33,7.33,0,0,1,.61,1.34,13.6,13.6,0,0,1,.41,1.42c.06.25.1.5.15.75.07.45,0-.29,0,.16,0,.13,0,.27,0,.41a12.35,12.35,0,0,1,0,1.49c0,.44.07-.29,0,.14l-.06.33a8.67,8.67,0,0,1-.22.84c0,.08-.24.66-.13.39a4.84,4.84,0,0,1-.36.72c-.11.2-.24.39-.36.58-.26.36.18-.22-.11.13-.11.14-.24.28-.36.42a11.59,11.59,0,0,1-3.35,2.59,9.36,9.36,0,0,1-8.32,0,1.54,1.54,0,0,0-2.06.54,1.52,1.52,0,0,0,.54,2A12.64,12.64,0,0,0,196.42,96c2.22-4.72.3-10.57-3.37-14a10.19,10.19,0,0,0-7.84-3l1.06,2.56c4-3.44,8.84-7.85,8-13.7a10.19,10.19,0,0,0-11.4-8.53,13.92,13.92,0,0,0-7.7,3.42l2.36,1.82c3.05-5.56,4.43-13.49.53-19a12.71,12.71,0,0,0-9.59-5.28c-4.85-.22-8.91,3.33-12.32,6.33a30.93,30.93,0,0,0-5.46,6,20.28,20.28,0,0,0-1.91,3.74,11.72,11.72,0,0,0-.58,1.73l-.18.72c0,.16-.11.1,0,0s.36-.23.08-.11l2.2.9c-1-4.14-.06-8.47-1-12.63a28.46,28.46,0,0,0-5.13-10.72,14.65,14.65,0,0,0-8-5.67,13.76,13.76,0,0,0-9.36,1c-6.28,3-9.4,10.19-10.47,16.71a58.37,58.37,0,0,0-.65,10.4,49.8,49.8,0,0,0,1.06,10.11,37.69,37.69,0,0,0,9.77,18.44c.58.57,1.2,1.12,1.83,1.64a1.55,1.55,0,0,0,2.12,0,1.51,1.51,0,0,0,0-2.13Z"/><path class="cls-1" d="M139.6,125.75c2.54,5.43,5.35,10.73,7.88,16.16a1.51,1.51,0,0,0,2.36.3c1.54-1.78,2.37-4.24,3.24-6.39s1.55-4.12,2.37-6.15,1.51-4,2.22-6A1.49,1.49,0,0,0,157,122a16.66,16.66,0,0,0-8.67-1.17,15.48,15.48,0,0,0-8.47,3.11,1.5,1.5,0,1,0,2.12,2.12c.26-.21-.12.08.13-.11l.36-.24c.25-.16.5-.31.76-.45a8.9,8.9,0,0,1,1.53-.65,17.27,17.27,0,0,1,3.75-.8,19.58,19.58,0,0,1,4,0,1.24,1.24,0,0,1,.23,0l.46.07c.28,0,.55.11.82.18a7.93,7.93,0,0,1,.83.25l.39.14c.1,0,.09,0,0,0l.24.11-.69-1.69c-.94,2.64-2,5.26-2.95,7.88-.43,1.13-.85,2.26-1.3,3.38-.51,1.3-.85,2.14-1.4,3.34-.26.57-.53,1.12-.83,1.67-.13.23-.26.45-.4.67l-.18.26c-.12.2.23-.27,0,0l2.35.31c-2.52-5.44-5.34-10.73-7.88-16.16a1.5,1.5,0,0,0-2.05-.54,1.54,1.54,0,0,0-.54,2Z"/><path class="cls-1" d="M142.65,132.66c-2.83,3.09-4.22,7.33-4.94,11.39a17.49,17.49,0,0,0,0,6.95,12.36,12.36,0,0,0,3.39,6c3.14,3.07,8.36,5.8,12.51,3,3.79-2.56,4.58-7.35,4.05-11.6-.62-5.12-2.88-10-2.93-15.2a1.5,1.5,0,0,0-3,0c0,4.3,1.5,8.37,2.44,12.52.76,3.41,1.3,7.61-.87,10.5a4.49,4.49,0,0,1-3.87,2,9.5,9.5,0,0,1-5.08-2.3,10,10,0,0,1-3.36-4.32,12.58,12.58,0,0,1-.56-5.87,27.25,27.25,0,0,1,1.42-5.76,14.83,14.83,0,0,1,2.87-5.1,1.53,1.53,0,0,0,0-2.12,1.51,1.51,0,0,0-2.12,0Z"/><path class="cls-1" d="M94.64,180c-5.36,12-10.47,24.25-13.82,37-3.29,12.5-4.75,25.52-2.85,38.37a68.64,68.64,0,0,0,5.34,18.52,50.78,50.78,0,0,0,8.61,12.89,60.47,60.47,0,0,0,26,16.58,63.22,63.22,0,0,0,15.17,2.8c5.25.36,10.51.58,15.77.58a134.86,134.86,0,0,0,32.66-3.5c10.6-2.64,20.59-7.23,28.84-14.47a65.43,65.43,0,0,0,11.49-13.2A46.68,46.68,0,0,0,228.73,260a60.31,60.31,0,0,0,.69-17.59,152.09,152.09,0,0,0-2.4-17.26,125.69,125.69,0,0,0-5-17.86,81.27,81.27,0,0,0-3.55-8.59c-1.36-2.78-2.93-5.45-4.44-8.16a66.4,66.4,0,0,1-4-8,1.55,1.55,0,0,0-1.85-1,1.52,1.52,0,0,0-1,1.85c2.27,5.76,5.74,10.91,8.5,16.43a93.82,93.82,0,0,1,6.18,16.81,131.46,131.46,0,0,1,3.54,17.13,108.2,108.2,0,0,1,1.3,17,39.36,39.36,0,0,1-3.27,15.69,56.75,56.75,0,0,1-9.21,14.2,60.25,60.25,0,0,1-12.38,10.88,63.28,63.28,0,0,1-13.67,6.64c-10.05,3.52-20.72,5-31.33,5.45-5.3.24-10.6.21-15.9,0a102.77,102.77,0,0,1-14.77-1.22,58,58,0,0,1-26.68-12.46,51.91,51.91,0,0,1-10-11,52.83,52.83,0,0,1-6.68-15.06c-3.45-12.17-3.41-25-1.09-37.34,2.36-12.55,6.77-24.63,11.74-36.35q1.83-4.32,3.74-8.59a1.54,1.54,0,0,0-.53-2,1.52,1.52,0,0,0-2.06.53Z"/><path class="cls-1" d="M131.76,233.16a33.15,33.15,0,0,0-.48,6.89,19.65,19.65,0,0,0,1.28,7c.85,2,2.36,3.71,4.67,3.91,2.73.23,5.51-1.84,7.3-3.67a23.6,23.6,0,0,0,3.78-5.25,22.17,22.17,0,0,0,2.32-5.92,1.5,1.5,0,0,0-2.89-.8,21.28,21.28,0,0,1-4.34,8.74,13.3,13.3,0,0,1-3.18,2.89c-.25.16-.51.31-.77.45l-.39.2c-.32.16.09,0-.13.06s-.48.17-.72.23l-.3.06c-.22.07.31,0-.06,0a5.61,5.61,0,0,1-.58,0c-.32,0,.26.1,0,0a3.43,3.43,0,0,1-.54-.16c.19,0,.27.14,0,0s-.53-.35-.35-.21l-.1-.09c-.06-.06-.12-.11-.17-.17l-.2-.22c-.21-.24.12.2,0,0a12.43,12.43,0,0,1-.64-1.12c-.08-.17-.09-.23,0,0l-.12-.33c-.09-.23-.16-.46-.23-.69-.15-.5-.26-1-.36-1.51-.05-.25-.09-.49-.13-.74,0-.06,0-.12,0-.17,0-.22,0,.27,0,0s0-.27,0-.41c-.07-.56-.11-1.12-.14-1.68q-.07-1.81,0-3.63.06-.85.15-1.71c0-.13,0-.27.05-.41s-.05.32,0-.09q0-.37.12-.75a1.55,1.55,0,0,0-1-1.84,1.51,1.51,0,0,0-1.85,1Z"/><path class="cls-1" d="M161.44,254.58c3.38,3.45,8.2,6.88,13.28,6.55,6.09-.39,9.53-6.34,10.39-11.83a16.18,16.18,0,0,0-2.24-11.62,1.53,1.53,0,0,0-2.05-.54,1.51,1.51,0,0,0-.54,2.05,13.06,13.06,0,0,1,2,8.61,16.14,16.14,0,0,1-1.07,4.38,15,15,0,0,1-.81,1.73c-.14.25-.28.49-.43.72s-.17.27-.26.41-.35.49-.22.32a7.08,7.08,0,0,1-2.15,1.95c-.22.13-.45.23-.67.35s.28-.08-.1,0l-.23.08c-.23.08-.47.15-.71.21l-.35.08-.24,0c.17,0,.21,0,.09,0a8.4,8.4,0,0,1-1.42.05l-.62-.05c-.42,0,.31.06-.11,0l-.51-.09a13.85,13.85,0,0,1-1.4-.39l-.77-.29c-.41-.16.15.07-.09,0l-.45-.21a19.68,19.68,0,0,1-3.26-2c-.42-.31-.85-.65-1.37-1.11s-1.08-1-1.59-1.51c-1.36-1.38-3.48.74-2.12,2.12Z"/><path class="cls-1" d="M103.81,234.84c1.6,5.15,5,13.27,11.88,11.14a7.1,7.1,0,0,0,4.77-4.93,1.5,1.5,0,0,0-2.9-.79,4,4,0,0,1-2.66,2.82,5.13,5.13,0,0,1-.94.22c.28,0-.13,0-.22,0h-.46l-.26,0s.26.05.09,0l-.43-.1-.36-.11s-.22-.08,0,0-.13-.06-.16-.08a4.92,4.92,0,0,1-.7-.41c-.07,0-.39-.3-.16-.1l-.34-.3c-.21-.19-.41-.4-.6-.61l-.3-.36c-.11-.13,0,0,0,0l-.2-.28a18.12,18.12,0,0,1-1.87-3.4s-.1-.22,0-.08,0-.12,0-.14l-.21-.52c-.12-.31-.23-.62-.35-.94-.21-.61-.41-1.23-.61-1.85-.57-1.83-3.47-1-2.89.8Z"/><path class="cls-1" d="M159.87,212.13c2.15,3.33,5.25,7.48,9.6,7.71,4.75.25,7.67-4.92,9.31-8.62,1.4-3.18,2.29-6.53,1.58-10a1.5,1.5,0,1,0-2.89.8,12.57,12.57,0,0,1-1.08,7.21A19.69,19.69,0,0,1,173,215a9.24,9.24,0,0,1-.9.87c-.22.19-.09.07,0,0l-.23.16a4.15,4.15,0,0,1-.57.35c-.08,0-.51.24-.21.12l-.45.16-.46.11c-.26.07,0,0,.05,0l-.35,0h-.46l-.23,0c.06,0,.32.07,0,0s-.66-.16-1-.28.31.16-.05,0l-.23-.12-.46-.25a4.66,4.66,0,0,1-.47-.3l-.23-.16-.1-.07a19.82,19.82,0,0,1-4.25-5,1.5,1.5,0,1,0-2.59,1.52Z"/><path class="cls-1" d="M120.38,215.68a11,11,0,0,0,4.59,5.17,6.82,6.82,0,0,0,5.49.23c3.87-1.48,6.7-5.16,8.58-8.72a21,21,0,0,0,2.27-6.36,1.55,1.55,0,0,0-1.05-1.85,1.52,1.52,0,0,0-1.84,1,15.8,15.8,0,0,1-.6,2.44c-.13.39-.27.78-.42,1.16l-.15.39c0-.06.1-.24,0,0s-.21.48-.33.72a22.5,22.5,0,0,1-1.37,2.5,20.35,20.35,0,0,1-1.55,2.19,17.42,17.42,0,0,1-1.88,2l-.46.39s-.37.29-.1.09l-.21.15a10.53,10.53,0,0,1-1.06.67l-.53.27c-.25.12,0,0,0,0l-.32.13a10.25,10.25,0,0,1-1.09.28c.41-.08-.09,0-.2,0h-.49l-.33,0c.06,0,.33.08.08,0l-.6-.15a2.67,2.67,0,0,0-.26-.09c-.34-.11.24.15-.07,0s-.39-.2-.58-.32l-.26-.17c-.34-.23.2.19-.11-.09s-.38-.33-.56-.52a7,7,0,0,1-1-1.15,16.09,16.09,0,0,1-1.06-1.85,1.5,1.5,0,1,0-2.59,1.52Z"/><path class="cls-1" d="M123,265.82c1.68,2.4,3.88,5.48,7,6.12,2.49.52,4.76-.69,6.76-2.05,1.45-1,2.85-2.08,4.3-3.09a1.54,1.54,0,0,0,.54-2.05,1.52,1.52,0,0,0-2.06-.54,50.48,50.48,0,0,1-6.47,4.4l-.32.15c-.08,0,.22-.08-.06,0s-.44.16-.67.22l-.35.07c-.31.07.08,0,0,0s-.43,0-.65,0-.24,0,0,0l-.3-.06-.36-.1c-.13,0-.38-.15-.11,0-.21-.1-.42-.2-.63-.32l-.32-.21-.28-.2-.12-.1-.23-.19-.4-.37c-.28-.28-.55-.57-.82-.87a27.51,27.51,0,0,1-1.81-2.34,1.54,1.54,0,0,0-2-.54,1.52,1.52,0,0,0-.54,2.06Z"/><path class="cls-1" d="M187.92,226.86c6.3,3.18,13.6-3.37,13.58-9.81a7.08,7.08,0,0,0-2-5c-1.35-1.39-3.47.74-2.12,2.12l.3.34c.15.16-.13-.19,0,0l.11.15c.09.14.17.28.25.42s.23.49.11.19a5.57,5.57,0,0,1,.25.79c0,.14.06.27.08.41s0-.26,0,0l0,.3a8.1,8.1,0,0,1,0,.85,1.94,1.94,0,0,1,0,.24s0-.27,0-.09-.06.37-.1.55a8.47,8.47,0,0,1-.25.86l-.15.42c-.07.16,0,0,0-.06l-.13.3a11.35,11.35,0,0,1-1,1.71c-.2.28,0,0-.13.18s-.2.24-.31.35a9,9,0,0,1-.74.77l-.35.31-.21.17,0,0-.28.2-.44.28c-.27.16-.56.31-.85.45s.05,0,.07,0l-.24.09-.48.16-.54.14-.19,0c-.38.09.2,0,0,0a6.14,6.14,0,0,1-1,0h-.19c-.18,0,.26,0,0,0l-.5-.1c-.19,0-.37-.12-.55-.18s0,0,.05,0l-.37-.18a1.54,1.54,0,0,0-2.05.54,1.51,1.51,0,0,0,.54,2.05Z"/><path class="cls-1" d="M209.94,183.73a65.77,65.77,0,0,1,13.55-13.93,62,62,0,0,1,8.23-5.49,52.28,52.28,0,0,1,7.88-3.42c2.59-.93,5.13-1.95,7.73-2.83,1.44-.49,2.9-.94,4.38-1.31.71-.17,1.43-.34,2.15-.47s1.27-.22,1.91-.29a18.61,18.61,0,0,1,4,0,10,10,0,0,1,3.28,1c1,.54,2.32,1.42,2.22,2.75a2.4,2.4,0,0,1-.76,1.39,9.57,9.57,0,0,1-1.71,1.33,110,110,0,0,1-19.49,10l-2.45,1a1.53,1.53,0,0,0-1.05,1.84,1.5,1.5,0,0,0,1.84,1c2.76-1,5.79-.86,8.71-.93a102.16,102.16,0,0,1,10.5-.08A42.93,42.93,0,0,1,279,181.09a27.43,27.43,0,0,1,3.63,2.49,9.46,9.46,0,0,1,2.82,3.28c.48,1,.6,2.56-.4,3.34-.74.58-2.15.49-3.21.31-3.18-.55-6.31-1.51-9.43-2.32a79.49,79.49,0,0,0-10.47-2.09c-.79-.09-1.58-.15-2.37-.19a3.65,3.65,0,0,0-2.34.41,2.72,2.72,0,0,0-.45,4.09,9.86,9.86,0,0,0,2.69,1.56c.92.45,1.85.89,2.78,1.31,4.24,1.94,8.56,3.72,12.72,5.84a61.21,61.21,0,0,1,6,3.48c.45.31.9.62,1.34,1s.57.42,1.11.87a22.92,22.92,0,0,1,2.21,2.08,12.92,12.92,0,0,1,.9,1.06l.07.09c.07.1.15.19.22.3s.27.4.4.6a12.93,12.93,0,0,1,.64,1.15c.05.1.33.74.19.39.09.22.17.44.25.66a11,11,0,0,1,.34,1.25c0,.11.13.82.08.42a6.85,6.85,0,0,1,.07.78,10.31,10.31,0,0,1,0,1.47,1.85,1.85,0,0,1-.08.54c0,.14-.06.28-.1.42s-.22.58-.07.25c-.08.18-.2.34-.28.51s.2-.17,0,.05l-.22.22c-.08.09-.32.2,0,0-.05,0-.1.08-.16.11l-.27.14c.37-.21,0,0-.1,0s-.6.09-.21.06c-.21,0-.42,0-.64,0h-.33c-.08,0-.45-.07,0,0l-.7-.14a11.38,11.38,0,0,1-1.29-.41l-.36-.13c.33.13-.06,0-.11-.05l-.69-.33a20.27,20.27,0,0,1-2.37-1.41c-5.51-3.84-10.68-8.13-16.66-11.26a43.5,43.5,0,0,0-4.67-2.1,1.5,1.5,0,0,0-1.84,1,1.54,1.54,0,0,0,1,1.85c-.36-.15.28.18.38.25l.22.15c-.24-.18.13.12.15.13a14.51,14.51,0,0,1,1.25,1.23c.85.92,1.62,1.91,2.41,2.88,1.81,2.24,3.89,4.26,5.79,6.43a53.89,53.89,0,0,1,7.81,11.21,25.56,25.56,0,0,1,1.26,2.86,19.79,19.79,0,0,1,.91,3.11l.12.69c-.05-.31,0,.33,0,.41a10.44,10.44,0,0,1,0,1.48c0,.08,0,.37,0,0l-.06.35a5.47,5.47,0,0,1-.15.58c0,.09-.27.63-.1.29-.1.21-.21.41-.33.61s-.27.36,0,.08l-.15.18a4.68,4.68,0,0,1-.56.53,3.55,3.55,0,0,1-1.33.61,4.06,4.06,0,0,1-2.95-.47,9.7,9.7,0,0,1-2.56-3c-.94-1.4-1.88-2.8-2.85-4.17a58.57,58.57,0,0,0-7.24-8.56,73.42,73.42,0,0,1-7.5-7.57,1.53,1.53,0,0,0-2.13,0,1.55,1.55,0,0,0,0,2.12c1.36,1.76,2.46,3.7,3.65,5.57s2.62,3.58,3.69,5.53a11.41,11.41,0,0,1,1.53,5.61,4.56,4.56,0,0,1-.55,2.61.76.76,0,0,1-.21.15c.08,0-.46.08-.22.06a2.79,2.79,0,0,1-1.19-.15,22.23,22.23,0,0,1-5-2.49c-1.73-1-3.39-2.16-5-3.33-3.37-2.4-6.62-5-10-7.33a51,51,0,0,0-12.22-6.6,1.5,1.5,0,0,0-.8,2.9c8.2,2.86,14.85,8.9,21.83,13.85,1.74,1.23,3.52,2.42,5.36,3.49a18.1,18.1,0,0,0,5.75,2.56,4.44,4.44,0,0,0,3.25-.53,4.72,4.72,0,0,0,1.82-3.33,13.11,13.11,0,0,0-.82-7c-1-2.48-2.64-4.47-4.09-6.69s-2.93-4.79-4.65-7L251,216.5a69.51,69.51,0,0,0,7.19,7.27,53.86,53.86,0,0,1,6.69,7.7c1,1.42,2,2.88,3,4.34a16,16,0,0,0,3.32,4.08,6.89,6.89,0,0,0,8.35-.1c3.82-3,2.38-8.68.78-12.5a48.24,48.24,0,0,0-7.41-11.92c-1.29-1.58-2.64-3.11-4-4.62-1.11-1.22-2.3-2.39-3.35-3.67-1.75-2.13-3.48-4.82-6.13-5.89l-.79,2.89c6.51,2.51,12.17,6.87,17.75,11a32.19,32.19,0,0,0,6,3.88c1.86.81,4.09,1.53,6.11.83,2.46-.85,3.28-3.37,3.33-5.76a12.67,12.67,0,0,0-1.46-6c-2-3.9-5.79-6.73-9.47-9a110.71,110.71,0,0,0-13.05-6.47c-2.07-.91-4.14-1.82-6.18-2.8-.9-.43-1.77-.91-2.66-1.35l-.1-.06c.09.09.1.1,0,0s.05.09.1.18c-.12-.22,0,0,0,.2,0-.31-.16.16,0-.08a.8.8,0,0,1-.32.25c.21-.12-.18,0,.21,0s1,0,1.5.07c6.86.51,13.36,3,20.06,4.34a9.87,9.87,0,0,0,4.8.07,4.93,4.93,0,0,0,3.37-3.66c.74-3.58-1.74-6.55-4.36-8.62a43.24,43.24,0,0,0-17.94-8,47.78,47.78,0,0,0-11.38-.92c-1.68.05-3.35.17-5,.21s-3.18,0-4.77.19a16.92,16.92,0,0,0-4.35.84l.79,2.89a118.86,118.86,0,0,0,21.16-10.29,16.23,16.23,0,0,0,4.24-3.25,4.85,4.85,0,0,0,.58-5.53c-1.51-2.81-5.09-4-8.05-4.31A25.77,25.77,0,0,0,250.3,154a90.18,90.18,0,0,0-8.76,3c-2.74,1-5.55,1.92-8.21,3.15a56.56,56.56,0,0,0-9,5.34,73,73,0,0,0-15.6,14.89c-.46.6-.91,1.22-1.35,1.85a1.52,1.52,0,0,0,.54,2.06,1.54,1.54,0,0,0,2.05-.54Z"/><path class="cls-1" d="M79.12,221.9a109.24,109.24,0,0,0-20.83,12c-2.62,1.86-5.19,3.79-7.74,5.74a53,53,0,0,1-7.76,5.19,12.93,12.93,0,0,1-3.61,1.35l-.42.08c.26,0,0,0-.14,0a6,6,0,0,1-.95,0c-.13,0-.37-.05-.1,0l-.33-.07-.36-.1c-.16,0,.12.05.13.05l-.17-.08-.24-.14c.2.1.17.14,0,0s-.23-.27-.08-.07,0-.08-.07-.13,0-.14,0,0c0-.1-.07-.2-.1-.3a2,2,0,0,0,0-.26c-.06-.13,0,.15,0,.17s0-.13,0-.19c0-.22,0-.44,0-.66l0-.31c0-.17,0,.12,0,.13a1.85,1.85,0,0,1,0-.23,12.63,12.63,0,0,1,.37-1.5c.09-.26.18-.52.28-.78s.09-.25.14-.37.18-.44.07-.19c.24-.56.5-1.1.78-1.64.5-1,1-1.94,1.63-2.88a37.75,37.75,0,0,1,5.26-6.56c5-5,10.9-9,16.37-13.44.66-.54,1.32-1.09,2-1.65a1.49,1.49,0,0,0,.12-2,1.53,1.53,0,0,0-1.94-.38c-9.16,4.35-18.67,7.9-27.79,12.34-2.54,1.24-5,2.6-7.57,3.8l-1.8.8c-.27.12-.06,0,0,0l-.25.11-.49.2q-.51.21-1,.39a29.41,29.41,0,0,1-4.1,1.26l-.93.18-.42.07c.37-.06-.14,0-.25,0a10.34,10.34,0,0,1-1.76,0c-.38,0,.21.06-.05,0l-.38-.08-.37-.1a.85.85,0,0,0-.17-.06c-.25-.07.2.12.07,0s-.4-.22-.57-.33c.25.16.1.09,0,0s-.16-.18-.24-.25c.28.24.06.08,0-.07s-.11-.22-.18-.33c.14.25,0,.11,0-.06a3.74,3.74,0,0,1-.12-.45c0-.09,0-.18-.05-.26s0,.29,0,0,0-.3,0-.45,0-.35,0-.52,0-.32,0-.12,0-.19,0-.19a7.58,7.58,0,0,1,.28-1,2.77,2.77,0,0,1,.1-.26c.09-.22-.1.2,0,0s.18-.38.28-.57.37-.63.57-.93l.3-.43.18-.25c-.12.16.08-.09.1-.12a38.54,38.54,0,0,1,7.5-6.57c3.17-2.3,6.26-4.73,9.53-6.9a57.6,57.6,0,0,1,12.56-6.57c4-1.4,8.33-2.19,12-4.46a19.47,19.47,0,0,0,2.81-2.14,1.52,1.52,0,0,0-.66-2.51c-2.25-.86-4.7-.39-7,.2s-4.69,1.19-7.06,1.71c-4.81,1.06-9.65,1.92-14.52,2.63-1.75.26-3.51.49-5.26.74l-.93.14-.33,0h-.07l-.42.05c-.72.09-1.45.17-2.17.22a23.63,23.63,0,0,1-4.45,0c-.3,0-.08,0,0,0l-.27,0-.47-.09a7.85,7.85,0,0,1-1-.26l-.48-.17c.28.11,0,0-.14-.08s-.25-.13-.36-.21a2.12,2.12,0,0,0-.2-.12c-.24-.14.11.1,0,0l-.3-.27c-.07-.07-.35-.42-.14-.13a2.46,2.46,0,0,1-.22-.34c0-.06-.24-.43-.11-.17s-.14-.32-.08-.35,0,.47,0,.09c0-.09,0-.21,0-.31s-.1.38,0,.09a3.5,3.5,0,0,1,.14-.5c.08-.29-.17.3,0,0,.09-.17.18-.35.28-.51l.2-.3c.09-.13.25-.3,0-.06a17.61,17.61,0,0,1,2.37-2.28c.26-.21-.09.06.12-.1l.35-.26.82-.58c.55-.38,1.1-.74,1.66-1.08a68.34,68.34,0,0,1,7.11-3.81l1.67-.77.69-.3.34-.15.27-.12.17-.07.34-.13.57-.23,1-.37c8.35-3,17.31-3.32,26.08-3.19l3.52.07c1.65,0,2.09-2.64.4-2.95a24.86,24.86,0,0,1-3.3-.82c-.64-.2-1.28-.41-1.91-.64l-1-.37-.48-.19-.21-.09-.14-.06A36.46,36.46,0,0,1,45.93,175c-.2-.15.14.12-.06,0l-.17-.14c-.14-.11-.28-.22-.41-.34-.29-.23-.57-.48-.84-.73a17.21,17.21,0,0,1-1.39-1.44l-.31-.37c-.15-.18.13.17,0,0l-.13-.16c-.19-.27-.38-.55-.55-.83s-.3-.52-.43-.79-.13-.27-.19-.4c.12.28,0-.12-.08-.22-.09-.27-.17-.55-.24-.83,0-.12,0-.24-.07-.36a2,2,0,0,1,0-.24c0,.13,0,.21,0,0s0-.61,0-.91,0-.31,0-.47.05-.53,0-.37,0-.21.05-.28l.09-.4a7.92,7.92,0,0,1,.26-.78c-.09.23,0,.13,0,0a3.07,3.07,0,0,1,.17-.31l.18-.3c.2-.3-.07.05.07-.08s.3-.33.46-.48.33-.27.15-.13.13-.09.2-.14.39-.23.59-.34l.31-.14c-.31.14,0,0,.11,0a10,10,0,0,1,1.43-.37l.23,0,.24,0c.29,0,.57-.05.86-.06a21.07,21.07,0,0,1,3.46.18c.27,0-.2,0,.16,0l.44.07.93.16c.58.11,1.16.23,1.74.37a74.55,74.55,0,0,1,16.54,6.34C77.32,173.4,84.48,178,92,182c.91.48,1.83.95,2.75,1.41a1.54,1.54,0,0,0,2.05-.54,1.51,1.51,0,0,0-.54-2.05c-7.92-4-15.38-8.78-23.22-12.9a84,84,0,0,0-18.31-7.38,31.06,31.06,0,0,0-7.6-1.09,10.24,10.24,0,0,0-6.74,2.05,7.85,7.85,0,0,0-2.33,6.89,12.37,12.37,0,0,0,4.12,7.35A31.61,31.61,0,0,0,50.06,181a41.61,41.61,0,0,0,8.2,3.09c.54.14,1.09.26,1.64.36l.4-2.95c-9.62-.22-19.35-.21-28.64,2.65a64.83,64.83,0,0,0-13.38,6.09A29.74,29.74,0,0,0,11.8,195c-1.4,1.45-2.77,3.55-2,5.64,1.09,3,4.54,3.91,7.4,4.09a43.65,43.65,0,0,0,9.05-.72l.41-.06.19,0c-.33.05.18,0,.25,0l.52-.07,1.09-.15q1.93-.27,3.87-.57,3.8-.58,7.57-1.3c2.48-.47,4.94-1,7.4-1.57,1.27-.3,2.53-.61,3.79-.94a29.17,29.17,0,0,1,3.33-.76,5.94,5.94,0,0,1,3,.31L57,196.33c-3.29,3-7.61,4-11.74,5.26a55.84,55.84,0,0,0-13.2,6.26c-3.66,2.3-7.05,5-10.56,7.5a50.71,50.71,0,0,0-8.19,6.78c-2.2,2.43-4.23,5.74-3.24,9.14.8,2.74,3.43,3.8,6.09,3.69a25.71,25.71,0,0,0,8.46-2.22c2.25-.93,4.45-2,6.61-3.11C40.4,224.86,50,221.2,59.42,217c1.17-.52,2.33-1.06,3.49-1.61L61.09,213c-5.54,4.78-11.71,8.78-17,13.82a39.72,39.72,0,0,0-9.82,13.86c-.79,2-1.5,4.56-.38,6.56,1.33,2.37,4.54,2.31,6.82,1.69A27.79,27.79,0,0,0,49,244.48c2.45-1.72,4.77-3.62,7.19-5.39,6.66-4.88,13.54-9.58,21-13.11.88-.41,1.77-.81,2.67-1.18A1.56,1.56,0,0,0,81,223a1.52,1.52,0,0,0-1.85-1Z"/><path class="cls-1" d="M129.45,305.62c-.35,1.69-1,3.28.2,4.8s3.41,1.61,5.14,2.29a9.61,9.61,0,0,1,4,2.73,3.16,3.16,0,0,1,.64,1.4c0,.09,0,.18.05.27s0-.31,0-.08a.83.83,0,0,0,0,.22c0,.34,0-.25,0-.08a.55.55,0,0,1-.05.17c-.09.21.17-.35.07-.16s.12-.15.09-.11,0,0,.13-.08l-.14.08c-.17.08.4-.09.13-.05l-.18.05c-.32.1.12,0,.12,0a4.62,4.62,0,0,1-1,0c-.33,0,.08,0,0,0l-.26-.05c-.22,0-.44-.08-.65-.14a20.53,20.53,0,0,1-2.66-.84c-.46-.17-.91-.35-1.37-.54l-.36-.15c-.27-.11.21.09-.06,0l-.7-.31-2.53-1.13a10.77,10.77,0,0,0-1.8-.73,1.51,1.51,0,0,0-.8,2.9,1.47,1.47,0,0,1-1-1.69s.19-.42.1-.24.13-.13.08-.1a5.22,5.22,0,0,0-.46.48c-.42.4-.86.76-1.31,1.13l-.75.6-.14.1c-.17.14.2-.15,0,0l-.38.28c-.3.23-.6.47-.91.68a30,30,0,0,1-5.19,2.75,13.64,13.64,0,0,1-3,1.08s-.43,0-.32,0c-.25.05,0-.19,0,0s0,.1.08-.05a6.09,6.09,0,0,1,.42-.8,12.06,12.06,0,0,1,4.71-4.5,1.5,1.5,0,1,0-1.52-2.59,17.61,17.61,0,0,1-4.24,1.74,16.86,16.86,0,0,1-3.76.41c-.48,0-1,0-1.44,0-.24,0-.48,0-.71-.06s.21.05-.08,0-.31-.05-.46-.09l-.65-.17c-.16-.05-.27-.11,0,0l-.35-.18c-.18-.1-.15-.14,0,0a.77.77,0,0,0-.18-.18c.15.08.13.25,0,0,.1.26,0,.19,0,0,0,0,0,.31,0,0,0,.25,0,.18,0,0s.14-.32,0-.1l.21-.39c.08-.13.15-.25.24-.37s.22-.28.06-.08a7.55,7.55,0,0,1,.54-.59l.32-.29c.21-.19-.14.09.1-.07a8.27,8.27,0,0,1,.69-.46c.24-.14.49-.28.75-.4l.37-.17c-.25.11.13-.05.2-.08a19.31,19.31,0,0,1,3.64-1c.78-.14,1-.16,1.71-.24l2-.18c2.61-.18,5.25-.14,7.85-.45a1.53,1.53,0,0,0,1.44-1.9c-.09-.61-.65-1.83-.45-2.27a1.54,1.54,0,0,0-.54-2.05,1.51,1.51,0,0,0-2,.53,4.15,4.15,0,0,0-.34,2.55c.12.69.38,1.35.49,2l1.45-1.9c-5.39.64-11.1,0-16.24,2a10.62,10.62,0,0,0-3.59,2.23,5.6,5.6,0,0,0-1.89,3.67c0,3,3.65,3.51,5.9,3.59a22.17,22.17,0,0,0,4.68-.34,20.57,20.57,0,0,0,5.76-2.21L118,313.22a15,15,0,0,0-5.78,5.58c-.8,1.38-1.39,3.1-.08,4.4s3,1,4.46.44a35.69,35.69,0,0,0,7.66-3.72,38.36,38.36,0,0,0,3.06-2.36,11.57,11.57,0,0,0,1.58-1.47c.81-1,.89-2.5-.57-2.94l-.8,2.9a3.2,3.2,0,0,1,.52.18c.39.14-.31-.14.06,0l.47.21,2.36,1.06a39.59,39.59,0,0,0,5.88,2.2c1.64.42,3.9.79,5.09-.74,1.68-2.16-.43-5.37-2.11-6.74a15.49,15.49,0,0,0-6.07-3,6.16,6.16,0,0,1-1.26-.4,1.46,1.46,0,0,1-.5-.35s-.08-.22-.06-.09,0-.24,0-.34c0,.22.08-.27.1-.37.12-.43.25-.85.34-1.28a1.54,1.54,0,0,0-1.05-1.85,1.51,1.51,0,0,0-1.84,1.05Z"/><path class="cls-1" d="M175.16,303.66c0,1.18.34,2.34.4,3.4a3.2,3.2,0,0,1-.12,1.2c.06-.26-.16.18,0,0l-.24.26a7.09,7.09,0,0,1-.66.57c-1,.79-2.19,1.37-3.27,2.06a15.68,15.68,0,0,0-2.62,2.05c-1.33,1.32-3.18,3.32-2.7,5.38.58,2.46,3.6,2.42,5.55,2.08a14.24,14.24,0,0,0,6.05-2.58c.36-.27.71-.54,1-.84.16-.15.33-.31.5-.45l.2-.18c.28-.24-.19.09,0,0l.07,0a.9.9,0,0,1-1.11,0s-.18-.31,0,0,.25.43.39.63a8,8,0,0,0,1.71,1.67,27.83,27.83,0,0,0,7,4.1,18.14,18.14,0,0,0,5.56,1.54A3.17,3.17,0,0,0,196,323a3.93,3.93,0,0,0-.48-3.77,13.78,13.78,0,0,0-6.15-5.24l-1.16,2.74a18.87,18.87,0,0,0,10.74,1,8.87,8.87,0,0,0,4-1.57,2.91,2.91,0,0,0,.44-3.89c-1.38-2-4.33-2.43-6.54-3-3.52-.85-7.1-1-10.69-1.44-.89-.12-1.79-.38-2.69-.42h-.09a1.25,1.25,0,0,1,1.14.86c0-.06-.14-.62-.1-.24a4.11,4.11,0,0,1,0-1c.2-1.91.33-3.89.35-5.81a1.5,1.5,0,0,0-3,0c0,.87-.08,1.74-.14,2.61s0,1.62-.12,2.42c-.12,1.21-.41,2.89.7,3.76a1.82,1.82,0,0,0,1,.38s.29,0,.08,0,.4.08.31.06c1,.18,1.95.32,2.93.44,1.71.19,3.43.31,5.14.5a36.57,36.57,0,0,1,4.4.8c1,.24,2.08.46,3.09.8l.36.13.13.05a5.58,5.58,0,0,1,.69.35l.28.18c-.27-.18,0,.05.08.09a1.29,1.29,0,0,1,.16.17c-.3-.37.07.19,0,0,.12.22,0,.06,0-.13,0,.15-.11.14,0,0l-.07.1c.11-.14.11-.15,0,0l.1-.08-.17.11c-.11.06-.2.12-.31.17-.41.2.26-.09-.17.07-.27.09-.53.18-.8.25a16.18,16.18,0,0,1-10.61-.64,1.5,1.5,0,0,0-1.15,2.74,15.35,15.35,0,0,1,3,1.8,10,10,0,0,1,1.1,1.06c.11.12.21.24.31.37.27.32-.1-.15.06.07s.18.23.26.35a6.66,6.66,0,0,1,.63,1.1c-.09-.22.07.28.09.37s-.08-.24,0,0,0,.08,0-.1c0,.13,0,.15,0,0s-.13.14,0,0,.31-.21.09-.09-.16,0,.08,0a.91.91,0,0,0-.21.05c-.15.11-.07,0,.06,0h-.31l-.33,0c-.29,0,.08,0-.09,0a25.62,25.62,0,0,1-4.83-1.54,15.82,15.82,0,0,1-3.15-1.73,28.43,28.43,0,0,1-2.9-2.09c-.81-.72-1.15-2-2.33-2.3s-2,.41-2.78,1.14l-.4.36c-.29.28.16-.09-.22.18-.53.37-1,.75-1.59,1.07a9.6,9.6,0,0,1-2.32.89c-.4.11-.8.21-1.21.29l-.33.06c-.24,0-.48.05-.73.06s-.41,0-.62,0,.33.1-.05,0l-.24-.06a.94.94,0,0,1-.22-.07c.31.12.12,0,0,0-.3-.12.14.13,0,0s.19.21,0,0l.07.17c0-.13,0-.13,0,0,0,.29.08-.33,0,.17a4.12,4.12,0,0,1,.13-.47c-.1.29.09-.15.14-.24s.29-.45.45-.67-.12.14,0-.05l.24-.29.39-.44q.41-.44.84-.84c1.82-1.72,4.28-2.57,6.12-4.28a4.44,4.44,0,0,0,1.37-3.53c0-1.27-.37-2.45-.4-3.57,0-1.93-3-1.94-3,0Z"/></svg>