<svg id="Capa_1" data-name="Capa 1" xmlns="http://www.w3.org/2000/svg" viewBox="0 0 332.09 341.58"><defs><style>.cls-1{fill:#fff;}</style></defs><title>icono vaca blanco</title><path class="cls-1" d="M120.89,98.77a79.9,79.9,0,0,0-29.34,4.61,129.36,129.36,0,0,0-25.41,11.91c-15,9.14-28.35,21.7-35.28,38.08A85.72,85.72,0,0,0,25.29,201a65.43,65.43,0,0,0,8.15,22.39A57.41,57.41,0,0,0,50.19,241,96.7,96.7,0,0,0,73.51,252.6a121.84,121.84,0,0,0,27.37,5.77c5.44.59,10.9.93,16.37,1.11s10.77.63,16.15.9a89.62,89.62,0,0,0,16-.33,72.64,72.64,0,0,0,15.34-3.87c9.37-3.34,18.27-7.89,27.1-12.43a54.69,54.69,0,0,0,10.41-6.57,31.31,31.31,0,0,0,7.92-10.5,72.62,72.62,0,0,0,7.24-28.74,97,97,0,0,0-.68-14.95c-.56-5.05-1.15-10.1-2-15.11a106.59,106.59,0,0,0-3.43-14.75,51.26,51.26,0,0,0-5.56-12.66c-4.74-7.22-11.63-12.83-18.47-18-3.27-2.46-6.62-4.82-9.94-7.21a110.13,110.13,0,0,0-12.51-8,70,70,0,0,0-13.57-5.64,73.21,73.21,0,0,0-15.21-2.58c-5.06-.36-10.14-.35-15.21-.35a1.5,1.5,0,0,0,0,3c10.11,0,20.31,0,30.09,3,9.17,2.74,17.45,7.76,25.16,13.33,6.67,4.82,13.48,9.51,19.47,15.17a48.67,48.67,0,0,1,7.88,9.19,50.3,50.3,0,0,1,5.18,12.14c2.91,9.44,4.1,19.29,5.18,29.09a79.72,79.72,0,0,1-1.47,28.51,66.46,66.46,0,0,1-5,13.59,28.8,28.8,0,0,1-7.77,9.82,60.23,60.23,0,0,1-10.3,6.16c-4.22,2.14-8.44,4.29-12.72,6.31-9.08,4.26-18.77,8.23-28.84,9.21-10.42,1-20.93-.43-31.35-.8A170.26,170.26,0,0,1,85.66,253a100.62,100.62,0,0,1-23.14-8.22c-7.27-3.63-14.27-8.15-19.89-14.07A54.56,54.56,0,0,1,31,211.14c-5.15-14.79-5-31.26-.94-46.29a71.12,71.12,0,0,1,9.58-21.43,82.8,82.8,0,0,1,17.89-18.58,115.72,115.72,0,0,1,21.89-13.27,104.06,104.06,0,0,1,27.41-9,69.77,69.77,0,0,1,14.07-.81c1.93.08,1.93-2.92,0-3Z"/><path class="cls-1" d="M48.42,131.47C45.93,116.62,51,101.21,60,89.41A59,59,0,0,1,76.84,74.48a82.06,82.06,0,0,1,22.58-9c16-3.93,32.67-4.1,49.06-3.7,8.47.21,16.88.93,24.89,3.9A37.94,37.94,0,0,1,192,80a50.2,50.2,0,0,1,7.76,22.73c.47,4.52.33,9,.42,13.58A105.14,105.14,0,0,1,200,128a46.59,46.59,0,0,1-1.09,6.53c-.44,1.88,2.45,2.68,2.89.8a57.22,57.22,0,0,0,1.45-13.36c0-4.06-.05-8.14-.12-12.2-.15-9-1.69-18-5.68-26.18a40.28,40.28,0,0,0-16.6-17.72c-7.8-4.33-16.71-6.21-25.55-6.8-4.22-.29-8.46-.32-12.69-.38s-8.41,0-12.62.09a163.08,163.08,0,0,0-25.62,2.57,93.81,93.81,0,0,0-24,7.81A64.16,64.16,0,0,0,61.08,83.48,64.83,64.83,0,0,0,48.7,103.54a55.84,55.84,0,0,0-3.83,23,55.27,55.27,0,0,0,.65,5.75,1.5,1.5,0,0,0,2.9-.79Z"/><path class="cls-1" d="M158.23,60.21a24.87,24.87,0,0,0-7.46,8.31,19.13,19.13,0,0,0-2.15,9.14c.1,6.45,3.12,12.56,6.95,17.6s8.35,9.55,13.84,12.45a31.45,31.45,0,0,0,16.92,3.82,20.26,20.26,0,0,0,8.23-2.38,17.12,17.12,0,0,0,6.27-6.18,18.36,18.36,0,0,0,1.08-2.12,1.55,1.55,0,0,0-.54-2,1.5,1.5,0,0,0-2.05.53,18.91,18.91,0,0,1-1,2.06c-.17.28-.34.56-.53.83s-.19.29-.29.43l-.13.18c-.28.38.09-.1-.08.11a15.37,15.37,0,0,1-1.38,1.53l-.67.61-.37.31s-.23.17,0,0l-.22.17a16,16,0,0,1-1.66,1.05c-.26.14-.52.28-.78.4l-.43.2-.19.08-.08,0a20,20,0,0,1-3.73,1l-.48.07c-.17,0,0,0,.06,0l-.27,0-1,.09c-.68,0-1.36.06-2,0s-1.37,0-2.06-.11l-.92-.1c-.25,0,.22,0,0,0l-.21,0-.57-.09a30.63,30.63,0,0,1-4-1c-.67-.2-1.33-.43-2-.67l-.87-.35-.19-.08c.22.1,0,0,0,0l-.52-.24a29.32,29.32,0,0,1-3.5-1.86c-.54-.33-1.06-.67-1.57-1l-.37-.27-.27-.2,0,0-.22-.18-.49-.39a51.57,51.57,0,0,1-6.58-6.47c-3.78-4.45-6.9-9.73-7.8-15.64,0,0,0-.25,0-.09s0-.14,0-.18,0-.29,0-.44c0-.37-.06-.74-.08-1.12a19.11,19.11,0,0,1,0-2.14c0-.18,0-.35.05-.52s.06-.43,0-.19c0-.37.12-.74.2-1.1a16.87,16.87,0,0,1,.58-2.11,12.7,12.7,0,0,1,.77-1.79,18.81,18.81,0,0,1,1.2-2,21.3,21.3,0,0,1,3.23-3.66c.65-.59,1.32-1.15,2-1.68a1.54,1.54,0,0,0,.54-2,1.53,1.53,0,0,0-2.06-.54Z"/><path class="cls-1" d="M197.43,85l.45-.37a1.25,1.25,0,0,1,.19-.15l.09-.07c.35-.26.71-.51,1.07-.76.74-.5,1.51-1,2.29-1.42a34.52,34.52,0,0,1,5.26-2.46c.95-.35,1.93-.66,2.91-.92.48-.12.95-.23,1.43-.32l.67-.13.37-.06s.48-.06.19,0a17.13,17.13,0,0,1,2.77-.12l.62,0,.33,0c.26,0-.35-.07.07,0s.85.16,1.27.28l.54.18.3.11c-.28-.11-.07,0,0,0a10.5,10.5,0,0,1,1.09.61l.3.22s-.21-.19,0,0,.32.28.47.43.24.24.35.37.29.37.09.11l.23.33a9.11,9.11,0,0,1,1.66,7.21,6.91,6.91,0,0,1-.65,1.65,8.24,8.24,0,0,1-.54.9,2.43,2.43,0,0,0-.14.2c-.22.34.19-.22-.07.1a15,15,0,0,1-1.91,1.91,10.22,10.22,0,0,1-1,.74c-.44.31-.88.61-1.34.88a28.4,28.4,0,0,1-2.88,1.54,27.31,27.31,0,0,1-6.78,2.09c-.4.06-.88.12-1.48.16a14.77,14.77,0,0,1-1.63,0c-.24,0-.47,0-.71,0l-.21,0c.17,0-.29,0-.34-.06a9.14,9.14,0,0,1-1.36-.38,1.5,1.5,0,1,0-.8,2.89,13.43,13.43,0,0,0,6.14.51,27.83,27.83,0,0,0,7-1.83A28.17,28.17,0,0,0,220,96a14,14,0,0,0,4.54-5,10.92,10.92,0,0,0,0-9.25,10.29,10.29,0,0,0-4.36-5.17c-3.73-2-8.37-1.41-12.27-.25a35.58,35.58,0,0,0-12.61,6.65,1.51,1.51,0,0,0,0,2.12,1.54,1.54,0,0,0,2.12,0Z"/><path class="cls-1" d="M170.3,64c5.82-5.49,6.69-13.81,5.76-21.36-.24-2-.58-3.93-1-5.88l-1.85,1.84c1.44.43,2.87.85,4.29,1.32.69.23,1.38.48,2.06.74l.42.17s.27.12.06,0l.21.09.95.44c.58.29,1.16.61,1.72,1,.26.16.52.34.77.52.06,0,.41.31.22.15l.39.32a12.94,12.94,0,0,1,1.4,1.37c.11.13.23.26.34.4l.14.17c0-.05-.14-.18,0,.06s.41.59.6.9a14.73,14.73,0,0,1,1.76,4.1A13.38,13.38,0,0,1,189,52c0,.16.06.31.08.47s.06.4,0,.14c.05.33.08.66.11,1a27.18,27.18,0,0,1-.46,8.25,20.23,20.23,0,0,1-.64,2.31c-.1.29-.3.81-.35.94,0-.06-.13.26-.17.35s-.16.34-.25.51-.34.61-.53.91l-.31.45,0,0-.21.26a8.9,8.9,0,0,1-.67.7c-.11.11-.23.2-.34.3s.18-.13,0,0l-.26.18a1.53,1.53,0,0,0-.54,2.05,1.51,1.51,0,0,0,2.05.54,12.65,12.65,0,0,0,4.72-7.22,28.66,28.66,0,0,0,1-9.31,21.76,21.76,0,0,0-2.19-8.92,15.63,15.63,0,0,0-6.18-6.43A44.06,44.06,0,0,0,174,35.74a1.52,1.52,0,0,0-1.84,1.85,49.83,49.83,0,0,1,1.2,9.59,22.56,22.56,0,0,1-1.75,9.91,15.35,15.35,0,0,1-3.46,4.82c-1.41,1.32.71,3.44,2.12,2.12Z"/><path class="cls-1" d="M88.56,66.15a19.43,19.43,0,0,1-4.36-4.42,19,19,0,0,1-1.53-2.61,16.05,16.05,0,0,1-1-2.53A20.26,20.26,0,0,1,81,53.7a10.8,10.8,0,0,1-.16-1.1c0-.5-.09-1-.11-1.5a24.29,24.29,0,0,1,0-2.83c0-.44.06-.88.1-1.32,0-.23,0-.46.08-.69,0,0,0-.3,0-.06l.06-.46a32.73,32.73,0,0,1,1.5-5.84,1.52,1.52,0,0,0-1-1.84c-7.42-2.87-14.7,2.76-18.52,8.73A20.92,20.92,0,0,0,59.54,57a24.6,24.6,0,0,0,2.27,11.27A22.72,22.72,0,0,0,70,78,1.51,1.51,0,0,0,72,77.49a1.53,1.53,0,0,0-.54-2.06C66,71.85,62.66,65,62.52,58.48a17.13,17.13,0,0,1,2.21-8.85,20.78,20.78,0,0,1,6.34-7.17,12.08,12.08,0,0,1,4.75-2,5.25,5.25,0,0,1,1-.11,9.09,9.09,0,0,1,1.28,0,5.84,5.84,0,0,1,1.14.19,11,11,0,0,1,1.38.43L79.6,39.11c-2.74,7.64-2.84,16.82,1.77,23.78A23,23,0,0,0,87,68.74a1.5,1.5,0,0,0,2-.54,1.53,1.53,0,0,0-.53-2Z"/><path class="cls-1" d="M62.65,85.41c-1.86-4.89-6.1-8.16-10.84-10.06A26,26,0,0,0,36.87,74c-4.41,1-8.6,3.68-9.84,8.24a11.14,11.14,0,0,0,.61,7.67,14.59,14.59,0,0,0,6.07,5.91A28.62,28.62,0,0,0,42.5,99a24.08,24.08,0,0,0,8.75.3,11,11,0,0,0,1.6-.4,1.5,1.5,0,1,0-.8-2.89,10.19,10.19,0,0,1-1.54.38l-.39.07c-.17,0,.11,0,.11,0l-.23,0-1,.08a23,23,0,0,1-3.89-.14l-.23,0-.49-.07-1.13-.2c-.69-.13-1.38-.29-2.06-.48s-1.41-.4-2.11-.64l-1-.36-.54-.22-.31-.13a22.38,22.38,0,0,1-3.61-2L33.32,92c-.23-.17-.06,0,0,0l-.21-.16c-.25-.21-.5-.42-.74-.64s-.43-.41-.63-.63l-.3-.32L31.27,90l-.11-.13c.1.12-.13-.18-.17-.24l-.24-.35a7.3,7.3,0,0,1-.44-.77c-.07-.14-.14-.28-.2-.42.12.27,0,0-.05-.13a7.93,7.93,0,0,1-.25-.83c0-.13-.06-.27-.08-.4-.08-.38,0,.15,0-.12s-.06-.63-.07-1A13,13,0,0,1,29.71,84c0-.28-.06.32,0-.07,0-.11,0-.23.07-.35s.11-.49.18-.73.15-.47.23-.7c0,0,0-.09.05-.14s-.12.27,0,.1.11-.24.16-.35a9.25,9.25,0,0,1,.73-1.21c.06-.09.29-.36,0,0l.21-.26c.15-.18.31-.35.47-.51l.52-.49.26-.21c.28-.24-.12.07.07-.06.41-.27.8-.55,1.23-.78.2-.12.4-.22.61-.32a2.3,2.3,0,0,1,.32-.15l.18-.09c.19-.08-.35.14,0,0s.94-.36,1.42-.5,1-.28,1.56-.39l.75-.13.38-.06.15,0a23,23,0,0,1,3.42-.13c.59,0,1.17.06,1.75.12l.42.05c.13,0,.44.06.12,0l.94.15a24.6,24.6,0,0,1,3.41.84c.55.17,1.09.37,1.62.58.07,0,.54.22.19.07l.38.16.8.38a21.05,21.05,0,0,1,3,1.77l.32.24c.14.1-.07-.06-.08-.07l.18.14.64.54a16.42,16.42,0,0,1,1.19,1.17c.17.19.34.38.5.58l.24.29c-.24-.31.08.11.13.18A14.06,14.06,0,0,1,59.18,85c.13.24.26.48.37.73s.11.23.16.35c-.14-.31,0,0,0,.15a1.54,1.54,0,0,0,1.84,1,1.5,1.5,0,0,0,1-1.84Z"/><path class="cls-1" d="M26.93,167.91a43.12,43.12,0,0,0,15.85,11.27,20.74,20.74,0,0,0,10,1.25,22.74,22.74,0,0,0,9.57-3.64c5.18-3.43,10.24-8.83,10.36-15.4.06-3.53-1.38-6.79-2.75-10a74.34,74.34,0,0,0-4.79-9.2,51.73,51.73,0,0,0-6.47-8.81,26,26,0,0,0-4.12-3.58A7.46,7.46,0,0,0,49,128.37a1.5,1.5,0,0,0-1,1.84,1.52,1.52,0,0,0,1.84,1c1.25-.23,2.55.66,3.52,1.35a22.72,22.72,0,0,1,3.19,2.85,44.53,44.53,0,0,1,5.26,6.95,79.36,79.36,0,0,1,4.62,8.32,34.75,34.75,0,0,1,3.2,8.74c.94,5.61-3.13,10.55-7.35,13.74a21.56,21.56,0,0,1-8.18,4,17.48,17.48,0,0,1-8.65-.28c-6.4-1.82-11.9-6.32-16.36-11.11-1.31-1.41-3.43.71-2.12,2.12Z"/><path class="cls-1" d="M48.42,155.66c0-.17.1-.34.16-.5l.09-.24c-.07.16-.07.16,0,0s.27-.5.42-.74c0-.07.37-.46.12-.17a2.85,2.85,0,0,1,.23-.26,5.79,5.79,0,0,1,.57-.54c-.3.26.07-.05.14-.09l.38-.23.28-.15c.16-.07.13-.06-.06,0l.2-.07a4.89,4.89,0,0,1,.72-.21c.09,0,.57-.09.13,0,.12,0,.24,0,.37,0a5.21,5.21,0,0,1,.79,0c.13,0,.38.1,0,0,.13,0,.28,0,.42.08a6.51,6.51,0,0,1,.71.23c-.39-.14.05,0,.14.07l.33.18c.11.07.21.15.32.21s.12.09,0,0l.17.14a7.66,7.66,0,0,1,.57.57l.15.18c-.12-.14-.13-.15,0,0l.2.3a6.47,6.47,0,0,1,.46.91,1.52,1.52,0,0,0,2.06.54,1.55,1.55,0,0,0,.54-2.05,7.11,7.11,0,0,0-5.06-4.19,7.26,7.26,0,0,0-6.3,1.76,7.71,7.71,0,0,0-2.12,3.54,1.5,1.5,0,0,0,2.9.8Z"/><path class="cls-1" d="M53.44,160.53a2.77,2.77,0,0,0,2.78,2.35,1.48,1.48,0,0,0,1.29-.74,1.45,1.45,0,0,0,.21-.76,1.42,1.42,0,0,0-.21-.75,6.92,6.92,0,0,0-1.2-1.94,4.91,4.91,0,0,0-1.42-1c-.36-.17-.71-.34-1-.52a1.5,1.5,0,0,0-2.26,1.29,3,3,0,0,0,.88,2.48,4.32,4.32,0,0,0,.83.53,5,5,0,0,1,.64.36l-.31-.23.21.17a1.5,1.5,0,0,0,2.56-1.06,1.58,1.58,0,0,0-.44-1.06,4.09,4.09,0,0,0-1-.7,3.82,3.82,0,0,1-.66-.36l.3.24-.2-.2.24.3a1,1,0,0,1-.14-.24l.15.36a1.72,1.72,0,0,1-.1-.39l.05.4a4,4,0,0,1,0-.6l-2.26,1.3c.38.2.76.38,1.15.57a4.33,4.33,0,0,1,.75.44l-.3-.24a3,3,0,0,1,.43.44l-.24-.31a7.36,7.36,0,0,1,.81,1.45l1.3-2.26H56l.4,0a1.48,1.48,0,0,1-.36-.1l.36.15a1.41,1.41,0,0,1-.24-.13l.3.23a1.52,1.52,0,0,1-.22-.22l.24.3a1.29,1.29,0,0,1-.19-.32l.15.36a2.54,2.54,0,0,1-.13-.45,1.5,1.5,0,0,0-2.74-.36,1.64,1.64,0,0,0-.15,1.15Z"/><path class="cls-1" d="M183.49,155.34a16.22,16.22,0,0,1,4.16-1.9,10.72,10.72,0,0,1,4.06-.48,7.43,7.43,0,0,1,3.43,1.09c.17.11.34.22.5.34-.2-.14.17.14.17.14a8,8,0,0,1,.78.76,8.8,8.8,0,0,1,1.29,2,1.52,1.52,0,0,0,2.05.54,1.55,1.55,0,0,0,.54-2.06A10.4,10.4,0,0,0,192,150a16.64,16.64,0,0,0-10,2.77c-1.64,1-.14,3.61,1.51,2.59Z"/><path class="cls-1" d="M189,160.51a3.88,3.88,0,0,0-2,1.06,3.68,3.68,0,0,0-.95,2.28,1.66,1.66,0,0,0,.43,1.35,2.69,2.69,0,0,0,.32.27,5.06,5.06,0,0,0,.84.59,3.44,3.44,0,0,0,1.69.44,2.75,2.75,0,0,0,1.74-.7,3,3,0,0,0,.81-1.3,3.94,3.94,0,0,0,.15-.82,2.57,2.57,0,0,0,0-.48,4.73,4.73,0,0,0-.46-1.73,4.87,4.87,0,0,0-3-2.46,1.51,1.51,0,0,0-1.46.38,5,5,0,0,0-1.07,1.28,3.11,3.11,0,0,0-.3.74,2.64,2.64,0,0,0,0,1.12,5.14,5.14,0,0,0,1.28,2.13l-.24-.31.15.19a1.61,1.61,0,0,0,.89.69,1.52,1.52,0,0,0,1.16-.15,1.5,1.5,0,0,0,.54-2.05l-.76-1,.23.3a3.13,3.13,0,0,1-.42-.67l.15.36a1.09,1.09,0,0,1-.08-.31l.05.4a1,1,0,0,1,0-.25l-.05.4a1.09,1.09,0,0,1,.08-.31l-.15.36a2.07,2.07,0,0,1,.27-.45l-.23.31a4,4,0,0,1,.63-.67l-1.46.38.37.14-.36-.15a3.71,3.71,0,0,1,.82.47l-.3-.23a3.84,3.84,0,0,1,.57.57l-.23-.3a3,3,0,0,1,.39.67l-.15-.36a3.17,3.17,0,0,1,.2.73L189,163a2.91,2.91,0,0,1,0,.66l.05-.4a2.13,2.13,0,0,1-.14.51l.15-.35a1.5,1.5,0,0,1-.19.32l.24-.3a1,1,0,0,1-.24.23l.31-.23a1.23,1.23,0,0,1-.25.14l.36-.15a1.57,1.57,0,0,1-.29.08l.4-.06a1.09,1.09,0,0,1-.36,0l.4.06a2.9,2.9,0,0,1-.48-.14l.36.15a3.33,3.33,0,0,1-.7-.42l.3.24c-.12-.1-.23-.19-.34-.3l.43,1.06a3.22,3.22,0,0,1,0-.43l0,.4a2,2,0,0,1,.14-.54l-.15.35a1.69,1.69,0,0,1,.24-.41l-.23.3a1.52,1.52,0,0,1,.31-.31l-.3.23a2.6,2.6,0,0,1,.49-.28l-.36.15a3.19,3.19,0,0,1,.67-.19,1.5,1.5,0,0,0,.89-.69,1.57,1.57,0,0,0,.16-1.16,1.54,1.54,0,0,0-.69-.89,1.68,1.68,0,0,0-1.16-.16Z"/><path class="cls-1" d="M124.06,258.8c1.11,5.25,2.29,10.49,3.1,15.8.78,5.12,1,10.3,1.71,15.42a37.59,37.59,0,0,0,1.81,7.46,14.88,14.88,0,0,0,3.68,6,8.85,8.85,0,0,0,6.35,2.44,8.33,8.33,0,0,0,5.91-3.39A24.75,24.75,0,0,0,152,287.37a1.5,1.5,0,0,0-3,0,22,22,0,0,1-3.82,12.06c-1,1.49-2.32,3.1-4.21,3.42a5.81,5.81,0,0,1-4.71-1.74,12.55,12.55,0,0,1-2.9-5,39.81,39.81,0,0,1-1.61-7c-.7-4.76-.87-9.58-1.56-14.34-.81-5.64-2.06-11.2-3.24-16.77a1.5,1.5,0,1,0-2.89.8Z"/><path class="cls-1" d="M150.87,288.82a37.79,37.79,0,0,1,8.8-1.79,14.11,14.11,0,0,1,4.05.25,4.27,4.27,0,0,1,1.2.43,5.5,5.5,0,0,1,.57.36c-.24-.17.2.18.28.27l.24.27c0-.05-.14-.23,0,0s.21.34.31.52a2.29,2.29,0,0,1,.1.23c-.14-.33,0,.06,0,.11a4.77,4.77,0,0,1,.17.62c0,.09.11.71.08.41,0,.23,0,.46.05.7,0,.5,0,1,0,1.5a36.64,36.64,0,0,0-.36,3.69,6.3,6.3,0,0,0,1.59,4.23,10.1,10.1,0,0,0,3.35,2.18,13.86,13.86,0,0,0,3.07,1,9.3,9.3,0,0,0,5.3-.38c3.4-1.37,5.42-4.56,6.72-7.84a33.06,33.06,0,0,0,2.11-11.89,1.5,1.5,0,0,0-3,0c0,.82,0,1.65-.1,2.47,0,.39-.07.78-.11,1.16,0,.22-.05.44-.08.66,0,.06,0,.3,0,0,0,.13,0,.27,0,.4a31.57,31.57,0,0,1-1.21,5.15c-.13.4-.27.8-.43,1.19,0,.08-.25.6-.12.31-.11.24-.21.48-.32.71a17,17,0,0,1-1.18,2.07l-.35.49c.21-.29-.12.14-.17.2a11.78,11.78,0,0,1-.84.89l-.39.33c-.06.06-.28.22,0,0l-.18.14a9.18,9.18,0,0,1-1,.57c-.08,0-.63.27-.25.13-.16.06-.31.12-.48.17l-.49.14c-.1,0-.8.14-.39.09a9.82,9.82,0,0,1-1.09.06l-.63,0-.26,0c.34,0,0,0-.13,0a12.25,12.25,0,0,1-2.64-.83,6.94,6.94,0,0,1-2.73-1.8,4.76,4.76,0,0,1-.49-3.42,25.65,25.65,0,0,0,.32-3.28,7.65,7.65,0,0,0-1.86-5.43c-2-2-5.11-2.28-7.76-2.2a39.69,39.69,0,0,0-10.06,1.92c-1.85.55-1.06,3.44.8,2.89Z"/><path class="cls-1" d="M187.28,288c12.31-1.86,25-1.74,37.44-1.83,6.11-.05,12.21-.09,18.31-.38q6-.27,12-.35a98.36,98.36,0,0,1,12,.26l.25,0c-.49-.06-.21,0-.1,0l.35.05c.43.07.87.11,1.31.15l.56.06c.1,0,.68.09.24,0a12,12,0,0,1,1.33.27c.18,0,.35.12.53.18.34.11-.26-.17,0,0l.2.1.27.17c.3.15-.16-.15,0,0l.2.18a1.07,1.07,0,0,1,.14.16c-.12-.17-.14-.19,0-.05a.87.87,0,0,0,.11.18c.19.24,0-.26,0,.05,0,.11.12.66.1.32a9.65,9.65,0,0,1-.18,2.08,16.26,16.26,0,0,0,.22,5,8.47,8.47,0,0,0,1.41,3.84c1,1.25,2.82,1.78,4.34,2.13a58.86,58.86,0,0,0,12.44,1.07c1.65,0,3.3.14,4.8-.71a8.79,8.79,0,0,0,3.47-4.29,35.56,35.56,0,0,0,2.38-12.39c0-.81.06-1.61.06-2.42a1.5,1.5,0,0,0-3,0,52.3,52.3,0,0,1-.27,5.31c-.12,1.16-.18,1.67-.39,2.86a29,29,0,0,1-.69,3.07c-.13.46-.27.92-.43,1.38-.08.22-.17.45-.26.68s0,0,0,0c-.06.15-.13.31-.2.46-.18.37-.37.73-.58,1.08l-.38.57c0,.06-.18.22,0,0l-.29.33a4.4,4.4,0,0,1-.37.38l-.23.2s.28-.18.06,0-.3.21-.47.3l-.22.11c-.2.12.3-.07-.1,0l-.48.13c-.32.1.33,0,0,0l-.21,0c-.35,0-.71,0-1.07,0-1.79,0-3.57,0-5.36-.13-1.07-.05-2.15-.12-3.22-.21-.54,0-1.07-.11-1.6-.18,0,0-.44-.05-.23,0l-.22,0-.81-.13a17.55,17.55,0,0,1-2.67-.63,5.17,5.17,0,0,1-.51-.18c-.08,0-.39-.18,0,0L277,297l-.4-.22-.17-.12c-.3-.16.18.21,0,0a2.13,2.13,0,0,0-.26-.26c-.22-.16.22.3.06.08a.64.64,0,0,1-.08-.14c-.09-.21.24.69,0,0-.07-.21-.16-.42-.23-.64-.13-.42-.25-.85-.35-1.28a13.87,13.87,0,0,1-.27-4.59,7.43,7.43,0,0,0-.09-3.63,4.47,4.47,0,0,0-2.09-2.3,13.59,13.59,0,0,0-5-1.08c-.4,0,.36.06-.11,0l-.7-.1-1-.11c-.82-.07-1.65-.11-2.48-.14-2.16-.08-4.32-.09-6.48-.07-9.65.06-19.28.63-28.93.72-12.54.12-25.16-.05-37.64,1.39-1.46.17-2.92.36-4.38.58a1.52,1.52,0,0,0-1,1.85,1.55,1.55,0,0,0,1.85,1Z"/><path class="cls-1" d="M202.47,122.41c8.26,0,16.52.19,24.78.27,3.74,0,7.48,0,11.22,0A47.48,47.48,0,0,1,249.41,124a60,60,0,0,1,19.51,8.4,56,56,0,0,1,13.22,12.62c7.73,10.14,12.48,22.31,15.21,34.68a169.31,169.31,0,0,1,3.15,22.43c.68,8.12.93,16.27.88,24.41-.1,16.35-1.38,32.66-2.48,49l-.42,6.32c-.12,1.93,2.88,1.92,3,0,1.07-16.71,2.49-33.4,2.83-50.14.33-16.27-.3-32.75-3.26-48.78-2.35-12.73-6.74-25.37-14-36.16a62.93,62.93,0,0,0-12.84-14.16,61,61,0,0,0-18.54-9.91,59.41,59.41,0,0,0-11.15-2.61,82.7,82.7,0,0,0-11.24-.38c-8.17,0-16.33-.2-24.5-.28q-3.15,0-6.32,0a1.5,1.5,0,0,0,0,3Z"/><path class="cls-1" d="M295.81,114a11,11,0,0,1-2.75-3.3,6.12,6.12,0,0,1-.59-1.4c-.09-.3-.16-.6-.22-.9l-.09-.45c0,.27,0-.3,0-.36a11.39,11.39,0,0,1,1.72-6.68,21,21,0,0,1,11.76-9.32,12.89,12.89,0,0,1,1.63-.39c.07,0,.48-.06.1,0,.12,0,.23,0,.35,0a6.77,6.77,0,0,1,.78,0h.2c.35,0-.32-.08,0,0s.37.08.56.14l.26.1c-.4-.14-.12-.06,0,0s.36.21.54.33c-.38-.25.06.07.15.16a4.36,4.36,0,0,1,.35.4c-.28-.33.11.17.18.27s.26.44.37.67l.15.32c.17.35-.11-.3,0,.08l.22.6c.2.57.36,1.15.51,1.74a24.81,24.81,0,0,1,.87,8,11.32,11.32,0,0,1-.26,1.8,14.65,14.65,0,0,1-.56,1.93,12.39,12.39,0,0,1-1.78,3.14,12.83,12.83,0,0,1-3.62,3,12.51,12.51,0,0,1-3.6,1.41,11.32,11.32,0,0,1-4.08.33,4.79,4.79,0,0,1-3.14-1.58,1.5,1.5,0,0,0-2.12,2.12c2.14,2.4,5.51,2.77,8.52,2.34a16.92,16.92,0,0,0,8.26-3.64,14.63,14.63,0,0,0,4.94-8,23,23,0,0,0-.1-9.67c-.46-2.41-1-5-2.6-7a6,6,0,0,0-5.49-2,19.73,19.73,0,0,0-8.11,3.15,25.08,25.08,0,0,0-6.76,6.39,16.32,16.32,0,0,0-3.21,8.2,11.74,11.74,0,0,0,2.81,8.44,13.7,13.7,0,0,0,1.74,1.75,1.53,1.53,0,0,0,2.12,0,1.51,1.51,0,0,0,0-2.12Z"/><path class="cls-1" d="M293.91,115.28a62.29,62.29,0,0,1-3.31,10.79,42.66,42.66,0,0,1-5.77,10.31,22.36,22.36,0,0,1-2.15,2.31c-.3.28-.78.69-1,.85s-.77.55-1.15.79c-1.64,1-.14,3.6,1.52,2.59,3.43-2.12,6-5.48,8-8.92a59.69,59.69,0,0,0,5.17-11.91c.62-2,1.17-4,1.59-6a1.55,1.55,0,0,0-1.05-1.85,1.53,1.53,0,0,0-1.85,1Z"/><path class="cls-1" d="M246.75,122.63c2,9.61-2.73,18.74-5.81,27.59-1.51,4.32-2.86,9-2.58,13.62a14.26,14.26,0,0,0,1.74,6.21,14.76,14.76,0,0,0,4.66,4.87c3.37,2.26,7.7,2.26,11.53,3.1a16.87,16.87,0,0,1,2.64.78,11.06,11.06,0,0,1,1,.52c.19.11.37.23.54.35s-.25-.22.09.07l.32.29a4.36,4.36,0,0,1,1.26,2.09,16.27,16.27,0,0,1,.5,3.06c.26,2.42.59,4.73,2,6.78a21.47,21.47,0,0,0,5.3,5.33,25.33,25.33,0,0,0,6.48,3.38,11.8,11.8,0,0,0,5.54.78c3.38-.43,6.13-2.39,8.88-4.25.64-.43,1.28-.86,1.95-1.25.31-.18.63-.36,1-.53l.42-.21.22-.09c.31-.15-.23.07.07,0s.65-.24,1-.33a4.05,4.05,0,0,1,.5-.12l.22,0c.34-.07-.07,0,.05,0a6.29,6.29,0,0,1,1,0c.09,0,.71.06.3,0a4.21,4.21,0,0,1,.6.11,7.44,7.44,0,0,1,1.1.36c-.28-.12.22.11.27.13.22.11.43.24.64.36a1.5,1.5,0,0,0,1.52-2.59,9,9,0,0,0-5-1.38,10.86,10.86,0,0,0-4.54,1.34c-2.74,1.43-5.06,3.56-7.89,4.85l-.23.1c.27-.12.06,0,0,0l-.54.2a11.59,11.59,0,0,1-1.15.33l-.5.1c-.4.08.21,0-.05,0l-.32,0a9.3,9.3,0,0,1-1.18,0c-.11,0-.59-.06-.48,0l-.5-.09a14.16,14.16,0,0,1-1.54-.44,20.2,20.2,0,0,1-3-1.25,22,22,0,0,1-5.69-4.07,10.35,10.35,0,0,1-3.13-5.37c-.4-2.1-.3-4.49-1.11-6.59a8,8,0,0,0-4.13-4.36c-3.68-1.74-7.85-1.61-11.69-2.76a10.67,10.67,0,0,1-4.63-2.84,9,9,0,0,1-1.71-2.26c-.12-.21-.23-.42-.33-.64a3.33,3.33,0,0,1-.17-.37,13.57,13.57,0,0,1-.48-1.53,11.44,11.44,0,0,1-.34-2.78,23,23,0,0,1,.2-3.32,40.54,40.54,0,0,1,1.54-6.5c2.83-9.06,7.75-17.9,7.1-27.68a28.85,28.85,0,0,0-.53-3.81,1.5,1.5,0,0,0-1.84-1,1.52,1.52,0,0,0-1.05,1.84Z"/><path class="cls-1" d="M214.17,206.53c3,2.38,6.9,3.1,10.55,3.65,2.32.36,4.64.62,7,.89,1.15.13,2.31.26,3.46.41l.41.05.14,0,.87.13,1.73.26a42.94,42.94,0,0,1,6.32,1.48c.47.15.93.32,1.39.5l.32.13c-.25-.1-.07,0,.06,0l.65.31c.43.21.84.44,1.24.68l.54.35.25.18c.12.09.3.23.07,0,.34.28.68.57,1,.88l.41.45c.06.07.12.15.19.22s-.15-.22,0,.06a12.52,12.52,0,0,1,.68,1.1c.05.09.09.19.14.28s.15.35.07.15,0,.1.05.15a2.42,2.42,0,0,1,.12.35,9.4,9.4,0,0,1,.34,1.39c0,.09.07.53,0,.18l0,.37c0,.26,0,.51,0,.77s0,.45,0,.68,0,0,0,0,0,.25-.07.37-.09.4-.15.6l-.12.34c-.05.16-.14.33,0,.06a7.77,7.77,0,0,1-.61,1.09l-.17.24c0,.07.19-.21,0,0s-.3.36-.47.53a11.13,11.13,0,0,1-.95.87c-.12.1-.23.18,0,0l-.26.19c-.19.14-.39.27-.59.4a21.77,21.77,0,0,1-2.55,1.41c-.47.23-.94.45-1.42.66l-.67.29-.34.14-.15.06c-3.7,1.56-8,2.95-10.76,6-3.17,3.46-3.28,8.36-3.66,12.77,0,.25-.05.5-.08.75s0,.25,0,.37,0,.47,0,.3,0,.17,0,.22,0,.28-.07.42l-.15.77a13.74,13.74,0,0,1-.4,1.43l-.12.33c-.05.13-.14.32,0,.08-.11.25-.23.5-.36.74s-.24.41-.38.6-.13.2-.2.3.11-.13-.11.13a10,10,0,0,1-1.14,1.12c-.23.18-.07.05,0,0l-.17.12-.35.24a8.77,8.77,0,0,1-.84.49,10.22,10.22,0,0,1-1.71.75,15.85,15.85,0,0,1-2.24.63,6.92,6.92,0,0,1-1.64.18,12.86,12.86,0,0,1-2-.09l-.2,0-.45-.09c-.32-.06-.64-.14-1-.22a19,19,0,0,1-6.75-3.63,30.5,30.5,0,0,1-5.63-6.09A31.79,31.79,0,0,1,201,245a20.9,20.9,0,0,1-1.44-3.39,18.36,18.36,0,0,1-.8-3.35,1.51,1.51,0,0,0-1.84-1.05,1.54,1.54,0,0,0-1,1.85,23.35,23.35,0,0,0,2.5,7.38,34.1,34.1,0,0,0,5.12,7.33c3.83,4.21,9.13,7.86,15,8a15.75,15.75,0,0,0,8.49-2.43,10.51,10.51,0,0,0,4.38-5.68,27.79,27.79,0,0,0,1-6.6c.05-.56.09-1.12.15-1.68q0-.42.09-.84c0-.11,0-.39,0-.12,0-.15.05-.3.07-.45a16.46,16.46,0,0,1,.87-3.38c0-.08.15-.37.05-.14,0-.13.11-.25.17-.37.13-.28.27-.56.42-.82a5.69,5.69,0,0,1,.33-.52c.05-.08.12-.16.17-.25-.23.33,0,0,.09-.09a9.59,9.59,0,0,1,.94-1l.49-.41c.2-.17-.2.14.08-.06l.31-.23A29.62,29.62,0,0,1,242,233.9l.15-.06.34-.15.8-.33,1.48-.62c1.05-.44,2.09-.88,3.11-1.38a16.91,16.91,0,0,0,4.91-3.37,8.83,8.83,0,0,0,2.43-5.6,10.78,10.78,0,0,0-1.54-6.12c-2.2-3.55-6.3-5.28-10.18-6.3a102.83,102.83,0,0,0-14.07-2.16l-1.72-.21-.85-.11H227l-.19,0-.45-.06c-1.07-.15-2.13-.32-3.19-.52s-2-.42-2.94-.7c-.44-.12-.87-.26-1.3-.42-.19-.06-.37-.14-.56-.21s.18.09,0,0l-.31-.14c-.34-.16-.68-.34-1-.53l-.45-.29-.24-.17c-.28-.19.19.16,0,0a1.56,1.56,0,0,0-2.12,0,1.52,1.52,0,0,0,0,2.12Z"/><path class="cls-1" d="M241.59,283.92c-1,6.26,1.89,13.51,8,16.16a9.12,9.12,0,0,0,8.44-.16,15.88,15.88,0,0,0,5.39-6.4,62.85,62.85,0,0,0,3.6-8.79,1.5,1.5,0,0,0-2.9-.8c-.38,1.11-.77,2.21-1.18,3.31-.49,1.3-.86,2.2-1.43,3.41a27,27,0,0,1-1.91,3.45,11.23,11.23,0,0,1-2.2,2.58,5.88,5.88,0,0,1-2.42,1.29l-.32.06c-.25.05.37,0-.05,0a7.12,7.12,0,0,1-.8,0,6.17,6.17,0,0,1-1.86-.3,10,10,0,0,1-5.66-4.53,12.54,12.54,0,0,1-1.64-4.18,9.89,9.89,0,0,1-.25-2.15,9.77,9.77,0,0,1,0-1.21,9.1,9.1,0,0,1,.1-1,1.54,1.54,0,0,0-1-1.84,1.5,1.5,0,0,0-1.84,1.05Z"/><path class="cls-1" d="M111.88,228.11c2,6.41,6.33,12.74,13.05,14.68a15.64,15.64,0,0,0,10.21-.67,17.64,17.64,0,0,0,10.69-19.07A1.52,1.52,0,0,0,144,222a1.54,1.54,0,0,0-1,1.85,13.7,13.7,0,0,1-1.51,8.68,14,14,0,0,1-6.37,6.37,15.5,15.5,0,0,1-4.46,1.37,12.27,12.27,0,0,1-4-.16,13.38,13.38,0,0,1-6.86-4,21.92,21.92,0,0,1-4.92-8.78c-.56-1.84-3.46-1.06-2.9.8Z"/><path class="cls-1" d="M162.75,88.38c7.88-3.13,3.62-18.47-3.92-13.3-3.3,2.26-4,15.62,3.8,13.37Z"/><path class="cls-1" d="M94.06,88.38c7.89-3.13,3.62-18.47-3.92-13.3-3.29,2.26-4,15.62,3.8,13.37Z"/></svg>